/* XPM */
static char *background1678133715[] = {
/* columns rows colors chars-per-pixel */
"64 64 235 2 ",
"   c #060807",
".  c #02070A",
"X  c #040B0D",
"o  c #080D0E",
"O  c #050D12",
"+  c #090E13",
"@  c #0B0F18",
"#  c #041315",
"$  c #0A1215",
"%  c #05141B",
"&  c #0C151B",
"*  c #051A1B",
"=  c #0C1A1D",
"-  c #001813",
";  c #11151D",
":  c #11191E",
">  c #121617",
",  c #07211D",
"<  c #0C1620",
"1  c #061D22",
"2  c #0D1C23",
"3  c #0C1E2A",
"4  c #041620",
"5  c #121C23",
"6  c #121E29",
"7  c #181A25",
"8  c #042324",
"9  c #0B2324",
"0  c #032925",
"q  c #0D2B26",
"w  c #0C242A",
"e  c #052C2C",
"r  c #0C2B2D",
"t  c #062729",
"y  c #132226",
"u  c #1A2126",
"i  c #13232C",
"p  c #19242C",
"a  c #132A2C",
"s  c #1A282F",
"d  c #102A27",
"f  c #0C312C",
"g  c #02382B",
"h  c #13312E",
"j  c #0C2332",
"k  c #0D2D32",
"l  c #0B2E35",
"z  c #152532",
"x  c #192634",
"c  c #142B33",
"v  c #1B2B34",
"b  c #162C39",
"n  c #1C2D3B",
"m  c #1A2738",
"M  c #0C3333",
"N  c #0C3935",
"B  c #0F353D",
"V  c #0C393A",
"C  c #063735",
"Z  c #133335",
"A  c #1B3136",
"S  c #14333B",
"D  c #1C323D",
"F  c #143A3C",
"G  c #193A3C",
"H  c #143834",
"J  c #212D36",
"K  c #212E3C",
"L  c #22333D",
"P  c #29333F",
"I  c #06423E",
"U  c #15443D",
"Y  c #1D2E41",
"T  c #0D3942",
"R  c #143542",
"E  c #1E3342",
"W  c #133B41",
"Q  c #1C3A44",
"!  c #1D3C4A",
"~  c #1D334A",
"^  c #222E40",
"/  c #223444",
"(  c #2A3445",
")  c #233945",
"_  c #2B3B46",
"`  c #23354A",
"'  c #29364B",
"]  c #253B4B",
"[  c #2A3C4C",
"{  c #313F4C",
"}  c #253C52",
"|  c #2B3E53",
" . c #253F5A",
".. c #303F54",
"X. c #0A4541",
"o. c #054642",
"O. c #144243",
"+. c #1B4144",
"@. c #1D434B",
"#. c #144C4B",
"$. c #184549",
"%. c #1B4C52",
"&. c #194A54",
"*. c #195656",
"=. c #18534D",
"-. c #23424C",
";. c #2B414E",
":. c #23474B",
">. c #254353",
",. c #2C4253",
"<. c #244B53",
"1. c #2A4A55",
"2. c #2D445B",
"3. c #2E495D",
"4. c #244D5D",
"5. c #324454",
"6. c #344857",
"7. c #32455B",
"8. c #344A5C",
"9. c #394B5C",
"0. c #3C4759",
"q. c #225055",
"w. c #295257",
"e. c #2C525B",
"r. c #245A5C",
"t. c #26595D",
"y. c #3D505F",
"u. c #30424E",
"i. c #0C665B",
"p. c #1E576B",
"a. c #2D4862",
"s. c #334461",
"d. c #334C63",
"f. c #3A4E64",
"g. c #354E69",
"h. c #394F6C",
"j. c #2E5362",
"k. c #2B5B62",
"l. c #225B66",
"z. c #355265",
"x. c #3B5263",
"c. c #325C63",
"v. c #36516B",
"b. c #3A536B",
"n. c #3D596F",
"m. c #385E69",
"M. c #3C5572",
"N. c #3E5A74",
"B. c #3D5679",
"V. c #3F597C",
"C. c #3A4E71",
"Z. c #296363",
"A. c #3A646C",
"S. c #37666A",
"D. c #3B6673",
"F. c #397075",
"G. c #425365",
"H. c #42566B",
"J. c #455B6D",
"K. c #495B6D",
"L. c #405571",
"P. c #425B74",
"I. c #445D7C",
"U. c #485A70",
"Y. c #466177",
"T. c #46617C",
"R. c #4A637B",
"E. c #4B697A",
"W. c #50647B",
"Q. c #44737C",
"!. c #4D787D",
"~. c #487479",
"^. c #59767A",
"/. c #465E80",
"(. c #466183",
"). c #4B6482",
"_. c #4D6B84",
"`. c #4D678A",
"'. c #4E6A8B",
"]. c #526B83",
"[. c #526C8B",
"{. c #546A88",
"}. c #4D7483",
"|. c #4A7887",
" X c #55718E",
".X c #5A728D",
"XX c #547A87",
"oX c #556F91",
"OX c #567393",
"+X c #5B7593",
"@X c #5D7995",
"#X c #597698",
"$X c #5E7B9A",
"%X c #567897",
"&X c #617A96",
"*X c #627C9B",
"=X c #687F9E",
"-X c #5E7DA0",
";X c #607EA0",
":X c #54828C",
">X c #5B858D",
",X c #568087",
"<X c #5C829B",
"1X c #578496",
"2X c #4C8690",
"3X c #64868C",
"4X c #64829E",
"5X c #65899D",
"6X c #678A97",
"7X c #79979E",
"8X c #6583A2",
"9X c #6A86A3",
"0X c #648AA4",
"qX c #6B8AA4",
"wX c #658AAB",
"eX c #6C8CAB",
"rX c #6585AA",
"tX c #718AA7",
"yX c #7694A9",
"uX c #668EB2",
"iX c #6D91B4",
"pX c #6F95BB",
"aX c #7393B4",
"sX c #7898B9",
"dX c #799BC1",
"fX c #7FA8C6",
"gX c #869FBD",
"hX c #87A2BF",
"jX c #8AACCB",
"kX c #84A5C9",
"lX c #93B6D4",
"zX c #92B0CD",
"xX c #9DBFE2",
"cX c #A3C8E9",
"vX c #A8CFF0",
/* pixels */
"& = 5 5 6 v v y s p p z v m n J / A E / ( [ ' ,.>.3.x.z.P.R._.|..X&X.X+X.X@X8XaXfXcXcXkXdXdXuXuX-X-XuXrX1XqXyXtX3XyX^.7X6X!.~.#.",
": 5 7 7 y s v a p p v J L J J n n D / ) / [ ] ,.-.>.z.v.L.R.R.}..X.X+X+X@X&XeXsXjXvXcXkXdXdXuXuXuXuXwXwX0X5XqX5XXX3X3X3X7X~.!.w.",
": 5 p p p a A A c s v L L n n n K L ] ) ] ] ) ] -.<.1.z.h.P.P._.]..X+X+X@X*XeXsXzXvXxXkXdXuXuXuXwXiXwXrXeX5X1X5X>X:X>X,X6X!.A.w.",
"5 5 i v s c L L A c v v A n m / A D ) ! @.-.) ) -.w.c.z.d.H.L.I.E.{..X.X@X4XeXsXlXxXlXgXuXdXdXrXrXuXrX8XtX5X<X0X:X,X!.~.F.~.S.S.",
"5 5 p v v z v n ) A b A L n n E D n E F @.<.-._ <.c.A.z.d.v.L.L.I.).{.oX+X&XeXsXzXlXjXsXaXaXiXrX0XwXeX9X8X0X0X0X^.!.!.~.!.~.S.r.",
"6 6 v v n v A A L A b D / n n D L n ] -.e.w.-./ -.e.S.4.d.f.N.L.U.R.W.oX+X@XeXsXjXzXgXsXaXiXiX9X0X0X8X8X;X9XeX4X>X!.~.F.A.Z.Z.=.",
"p p c m n L P L G A A ) ) n n n E n _ -.e.q.@.) @.<.e.3.j.b.b.L.L.P.R.{.+X@X8XaXgXgXsXaXeXeXeX;X4X4X8X8X*X8XqX4X2X~.>X>XE.S.S.Z.",
"v v v v v n L A G Q Q _ ] E D / / b n v :.$.:.;.1.3.e.k.z.n.z.n.n.P.I.{.oX+X$X9XyXgXaXeX9X;X9X;X4X4X4X*X8X8X4X=X2XF.1X6X5X@X~.c.",
"A p p J n D / n J L L :.E m K J J / ] Q >.-.e.-.w.<.w.1.8.8.s.G.b.N.).oX.XoX&X=XtXtX9X9X8X=X=X=X*X&X*X;X<X$X<X8X2X<X1X2X|.:XA.@.",
"w z x x x / [ / L b -.Q G -.D D b D Q A b n ] >.c.w.w.,.2.7.s.7.f.b.R..X+XoX+X;XtXtX;X*X&X*X*X&X&X&X*X*X*X$X$X;X}.1X|.}.|.2XQ.k.",
"c v m x n _ [ / G ) G ) G Q -.! b ) n L x ^ ) -.%.%.c.8.,.} 7.7.s.f.U.+X&X.X+X;X9X9X=X#X&X=X9X4X*X&X&X&X&X*X*X*XOX[.%X0X%XF.D.}.",
"D J J n D E Q E n E c G L c -.@.S D z v x K / -.S.1.>.[ [ | ..| s.f.L.).+X+X+X;X5X9X*X#X*X9XtX9X;X&X&X&X&X&X#X&X@X+X$XwX0X%X|.|.",
"i x m v D Q Q ) ' z S b P v n :.n n i i 6 c +.q.S.<.-.` | ' | } 7.s.h.U.oX&X&X*X=X=X$X@X$X9X9X=X4X*X&X+X+X&X+X&X#X-X-X-X0XeXeX5X",
"+ < < 5 A ,.,.] ( n ! Y L 6 2 S v v i i c L w.r.>.! -.[ 5.' ' 7...7.s.C.).oX+X+X&X@X@X#X$X=X*X&X&X&X+X+X+X#X+X+X-X#X-XeX8X%X@XqX",
"O + O & D <.1.<.Q ] ~ ~ R l w 2 z z i i A L ;.@.;.) Q R | 2.} | ' | ..g.L./.{.oX+X#X+X#X#X#X@X+XOX.X+X.XOXOX#XOX%X%X#X$X4X4XXX_.",
"$ @ @ 6 S R ! 3.*.] | } &.F.c 7 c A A i i a / Q n [ / R |  .} ..' ` ..s.s.L./.{.+X[.OXOXOXoXoXoX X+X+X#XOX#XOXOXoX-X*X@X$X%X}.n.",
"+ X & J m / ) b W 2. .p.p.l.-.7 ! -.c y & v L ` n | / n ] 6.5.} ' ^ ' } | s.C.B./.`.(.`.oX`.'.{._.OX@X+X+X+X#X#X#X-X-X#X#X@X@X/.",
"+ + < J z x b w D @.&.a. .j x c @.) p = = v ) [ S Q ) E ) D ^ ..' ^ Y ^ } s.C.V.V.(.(./.(.).'.`.'.[.[.oX@X&X&XOX#XOX-X#X#X+X[.I.",
"@ @ 5 v i v v v v Q O.S x ; 7 i p a 2 = 6 A E Q F e.e.R b ] ' ' ` ` ~ ` | s.C.V.B.M.I././././.I.'..X&X&X+X@XOX%X#XOX-X-XOXOXOX_.",
"> > 5 v 6 y y s c D a 2 2 v p 5 2 = & 5 p v n Y +.;.-.S n / ` / ` ` } } } s.M./.'.C.C.M.M.B.B./.).{.+X.XOXoXOXOX#X#X#XOXOXOXOX[.",
"& $ y P v 9 & & r p 5 u d h y u 5 : & = i p b E / v z m / ^ Y ` } ^ | | ~ } /.'.).g.g.C.M.B.M.I.I.I.(._.{.oXOX'.%X@X#X%X%X X'._.",
"$ $ y P L p 9 : 2 = y 5 d , = 9 > & & $ 6 y c n p m x m n / / n ` ^ ] } m ` C.I.P.N.N.N.M.P.M.M.V.I.I.I.(.).'.OXOX+XOXOX%X X'.{.",
"> & 2 c c i 2 : = 2 i * y u = = : < 5 6 x i x m z 6 x n n n n n / / ` / Y ~ 2.M.T.T.N.M.N.n.N.N.M.N.T.Y.N.N.(.oX_. X_.)._.'.).).",
"+ ; 2 v z a 6 2 2 w i i 6 s 7 u p 6 i 6 v i z z w z x m m Y ^ ^ ^ ` / n ~ ` 2.N.g.M.v.T._.P.z.a.z.d.z.v.n.n.D.D.M.T.P.N.I.P.M.b.",
"$ y s q w p w 2 r z 3 6 5 6 6 x x i i w z 3 z z 3 z m m n n n K ^ E E / ` ^ 2.B.D.M.2.a.z.d.d. .2.d.z.d.v.d.d.b.z.v.b.h.b.b.h.d.",
"# = s c a a 2 1 w w 2 2 6 i p x p i 3 z z 3 3 z z z m m m n K m Y ^ E ~ Y Y } s.V.b.2.2.2.| s.s.2.a.d.d.b.v.z.g.h.d.v.v.h.h.h.d.",
"O & y A v p 2 * % 2 2 < i v D b x z z z z j j z z z m m m m m m n Y n Y ^ ` `  .d.a. .| | | 7...7.2.3.g.v.b.v.j.d.d.h.d.g.g.h.h.",
"+ $ = a p 9 * = % * 3 2 b n D b b v x m m x x b z x z x x m x x m m m b ` ' } } 2.2.| 2.| | | | 7.| 1.z.d.z.n.b.z.d.d.d.g.C.M.M.",
"+ $ 2 y 6 2 * 4 * * 9 w n n n n m m m n n m m z x m m z m m x z m z m m ^ ^ ` | 2.2.} | | | | | | | ,.a.3.a.v.v.d.d.a.d.h.C.M.M.",
"+ & 2 y 2 2 1 1 2 * 2 p L n b n n n n n n n m n m z z z m m b m m x x m ^ ^ Y } 2.} | ..7.5.} } 2.| ,.3.a.j.z.d.d.7.2.d.h.C.C.v.",
"+ & 2 2 2 3 3 w 9 9 8 c A m b ^ n E n Y E Y n Y m m z b b n m b x x 3 x K ^ Y } } ~ 2.s.7.s.| ,.2.3.3.3.d.d.3.a.d.3.3.d.x.v.v.d.",
"$ & = 6 2 4 3 j t 9 1 a c v z K Y n E / Y Y Y Y Y m b m n Y n b z x z z K ^ ` ~ 2.} 7.7.s.7.} | 2.3.a.2.2.>.,.d.d.8.d.f.v.v.g.d.",
"$ # p 2 = & 9 = r 8 t A z ` ] / / E n Y / n n Y E Y n n Y D n E m m z z b n ^ ) } 4.a.d.a.3.2.7.2.>.2.2.2.2.>.2.d.f.d.n.L.L.b.x.",
"& & q 2 3 = 2 9 r a q w b } ' ] ) E E n n Y / n R Y n Y n n n n m n b z m K / ] 2.d.g.g.g.s.s.7.2.2.a.a.8.3.3.3.d.v.v.P.N.L.b.b.",
"# , q 2 w 2 1 r q b 9 3 n } E [ / ] E n n / Y n m n n n E n D E n n b b m K Y ` a.d.v.v.g.a.a.s.a.d.d.d.z.z.9.3.s.H.L.Y.P.P.n.n.",
"# 9 q 9 q 9 r k q Z q 3 D ' / [ [ / Y n n / / ^ Y n Y S n n n E Y E n b n n ~ ` a.d.j.a.d.a.a.a.v.v.v.d.z.z.d.1.f.H.P.R.P.P.L.L.",
"o - q 9 w w G Z r Z a 9 b / / ( ) D n / / / n / E n D E n R n ^ E E R Y ^ Y Y ` 2.d.d.a.g.g.d.s.b.M.v.d.d.d.8.,.x.H.P.P.B.Y.R.Y.",
"= , q d q 9 F M S r a w z E ` [ [ / / ] [ / / / / D n E D E E / D ~ Y Y ^ Y Y ] } 2.d.d.v.v.h.g.v.n.b.f.z.d.8.} d.x.n.n.n.].].Y.",
", d d d a 0 N C F e M w b E ) _ [ / / [ [ [ / / / n S R E E E E D E Y ~ ` ^ ` >.} 3.d.d.g.v.g.d.d.v.v.d.d.s.7.7.} d.m.N.n._.E.b.",
"- d q q H e V V Z f c r D ~ E / [ [ ) ] [ [ / / E D n E Q E / E D ~ ~ } ' } >.3.} 3.d.a.d.g.d.s.2.a.d.2.7.2.s.s.' d.Y.Y.n.E.N.] ",
"$ > & S O.C k c N e A S @.@.R 0.0.5.9.6.5.[ 6.,.,.Q A c n n ` ` / ] [ 2.,.} -.! ] ] ,.2.d.2.7.d.U.W.b.P.n.b.P.J.) 3.&X.X9.P.;.] ",
"- $ Z i.i.o.e C U M l R $.&.R ,.y.5.9./ m _ D -.Q ! ] b E ) 7.7.[ 3.7.8.7.8.9.1.,.8.x.2.2.| d.U.].U.h.W.E.W.E.P.x.9.b.H.} ,.:.x.",
"d * f X.*.=.I I $.U F B &.#.%.@.;.-.) Q b Q Q Q D n m b / ,.7.} ] 9.8.} | ,.,.[ 6.8.8.,.,.] [ | d.7.| G.W.W.J.W.XXx.Q 9.,.E +.-.",
"$ - t D W #.O.+.V F l @.&.l.t.t.] -.S / E E Q Z n D / [ ] ` ) ) E 5.5.` | ,.5.5.5.5.5.,.f.9.7.| d.b.s.0.G.K.f.K.J.y.~ 5._ S :.<.",
"a 9 e X.I C A W M Z Z W 1.%.l.*.@.R ] R S R E ] _ [ / / ) / Q Q ) ,.[ ` } [ | 5.6.6.9.9.H.G.G.H.R.H.H.6.^ 9.G.7.6.,./ ;.;.-.-.<.",
"H I C U V C k 8 Z H t S Q +.W T @.@.%.>.-.n ) 5.;._ D n D -.! D ) -./ ] [ | | 5.9.8.9.9.9.5.6.9.J.K.K.{ i 9.K.G.y.;.) ) 1.<.F +.",
", g N 5 < 8 l A t f e w F Z W $.&.l.*.k.q.S ) E A ) L E b ) ) +.G Q D ] 5.7.9.0.| 5.5.| 8.5.,.5.7.U.G.K 3 / 6.8.6._ ) R ! ! F <.",
", , M f c r 8 c f U F Z c k M %.&.#.*.*.&.@.D m i i j A Q :.F N ) ! E ) ' | 5.[ | ,.,.] } [ } ,.2.0.5.( i ) 1.] ) / ) Q <.>.B ] ",
"> - 0 N V Z D M c t M U N G k A r.#.Z.#.@.-.D c z 4 4 a ( A s p w v v ) [ / / [ ] / / / / [ [ 5.7.6.[ J x m ] ,.[ ] ) D S ! Q <.",
"q - , r F F S c e Z , a q w c M C X.*.F l E J z A c c p c 2 9 6 i i i m [ [ 5._ _ _ ] ;.[ | | 7.[ / / K m z D { 7./ b n Q >.! T ",
"U f A 9 8 D c w 8 G r e G M w Z S D Q b 3 6 6 5 c a c s v v x i v ) / / ( / ) / ) [ _ ,.,.6.5.7.) D n n K J n m n z a b ~ ! @.T ",
", 0 f 8 8 i r 0 2 b Z f F S k a A n S b i 6 6 v p i i i J / J z p P _ [ / / / ) Z E / / / [ | ' [ [ ' J x i v J / J v a b R 2.! ",
"# - , H H w a Z C e t A c Z S.F w j ) q i i p a 2 w 2 6 2 p p v 2 2 3 z / ( / D A v L b / / [ / / E ;.6.{ x 5 6 s p 5 = 3 j E k ",
"> $ - , N 0 Z b Q F k t q w R e j w D w c p 2 9 2 6 5 6 2 i i p 5 & & 2 J K x p c 9 i p E z n / [ Q / / { ( L v 7 = : 5 y p A i ",
"O $ = : h M G S c M S t S S w n b w w 2 s 5 < 6 p p 9 i 6 i 2 & 5 5 6 < 6 p 6 u 2 * 2 a p w z ~ Y ] ,.[ [ [ _ L v p 7 5 < 6 j z ",
"X - * # & 2 c W B r a a 3 3 b j n ) i 2 & @ ; 5 y i 2 2 & y 5 : = 6 u < 5 6 5 < # p p P x L / [ } ,.7.} [ / D n / v v J K / 3 6 ",
"o . X # X X 9 A Z c k w 2 2 2 5 2 i p i & $ + & 9 7 6 2 & & 5 = = y & $ 5 : ; & 4 < n [ _ / n ;.8.s.8.| / n v v m p p v b Y ` ` ",
"o . . X O # # * w r c r 3 2 2 5 x % % u u $ O & & & & & & & & $ $ y = & 5 & & < % 6 J K / D n ] 8.,.] ] [ 5.;.;.J 6 6 s L / / P ",
"+ . . o # o X O % 2 a p 3 < & 2 i $ O & u 7 & & < 2 & & & & > : + 7 : & 5 & & % 4 < p p p v n / [ 5.,._ / / _ ,.5.{ v 2 5 7 p 7 ",
"O X X $ o X o $ # = y y 2 < 5 < & & @ O & s s < 6 7 u 6 & & : 7 = u & & $ < < % @ O @ & 6 6 z K ` / / / / ] ` ` ' [ P p v J p 5 ",
"X X X X X o $ & = = = = 5 5 5 < ; & $ o @ 5 6 < & 5 u u 5 : : : 9 d & # O < 5 @ + + @ ; 7 p 6 v L / / E / E ] ,.,.;._ ;.{ K 7 5 ",
"+ X X X o o o & $ $ + + $ ; & & & $ + + > ; < & & & ; 5 & > @ + 9 s 9 6 @ 5 7 ; @ > ; 5 7 p i 6 _ / D / | 5.} [ } [ ) ( / J m m ",
"o X   X X o # $ $ $ X o o + $ & + @ + o @ : 5 @ 5 & $ & $ @ o + y A p p : p 7 7 + > @ @ 5 5 2 6 / ) [ ,.;.[ 5.8.' u._ L x x x 5 ",
"          X o & & & $ o X + + 2 > @ + + + @ > > & ; ; : : $ $ > # > + $ O 6 5 % : @ @ > 5 6 y L 9.u./ [ [ 5.,.[ K x u 6 x K P J "
};
