/* XPM */
static char *ed1c5e3e40e4454bd180458b312329327bOMgsEv7MOp75AI[] = {
/* columns rows colors chars-per-pixel */
"64 64 254 2 ",
"   c #040B0D",
".  c #05090A",
"X  c #050D12",
"o  c #090E12",
"O  c #041314",
"+  c #0B1215",
"@  c #06151C",
"#  c #0C151B",
"$  c #0C1A1D",
"%  c #051A1A",
"&  c #11161C",
"*  c #12191E",
"=  c #111416",
"-  c #07211D",
";  c #0E1620",
":  c #0D1C23",
">  c #0C1D2B",
",  c #061C24",
"<  c #131C23",
"1  c #131E29",
"2  c #171923",
"3  c #0C1B32",
"4  c #111F35",
"5  c #032324",
"6  c #0B2424",
"7  c #0C242A",
"8  c #0D2B2C",
"9  c #072B28",
"0  c #152126",
"q  c #192226",
"w  c #14232C",
"e  c #1A252B",
"r  c #142A2C",
"t  c #1C292D",
"y  c #112927",
"u  c #0A322C",
"i  c #0C2E31",
"p  c #0B2933",
"a  c #152532",
"s  c #1A2632",
"d  c #142B33",
"f  c #1C2B34",
"g  c #172D39",
"h  c #1C2D3B",
"j  c #1A263A",
"k  c #0C3333",
"l  c #0B3837",
"z  c #133335",
"x  c #1B3135",
"c  c #13343A",
"v  c #1C323C",
"b  c #143B3D",
"n  c #1A393C",
"m  c #14312E",
"M  c #23292C",
"N  c #212D34",
"B  c #212E3B",
"V  c #292F36",
"C  c #233036",
"Z  c #24343C",
"A  c #2B343B",
"S  c #2B393E",
"D  c #293538",
"F  c #343434",
"G  c #3C3C3D",
"H  c #34393B",
"J  c #4C3429",
"K  c #473C38",
"L  c #4D372E",
"P  c #16443D",
"I  c #06423E",
"U  c #192C45",
"Y  c #1E3342",
"T  c #1C3B45",
"R  c #173845",
"E  c #122D50",
"W  c #233543",
"Q  c #243A44",
"!  c #2B3B44",
"~  c #243749",
"^  c #253B4A",
"/  c #2A3C4C",
"(  c #2A3545",
")  c #343D43",
"_  c #2C3E52",
"`  c #243954",
"'  c #273449",
"]  c #1B3275",
"[  c #283D6A",
"{  c #094542",
"}  c #1D434B",
"|  c #174446",
" . c #1C4B55",
".. c #165452",
"X. c #2E4147",
"o. c #23434C",
"O. c #2E424C",
"+. c #22484C",
"@. c #32454C",
"#. c #3A4548",
"$. c #2C4353",
"%. c #254C53",
"&. c #294A55",
"*. c #2D455B",
"=. c #2D4A5C",
"-. c #244553",
";. c #324454",
":. c #344A54",
">. c #3A4C54",
",. c #32455B",
"<. c #334B5D",
"1. c #394B5C",
"2. c #2B535B",
"3. c #275759",
"4. c #3B525C",
"5. c #3C5759",
"6. c #0C665B",
"7. c #344C63",
"8. c #3A4E64",
"9. c #364E6A",
"0. c #374B69",
"q. c #2C5963",
"w. c #355165",
"e. c #3C5364",
"r. c #37526A",
"t. c #3A536B",
"y. c #3E596F",
"u. c #375C66",
"i. c #3C5473",
"p. c #3E5973",
"a. c #395377",
"s. c #244D65",
"d. c #38656A",
"f. c #3B6374",
"g. c #3C6773",
"h. c #356D70",
"j. c #1F576C",
"k. c #444444",
"l. c #4A4B4B",
"z. c #45484A",
"x. c #464D53",
"c. c #4C5254",
"v. c #43545D",
"b. c #4B555A",
"n. c #475358",
"m. c #58595A",
"M. c #504F4E",
"N. c #425A64",
"B. c #445E6C",
"V. c #465869",
"C. c #535F67",
"Z. c #415672",
"A. c #425B74",
"S. c #435D7B",
"D. c #4B5C73",
"F. c #434F66",
"G. c #45616C",
"H. c #4A626B",
"J. c #59646B",
"K. c #466273",
"L. c #4B6573",
"P. c #4C6975",
"I. c #4A637B",
"U. c #48667B",
"Y. c #52647B",
"T. c #526D7B",
"R. c #5A6C77",
"E. c #49757B",
"W. c #55727D",
"Q. c #63696C",
"!. c #636D76",
"~. c #69747A",
"^. c #75787B",
"/. c #253D86",
"(. c #354D92",
"). c #3954A5",
"_. c #3F6B84",
"`. c #475E82",
"'. c #4A6483",
"]. c #4C6B84",
"[. c #4E6A8A",
"{. c #476181",
"}. c #526D8B",
"|. c #526C83",
" X c #4A7686",
".X c #557482",
"XX c #5A7886",
"oX c #55718E",
"OX c #5A738D",
"+X c #5C7B8A",
"@X c #577986",
"#X c #567393",
"$X c #5B7594",
"%X c #5D7995",
"&X c #5A7698",
"*X c #5D7B9A",
"=X c #567897",
"-X c #527095",
";X c #697A86",
":X c #737C84",
">X c #617A96",
",X c #637D9A",
"<X c #677C95",
"1X c #5D7CA1",
"2X c #546FB0",
"3X c #607EA0",
"4X c #57838B",
"5X c #5A8398",
"6X c #4C8690",
"7X c #66858D",
"8X c #798388",
"9X c #64829E",
"0X c #688799",
"qX c #788A95",
"wX c #78959D",
"eX c #6583A2",
"rX c #6B86A3",
"tX c #648AA4",
"yX c #6C8AA4",
"uX c #6B8BAB",
"iX c #6689AB",
"pX c #7388A8",
"aX c #7894A9",
"sX c #678EB2",
"dX c #6D92B6",
"fX c #7696B7",
"gX c #5E89B1",
"hX c #6698C6",
"jX c #799CC1",
"kX c #7CA3C4",
"lX c #838B91",
"zX c #8A9398",
"xX c #90999F",
"cX c #81878D",
"vX c #8799A4",
"bX c #949DA9",
"nX c #9BA3A9",
"mX c #87A1BE",
"MX c #98AABC",
"NX c #A5A9AC",
"BX c #A5ACB3",
"VX c #B0B5B8",
"CX c #85A8C9",
"ZX c #8BB5D5",
"AX c #94B9D7",
"SX c #92AFCB",
"DX c #B3BBCD",
"FX c #90A9D2",
"GX c #A3C8E9",
"HX c #ADCEE9",
"JX c #A9C3D3",
"KX c #C4C7C9",
"LX c #CDD1D8",
"PX c #D0D6E3",
/* pixels */
"# $ < < 1 f t 0 a t w s f h h B W h W Q ' / ' $.$.=.e.r.S.I.]. XOX>X>XOX$X%XeXfXkXGXGXFXhXjXsXsX3X3XsXiX5XyXaXpX7XaXW.wXqXE.h.P ",
"* < 1 < w t f r f w f B Z B B B Z v Y Q ' / / $.+.&.7.r.Z.I.U..XOX+XOX$X$X>XyXfXZXHXGXCXjXdXsXsXsXsXuXiX0XtXyXyX4X4X7X7XwXE.E.3.",
"2 < 1 e w f x Z w a x W B B h B B v ^ o.^ ^ ^ ^ o.%.=.w.r.D.S.|.|.OX$X>X%X,XuXfXZXHXAXCXjXjXdXsXiXdXiXrXaX9X5X0X6X4X4X4X7XE.E.3.",
"; 2 1 N w f x v x f f x h h h Y B v Q T } o.^ ^ +.2.u.w.7.Z.Z.S.'.|.OXOX%X*XuXmXFXGXAXmXdXdXdXuXiXuXiXrXuXeX5XtX4X4XE.E.h.E.d.d.",
"< 1 e j f a f x Z v g x W h h W v h Y R  .+.o.^ %.u.f.w.7.r.Z.Z.`.-XDXLXDXPXSXfXFXAXCXfXdXfXdXiXiXyXuXrXrXyXyXtX4XW.E.E.4XE.h.3.",
"1 1 e h f h h x Q v f v W v h h Z h / o.2.2.$.Q +.2.d.=.w.r.Z.Z.'.DX`.).).).mXSXSXFXmXfXfXfXpXrXtXeXrXeX9XrXyXtX7XE.E.h.d.q.3...",
"e w f g h W Z Z n v v Q Q Y h Y W h / o.2.%.o.Q o.%.2.2.w.t.y.B.PX2X`.).)././.DXmXCXmXdXpXiXuX3XeX9XeX3X,XeXrX9XE.E.4X4XE.h.d.3.",
"f f f f d h Z h n n Q / ^ Y h W T j B x +.} +.O.&.=.2.q.w.y.r.MXAXFXFXmX)././.3XvXfXpXpXrX3XrXrX9X9X9X3XeXeX9X,X6Xh.5X0X0X4XE.d.",
"x w e N h v W h V x Q +.Y h V h h W o.R $.o.=.+.2.%.2.&.7.<.8.HXAXAXAXAX1X/.] 3XpXpXpXiXeX,XeX,X,X,X,X<X,X*X5X5X6XtX5X6X6X4Xg.| ",
"w a s j j W / W v g Q T R o.h Z f Y W v g v / o.5.2.2.&.&.;.F.AXAXAXZXkXiX] ] bXpXpX3X,X,X,X,X<X,X>X,X,X,X*X9X9X X6X X X X XE.q.",
"d f s s g ^ / W T Q v o.n T o.T g Q h W j W ( -... .w.<._ _ D.,XkXAXiXa.1X` ` DXrXrX,X%X*X,XpX<X,X>X>X,X,X,X,X,X+XoX=XtX5Xh.f._.",
"h h B h h W W Y h T z Z Z x -.} v v a B s B Q o.d.%.&./ _ _ vXoX=XZX9.I.,X8.R.PXpXrX,X*X,XpXpXpX,X,X>X<X,X>X$X>X*X=X*XtXiX5X X X",
"w s s h v Y T T ' d R g W N g o.h h w w 0 d } %.g.%.-.^ _ _ NXdX-XhX$XkXeX<.!.PXaX<X,X*X,XrX3X<X9X>X>X>X$X>X$X>X&X1X3X1XtXuXyX9X",
"X ; ; 1 v $.$.^ ( h Q Y W 1 > v g f a w f v 2.3.o.T o._ ;.,.:XjXhXhXhXhX=XU F.LXKXaX%X%X*X,X,X<X>X>X$XOX$X$X&X$X1X&X3XiXeX=X9XyX",
"X o   ; v &.&.-.Y ^ ` U R c 7 : a s t 7 x Z O. .O.^ Y R _ ;Xm.fXhXhXhXgXa.E !.:XQ.KX%X&X&X%X&X$X$XOX$X$X$X#X&X&X&X&X&X*XeX9X@X].",
"o o # : z R T q...` ` `  .h.z 2 g x z r w a W T v ( ~ R _ NXJ.NXSXCXuX'.,.!.Q.C.c.KX&X&X&XoXoX#XoX#X$X%X&X&X-X#X#X*X,X*X%X=X Xu.",
"=   # h h W Q g R &.` s.j.q.} 1 T o.x : $ f W ^ v ;.Q f !.lXQ.bXBXBXNX:X!.c.) M.M.VX'.[.oX[.}.}.[.oX$X$X$X&X&X&X>X&X*X&X&X,X$XS.",
"o o < s 1 j d 7 Y } s.s. .p j f ^ ^ t $ : f W R.v.H.V.DXpX,.:XzXzXNXxXlXQ.x.G z.z.BX}.`.`.'.[.[.}.}.OXOX>X,X>X#X#X&X1X&X&X=X}.S.",
"# o 2 j 7 f h f f T | c j 2 2 w d w : $ 0 f W 8Xx.~.NXD.E [ cX^.m.!.bXzXC.c.k.x.b.NX>X`.`.`.`.S.|.$X$X>X>X$X=X#X&X&X1X1X$X#X#X[.",
"& = 1 s 1 0 w e d v a 6 : N s 2 : < * * t N W Q.A H H ) E 0.lXlXQ.l.^.cXQ.z.k.x.b.~.LXZ.Z.S.S.`.{.|.$X$X$X}.#X#X&X&X#X&X#X#X#XoX",
"# + 0 Z f > % # 7 w 2 q y m 0 q 2 2 $ * w f ;.Q.D G k.k.' Y.xXbXnXb.H #.c.k.k.) V 4 !.DXi.p.i.S.S.`.{.].}.oX-X}.$X=X%X=X#XoX[.[.",
"+ + 1 Z C t < < 6 ; q 0 q 6 6 6 = # # # 1 w KXc.C G l.l.x.Y.zX:XxXc.V V k.z.k.K F s 3 :XI.S.p.a.S.S.`.{.{.'.}.#X$X=X#X$X$XoX}.[.",
"= $ : f a w $ < ; 6 r , 0 0 < $ < $ < < f VX^.F D #.C.7XY.F.^.m.qX>.N V l.z.k.G F M 3 ( <Xp.A.A.p.p.I.K.S.f.'.-X].oX].{.].[.'.'.",
"o $ 6 f d a : : - 0 w w 1 s 2 q e e e 1 ! ^.m.z.F k.J.+Xb.L K K R.#.M F m.l.K K F M 3 j BXA.r.7.9.w.r.r.t.p.f.f.i.I.S.i.S.A.t.t.",
"+ 0 r 8 7 w w $ 8 d > 1 < 1 1 s a w r a V.m.m.m.k.k.J..Xk.J J K P.) D l.M.l.k.K F M 3 3 nX9.0._ *.7.0.w.r.r.w.t.7.r.t.9.t.t.9.7.",
"o ; r f a r 6 , > 7 > : 1 a s f a w 4 1 :XK K m.#.G T.T.L J J k.P.z.m.m.l.k.k.G F V 4 3 xX,.0._ *.=.7.0.t.r.7.w.7.r.r.9.9.t.t.0.",
"X + 0 f f w $ $ @ : 1 $ a f v g j j a a cXk.H F M H T.T.K J J N.P.m.m.l.k.k.k.G F >.~ 3 :X_ _ 0.7.*.=.r.r.t.r.r.7.9.9.9.0.0.0.0.",
"o O , t e 6 % , @ : : : f h Y g f s g g cXm.l.K q F e.W.K J G P.G.M.l.G F #.K F ) L.t.U ;X8._ _ _ _ =.w.w.w.i.r.7.7.7.7.0.i.i.a.",
"o # $ 0 6 ; % % % % : w x v h g g h h B ;XKX^.k.M S e.@Xb.K v.T.v.M F G k.k.K H 5.P.P.N.8XF._ _ _ _ *.=.s.=.r.r.7.7.,.7.9.i.i.i.",
"o # 1 : : : , , 6 % 5 t W h j Y g h h ~ bXKXVX:XN v.B.@X7X+X.XU.( V M.M.l.) ` y.G.K.&.4.R.;X_ _ 7._ *.7.7.7.0.w.7.*.*.7.9.i.i.0.",
"o # : w > : > > 6 6 , f v h d B B U ;.vXqXN.e.H.H.H.L. X X].E.4.s F c.x.[ s.a.A.e.O.W O.H.KX;X8.*.*.*.*.7.7.=.=.7.*.=.7.9.r.0.7.",
"+ # $ : > ; > p 7 6 5 a a f j W Y C.vXvXqX7X7XwXwX0XT.f._.f.4.Z t e 8.0.t.D.u.@.C N Z @.B.T.~.qXOX7.=.=.*.*.&.7.7.7.7.8.r.r.0.7.",
"# O 0 < ; $ < 6 i 5 8 v a / / ~ ;.qX5.v.H.R.0XvX+XP.G.>.N.4.Q t q e @.:.G.5.Z r * t D :.T.E.4.W VX*.*.=.=.$.*.*.<.9.7.y.p.A.9.9.",
"+ $ 0 , : % $ 6 8 r 6 7 g ` ~ ^ R.4.@.#.@.@.>.W.+Xe.X.@.@.! C C < q C C S x 0 0 0 N S G.W.L.Q C J.V.*.7.7.7.=.*.7.t.r.Z.y.Z.r.t.",
"O 6 y 5 r , , 9 8 z 6 6 h _ W $.^.O.X.X.X.X.@.>.P.H.X.o.! @.@.e * q e q e w 0 < * t @.W.+XN.Z C ( |.7.w.w.w.w.:.1.F.Z.I.A.Z.Z.V.",
"O - y 6 7 6 8 i 6 z 8 > h / W D.:.C C D S X.S X.N.W.e.:.:.:.C # * f e q t e 0 < 0 N e.@X@X@.Z t C ;Xr.7.7.w.w.*.7.Z.A.U.A.A.Z.p.",
"O % - y 6 7 n c r z r 7 g W ~ 8Xt t e M t v S Z #.T.T.P.P.X.Z ; N ! e e t w q 0 < Z L.+XT.! B e t qXt.7.7.w.,.` r.B.Z.I.p.L.I.S.",
"= - y y 6 6 n k b 8 m 7 a Y / ~.e t e t t d x t ! N.+XXX@X:.X.X.! N t e f e 0 < 0 ! T.+XB.Z N N W qXt.r.w.7.7._ <.w.t.B.y.].|.K.",
"- y y y k 9 l l b 8 z 7 h Y >.>.q e e e t t t t C @.P.T.G.@.C #.q e t t N t q 0 w X..X+Xe.Z f @.B.vX9.0.7.7.7.,._ 7.y.p.y.].T.r.",
"O y 9 u z 9 l l z i k 8 Y Y J.t t M 1 * 0 w t C e ! 4.5.@.! 0 * * M N t x t w 0 0 ;..X+X>.Z f 4.:.bX,.,.,.,.0._ ^ 7.A.K.y.U.y.` ",
"O = $ c | l p r l u c c } } ^.e e q * = = < e t t C :.:.X.D q 0 q N t N C N e w e 4..XW.@.Z Z 4.o.xXV.S.y.t.A.y.~ =.>XOX7.D.^ ^ ",
"O O r 6.6.{ 9 l P l g R |  .qX0 e q = + + * e t M N :.:.X.S q q 0 C f C Z f f e Z N..XW./ Z Z 4.! lXr.Y.I.Y.|.D.t.:.8.D./ $.%.e.",
"m % u { ....{ I | P R l  ...8X< e e = + + $ q e M y @.:.5.o.0 q 0 Z t C Z C e c.~.G.@XT.! x ! :.! lX_ F.Y.Y.B.Y..Xe.Y 7._ T T o.",
"O O 9 v R | { | l b k }  .q.:X* e e * + + = q e y q @.:.@.S 0 * q S f C Z B w Q.8XG.+XU.! f ! :.( qX8.1.V.V.1.D.B.e.W _ / n } +.",
"y 6 9 { { l c R k z c R 2...lX* q e * = + = q e q q X.5.O.S < * M S t x W S #.zX~.K.@XL.Q f :.O.o..XV.1.W F.F.,.:.$.W / O.o.+.%.",
"z I l P b 9 p 5 z z 9 v n | :Xq q N * = = = q e 0 q @.:.@.Z 2 e t X.!.!.C.1._ !.R.P.+XL.S f :.O.#.T.D.( 1 1.D.4.e.O.Q W $.-.b | ",
"- u l < # 5 u c 9 k 8 r n z H.M q C q & + * t t 0 q @.X.:.X.N N H v.O.^ ,.,.1.V.J.E.+XG.Z t @.$.n.D.F.( 1 ^ &.4.,./ ^ R T T c &.",
"% 9 k u d d 5 d u P b z z 8 +.#.q M N q & < f w 0 t ! S ! R.5.| o.T Y ^ / _ ;.,.J.W.+XG.Z t ! :.!.1.>.( w Q $.^ W W T } &.-.c T ",
"= O 9 I b z R c 8 8 k P l P f ~.* t C C M e e t 0 f >.>.! ~.D t w x f ( / W ( @.~..X>XG.Z s S 5.!.;./ B s j ^ $./ ^ W v c T T %.",
"9 O - y c b z a 9 z 5 r r 9 m v.q 0 q t t q q q $ C >.>.Z !.t 6 7 a 7 h / / ;.;.qXT.7XN.Z e t R.e.^ ( B h a Z / ,.W h c Y -.R R ",
"P u m - 5 c d 8 , n 8 9 n k 5 Z c.; q q q 0 q * 0 X.>.X.e Q.B w C ( W W ' ^ ^ / zXT.+XB.Q N e :X/ B h h B B h h h j 7 g R `  .E ",
"- 5 u 9 , r 8 5 6 g z k b c z d v.M q < 0 0 0 * D @.:.#.Z b.( s f Z / ( ( W W Q BXW.+XG.S Z ! F./ / ^ B j e s B ( f f r d g %.} ",
"O % 5 u P 6 d z l 9 7 z z z d.R 7 n.1 < * * < N X.>.#.:.Z X.Z s : ; > j ( ~ W W R.wXW.P.( Z !.~ Q Y $.;.@.s 1 1 t w < $ > > Y d ",
"$ +   y l 5 l f R b i 7 8 7 b 9 p p x.e e e C ! @.@.:.C f ) Z e < $ ; : N Z s w x b.zXXX@.C.>.W $.Y W ~ _ ( Z f < * * < w r h d ",
"  = % $ m m b k z z b 9 c v 7 h g 7 d >.J.@.( ! X.S C e e S e % < < 1 < 1 s 1 w $ $ 6 S 4.;.a W U ^ $.^ / ^ ! B N 1 < ; ; 1 > a ",
"  O % O = 6 d R l p d a > > g p v Q w ; * M ~.J.lXF y t * z.q 0 $ < w ; ; e 2 < + w f Z f W W / $.$.,._ ;.W Z h W B N B B W > 7 ",
".     X     < x z g d 8 > : 1 < : w f w = + @ # b.H q t * Q.* * : 0 # + < 2 & # @ ; U ^ @.W h $.,.7.<.$.~ x f a j 1 e f g U ~ W ",
"  . .   O O O % 7 7 a p 6 : : < a ; @ e e +   # e #.0 N e b.$ + + 0 < # < ; ; ; @ 1 B Z W h h ~ 7.$./ ^ / ;.;./ B 1 1 f Z ( W Z ",
"X . .   O     O @ 6 w t 1 : $ < 1 + X < 1 1 & ; : H ) N #.e & * + 0 * $ & $ $ @ # 2 s s s g h ( / ;.,./ W W ^ ;._ ) N ; 2 s s < ",
"X X . +     O + O : 0 0 : ; ; : $ ; + o & M e 2 < w e A M & * 1 * e # + # < ; @ X X # ; < 1 s W ( ' W W W ^ ^ ~ ( _ Z s s M 1 2 ",
". X .       + = * $ * * < < < ; & & o o o 2 1 ; $ < q e 2 * 2 < 6 w $ + X 2 ; ; # o + ; 1 e w f W W W v W Y ` _ $._ / / / B 2 2 ",
"X . .     o o + # + O + # & ; ; # # o o # & 2 ; & ; & 2 & & + + 6 f 6 < + 2 2 ; o & 2 ; 2 s w 1 / W W W _ ;.$./ ` / Q Q ( h j j ",
". . .   .   + + + +     o + # # o # + o o 1 < # < & # # + + o o y C e e & e 2 2 # = = & 2 1 < 1 W Q / $.$./ ;.,./ / ! V a s s : ",
". . . . . . X # % = + o   X + & & o o o + = & & # = & 2 * + + = O * @ $ X 1 1 ; 2 o o = 2 1 w W >.;.( ^ O.;.;._ B f e 1 s B ( N "
};
