/* XPM */
static char *a6ae03a09088481bd6458afe81840f837b1tHYtQE1eqOJmm[] = {
/* columns rows colors chars-per-pixel */
"64 64 232 2 ",
"   c #020101",
".  c #0B0504",
"X  c #0B0A06",
"o  c #0C0C0B",
"O  c #130905",
"+  c #1D0A06",
"@  c #1B0B0A",
"#  c #120709",
"$  c #171716",
"%  c #171309",
"&  c #2A0E06",
"*  c #250E08",
"=  c #310F0A",
"-  c #2A1009",
";  c #291409",
":  c #34110B",
">  c #3B140C",
",  c #3A1608",
"<  c #3D1511",
"1  c #3E1F11",
"2  c #2B240F",
"3  c #29230F",
"4  c #392E0A",
"5  c #342C15",
"6  c #2B2B27",
"7  c #36352E",
"8  c #3B3B32",
"9  c #363731",
"0  c #441204",
"q  c #4D1504",
"w  c #4F1805",
"e  c #44160A",
"r  c #4B190B",
"t  c #42180B",
"y  c #511705",
"u  c #541906",
"i  c #591B07",
"p  c #561B09",
"a  c #5A1D09",
"s  c #5D1F0A",
"d  c #5E1F0A",
"f  c #5D1D09",
"g  c #5B1D09",
"h  c #411612",
"j  c #471A14",
"k  c #531C11",
"l  c #591E12",
"z  c #601F0A",
"x  c #5F200B",
"c  c #5E200C",
"v  c #502B0F",
"b  c #5B3213",
"n  c #4B2D10",
"m  c #61210B",
"M  c #61210C",
"N  c #62220D",
"B  c #65230D",
"V  c #66240E",
"C  c #63220D",
"Z  c #69250F",
"A  c #69250F",
"S  c #6A280F",
"D  c #662410",
"F  c #6A2611",
"G  c #6B2610",
"H  c #6E2912",
"J  c #6E2912",
"K  c #712B13",
"L  c #663C1A",
"P  c #5E490A",
"I  c #785A0B",
"U  c #734915",
"Y  c #43433C",
"T  c #524832",
"R  c #5E5B4E",
"E  c #575449",
"W  c #554B44",
"Q  c #615D4E",
"!  c #676453",
"~  c #6C6955",
"^  c #757362",
"/  c #864E1A",
"(  c #894E1A",
")  c #99561F",
"_  c #947104",
"`  c #886609",
"'  c #A36C1D",
"]  c #A1661F",
"[  c #A6711E",
"{  c #AA731C",
"}  c #AF7717",
"|  c #B57919",
" . c #9A6622",
".. c #9E6923",
"X. c #9C6B2B",
"o. c #A36C24",
"O. c #A56E29",
"+. c #AB6826",
"@. c #BA6C23",
"#. c #B66924",
"$. c #A97225",
"%. c #AB722A",
"&. c #B37229",
"*. c #B47825",
"=. c #A77832",
"-. c #C67E1B",
";. c #C26E26",
":. c #CA7B28",
">. c #D37D2D",
",. c #B9861C",
"<. c #B88F0E",
"1. c #B68024",
"2. c #BC8222",
"3. c #C79807",
"4. c #D49D0B",
"5. c #D99F0A",
"6. c #C28918",
"7. c #C9931B",
"8. c #C99819",
"9. c #D69C17",
"0. c #E6941C",
"q. c #E8941D",
"w. c #E89A19",
"e. c #DBA309",
"r. c #DCA80A",
"t. c #DBA412",
"y. c #D7A317",
"u. c #DEB00A",
"i. c #E9AE06",
"p. c #E7AA0A",
"a. c #F1AC0E",
"s. c #EDB406",
"d. c #ECB20D",
"f. c #EAB409",
"g. c #F6BD04",
"h. c #F9BE03",
"j. c #F4B30C",
"k. c #F4BC0A",
"l. c #F8BC09",
"z. c #F2B606",
"x. c #EDA512",
"c. c #E5AB12",
"v. c #F4AD12",
"b. c #F1A617",
"n. c #E2B113",
"m. c #EAB210",
"M. c #F6B011",
"N. c #C68D21",
"B. c #D4812E",
"V. c #DB832E",
"C. c #D38626",
"Z. c #D98230",
"A. c #CC9320",
"S. c #E68C26",
"D. c #E4862C",
"F. c #E78A2B",
"G. c #EA8A2C",
"H. c #E78A29",
"J. c #E99224",
"K. c #E89527",
"L. c #E28630",
"P. c #DCB029",
"I. c #E9B038",
"U. c #F7C004",
"Y. c #F9C103",
"T. c #F8C10E",
"R. c #F5C214",
"E. c #F5C21A",
"W. c #F8C71D",
"Q. c #F8C315",
"!. c #F4C324",
"~. c #F5C82A",
"^. c #F6CD3C",
"/. c #F9CE3B",
"(. c #F3C834",
"). c #F1C731",
"_. c #AC8649",
"`. c #B49454",
"'. c #908C6F",
"]. c #BE9E63",
"[. c #BE9D68",
"{. c #B2A568",
"}. c #C59D52",
"|. c #D69A4B",
" X c #E7BA40",
".X c #C09E64",
"XX c #C6AA74",
"oX c #C8B677",
"OX c #D0B87C",
"+X c #EAC849",
"@X c #F3CC44",
"#X c #F8D34A",
"$X c #F0CC53",
"%X c #F6D65C",
"&X c #DCC26A",
"*X c #F6D965",
"=X c #F6D865",
"-X c #F7DD73",
";X c #F2D77E",
":X c #F3DA7C",
">X c #EBD078",
",X c #B0AB8E",
"<X c #BEB1A2",
"1X c #D1BD85",
"2X c #D1BD88",
"3X c #D9C78A",
"4X c #D9C794",
"5X c #DED39D",
"6X c #EFDA80",
"7X c #F2DD89",
"8X c #F3DE87",
"9X c #E6D69C",
"0X c #F6E28C",
"qX c #F7E085",
"wX c #F5E397",
"eX c #D8D4B3",
"rX c #D2CEAE",
"tX c #E4DBAF",
"yX c #F2E3A3",
"uX c #F5E8A7",
"iX c #F3E5AD",
"pX c #F5E9AC",
"aX c #E9E2B8",
"sX c #E8E1B4",
"dX c #F4EAB5",
"fX c #F6EBBC",
"gX c #F5E8B9",
"hX c #EFE1AE",
"jX c #EDDBC2",
"kX c #F6EDC2",
"lX c #F8EFC3",
"zX c #F9F2C5",
/* pixels */
"a F x x z K K B s y i i q y p s C C i p i s z i i s z D M M B D a p i q y i i m C C C z i i i C i z i p s u i K z i H F s s B a ",
"V J x x F H H B g y d i q i f z C C i i i m z u i s c c M c M M y i i q p i m V z z C z i z z z i C i y d y i K D g H F s s M p ",
"J F s M F H H D g q s u y a z f Z Z s i i z m d p s g s a c F M u p i p i i m C s s C z i i z C i x i p z y i H s g H M a M M u ",
"J M a V H H F M z q p u y i i i B B M a s m s i i D s g a M M V p i p p i i V z i i C z i i i z i x i i i y z S z g K D a c c q ",
"F c x D J Z D g z y p y q y i z z B Z s u B f i a F x c c c c M u p i i i x m i u i d d i i u d i m u i i q C S M p J S a m V u ",
"c c a F J J D s z q f y q p f z M H B s p z f i a D x c p M V M w i u m x V m i i i z z i s i d i m i u i q i J M w F S s m M u ",
"x x x F F H F c M p f y y p f a B D D z s z d y p g r r r r c r 0 t 0 r r r q e i d z z d d i s i i p y x y x K F u F V i x x a ",
"x p V B g D H g z p u y q f u f z D z z D z d u a p O                   .     . 0 i z z u u i i i x y y x q x K F p V C u x C c ",
"g i G B p M B s a y p y y i p i M F B g k k j h r t . o 9 8 8 8 8 8 8 8 5 4 o   - r e e r e p d z u q u i q z G F p D Z i m m x ",
"y i G z M p M M a y p y y p i f M M z j #             6 eXaXaXaXaXaXaXsX+Xu.4               > s z u y z d q u A K a F D p m x p ",
"y s D l M p p z z y y q y u p z M s l <   o 6 6 6 6 2 T 9XyXyXyXyXyXyXwX(.z.P 3 3 3 2 2 %   - r u u z A z 0 u A K M J V p x a x ",
"g M D M M a u l a q y q u p z y g k #     9 rXsXsX5XP.n.E.E.R.R.R.E.E.E.k.g.m.u.n.n.n.m.P       > y z A z 0 i S K a D Z s x p c ",
"s D s s D z p a f y q y y p z p l h   o 6 E 9XwXyX7XE.g.s.i.i.i.i.i.s.i.i.i.g.U.U.U.U.Y.` ; 3 3 1 0 D V i q i V K i D D x m i B ",
"z F s M z M p s p f y y y f f e o X   W eX5X!.R.k.!.g.i.} [ [ [ [ [ [ [ [ [ p.U.U.U.g.h.f.n.y.9.U   > x i q i C H p H S i V x B ",
"z F g l p M M z i p y q y p k :   X $ Q iX0XT.z.s.s.f.e.[ ..O.O.O.O.O.O...o.t.s.s.s.g.h.U.h.z.m.I % 1 p q 0 a B J i H J C B p c ",
"D z g s p M z z i i y q y h # .   Y rX3X!.E.g.i.} { { [ ..o.>.Z.B.Z.Z.B.+...' { { { t.Y.U.U.g.z.n.8.U . & 0 i B J p F S c D c c ",
"D D g s p s z z i u y y i h   o $ Q hX;XT.g.s.e.%.O.O.O.O.&.V.G.G.G.G.G.*.$.%.%.O.$.9.s.k.h.h.h.k.n.I   + 0 p s H p F F s M x B ",
"D M a D p s F s y i y y y e   E eX4X!.R.U.p.} | Z.>.Z.Z.V.V.v.j.j.j.j.j.j.d.d.m.f.i.6.{ 4.h.h.h.U.T.I     . : c K s H F z M c c ",
"B F i z d z D p y i p p k j @ ~ gX;Xk.g.k.r.' %.D.D.G.G.G.H.j.h.U.U.h.h.U.Y.h.h.g.g.6.o.9.z.z.h.U.Y.` O X   & B H i D F x x x c ",
"s F s D i D F i f i y h # W <X1X).!.U.r.} | B.B.D.G.v.M.j.j.h.h.h.h.h.h.h.h.h.h.g.g.f.c.7.} c.h.U.U.n.8.I   : z Z p B F x c c c ",
"a H B c D z D i p i y : . E aX3Xg.z.k.e.o.&.D.D.F.J.z.h.h.h.l.l.T.T.h.l.g.h.h.h.Y.h.h.Y.7.O.9.z.g.g.U.Y._   - l D x D H V V x x ",
"s H B B D s D i p y u :   R kX6XU.p.| | B.V.D.S.v.j.g.h.h.R.-XwXwX8XK.q.j.h.h.h.g.h.h.h.$X9X}.{ 4.h.g.Y._   . # > x D H x m x c ",
"a Z D B M s M i p y p :   Q kX6XU.e.o.&.D.F.D.J.l.h.h.Y.l.W.wXfXfXhX|.L.v.g.h.h.h.h.g.g.=XfX].] 7.h.h.Y._ . .   ; x B J x C p c ",
"p M F s D D s g u h @ .   Q kX6XU.e...&.D.H.b.v.h.h.h.Q.-XqXdXpX$X(.G.L.J.q.j.Y.h.g.h.Y.=XgX]. .7.h.h.Y.4.%.L   ; p B F x c x c ",
"p M F x M l B B s :   .   ! fX>Xz.e. .&.D.J.z.h.h.h.h.W.uXfXfXyXE.z.0.D.D.D.v.h.h.g.Y.g.*XfX]. .7.g.g.U.x.G./   ; a D H i M a M ",
"i x F a p s s B B >   E <XOX^.P.,.} ..%.D.J.l.h.h.h.h.W.uXgX$X(.T.g.j.v.J.D.a.h.h.h.h.g.*XfX.Xo.{ | 9.U.x.F./   ; i D H g D M c ",
"a a Z D p g l s M <   ^ zX:Xh.4. .....&.D.H.l.h.h.h.h.W.uXpXM.h.g.g.Y.g.q.D.a.h.g.h.h.g.*XfX.Xo.o...7.h.x.G./   - p H H c m M a ",
"a a V J i p i p g <   ^ zX:Xl.4...$.B.C.b.v.g.h.h.h.h.W.pXpX~.h.U.g.h.h.q.G.M.h.Y.h.h.U.~.@X&X3X`...7.g.x.G./   - i H H M a x p ",
"M i c J c p p s D :   ^ kX;Xl.4...&.V.J.h.Y.h.h.h.h.h.W.uXpX!.h.h.h.h.h.q.D.M.h.g.Y.h.g.h.g.*XkXXX .7.U.x.G./   ; u F F M m V a ",
"S a p F F i p F H <   ^ kX;XU.4.X.&.D.J.g.h.h.h.h.h.h.W.uXiX!.h.h.z.h.h.q.D.M.h.h.h.h.g.h.h.*XkXXXo.7.U.x.F./   ; u D K F m Z s ",
"V x p D H s g H H h   ^ lX;Xk.4.o.&.L.J.g.h.h.h.h.h.h.W.uXiX!.h.h.h.h.h.q.D.v.h.Y.g.h.Y.h.g.*XfXXX..7.U.x.G./   * w F K Z x m V ",
"F c w D F F D F H <   ^ lX;XU.4. .&.L.F.w.b.h.h.h.h.h.W.uXiX!.h.h.h.h.h.q.D.M.h.h.h.g.g./.*XwXkXXXX.7.U.x.D./   * u F K Z x m M ",
"D s p s D F F K J <   ^ lX;Xk.4. .&.D.F.D.S.l.h.h.h.h.W.uXiX!.h.g.g.h.z.q.F.a.h.Y.g.h.U.*XfXfXfXXX..8.T.x.G./   * p D K D i a M ",
"g M g s F H F F c <   ^ lX;Xg.4.o.$.;.:.>.J.l.h.h.h.h.W.uXuX!.h.h.h.h.h.q.G.v.h.h.h.h.g.*XfX4XXX_...7.U.x.F./   & i s K D p a F ",
"g M i g D F H M s h   ^ zX;XU.e.X. .o.&.G.J.l.g.h.h.h.W.uXiX!.g.h.g.h.g.q.G.a.h.h.g.h.h.=XfX]. ...X.7.U.x.G./   ; i p K V a c F ",
"p D p p z F F B x h   9 ~ {.%XI.A.,.' ;.>.J.g.h.h.h.U.E.uXiX!.g.h.g.h.g.q.G.a.Y.h.h.Y.h.%XfX.X .*.A.9.c.0.F./   - s g K V x V V ",
"w M a p V H A B p >       R fX:Xl.e.o.&.D.H.z.h.h.h.h.W.uXhX!.g.g.g.h.h.q.D.v.h.h.h.h.Y.=XfX]. .7.U.x.V.D.G.(   ; c p K Z m s C ",
"p c c p M F J B x k : @   R kX;Xh.e.' &.L.J.b.j.h.h.h.W.uXdX%X^.R.g.v.x.S.F.v.h.h.h.~.#X8XfX]. .7.U.x.L.@.( v   - M u J F m i m ",
"q B B p a F F B V H D <   R fX:XU.r...&.D.D.D.K.l.h.h.W.uXfXfXuXE.g.q.F.D.G.a.h.h.h.-XfXfXfX]. .7.U.x.G.(       * D p F S x x c ",
"p c D p p Z K V c F D :   7 '.{.#XI.N.6.:.>.D.H.x.v.h.T.=X:XiXiX%X@XG.L.K.w.j.h.(.#X7XkX4XoX}.N.9.x.w.L.(   # * t B p J Z a x B ",
"x p D c p B J V s F M <       Q fX7Xl.e.o.&.D.H.F.S.z.h.g.R.uXkXkXaX|.G.a.h.h.Y.-XgXfXlX[. .9.h.b.D.G.G.(   & u B F a F F a p F ",
"m p B c p V F B s F M r * @   Q kX7Xl.i.6.*.:.:.V.S.l.h.h.T.=X6X;X;XI.J.(./././.qXgX4X2X}.2.9.d.q.D.;.) b   & u M D p H B s u F ",
"M p B g a B F V s F B s p >   ! lX0XU.h.l.p.] [ D.J.k.U.h.h.g.g.g.g.h.g.-XdXdXdXdXdX`.X.9.g.w.D.H.G.U       & u M B p J S x i D ",
"Z i V c p M F D a V B m a >   8 '.{.#X~.g.p.6.N.:.C.4.e.e.t.(././.@X/.^.oX3X3X3X3XOX`.2.9.a.0.D.;.) v   X & , q s F a J J x i D ",
"Z p D c a M F F x V M x x <       Y fX8Xl.h.h.p.'  .....X.1.9XfXfXfXgXdX_....... ...9.g.x.D.F.G.U       & i y q x B x K S m p V ",
"Z c M F a c Z F M B M x i t + O   7 ,XoX(.~.g.i.,.1.1.*.X.X.3X4X4X4X4X4X_...*.*.1.1.w.j.q.F.;.+.b   # + , a q q x B x H V V i V ",
"Z s p F p s H H V M m x w i u =       W gX0XR.Y.z.U.g.u... .X.X.o.O.X.X.....t.k.T.k.w.H.F.G.K       & u i s q u B c c K S C i c ",
"Z M p B a s H H J V C i q w i t * O   9 ,X{.<.3.g.U.U.f.,.1.1.1.*.*.1.1.1.1.c.d.d.j.9.>.;.] n   O + 0 i s i u i F c x K H c i D ",
"V B p V a z J H H F D s w u s z g h     o .   n T.Y.Y.Y.z.T.U.U.g.z.k.k.k.k.w.S.G.D.>.>.b . .   = i y i x i y y Z m M K K s a J ",
"m z p F a M F F F F M z i u s s u p * # + X   2 <.<.<.r.T.U.U.s.z.a.z.z.s.f.-.#.#.#.#.+.v O O O , i i i x i u p S m F J J m i V ",
"B M a D i D F F F H z z p p i p d s c x p e   X O X % 4 n.Y.Y.z.0.S.S.S.S.D.n X # # O O > u i a i i u z x i i i S z J J V m i V ",
"B B x B p D F H H H s s y p a i i s x m p 0 @ # O X   3 <.3.3.3.| @.@.#.#.#.,   O O O O 0 u i V B z i i i i i i S i F J Z C i S ",
"B M g D p M F H F D a a y u i i z z s z a p q w x t X   X O O O O O O O O O     0 i p p i i i m B z i i i i y i S p F J Z m i Z ",
"B z g D w D K D z i l a u y p p i z z z i i p y x q * O O O O O O O O O . X O O r a i y i i i i z z i i i i y i D p F J m x i V ",
"Z M i g p D K D p p a z i p z u p z s p m i p u w w x x c x v c D s z q 0 x u i m z i i y i i i z y y m i i q m Z i J J x x a F ",
"m z p g p M F D p M z z u i z y i z m i s a a u q u x x C C i Z M B B y q c i y x V m m i z i i z y i V x m y V V i J Z Z x x D ",
"M M p g g B H M M B F z u i u p z i m i m i m u q u V m x a m S D B z 0 y z u u i m m x y i i i z u i d i i u z V a K F F x a V ",
"H a l g g D H g l M B p u i p a i i m i x i i u w i S x x a x J D B i 0 u z q p i m S x i i m y u u u i i u u z M x K F V i p B ",
"Z p z z g D M p z i p y y i i i i m m i i i i u w i V c a a p H M M y 0 z z q p i m V m y i i i i u u d u u y A c a H D C y x c ",
"M q z l p D D s z i z i u f a y x x i i i i i u w w B x x a a F M z q p m i q i i x V m i i m i z i z d i u u A c M H D m u C x ",
"a w s p g F F z d u y y i y u y i m s i i a i p u w c x a c c V Z i q i C p 0 i i m m m u i z z i u z z s p p A x M K J C w m x ",
"q w l p s G B s z y 0 q i u p u a m s p i x a u u i c x a M M D S p y m V i y i i V x i u i i C d u z u p w i K c c J J V i c V ",
"q p M p z H H z z y 0 i p f a a s B x i u p p p i p D x a s i C C y i Z m y i i i J z i i u z z y i z i a y a F a c F B x x V J ",
"0 a M a D H D z s q y i y p z z c M a a u a x i w x V p a s m C C 0 m m y y m i i V z z i u C C i z z i a u i J s a S x x i C V "
};
