/* XPM */
static char *b67a72df66b742b3bdde1e0ada728f35lK64xGCCi7WDz6GJ[] = {
/* columns rows colors chars-per-pixel */
"64 64 256 2 ",
"   c #020301",
".  c #0B0200",
"X  c #000C00",
"o  c #01080C",
"O  c #160300",
"+  c #031505",
"@  c #011518",
"#  c #0C110D",
"$  c #250800",
"%  c #291503",
"&  c #11300C",
"*  c #2E2F0D",
"=  c #001927",
"-  c #001730",
";  c #072B30",
":  c #2B382B",
">  c #4A2E07",
",  c #583310",
"<  c #384734",
"1  c #1D541F",
"2  c #775214",
"3  c #6E562F",
"4  c #59582C",
"5  c #1C384B",
"6  c #443C4C",
"7  c #34494F",
"8  c #156F54",
"9  c #1E7466",
"0  c #4E5551",
"q  c #716C57",
"w  c #506F78",
"e  c #71776C",
"r  c #52685E",
"t  c #825117",
"y  c #986919",
"u  c #976B0B",
"i  c #A76A06",
"p  c #A87604",
"a  c #B67704",
"s  c #AF6E14",
"d  c #885429",
"f  c #966D29",
"g  c #B27429",
"h  c #C47918",
"j  c #CC772A",
"k  c #E07C26",
"l  c #A47944",
"z  c #129658",
"x  c #16A357",
"c  c #2EAE52",
"v  c #169B78",
"b  c #0B9372",
"n  c #269073",
"m  c #16A477",
"M  c #13A56C",
"N  c #2DB170",
"B  c #269953",
"V  c #668E54",
"C  c #51B053",
"Z  c #4FBA6C",
"A  c #6EB66D",
"S  c #63A45A",
"D  c #3BC675",
"F  c #36C458",
"G  c #59C94B",
"H  c #59CA5A",
"J  c #57D35A",
"K  c #4AD05A",
"L  c #65CC57",
"P  c #66D559",
"I  c #6ED552",
"U  c #46C669",
"Y  c #57CB65",
"T  c #57D466",
"R  c #48C973",
"E  c #57D575",
"W  c #52CF6F",
"Q  c #64CB65",
"!  c #68D766",
"~  c #76D966",
"^  c #69D874",
"/  c #78DA76",
"(  c #71C96B",
")  c #7AE56A",
"_  c #79E677",
"`  c #6EE474",
"'  c #6FE258",
"]  c #459534",
"[  c #B68712",
"{  c #B38D30",
"}  c #D98A19",
"|  c #D9971A",
" . c #CE910F",
".. c #E69719",
"X. c #E49214",
"o. c #D8A519",
"O. c #D9A90B",
"+. c #EBBA09",
"@. c #F3BC03",
"#. c #FCBB03",
"$. c #FBBB0C",
"%. c #F7B80A",
"&. c #E7A619",
"*. c #F6A919",
"=. c #E9B918",
"-. c #F8B916",
";. c #EFAA0B",
":. c #D88A29",
">. c #D89624",
",. c #D78738",
"<. c #CC8F2C",
"1. c #E58A27",
"2. c #E79726",
"3. c #E99333",
"4. c #D7AC2D",
"5. c #EBA626",
"6. c #F7AA27",
"7. c #E8B927",
"8. c #F8B728",
"9. c #E6BA37",
"0. c #F5B535",
"q. c #EBC306",
"w. c #F7C206",
"e. c #EAC319",
"r. c #F7C319",
"t. c #EBD21D",
"y. c #EAC326",
"u. c #F7C528",
"i. c #E9C537",
"p. c #F6CA35",
"a. c #DFC23A",
"s. c #B59349",
"d. c #B39C6B",
"f. c #C99851",
"g. c #C7A650",
"h. c #E8BC46",
"j. c #E7AF4B",
"k. c #CEAE73",
"l. c #E0A25F",
"z. c #84D674",
"x. c #82E46C",
"c. c #84E768",
"v. c #83E473",
"b. c #86E978",
"n. c #84ED6E",
"m. c #81EF5A",
"M. c #F9D859",
"N. c #EFC94D",
"B. c #FAD868",
"V. c #F9D779",
"C. c #EBCF6C",
"Z. c #FDE376",
"A. c #DBC274",
"S. c #527889",
"D. c #67788D",
"F. c #2A7D8D",
"G. c #0E9683",
"H. c #30908B",
"J. c #11A688",
"K. c #2CB688",
"L. c #3F9CB3",
"P. c #4F8E92",
"I. c #698A90",
"U. c #74BB8F",
"Y. c #529AB2",
"T. c #7191A8",
"R. c #53A6B0",
"E. c #73AFB0",
"W. c #55B084",
"Q. c #36C98A",
"!. c #4AD28B",
"~. c #78CC8F",
"^. c #79E985",
"/. c #7CC6A7",
"(. c #51E1A6",
"). c #70B6CA",
"_. c #55B9D7",
"`. c #5BC8D9",
"'. c #66C7D9",
"]. c #76C8D8",
"[. c #72CFD8",
"{. c #59CBE9",
"}. c #57D3EB",
"|. c #4CCDF3",
" X c #5BCEF3",
".X c #57CDFA",
"XX c #4CD5F9",
"oX c #54D2F3",
"OX c #5AD3F3",
"+X c #57D5FB",
"@X c #4ACEEA",
"#X c #66CAE8",
"$X c #75CBE6",
"%X c #68D5E9",
"&X c #78D7EB",
"*X c #65CBF6",
"=X c #68D9F7",
"-X c #77D9F6",
";X c #75CBF3",
":X c #69E4F9",
">X c #78E4F9",
",X c #71E7F2",
"<X c #8E96BA",
"1X c #8AAABA",
"2X c #A5A69C",
"3X c #DDBC8A",
"4X c #8FD58E",
"5X c #84E786",
"6X c #91EB8E",
"7X c #A9E69A",
"8X c #87CDAE",
"9X c #AEE6AD",
"0X c #DAC790",
"qX c #F2D68E",
"wX c #FDE589",
"eX c #FCE795",
"rX c #FFF49A",
"tX c #F4DDA7",
"yX c #FDE9A5",
"uX c #FEEDB7",
"iX c #F7EDB2",
"pX c #D4CEA9",
"aX c #969BC5",
"sX c #919ACA",
"dX c #A89CC8",
"fX c #95A5C6",
"gX c #9AA7D2",
"hX c #91B6CB",
"jX c #A8B6D8",
"kX c #ACADD1",
"lX c #A9B6E3",
"zX c #90CED1",
"xX c #A6D0D6",
"cX c #87D8E9",
"vX c #97D7E8",
"bX c #88DAF7",
"nX c #95D4F3",
"mX c #ABD0ED",
"MX c #87E5FB",
"NX c #96E9F3",
"BX c #B7FBFD",
"VX c #ADECF6",
"CX c #F5E9CD",
"ZX c #CAFEFF",
"AX c #C6F8FD",
"SX c #D4FEFE",
"DX c #DCFDFE",
"FX c #D8F5F6",
"GX c #CEECEE",
"HX c #E9F9EB",
"JX c #E3FDFD",
"KX c #E9F8F7",
"LX c #F5FCFA",
"PX c #F1F2EC",
"IX c #CCE3D6",
"UX c #C3BBDD",
/* pixels */
"{.=X.X X;X;X).vXzXR.%X}.@X=X X{.;X$X{.*X.X.X+X.X.X.X*X}.=X{.OXoXoX X#X#X[.$X*X*X.X.X#X`.}.}.oX@XXX.X.XOX}.}.}.oXoX|..X+XoX{.{.`.",
"}.OX.X;X_.$XBXZXAXNXcX`.}.{.#X#X[.$X#X*X=X.X.X.XoX XOX}. X|.+X+XoX X%X}.#X#X*X.X*X*X{.}.}.}.XXXXXX+XOXOX X}.}.oXXX+X+X|. X#X'.%X",
"}.@X+X#X'.mXKXFXFXJXSXE.[.%X#X'.NXNX].'.#X}.oX+XOX}.=XOXoXoX+X|.oX}.@X}..X|..X.X.X.X*XOX}.oXXX+XXX.XOX.X XOXoXoXXXXXXX|.{._.[.cX",
"}.}.=X#XbXAXKXLXPXKXJXVXzX[.[.NXBXBXcX[.%X%X{.}.OX@X}.|.{.oX+X}.@X}.@XXXXXXX.X.X.X.X+XOX}.}..X.X.X+XoX X X X.X.X+X|.+X:X'.&XBXAX",
"}.%X_.cXZXGXLXLXLXIXFXJXhXxXBXSXZXAXVX].'.#X{. XOXOX X X{. X*XOX}.}.}.@XXXXXXXoX}.}.XXXXoX.X.X.X+XoXoX X{. X}.oX|.@X{._.].VXSXGX",
"[.[.].VXDXFXPXPXPXPXPXIXIXDXKXKXDXSXBXNXMX>X*X*X@X=X X*X#X#X#X#X%X}.}.`.|.}.{.{.}.}.+XXX|. X*X*XoXoX XoX X X X X#X%X'.].VXZXFXGX",
"'.NXZXSXKXLXPXPXPXLXGXHXLXKXPXKXSXAXZXBXBXVX;X*X#X*XL.L.R.Y.R.Y.R.Y.R.R.R.R.R.R._.}.XXXX@X}.#X X{.OX}.}.}.}.{.%X_.zXzXxXSXDXGXHX",
"8XZXGXKXKXPXPXPXPXPXPXPXGXPXLXPXGXxXvXzX].$X).;X;X).5 - - = @ @ = = @ o + + + @ R.`.%X}.}.%X#X#X#X XoXoXoX}.#X'.cXvXAXDXJXKXJXHX",
"IXJXFXHXHXHXHXHXHXHXIXHXLXHXKXGXzXzX1XE.E.Y.Y.).Y.P.; ; : < : < : 7 : * * * # o w R.Y.R.L.R._.#X X|.+X.X@XoX:X'.BXZXSXDXDXGXFXSX",
"FXKXPXPXHXHXHXGXIXFXDXJXDXKXLXFXSXAXVXI.= = @ @ = o   * pXtXyXyXiXiXtXeXC.d.> . X X + + + = P.$X X.X|.|.|.@X`.MXBXAXAXGXAXSXZXVX",
"KXKXHXHXHXHXFXGXBXVXFXGXFXJXDXDXZXVXhXS.@ # : : * * * , 0XeXV.V.eXwXqXV.N.j.2 * * % * * & X w ).{.*X|..X+X=X-XNXNXBXNXcXvXNXvX].",
"AXSXFXHXHXHXDXAXBXNXNXVXVXZXVXAXmXT.= #   : pXpX0XqXg.g.N.N.9.N.j.h.h.p.7.i.o.4.4.4.9.4., X + = F.=X X*X{. X=X{.,X&X[.[.$X$X$X$X",
"cXvXxXDXKXKXJXSXVXcX[.[.cXcXcXzX).D.o # * 4 qXV.wXB.N.9.4.o.5.5.5.4.4.4.o.O.7.u.e.u.-.8.u % % & w E.'.[.&X=X*X-X%X`.'.[.%X#X*X=X",
"%X[.zXSXFXDXAXVXNX$X[.&X'.zXcXY.- - o < qX0XC.N.i.9.9.4.a i p p a a a p [ [ o.7.-.$.%.$.=.o.4.d.4 + w zX$X-X{.=X=X,X%X%X&X=X+X+X",
",X&XvXAXAXVXnXcX;X;X&XbX&X].R.P.@ o & 4 wXZ.7.0.=.8.5.4.i y s s s s i u u u 4.0.*.*.$.%.r.r.=.4.y * V 1X).&X%X>X%X%X%X%X%X:X:X+X",
"%X&XMXBXVXcXbX;X=X>X#X&XcXL.; = # < 0X0Xh.9.7.o.a a a i i g j f.k j <.<.y u i s a a O.u.w.@.@.8.4.s.3 + P.zXbXMX&X&X&X,X%X:X+X:X",
"-X%X%X>XMX-X-X;X>X*X=X>X'.H.@ o * 3 qXZ.e.q.e.o.h s s s s h :.1.:.} >. .[ a i a p p  .*.-.%.w.+.O.9.4   0 hXVXSXVX$X;X&X%X}.:XOX",
"&X>X:X%X=X=X;X-X=X,X:X-XbXT.o 3 pX3XC.9.q.O.[ s f.j k k :.k 6.8.8.=.=.=.5.7.6.6.4.7. .a O.%.r.w.w.=.2 . # ; D.IXZXnXbX-X&X,X:X:X",
"-X-X>X%X:X-X;XcXcX$X$XcXzXS.# q yXB.a.=.=.&.i s ,.:.:.} } | -.-.$.%.%.-.-.-.$.r.8.7.[ p ..8.=.+.w.=.u % .   D.GXFXVX).bX-X,X:XOX",
"-X=X=X,X,X-XcXvXBXVXvXI.; w 2X3Xj.N.e.O.[ h j ,.>.2.&.=.7.&.-.$.@.$.w.r.w.@.@.@.@.r.+.O. .p o.y.w.e.9.{ 3   e KXFXDXzXbXMX=X>X:X",
">X&X,X,X[.cXVXAXFXJXDXw X 0 IX0Xh.=.5.} a j k k } O.@.w.e.=.r.y.u.8.-.;.w.w.w.w.r.%.w.y. .p <.9.+.+.8.h.f O r IXIXJXxXcX-X*X>X=X",
">X-X,X,X[.VXSXDXLXGXFXD.o r iXeX7.O.[ j k j 1.} *.$.#.w.q.e.M.B.M.M.&.X.;.%.w.#.#.$.@.=.N.B.4.p O.+.r.8.u O % : I.FXDXnXbXMX>X>X",
"-X>X=X&XNXAXSXFXLXPXIXe X 4 iXC.y.O.i s 3.k 1.*.-.-.w.q.y.N.wXeXeXV.3.>.;.+.-.$.$.r.w.+.M.rXg.u  .+.%.8.i $ O o 6 xXGXmXnXbX&X=X",
"bXMX-X&XBXBXBXDXFX1X6 : X q rXC.=.O.s j k k *.;.-.-.w.u.M.qXyXeXC.B.:.} ..X.$.#.-.%.w.e.M.wXf.y  .y.$.r.| y , # < kXjXmXnXbX>X>X",
"bXbXbXMXMXMXcXvXGXI.    % 4 wXM.7.O.s g 1.1.8.*.-.-.-.p.wXyXqXZ.j.6.2.X. . .@.#.$.%.%.u.B.eXd.y <.7.-.-.2.,.3 . < 1XhXmXnXnXMX-X",
"bXbX-X-XMX-XcXnXVXS.@ 0 2Xk.B.4.[ a u s 1.X.-.-.-.$.$.p.wXyXC.N.y.=.6.6.X.X.%.#.#.#.$.7.M.wXf.f u [ &.-.6.f.3 . 0 1XfXlXlXnXbXMX",
">XMX>X,X-XbXbXnXvXS.o e CXwXN.[ i y y g 2...-.w.$.#.w.u.eXwXa.q.@.@.-.-.X.X.;.#.#.#.+.e.B.rXg.f f p  .8.5.,.d O 7 T.sXhXlXnXnXMX",
",X>X>X&X-XbXbXnXmXS.o e CXqX9.<.y g g ,.5.;.w.q.w.w.w.u.wXeXy.q.q.w.w.-.X.X.;.%.#.r.w.=.i.N.A.A.s.u  .8.5.:.3 O 6 sXfXgXjXgXnXNX",
":X,X,XMXbXnXnXAXmXS.o q CXV.i.o.p g <.:.8.-.w.q.#.#.#.u.eXeXp.e.w.w.w.-.X.X.*.-.$.$.w.+.=.i.V.uXk.y  .0.5.<.t O 6 aXgXlXlXgXhXzX",
":X,X-XcXbXVXVXSXFXD.# q uXB.y. .u g ,.2.8.-.q.q.#.#.#.0.eXeXi.q.%.%.#.-...X.*.-.#.@.@.q.y.i.C.yXk.y | 8.&.<.t O 6 aXgXgXlXgXlXhX",
":XMXNXcXvXVXGXFXFXw   e uXC.8.O.i g :.2.6.*.w.q.#.#.$.p.eXeXi.w.@.@.@.%...1.*.#.w.w.w.q.e.7.C.yXk.f >.8.&.>.t O 6 <XsXsXgXkXjXkX",
"MXMXNXVXmXgXgXmXjXw   q uXV.7.| i g 3.1.3.*.+.q.#.#.$.p.eXqXi.w.w.w.@.$.2.1.*.#.#.w.w.e.p.M.wXeXk.f | -.&.| t O 6 <XsXsXgX1XkXxX",
"cXvXnXAXmXfXdXdXkXw o q uXC.7.| i g ,.k k X.y.+.$.$.-.0.eXrXi.q.#.w.#.%...} ;.#.#.#.#.r.M.rXiXyXk.f :.6.*.} 2 O 6 <XsXsXsXsXD.lX",
"zXvXmXmXdXdXdXdX<XS.o q uXqXi.o.y s h k k ..r.+.$.-.$.p.eXeXi.q.w.w.#.-...X.-.$.$.#.#.=.C.yX0Xd.s.y :.8.6.>.2 O 6 sXlXdXdXdXsXgX",
"hXmXhXgXaXdXkXdXdXw o e iXqXh. .i y s g 1.X.w.@.#.#.$.8.wXwXi.=.q.%.-.8...X.*.%.$.$.w.y.V.rXk.f y u | 6.&.>.2 O 6 lXkXsXkXkXgXlX",
"mXlXgXsXgXaXdXdXdXr   1 V s.B.h.{ [ s g } X.w.w.#.#.#.8.wXeXi.e.-.=.r.8.1.} *.%.+.%.q.=.C.iXf.y [ <...&.2.,.3 . 5 lX<XD.dXkXjXmX",
"lXlXkXgXdX<XdXdXdXw # o X 4 wXB.h.>.s s :.| *.-.#.#.@.e.wXwXa.q.w.#.$.6.2.} =.w.w.w.w.7.V.yXf.y <.7.....>.f.3 o 7 sXD.<XaXdXlXkX",
"UXlXlXdXdXdXdX1XkXD.7 ; X 3 uXwX0.o.i h :.3.5.*.%.#.@.t.wXeXM.p.w.@.;...1.} ;.w.w.+.u.M.wXiXf.u  .u.2.:.s 2 >   7 <XT.T.<XaXkXkX",
"kXUXUXkXdX1X1XT.T.T.T.8   0 CXtX9.&.a h ,.,.1.} 8.-.w.t.Z.rXyXwXe.w.O.X.3.1.;.$.e.i.B.eXyXtXg.y  .-.5.:.t $ . @ 5 D.T.D.T.sXsXlX",
"UXUXUXUXxXhX1XP.H.9 n 7 o : d.d.C.0. .h j j ,.3.6.*.+.y.M.qXtXeXM.p.| X.3.2.;.u.i.M.wXyX0Xk.g.[ | 5.3.f.d $ % 7 w T.hXsXI.<XfXfX",
"dXkXjXjXxXzXP.H.n G.F.8 .   . 3 eXV.7.o.i i k :.} ..*.r.=.i.wXtXwXV.3.<.5.8.=.7.B.rXyXiXd.f <.u.6.k ,.f.3 O 0 I.T.Y.E.hXE.T.1XE.",
"dXdXxXvXhXR.n n H.b K.8 7 &   q uXwX=.O. .} h h :.} 6.r.+.y.B.V.V.V.j.>.N.p.N.M.wXeX0Xk.l.<. .&.3.,.l d ,   7 I.P.P.S.S.T.hXxXxX",
"<X1XxXE.L.F.9 G.J.J.(.M W.r X 0 CXqXi.q.-.;.i h :.} 8.-.q.+.i.a.y.y.4.a.Z.wXeXeXiXyXf.g } 6.2.1.,.f.2 $ # o 7 P.E.E.E.zXxXmXzXxX",
"1X1X].P.G.F.G.b b J.(.D N B X < 2Xd.N.y.+.;. .h <.<.>.| O.O.i.i.N.N.N.C.C.k.0X3X3Xk.s.[ X.*.1.j g t >   : 0 I.xXzX8XzX8X/.8X8XzX",
"T.P.H.H.9 9 G.9 b b z Q.R B + +   4 iXV.e.q.u.>.i i u i u g V.rXeXiXuXtX{ y y f y y 4.9.o.1.k l.d O O o 1 4X1X8X/./.8XE.8X8X8X/.",
"n 8 8 z b G.G.G.b G.b N N z 8 ;   , 2Xk.M.a.7.8.h } [ [ y g A.0X3X0X0X0X{ u s <.[ [ o.4.2.3.j f , . * 1 r 4X4X~./././.U.8X/.8X8X",
"z z z n b H.G.F.J.K.M z z m H.9 X     4 iXwX9.8.+.+.=.4.p y f f f f f f y u 5.6.7.8.o.} :.,.2 O   + q 7X7X5XW.~.U./.U.U.U.~./.~.",
"c B R !.H.G.G.G.b b M M x B z 9 1 & + < d.d.{  .e.+.e.7.a  .p { [ [ { [ [ a 5.6.*.0.>.<.g f * . & < V z.6X6X6X6X7XU.8X8X4XU.~.~.",
"c c U U x B N N !.Z R Z C Y Q ~.4XA   o o O $ , 5.t.r.e.q.=.7.7.y.=.7.0.7.0.X.X.:.,.{ s., O . + 1 z.( L ~ ~ 5X4X7XU.S xX9X4X7X7X",
"c c F c c E ~.E R C Y Q ^ 5X^.5X/ A 1 1 & & . * { { [  .=.+.+.=.+.;.*.=.0.0.h s s g l f 4 * & & ] ' L L P ' v./ 4XV V 9XIX7X7X7X",
"c U ` ^.^.^.` ^ Y C Z Q ~.5X6X^.6X^.( A A S + + # O % , 4.i.r.-.o. .| <.,.<., $ $ $ . + 4 z.z.z.I c.I G G G C C C V A 9X7Xz.I z.",
"_ _ ^.^.^.` Q Q Y H Q ^ / ^.^.^ H Y ^ 6Xb.~ 1 & & & . * { <.<.[ s s g g l d > . % : & 1 A 6X) ) c.c.' ' I G I ! S C V C S S A z.",
"_ ` ^.^.~.^.E Z H J ) ) ) ) P H ! L Q b._ _ Q Z z.A & X % O $ $ O % O % O O   X 4 A ( ~ ) n.) ) x.~ ) ) ' G J ' z.~ ' { I c.m.G ",
"T T Y Y E E Q E T ! ) n.' L I G Q L H Y G Q ^.W v.z.1 & & & * # & & # & & & & & C T H P P ! ) ) b.z.n.6X) J G J L I ' I z.I I m.",
"^ E E Y W W Y ! ! ~ _ n.! G P P G I _ ! J Q ~.^.5X5XC Q ! z.z.z.A A S A A S C C C H H J H H J Q ( ( ) _ n._ ) ) L I I I m.I I I ",
"D R U c c ^ Y H H J P _ ` Q Q L I P P H ` ! Q ^.P H T L L L ( 5X5X^.^.( H J G T K K E Y T T Q ! P ~ x.~ ) n.) ) x.~ G G I I I I ",
"D M N x c E E T K Y T ! ^ ^ J J J J J J J P Y H Q H H Q ! _ _ _ z.x.c.~ ) ' K K T J K J H J J m.c.c.c.m.) ) c.x.b.b._ ~ L H G P ",
"K.M M z M D D E W T Y H H Y ^ ` T T J T T T T T P H Q T ` ` _ ' c.c.c.c.) ` ! ! ! L L H P G I ) c.c.c.~ c.c.c.c.) x.v.v.) ~ ! P ",
"M M M J.m M z M R K T E T Y E ^ E E R W T K W T Y J G H G P ` ) c.c.c.c._ _ ` ! ~ I L L I I ~ _ c.c.x.c.c.n.n.n.x.x.v.v.b.b.v./ ",
"J.m J.m b m M N N x c F U U U D R R W E E W W T J J J ! J J J ! x.z.c.z.^._ _ _ z.x.z.~ z.x.v.b.x.z.x.x.x.x.~ ~ b.v.x.x.v.b.b.v.",
"J.J.m M m K.Q.!.R N M z z M M N N U W T K T J K T T E T T K T ` ^ ^ ^ ^ ` ^ _ ^.5X4X5X4Xv.b.c.) ~ / v.v.b.b.b.v.x.c.c.c.v.x.x.z.",
"J.J.J.J.Q.!.Q.!.(.!.Q.Q.K.v v b N R !.T K W F F D R E D D E E K R E R R E ^ ^ ~.^ ^.^ ^ ~ ' P I L L ( / / z.x.x.x.v.c.c.c.x.z.c.",
"J.b J.J.m m m m K.Q.Q.Q.Q.K.J.m m J.N m M N B z M K.(.Q.Q.D F x D D R Z U Z Z Y K K K J T K J J ` ) ) v.b.v.x.x.v.c.c.c.z.c.x.z.",
"m J.G.m J.v m M M M M M J.m b v G.b m M m M M m v m J.D M x x x x M x x B B B c K K K K J K J J ! P ! ) v.x.v.c.x.c.b.c.c.z.b.z."
};
