/* XPM */
static char *f39914bc6085476b9b4e5ff701d4753bUUEXMqcx4QXsMfaM[] = {
/* columns rows colors chars-per-pixel */
"64 64 256 2 ",
"   c #050B0D",
".  c #060A0B",
"X  c #050D12",
"o  c #090E13",
"O  c #0B0F18",
"+  c #041314",
"@  c #0A1215",
"#  c #0C151B",
"$  c #0C1A1D",
"%  c #05171B",
"&  c #11151D",
"*  c #121A1D",
"=  c #181C15",
"-  c #13130E",
";  c #231E11",
":  c #162719",
">  c #1B3615",
",  c #0D2612",
"<  c #23241B",
"1  c #29251A",
"2  c #342B1B",
"3  c #30381D",
"4  c #0D1C23",
"5  c #0B1C25",
"6  c #121C24",
"7  c #131E29",
"8  c #171924",
"9  c #0C2325",
"0  c #0C242B",
"q  c #0D2B2C",
"w  c #052826",
"e  c #142225",
"r  c #1C2424",
"t  c #14232B",
"y  c #19242C",
"u  c #142A2C",
"i  c #1B2A2D",
"p  c #182A26",
"a  c #0A322C",
"s  c #1B3228",
"d  c #0C2C32",
"f  c #152532",
"g  c #1A2633",
"h  c #142B33",
"j  c #1B2B34",
"k  c #172C39",
"l  c #1C2D3A",
"z  c #1C2738",
"x  c #0C3333",
"c  c #0B3837",
"v  c #133335",
"b  c #1B3235",
"n  c #13343A",
"m  c #1C323C",
"M  c #163A3C",
"N  c #242D2B",
"B  c #272A24",
"V  c #26342B",
"C  c #383529",
"Z  c #212E3B",
"A  c #232C35",
"S  c #243334",
"D  c #2A3534",
"F  c #22333D",
"G  c #2B3B3B",
"H  c #283A37",
"J  c #333C39",
"K  c #322F23",
"L  c #473B26",
"P  c #513D23",
"I  c #42341F",
"U  c #2A451C",
"Y  c #314C1E",
"T  c #11433D",
"R  c #2B4426",
"E  c #324B26",
"W  c #395529",
"Q  c #2D4438",
"!  c #364739",
"~  c #3A5537",
"^  c #2E5022",
"/  c #49412B",
"(  c #494737",
")  c #544D32",
"_  c #6A5837",
"`  c #79643B",
"'  c #6F613F",
"]  c #456237",
"[  c #1E3342",
"{  c #1C3B44",
"}  c #163844",
"|  c #143441",
" . c #233543",
".. c #233A45",
"X. c #2A3C45",
"o. c #253B4A",
"O. c #2A3C4B",
"+. c #273548",
"@. c #273E53",
"#. c #2A3744",
"$. c #1D434C",
"%. c #164446",
"&. c #1B4C54",
"*. c #185556",
"=. c #0D4945",
"-. c #2E4145",
";. c #24434C",
":. c #2D414E",
">. c #22494E",
",. c #31444D",
"<. c #3A4D4B",
"1. c #364744",
"2. c #3E544B",
"3. c #2C4253",
"4. c #2E495C",
"5. c #274855",
"6. c #334454",
"7. c #33465A",
"8. c #354B59",
"9. c #28575B",
"0. c #3D5356",
"q. c #344C63",
"w. c #364E6A",
"e. c #394D67",
"r. c #2B5A63",
"t. c #355165",
"y. c #3B5265",
"u. c #3A536B",
"i. c #38576A",
"p. c #3C5672",
"a. c #244D65",
"s. c #386669",
"d. c #3B6672",
"f. c #346E6F",
"g. c #126160",
"h. c #455949",
"j. c #465A55",
"k. c #515349",
"l. c #4A6349",
"z. c #4A6456",
"x. c #55695A",
"c. c #577152",
"v. c #716A4D",
"b. c #455968",
"n. c #425B74",
"m. c #445A76",
"M. c #5A7765",
"N. c #48647A",
"B. c #53677A",
"V. c #48757B",
"C. c #546C69",
"Z. c #667968",
"A. c #697875",
"S. c #625F4E",
"D. c #897649",
"F. c #718976",
"G. c #968253",
"H. c #908D6A",
"J. c #AAA56F",
"K. c #1752B2",
"L. c #265AA9",
"P. c #2A6CAF",
"I. c #235497",
"U. c #4C6884",
"Y. c #526D8C",
"T. c #536C83",
"R. c #4B7686",
"E. c #57748B",
"W. c #567393",
"Q. c #5B7594",
"!. c #5D7995",
"~. c #5A7698",
"^. c #5D7B9B",
"/. c #567897",
"(. c #427196",
"). c #617A96",
"_. c #637C9A",
"`. c #657B87",
"'. c #4D78A8",
"]. c #607EA0",
"[. c #1457D2",
"{. c #1868D5",
"}. c #2B75CD",
"|. c #1873E9",
" X c #3F7EE5",
".X c #437FE3",
"XX c #3C8BA6",
"oX c #58828B",
"OX c #5A8397",
"+X c #498C90",
"@X c #64829E",
"#X c #678699",
"$X c #738F91",
"%X c #5290AF",
"&X c #6683A2",
"*X c #6B8BAB",
"=X c #6889A5",
"-X c #7894AB",
";X c #7695B7",
":X c #6A8FB1",
">X c #4DADB5",
",X c #74A1AF",
"<X c #66A899",
"1X c #1D8DD8",
"2X c #2E8ED5",
"3X c #1B8BEA",
"4X c #1A8BF2",
"5X c #1D95EF",
"6X c #2A92E9",
"7X c #39A6EA",
"8X c #26A8F4",
"9X c #25B6F7",
"0X c #33B0F0",
"qX c #1FA7F1",
"wX c #5494D3",
"eX c #6F9BC9",
"rX c #54ADD6",
"tX c #6EAACC",
"yX c #4894E8",
"uX c #46B9F5",
"iX c #4DB0ED",
"pX c #6CB5E9",
"aX c #2ED0F7",
"sX c #31EFFA",
"dX c #29C6EB",
"fX c #70C2DF",
"gX c #47C9F7",
"hX c #55C9F7",
"jX c #49D7F9",
"kX c #56D7FA",
"lX c #55CBEA",
"zX c #6FD0F1",
"xX c #58E7FC",
"cX c #4CEDFC",
"vX c #65EAFC",
"bX c #68F6FE",
"nX c #7AFAFE",
"mX c #75EAFA",
"MX c #88978F",
"NX c #95A495",
"BX c #859DB0",
"VX c #A7B4AA",
"CX c #ABB4AF",
"ZX c #9BA8B2",
"AX c #86A8CA",
"SX c #8EB4D1",
"DX c #A0BBD8",
"FX c #B7C4CB",
"GX c #92D5F1",
"HX c #A4C9EA",
"JX c #8CF2FA",
"KX c #ABF7FB",
"LX c #8ACCDE",
"PX c #D2E8EF",
"IX c #D1E0E9",
"UX c #C3B796",
/* pixels */
"# # 6 6 e j j 7 i u y g j l l Z  .l  ...+.O.+.3.5.4.y.u.m.U.B.R.E.).Q.E.Q.).].;XAXHXHXAXeXeX:X'.:X'.:X].OX*X-X*X#X-XA.-X$XV.f.&.",
"* 6 7 7 e i j u y g g l F F Z Z F l [ ..+.O.O.3.;.5.t.w.m.m.U.R.E.E.Q.Q.Q.).*X;XSXHXHXAX;X;X:X:X:X*X;X].#X=X=X$XV.oXoXoX$XV.V.9.",
"* 8 y y t g b b f i j F  .Z l l F m o.;.o.o.o.O.;.5.4.t.e.m.N.U.T.E.).Q.~._.*XBXSXHXDXAXeX;X:X:X;X].].].*X#X#X#X#XoXoXoX$XV.f.9.",
"6 8 y y y h F F m j j l m l l Z Z m o.{ $.;.o.o.>.9.r.t.q.n.n.m.T.T.E.Q.).].*XBXSXDXSXAX;X;X;X*X].eX].;X*X@XOX=XoXoXF.f.d.V.s.s.",
"6 7 g j g h j b ..m k b F l l [ l l { } >.>.;.o.>.s.d.a.q.u.n.n.m.T.Y.Y.Q._.*X;XDXDXAX;X].eXBX].;X].*X*X_.-X#X=XoXV.V.V.R.V.f.9.",
"7 7 y j j l m j F b l m  .l l [  .l O.o.9.9.5.;.VXNX<XF.A.E.B.V.T.m.T.Y.Q.).*X;XAXAXBX;XBX:X;X].*X].&X*X_.].-X=XoXV.V.f.s.s.r.=.",
"y t h l l F  .F M m b ....[ l [ [ m X.;.8.9.b.MXc.c.VXF.C.$XIXPXKXKXFXW.Q.).].;XBXAXBX;X;X].BX].]._.].&X_.*X&X&XF.R.oXoXV.s.s.r.",
"j j j j j l F l ..M ..O.o.[ l  . .z Z b >.NXW l.] ~ l.f.f.>XmXJXJXnXKXPXPXFX].BXAX;X:XBX].].].].].*X&X_.*X_._._.XXf.OX#X&XoXV.s.",
"l u y j z m  .z A F { ;...z F Z l  .o.{ B.l.U ~ H.H.F.%X>XzXxXJXnXbXbXKXPXPXPXCXUXUXIX=X~._._._._._._._.@X^.^.@X+XOXOX+XR.R.n.$.",
"t f g z j  .O. .F h ..{ m ;.b [ j  ...o.NXl.R S.-X%XCXtX,XvXcXnXnXnXbXvXIXPXFXZX%XMXH.CXBX)._._._.)._._._.^.OX].R.E.R.R.R.+XR.9.",
"h g z f l o.O. .M ..[ ;.M { ;.{ l { O.NX~ ! h.H.%X9XvXeXtXxXxXbXbXbXnXjXrX;XpXkX8X%XD.1.NXBX-X_._.).)._._._._._.W.Y./.=XOXd.f.V.",
"F l A l [ [  .[ l { v F F k ;.>.v X.MX] U / v.H.,XjXaXiXuXxXvXxXbXvXJXxXhXyXiXjXgXMXD.v.L NX-X*X@X_.).).).).).).).Q.^.=X%XOXR.R.",
"t g g z m [ { { +.f [ k #.A l $.l A.W U H L ' S.,XcXgXyXuXcXgXmXmXkXuXaXkXpXyXGXmX$Xk._ L j.BX_.@X).).).).Q.).).~.].].].&X*X*X#X",
"+ # 4 7 m 3.3.;.+.[ { |  .8 0 m G l.E 3 G D L z.tXkXyX}.iXkXgXuXuX8X8XuXhXpXyXGXmX%Xk.L V 1.CX).).).).E.Q.Q.Q.~.'./.].*X&X/.).*X",
"X o   O m 5.5.5.[ @.@.[ } k 0 4 <.Y ^ R S G D j.pXuX}.K.lXjXvXgX0XgXhXiXgXpXpXLXzXrXj.N J F NX_.W.W.Q.Q.W.Q.~.W.~.~.~._.@X@XE.V.",
"@ @ O 7 k M $.a.&.o.@.} a.f.v 8 <.Y R ! i G X.8.lXiX[.2XhXjXgXvXxXuX2X7XuXzXyXyXpXyXw.F D G C.FX).Q.Q.Q.~.~.W.W.W._.).^.!.!.R.p.",
"o   # j z  ...k | 4.@.a.a.r.o.t C.E R Q r i ,.B.zX6X[. XiXkXgXgXkX2XyXkXuXyX6XuX7XwX#XS i G -.l.VXE.).Q.Q.Q.~.~.~.~.~.~.~.).Q.U.",
"O o 6 A f j k 0 [ $.&.a.&.| h l Z.R ! 1.6 6 j.-XvX4X[.yXzXuXjXuXuX7XxXkX7X6X7XgX2XpXtXJ u F <.l.VXT.Y.W.Q.).).Q.~.~.].].~.^.Y.m.",
"O @ 8 y e g l j j { %.n z 8 7 t R R l.j.1.7 A.tXhX9X|.6XeX2X7XgXkXjX7X2X0X7X9XaX{.wXGXx.S X.1.l.NXQ.).).).).Q.~.~.~.~.~.W.W.Y.U.",
"& @ 7 j e e t t h m h 4 5 z y 8 U E M.x.8.#.MXLX6XaX5XyX.XrX1X2XgX2X2X2XfXuXaX9X[.}.GXH.x.,.,.j.A.`.Q.Q.Q.W.W.Y.~.~.~.~./.W.W.W.",
"# @ 7 G j e % # 0 u 8 e 9 s 0 r 3 R 2.j.X.J `.eXK.GXzXuX2XeX7X{.1X}.%XSXpXaXaX5X[.K.zXC.J 6.-.z.Z.MXU.U.Y.Y.W.(./.~.~.~.W.Y.Y.U.",
"@ @ 7 F F f 6 6 4 4 r e u 9 9 e U E <.j.G C U.XXK.IXKXzX7X%X7X5XrXtXeXhXgXsXaX4X[.K.pXb.C ,.-.j.A.CXm.U.U.U.Y./././.W.Y.W.W.Y.Y.",
"& # 9 g f t 4 $ $ 4 t 5 e r $ $ U ~ 2.-.N C N.'.K.AXJXxXaXiXaXaXpXiXuXjXxXcX9X|.[.{.rXj.K S X.j.M.VXU.p.p.n.U.Y.U.Y.Y.U.U.Y.U.U.",
"@ # 4 g h u 7 4 4 9 u t 7 g 8 D ~ h.0.G ( ! `.'.K.'.rXcXxXvXsXsXhXhXjXxXcXaX8X|.[.{.pXA.L 1.G -.C.MXi.i.p.p.d.d.p.N.m.p.m.m.w.w.",
"@ e u u 0 t t % q f 5 t 7 t 7 N 2.j.H : 1.k.MX:XK.L.2X0XaXbXcXsXvXbXxXmXhXaX8X|.{.3XpXH.k.1.: i z.MXp.w.w.q.t.p.w.u.y.w.u.u.w.q.",
"o $ u h h u 9 5 0 0 5 7 8 f f j h.h.S < B k.A.=XK.K.2X5X5X9XsXsXcXuXyXHXPXuX|.{.|.8XeXZ.X.K r G l.F.B.w.i.i.t.w.w.w.w.w.w.u.w.w.",
"X @ e j j e 5 % % 5 5 4 t j z k h.2.D 8 < ! S.T.I.K.}.5X5XqXsXsXdX6X}.DXFXwX|.|.|.6XE.S.J < r V l.F.CXi.i.i.w.w.q.w.w.w.w.w.w.w.",
"o @ 4 u t 9 % % + 4 7 4 j l [ k h.j.2.-.< D ( z.L.[.{.|.4XqXaXaX9X6X}.eX:X X|.|.3XwXk.L B N -.V c.F.CXq.q.w.i.p.q.q.q.q.w.w.p.p.",
"o # $ e 4 4 5 5 % % 4 e m l [ k ~ h.0.8.N B _ G.Y.K.[.[.|.5XaXaXdX5X}.P.P.P.|.5X5X#XD.) B N 5.Q z.M.MX9.4.q.w.i.q.q.4.q.w.p.p.p.",
"o # 6 7 4 4 5 5 9 % 9 h m l k l l.z.z.0.N / D.B.I.L.[.[.{.3XaX9X9X8X}.(.I.}.4X5XP.P.Z.` C S -.1.l.~ Z.t.w.a.w.q.q.q.@.q.w.p.p.w.",
"o # e 0 7 5 5 5 9 9 9 h l l f Z z.z.z.j.! ` D.P.2XR.P.{.{.3XaX8X5X8X{.L.P.3X4XwX%X1X(.G.) V Q s U Y c.b.q.q.4.q.q.4.7.q.w.e.w.w.",
"@ @ $ 4 5 5 5 d 0 9 5 q h j f  .z.x.b.s.k.v.H.>XdXG.V.2X3X5X8X5X4XqX|.5X1X3X2XA.F.dX<XG.` D V s > U c.y.4.@.@.q.q.q.q.w.e.e.w.w.",
"# + t 9 # $ 9 9 q 9 q b f +.@.{ l.j.j.j.) / v.J.H.v.( p.1XdX9X8X4XqX3X8X9X2X(.k.D.J.J.) _ K : s R U F.y.4.5.5.4.q.e.w.u.m.n.e.e.",
"@ $ e % 4 % $ 9 q q 0 0 h @.+.+.Q h.1.D 3 ; h.v.` P C h.N.rXgXdX3X3X6XjXlX(.h./ ) ` _ ! ; K - : V U c.i.4.t.q.4.q.e.u.m.n.n.u.w.",
"+ 9 p 9 u 5 5 0 q v 0 5 | O. .O...z.H C 2 2 F.( ) P L C k.#XSXlXiXuXJXLX#X( K P P ) x.c.; I K , , l.VXb.t.t.w.4.q.b.p.m.p.n.u.n.",
"+ : 9 9 0 w q x 0 v 0 7 [ +. .o...2.J C ; h.F.D.` _ 2 < _ F.BXeX%X%X-X$Xv.( r L _ ` D.<XD ; C , , Z.CX`.w.y.8.7.q.b.m.m.n.n.n.n.",
"+ % , 9 q 9 m n a v u 9 k +. .+...Q 1.< - +X<XD._ 2 = < C S.v.v.k.b.S.v.k.X.r = / ` D.>X9.- V H > > W H.a.w.7.@.y.p.b.N.n.N.N.m.",
"+ $ 9 a 9 9 M x v h h q f [ +.o...! <.: X >Xz.3 1 ; B r D G J ) L L h.8.O.A r r = 2 I <X+X. N Q > > W F.e.w.e.@.8.t.y.n.u.T.T.N.",
"$ a q p a w c x M d v 0 k [  .O...2.-.* X.>X( P ; D r r N J <.J < B 1.1.D N : N N 2 / j.XX: # N > s W F.q.q.q.@.@.q.i.n.u.R.N.y.",
"+ p w a v a c c x a x q  .[ [ ..;.1.,.Q V.+XP L N D * = B N J V 2 B D D N < = r D 1 L / >X<.i p : ! CXE.7.7.q.7.@.q.n.N.n.N.p.@.",
"+ @ # n %.c w h c a m n $.$.} 6.8.,.2.<.( ! 2 B G N = - ; < < K j.h.< < < ; - r D D 1 2 ( J G s , V ZXB.n.e.m.m...4.).E.q.m.O.o.",
"+ + a g.g.=.w c T M x | $.&.| 3.b.,.~ ,.S i J J D N * t * = = 1 h.#.; ; = = @ r V D 1.J r p i p , : S.T.B.B.T.m.y.7.y.m.O.3.;.y.",
"s % a =.=.*.=.T %.T } c *.&.$.&.O.3.S 1.0.j.j.J N * S 6.-.F p 1 C C ; 8 i F p @ : D 1.j.H m s H > > x.b.m.B.b.B.E.y.{ q.:.{ ;.;.",
"+ + w M } %.=.=.c M x $.&.r.*.r.o.;.M R j.1.N * + : 8.0.<.3...N < < 8 z X.-.-.# o * i ! S S : H j.C.e.b.b.m.b.b.b.0.[ 7.o.m $.>.",
"a w a T =.c n M v v n } 9.&.r.*.>.M %.b Q <.Q m i u O.,.8.6.<.y o @ m -.:.-.:.S * * e : : : , E _.b.b.7. .b.b.@.8.3...O.:.;.>.>.",
"v c c T c d d w a M w m } %.} } $.$.>.>.Q l.2.1.0.Q G -.<.0.<.X.S G <.<.j.z.<.H V N s $ , > , C.N.b.b.O.f 8.b.e.0.3. . .3.5.M %.",
"% a c 6 5 5 d v 0 a q q m v } =.&.r.*.r.9.v -.b ~ 2.2.C.2.2.1.<.2.h.x.z.h.Z.F.l.! s : > > > ~ b.@.b.b.#.e o.7.8.7.O.o.} { { n 5.",
", w x q q q w h a T M v v d x &.&.&.*.*.&.$.m b a Q z.M.M.x.z.z.j.x.x.l.h.] M.l.E R U U U U j.3.7.b.6.#.f ..3.o... .{ { 4.>.n $.",
"$ + w T n x } h u q x T c %.u F *.*.r.&.$.;.m h u 4 ~ h.l.l.h.x.M.c.c.] W Y W W Y W W W ] j.6.6.@.7.6.A f z O.3.O.+...m n { { 5.",
"w + , w n M v k w n 9 a u 9 v x c } *.T d m l f j h v u s V ^ ~ h.2.~ Y Y Y Y Y W E E ! 1.O.@.7.@.O.+.A z f [ 3.7...k k [ 5.} } ",
"T a v 9 w v d 0 w M h w M x 9 v n } { k 0 7 7 7 h f g u z j j t b ~ k.E U R H ....o.O.,.O.6.7.7.+. .Z A #.A l z z f u k } @.&.| ",
"% w a w 9 t q w 5 h v x M n h h m l b k t 7 y y u u e t A F Z f g #.X.+.#. . ...m F  . ...,.@.+.O.O.+.Z g t j Z  .l j h k | 5.{ ",
"+ + w x v 9 h n c q 0 v v v s.} 5 d o.u t u h u 4 7 7 4 7 u g g 5 5 7 f ..+. . .b b F k  . .O.+.+. .3.6.O.A 7 y y y 6 $ 5 0 { h ",
"$ $   9 c w x b } } x 0 q 0 M q d 0 } 0 j t 7 4 4 4 6 7 4 7 7 u 6 # 5 6 A F g y h 9 u f l f [  .@.[ [ +.O.#.F j 8 * * 6 7 f l f ",
". + $ , v x M v x v n w n [ 0 l k f 0 4 i 8 4 6 g u 7 7 7 t * $ 7 6 8 5 7 y 7 y 4 # 4 g f f f  .[ O.3.O.@.O.O.F j y 7 6 5 7 7 f ",
"  + $ + $ $ u } c q h f 5 0 n 0 l  .t 4 6 o 6 6 e t 4 4 # t 6 * $ 8 8 4 8 7 6 * % y i F j  . .O.@.@.7.3.O.+.F Z  .z g Z z [ 0 7 ",
". .   X   X : b v k h 0 9 4 6 7 5 t g t * @ O @ 7 t 7 6 # # $ * $ t $ @ 6 & & 8 5 5 j O.-. .[ :.7.q.e.@...l j g g g i j k [ +.+.",
"  . .   X X + % 0 0 h h 0 4 4 6 t 5 @ y y @   # @ # # $ 4 6 # @ @ e * # 8 4 # 5 # 5 z F  .[ l +.8.6.O.O.O.6.3.O.z 7 6 j Z +.+.l ",
"X   .   +     + % 4 u f 4 4 # 6 t @ X & y 8 $ # 4 6 # # @ # # & @ 6 * & # # @ % # 7 y g g l z ..@.6.@.O.....@.6.6.X.g 6 8 7 7 7 ",
"X   . @ X   X @ + 4 e e 8 4 4 6 & 4 @ o & y y 6 6 7 y 7 & # 6 r * y # # # 6 5 # X O O 4 6 7 f  .+.+. . ...+.o. .+.,.F g g A y 8 ",
"        . . @ $ # # $ & 4 6 8 5 & # @   o 6 8 5 # 8 y r * * & 8 9 p % + X 4 & O o o O & 8 y 7 j F m  . . . .O.@.3.@.X.X.O.Z 8 6 ",
"X   . . . o o @ $ @ @ @ o & # # # @ o o @ & 6 # & # # & & & @ @ 9 j e 6 O 8 8 & @ & & & 7 y 7 7 O. .l  .O.6.@.O.@.o.O.#.#.A z z ",
". . . . . . o @ @ + X . X o O # o @ o . O 8 8 @ 8 # @ # @ o o o 9 i t y # y 7 8 @ @ & O 8 8 6 7  .O.O.@.6.@.6.8.O.O.X.F g z g 4 ",
". . . . . . X $ @ * o     X @ # # @ O o o @ # & @ # * 8 & @ @ # + * O # X e 7 O * O o # 8 6 7 F 8.O...O.O.7.O.O.Z g y 7 g Z  .A "
};
