/* XPM */
static char *_512b08ac4c74531b7323ca51a78826fhccEkWVD3I27g6bL[] = {
/* columns rows colors chars-per-pixel */
"64 64 191 2 ",
"   c #1A110E",
".  c #151515",
"X  c #1C1412",
"o  c #1D1817",
"O  c #121A1E",
"+  c #1A1818",
"@  c #3F0C00",
"#  c #25120C",
"$  c #3B1205",
"%  c #3F170B",
"&  c #3F180B",
"*  c #241511",
"=  c #291612",
"-  c #261815",
";  c #2C1913",
":  c #251A18",
">  c #311B15",
",  c #33231E",
"<  c #131C20",
"1  c #172227",
"2  c #182328",
"3  c #1E292E",
"4  c #1F2A30",
"5  c #232223",
"6  c #3A2E2B",
"7  c #37302E",
"8  c #232D32",
"9  c #2A2F33",
"0  c #263137",
"q  c #2F3236",
"w  c #273338",
"e  c #2B363B",
"r  c #2D383E",
"t  c #333434",
"y  c #393737",
"u  c #3B3837",
"i  c #33373B",
"p  c #383738",
"a  c #353A3D",
"s  c #3A393A",
"d  c #410E00",
"f  c #461202",
"g  c #4D1504",
"h  c #4E1806",
"j  c #441609",
"k  c #4A1708",
"l  c #45190A",
"z  c #4C1A0B",
"x  c #501705",
"c  c #541A06",
"v  c #591B07",
"b  c #551B09",
"n  c #5B1E09",
"m  c #4F1F10",
"M  c #641D07",
"N  c #691E07",
"B  c #601F09",
"V  c #611F09",
"C  c #601F0A",
"Z  c #611F0A",
"A  c #671F09",
"S  c #611F09",
"D  c #681E08",
"F  c #52210F",
"G  c #5B200B",
"H  c #5D200A",
"J  c #5E200A",
"K  c #5F200A",
"L  c #5E200B",
"P  c #5F200B",
"I  c #5F210B",
"U  c #5E210A",
"Y  c #5F210A",
"T  c #5F200C",
"R  c #5E210C",
"E  c #5E200B",
"W  c #4E2315",
"Q  c #532212",
"!  c #5C2613",
"~  c #60200A",
"^  c #61200A",
"/  c #60210A",
"(  c #61210A",
")  c #60200B",
"_  c #61200B",
"`  c #60210B",
"'  c #61210B",
"]  c #62210A",
"[  c #62210B",
"{  c #63210B",
"}  c #63210A",
"|  c #61220B",
" . c #62220B",
".. c #63220B",
"X. c #602009",
"o. c #65230B",
"O. c #66230B",
"+. c #61210C",
"@. c #61210D",
"#. c #62210D",
"$. c #61220C",
"%. c #62220C",
"&. c #63220C",
"*. c #63230C",
"=. c #63220D",
"-. c #62220D",
";. c #63230E",
":. c #65230C",
">. c #64230D",
",. c #65230E",
"<. c #64230E",
"1. c #66230C",
"2. c #65240D",
"3. c #67240D",
"4. c #65240E",
"5. c #67250E",
"6. c #63220C",
"7. c #6A260F",
"8. c #69250F",
"9. c #6A240D",
"0. c #6A280F",
"q. c #742107",
"w. c #75240B",
"e. c #7A250B",
"r. c #7A280F",
"t. c #672510",
"y. c #672510",
"u. c #692610",
"i. c #692710",
"p. c #6A2610",
"a. c #6B2710",
"s. c #6A2510",
"d. c #6C2711",
"f. c #6D2711",
"g. c #6C2712",
"h. c #6A2710",
"j. c #612816",
"k. c #6D2811",
"l. c #6E2911",
"z. c #6E2A12",
"x. c #6E2912",
"c. c #6D2911",
"v. c #712A13",
"b. c #722A12",
"n. c #702911",
"m. c #742C13",
"M. c #722B13",
"N. c #7B2B12",
"B. c #543126",
"V. c #2E3B41",
"C. c #343E43",
"Z. c #334046",
"A. c #862608",
"S. c #84260A",
"D. c #882609",
"F. c #892709",
"G. c #84290D",
"H. c #8C2B0D",
"J. c #952B0A",
"K. c #942E0E",
"L. c #982E0D",
"P. c #9B300F",
"I. c #812C12",
"U. c #8B2E12",
"Y. c #942F10",
"T. c #A62F0A",
"R. c #A42F0B",
"E. c #A3310E",
"W. c #AB320D",
"Q. c #B0320B",
"!. c #B3330C",
"~. c #BD360C",
"^. c #BF360C",
"/. c #BC360D",
"(. c #BE380F",
"). c #A13210",
"_. c #AB3511",
"`. c #B33610",
"'. c #B53812",
"]. c #BA3911",
"[. c #C0360C",
"{. c #C1370C",
"}. c #C1360C",
"|. c #C3390E",
" X c #C93B0F",
".X c #C63D13",
"XX c #CC3D12",
"oX c #D13F12",
"OX c #CF4014",
"+X c #D44114",
"@X c #DA4415",
/* pixels */
"n i.U n >.n.n.>.n h v c g g c G O.` v c c U ` c c v U ;.R n y.y.v b b g x v n Z >.>.$.Z v v n >.v n Z c n b v b.Z n b.s.n Z y.b ",
"2.k.U U >.k.k.>.v h H v g v v J O. .v v v U ` v v J U ` y.n $.$.x v n g c v $.2.Z $.>.Z v v n Z v Z n x v c n b.y.n g.a.n n $.b ",
"k.i.n ` g.n.k.>.n g v v x v v B 3.8.v v H U U v v U G G n n >.>.x n v v v v >.>.n n >.>.v v Z o.v n n b n x v g.n n g.@.v $.$.x ",
"k.U n >.k.g.a.R U g v x x c v v  .2.` v v U v v v 2.v n n R A >.c v b x c n o.Z c n A Z v v v >.n n n c v h Z a.@.n M.y.v $.Z k ",
"i.$.G 2.k.8.$.n G g v x g x v v U $.8.U x $.v v v 5.J U n U Z >.x n c c c U o.v b v n n v v c Z n n c v n h A g.$.c g.8.n >.>.c ",
"R U n a.k.0.t.n Y g v x g c v ` o.8.>.n c y.v v v ;.G U n ` >.o.x n c R ` 2.Z v v v Z Z v n n n v ` c x v g n g.y.h a.a.n $.$.b ",
"n n U 8.a.k.a.U  .v v x g v v X.o.8.Z U n >.n c v G v ` n b D.v A.o.k Z n $.v n Z v Z A n v v n n n c h Z x n m.s.x a.t.v ` Z n ",
"G n 2.;.n t.a.n J c c x g v v v ` >.>.` $.$.c b G G v F v W.}.v T.}.R.Z b v v x c Z v n v v n v Z v h c Z g Z v.g.c t.2.c n $.R ",
"U c a.$.b R $.U H g c g c v c v ` 8.Z n 2.` v x n Z k J.^.^./.M T.}.}./.M g v x x v c v v v v v Z c g v v g v s.g.c y.s.c >.Z n ",
"x c a.$.R n n U v x v g g c v v ` $.Z n 8.o.v h n q.x Q.^.^.^.v T.}.}.}.N D.q.h h c v v v n v n M b k Z n g c s.v.n a.y.v n n n ",
"x R 2.n R c b R H x c g h c c G >.A n Z >.n v x w.Q.v Q.^.^.^.M T.[./.}.N L.^.q.c c M v c v v v c c n s.Z f b 9.m.n g.y.n R n G ",
"n $.y.n $.n x n v g g g x v v c n >.n Z >.v b w././.v Q. X}.[.v T.}.}.}.N J.[.^.w.x v x x v c n n x #.s.Z f v s.m.n y.a.n n n G ",
"n >.R n ;.n x n v x g g h v G v @.Z n y.S S q.^.^./.v !.oX+X.XM W.}.}.}.N J.}.}.(.Z x c g h x n n x s.s.v g c 9.v.n t.t.n $.n >.",
"$.8.n $.U $.G G v v x x x v n v S S n A @.$ !.}.^.!.v /.@X@XoXM `.}.}.}.N J.}.}.}.q.x h h g c v n c >.n c g M >.k.c v.a.` $.n y.",
"$.t.b U v U Y J v c x g h v n v v v n A z c !.|././.M .X@X+X@XN !.|.XX|.q.J.}.}.}.q.M b v v c n v n >.v k g v y.g.c g.k.>.$.v R ",
"$.R n n c U U H v v h g x v v v n v n z F.v !.[./.|.A .XoXXX@X9.'.XXXXXXw.J. XXX}.q.F.q.v n c v n n n v d g v >.v.c a.a.$.2.R R ",
">.>.n R x n $.` v v g g v U v v c v v A.Q.v /.|.}.XXA .X+X+X@XN ].@X+X@Xw._.oX+X Xq.F.Q.l v c v c n y.x d f v n g.n g.a.n n n t.",
"8.y.n >.c n 2.n x v g x c v v c v c z !.Q.v ^.oX.XXXA .X@X+X@XN ].@X@X@Xw._.@X@X@Xe.F.|.w.x c n c n Z h d f S S g.n g.g.Z y.n ! ",
">.a.n $.v ` 2.b c c v c c v v x x c S.}.Q.v |.@X+X+XA XX@X@X@X9.].@X@X@Xw._.@X+XoXD.F.oXT.k c v n n Z g d g n @.g.n #.y.` ` n $.",
"n 2.R $.n 2.8.n v c c c v v v x c b Q.|./.c XX@X@XoX>..X@X+XOX9.].XX+X@Xw._.@XXX@XH.L.XX}.v v v n v n h @ g S A g.n #.s.` $.R R ",
"n k.>.R >.$.$.v v x x v c M v c c S.|..X|.S oX@X@XOX>..XoXoX@Xq.].+XXX@Xw._.oX+X@XG.L.@X}.A.c n Z c n h d f n n k.n t.k.>.>.Z G ",
"n k.>.2.2.U $.n v x x c c M c c v H.oXXX.XA oX@X+X+X>..X+XoX+XN ].@XXX@Xe._.oX+X@XG.P.@X+XQ.c v Z c Z c f f v Z v.n t.M.Z ` U R ",
"v 2.>.>.$.U $.n v x b g v v c x v K.@X@X.XA oX@X@XXXk y.'.@X@X9..X@XoX@Xw._.@X@X@XH.P.@X@X!.x v n v y.n c f c n g.n t.g.U ` n R ",
"v ;.9.$.$.` ` c c c x x v v v c M Y.@X@X.X#.XXXXOXA + C.B.U.U.k e.U.J.U.z w.Y.Y.Y.v O.Y.K.e.h v n v s.Z c f c M g.n >.k.n ` G R ",
"c ` 0.G R U R $.n v c h b v b c c Y.oX@XXXA oX.Xy.. 8 e C.i s p s s p s s s s s s s s s s t k v v v Z #.n f b @.v.n t.g.n $.n ;.",
"b U 8.n b R U $.>.n x x v v v c c J.oX@X.X$.XX).> 1 w q V.C.r r C.C.r r r p C.V.e i C.V.e w l n n b v y.#.x g n g.v a.g.n 2.R R ",
"n n 2.t.b b R R ` ` x c v v v v v J.oX@XXXA .XoX).# 8 e 9 > ; X ; ; ; ; X = ; > ; # = > > = k n n v x Z ,.x g n g.v g.g.$.$.$.n ",
"n v 2.k.n x b c n ` v x v c x v v Y.oX@X.X>.OX@X@XP.# 5 g././.M R..X/.}.N K.|./.|.w.D..X].!.h c v v x b A v x n a.v k.g.Z n $.x ",
"Y v U k.U v b n $.` G x n v c v n Y.@X@XXXA OX@X@XoXv J.XX@XXXD ].@X@X@Xw._.@XoX@XG.P.@X@X.Xb x n n c h n n g n t.c a.i.>.$.9.c ",
"5.G b i.a.b b a.k.$.c x v v v v v Y.@XoX(.9.XX@X@XoX>..X@X@XXXD ].@X@XoXw._.@XXXoXG.L.@X@X.Xz v Z c v x v n g n t.x t.M.a.n 8.R ",
"4.G c 5.i.n n k.k.8.c x v n ` v v Y.@XoX(.A XX@X+XOX>..X@XOXXX9.].@X+XXXw._.@XoXoXG.L.@XXX.Xk v n v v v x n h Z t.x a.m.g.` >.>.",
"i.G c I a.a.$.a.n.8.n x c U ` v v Y.@XoX.XA OX@XXXoXA XX@XoXXXA ].@XoX@Xw._.@X@X@XH.L.@X X.Xh v Z v v v x Z g n t.x 2.m.8.n $.>.",
"2.n b R >.a.a.k.0.2.G c x v b v v Y.@X@X.Xy.oX@XoXOX#..X@X@XXX9.].@X@X@Xn._.@X@X@XG.P.@X+X.Xx n n c x c c Z x v s.b y.M.s.c n @.",
"n U n n s.a.a.a.R 2.G h h h v G v P.@XoXN.> U.oX@XOXA .X@XoXXXD ].@X@X@Xw._.@X@X@XG.P.@X@X.Xc v n b b v v v c v y.v n M.y.b n s.",
"n I b n >.a.k.$.U i.Y v c x c v c Y.oXr.  <   G.@XOXA XX@XoX@X#.].@X@X@Xw._.@X@X@XG.P.@X@X.Xb v U v G c c v c v s.n b v.t.n n a.",
"b ;.c c y.>.a.$.n 0.5.v v x c v x L.Y.+ k m l o ).OX#.XX@X@X@Xq.].@X@X@Xw._.@X@X@XH.P.@X@X.Xz v ` b G v v b c n f.n n m.y.n 2.y.",
"h I G c >.7.8.2.b 2.$.x h x v v v P.r.O n A Q < U.OX9..X@X@XoXD ].XX+X@Xw._.@X@X@XG.P.@X+X.Xh n ` G ` U c c b v g.n c v.8.Z n 2.",
"x ;.Y b ` a.n.>.n t.2.n g g g c n Y.Y.5 5 * 7 6 _.oXA .XoX@X@X,.].+X+X@Xw._.@X@X@XG.P.@X@X.Xb v U U n o.n v b n a.y.c g.g.Z n ` ",
"h ;.;.c n 2.g.$.2.k.a.n h v h h b Y.oXI.: . 5 U.OXOXA .XXX@X@Xq.].@X@X@Xw._.+XXX@XG.P.@X+X.Xb n `  .U o.U c c v y.y.c a.0.` U R ",
"c G I G c 8.n.>.U a.2.b x v x v c Y.@X@X_.c !.oX@XoXA .XXXOX@Xs.].@X@X@Xw._.@X.X@XG.P.@X@X.Xc n ` o.n ` n c v x n y.v k.7.n n $.",
"G H 0.H x ;.k.2.n 8.$.U c c x v v K.@X@XoXA OX@XXXXXA .XoX@XoXD ].@X@X@Xw._.@X+X@XG.P.@X+X.Xz n y.A v n v b v x >.s.b g.a.n c g.",
"` x ;.G v 2.0. .U 8.$.n c c x v v K.@X@XXXA OX@XXXXXy..X@X@X@Xw.].@X@X@Xw._.@X@X@XG.P.@X+X/.x n $.s.Z n v v c c A y.b M.t.n b i.",
"o.x ;.G v $.8.2.n 8.>.n v v g v v Y.oX@X.XA OX@XXXoXA .X@X@XoXD ].@XOX+Xw.`.@X@X@XG.P.@XXX.Xb n Z >.v v v v c c Z y.c g.a.$.b 2.",
"8.v 2.U v $.k.2.n 2.>.` v v g x v Y.@X@X.Xy.OX@X@XoX#.XX@X@XOXs.].@X+X+Xe.W.@X@X@XG.P.@X.X.Xh b Z Z v c n v b g n y.n g.g.U n 2.",
"8.b ;.I b R 0.8.U >.$.n n c x v v Y.@X@X.XA OX@X@XoXA .X@X@XoX9.].@X@X@Xe.W.@X@X@XG.P.@X@X.Xb n >.n c v n n k g n y.n m.8.>.c 2.",
"8.U I 5.n n 8.a.$.>.$.n c c x c n Y.XX@X.XA .X@X@XoXz y.].@X@XD ].@X@X@Xw.`.@X@X@XH.P.@X@X.Xx U n Z c c v n x x n y.n v.2.>.v 2.",
"0.U b i.b n 8.k.2.$.$.v b x x x Z Y.XXoX.XZ .XXXoXD o C.B.Y.Y.g G.P.Y.Y.b w.Y.Y.P.G O.P.P.H.x v v v v c n n x x t.$.R M.a.>.n $.",
"8.U c ;.n U k.k.a.8.$.n h x c c v K.@X@X.XA XXXX9.. 8 i C.s p p u s s s p s s s s y u s s t z x x c c v Z v x v g.n n m.k.U n 2.",
"O.>.x 2.n U i.a.k.8.$.Z h c v Z c Y.@X@XXXA +X'.> 1 e q e C.V.V.C.C.V.V.V.s Z.V.V.i C.C.V.w l n c c c v Z c x v a.T >.m.n.n n k.",
"` ` b a.n ` 0.a.8.a.` ` v c v n v K.@X@X.XA OX@XP.# 3 V.9 > - X = > = = X : > - ; X : ; = * l v v v c M n v c c a.Z a.v.a.$.v t.",
"o.` n ;.b 2.a.a.8.k.$.n c v v v v K.@XXX.XA OX@X+XP.  5 y.`./.M P.(././.M J./././.N S.(./.W.c n v c c v n n b v g.R g.g.8.` v 2.",
">.2.G ;.c 2.a.g.k.k.R n c c v c v L.@XXX.XZ OX+XoX+Xv H..X@X@X9.].@X@X@Xw._.@X@XoXS.P.@X@X.Xb >.9.M v Z v v v v g.c a.g.8.` n i.",
"o.$.n $.c $.a.i.i.;.n n x x c v n K.@X+X].o.OX+XXXXX>.XX@XoX@XD ].@XoX+Xe._.@X@X@XS.P.@X@X.Xb n 9.Z v v v v c v a.b t.v.8.>.v 8.",
">.Z U R x 2.v.t.U v b n c h c v v K.@X@X.Xo.OX@XXXXX>..X@XXXoX9.].+XXX@Xw._.@X@X@XU.P.@XoX.Xb n Z v c n v n h v t.c g.v.o.n v 2.",
"8.$.c R b 2.M.t.c b n n v c n c c K.@X@X.XO.+X@X+XXX>..X@XoX+XN ].@XoX@Xw._.oX@X@XG.P.@XXX.Xv v Z x c $.v n h Z a.c k.k.$.U n t.",
"` Z c n c ;.a.$.b $.` ` x v v c n L.@X@X.XD +X@X@X+XD XX@X@X@X9.].@X@X@Xe._.oX@X@XS.P.@X+X.Xn v n c n $.n Z x >.g.c g.a.9.U n 5.",
"$.R b b n $.i.$.U $.2.` c v x b v S.].].W.c !.'.]._.c _.'./.'.n ).]./.'.A H.'./.(.9.A.(.].E.n v v b v n v v b Z >.n v.a.s.Z n y.",
"a.n n n n t.k.n n R ` n c v v v v B ` n n b b W m b j.Q Q W Q j.! ! m j z ! l W F ! ! Q m G v c v v c v b b x A >.n m.a.>.c c $.",
"8.c U U n >.$.b U n c x g v v v v ` ` v n b v v h c t.U G n n k.y.$.x g n Z h c v ` O.n c v v c n b v n c c g s.$.n g.y.>.c n $.",
"o.k R R b 2.2.n R v v v v c n c v U G v b n v x h b t.n R n b a.$.Z g c >.n h c c U O.o.v v ` v v v M v v b v s.n $.v.a.$.c $.R ",
"n g n c b 8.a.U U c g g v h v h v o.n v v n b v x x R G n n R t.>.n k n >.c g c v ` ` o.v v Z n v v A v n b b s.Z $.n.g.>.h $.n ",
"h k R b U 8.2.n J h f g v c x x v ` U c v U n v b v ;.n b y.$.t.g.c g Z >.v c c n 2.n n b c n A v v Z b n x v f.n R k.g.o.v $.s.",
"x x R b ` n.0.U J g g c v v n v n O.G v x b b x c v 2.n n n n >.o.h v a.o.c n n n 8.A v c v n $.b v Z c v x v g.n ! a.y.$.n >.n.",
"f b ` b O.0.2. .J g g v h v v ` n U H n x n U v x G 2.n n n n Z >.f Z ` x x v v n s.n v v b Z Z v Z $.v v b v f.n v a.$.Z n $.>."
};
