/* XPM */
static char *c6870b05099f4769acc767986b5d8dabm3dYFHEEbucdGni1[] = {
/* columns rows colors chars-per-pixel */
"64 64 169 2 ",
"   c #0E0A09",
".  c #110907",
"X  c #160E0C",
"o  c #180F0D",
"O  c #16100D",
"+  c #1A110E",
"@  c #171717",
"#  c #1D1412",
"$  c #1D1817",
"%  c #15191A",
"&  c #1B1B1B",
"*  c #2A0F07",
"=  c #260E08",
"-  c #25110C",
";  c #2D120A",
":  c #371004",
">  c #36160E",
",  c #3A170D",
"<  c #3E190E",
"1  c #221613",
"2  c #291612",
"3  c #251916",
"4  c #2A1915",
"5  c #251A18",
"6  c #2C1D19",
"7  c #321B15",
"8  c #3A1A12",
"9  c #311E1B",
"0  c #2F201C",
"q  c #33221E",
"w  c #131C20",
"e  c #172227",
"r  c #182328",
"t  c #1E292E",
"y  c #222222",
"u  c #2C2826",
"i  c #2B2B2B",
"p  c #362620",
"a  c #3C2722",
"s  c #3D2924",
"d  c #322C2B",
"f  c #3D2F2A",
"g  c #37302E",
"h  c #3F302B",
"j  c #232D32",
"k  c #2A2F33",
"l  c #263137",
"z  c #2F3236",
"x  c #273338",
"c  c #2B363B",
"v  c #2D383E",
"b  c #313131",
"n  c #393737",
"m  c #3B3837",
"M  c #33373B",
"N  c #383738",
"B  c #353A3D",
"V  c #3A3A3A",
"C  c #4A1708",
"Z  c #45180C",
"A  c #4B1909",
"S  c #551806",
"D  c #5C1A06",
"F  c #531C0B",
"G  c #5A1B09",
"H  c #411C12",
"J  c #641D07",
"K  c #691E07",
"L  c #631E09",
"P  c #681E08",
"I  c #5D200D",
"U  c #542010",
"Y  c #66200A",
"T  c #6C210A",
"R  c #742107",
"E  c #75240B",
"W  c #7A250B",
"Q  c #7A280F",
"!  c #662612",
"~  c #6B2713",
"^  c #7B2B12",
"/  c #412C26",
"(  c #442E28",
")  c #463129",
"_  c #4C342D",
"`  c #4F382F",
"'  c #543126",
"]  c #50362F",
"[  c #523730",
"{  c #553A32",
"}  c #5A3E35",
"|  c #5C4037",
" . c #5D4037",
".. c #5E4037",
"X. c #5E4138",
"o. c #5F4138",
"O. c #5F4238",
"+. c #604239",
"@. c #61443A",
"#. c #63443B",
"$. c #63453B",
"%. c #65463C",
"&. c #67473D",
"*. c #68473D",
"=. c #67483D",
"-. c #69493E",
";. c #6A4A3F",
":. c #2E3B41",
">. c #343E43",
",. c #334046",
"<. c #424242",
"1. c #494949",
"2. c #535454",
"3. c #5D5D5D",
"4. c #6B4B40",
"5. c #6C4B40",
"6. c #6D4C41",
"7. c #6E4D42",
"8. c #6F4D42",
"9. c #6F4E42",
"0. c #704E43",
"q. c #704F43",
"w. c #724F43",
"e. c #735044",
"r. c #745145",
"t. c #755246",
"y. c #785447",
"u. c #785448",
"i. c #795548",
"p. c #7A5548",
"a. c #7A5648",
"s. c #7A5649",
"d. c #7D584A",
"f. c #5F6060",
"g. c #616262",
"h. c #842609",
"j. c #882609",
"k. c #8A2709",
"l. c #84290D",
"z. c #8C2B0D",
"x. c #942E0E",
"c. c #982E0D",
"v. c #9B300F",
"b. c #812C12",
"n. c #8B2E12",
"m. c #942F10",
"M. c #A52F0A",
"N. c #A42F0B",
"B. c #A3310E",
"V. c #AB320D",
"C. c #B2330C",
"Z. c #BC360D",
"A. c #BF360C",
"S. c #BE380F",
"D. c #A13210",
"F. c #AB3511",
"G. c #B33610",
"H. c #B53812",
"J. c #BA3911",
"K. c #C0360C",
"L. c #C1370C",
"P. c #C3390E",
"I. c #C93B0F",
"U. c #C63D13",
"Y. c #CC3D12",
"T. c #D13F12",
"R. c #CF4014",
"E. c #D44114",
"W. c #DA4415",
/* pixels */
"p O.8.8.4.8.4.4.p 4.a.i.i.i.i.i.a.$.p } O.} } O.} +._ p } } [ p ( } } +.} / a +.O.} $.} +.+./ ` a.] { a.a.a.8.q } | } O.} +.} O.",
") ) 4.8.8.4.8.;.s 4.a.u.i.i.i.i.e.s 6 O.} O.O.} O.} p ( _ a 6 ( p 9 ) } +._ p } } O.} O.+.} s ` a.&.t.a.a.a.;.q } O.O.} O.} +.} ",
"&.` =.8.8.8.8.` ` a.a.u.i.i.i.e.` ) p O.O.} O.O.O.{ 1 6 6 ( O.7.7.[ 6 p ( { p ` | } } O.} +._ / e.a.y.a.a.a.4.p } O.} O.} O.} +.",
"8.8.8.8.8.8.O.p s O.e.a.i.i.i.i.8.+.p } O.O.O.} [ s s } 0.y.0.%.;.t.8._ a p 5 _ $.} O.} } +.} p 4.y.a.=.} &.4.9 } O.O.} +.} +.} ",
"s s s s s s 1 6 q q s { 8.9.9.e.O.p 1 p 6 q 9 6 u 6 [ 0.+.$.} [ { &.} 8.$.5 # s { { { { { } } p 4.e.{ + 1 $ p # q [ { { { { { { ",
") ) ) _ ) ) _ } O.} 6 h p p 0 6 ( { { ( # 6 o 4 } O.q q a a 7 = > p a a p / +.( 5 1 p 0 0 1 p 3 _ f / 5 q q 7 9 # 1 2 # 3 # 1 3 ",
"O.O.O.O.O.O.O.O.| } 0 %.;.%.h { ;.8.0.[ 1 5 [ 7.7.4.+.9 + A j.D h.L > # q 4.t.8.O.p ` +.4.{ f / ) O.=.5 / / / a a a a a 9 # p a ",
"O.| | } O.| | | | } 0 %.8.;.$.8.8.8.7.6 1 [ u.t.+.O.( 8 D C.K.J M.K.N.L 8 a ( [ e.$.q s &.8.8.0.8.4.;.p 9 / 8 / a / a / 9 1 / a ",
"{ } +.} } +.} +.| } 0 %.;.4.8.4.4.4.+.5 [ u.0._ / 7 ; x.K.K.Z.D M.K.K.K.D = 7 a +.a.$._ s 4._ s &.8.8.{ 4 a a / a a a a 9 7 a a ",
"p a } +.+.} O.} | } 0 %.4.8.4.8.4.4.s [ u.0._ / 7 K S C.K.Z.K.J M.K.Z.K.K j.R 8 ( ;.| } [ a ) +.&.8.8.{ 2 / a a a a a a a a a a ",
"_ p { } } +.} +.| } 0 %.8.4.8.8.4.9 _ t.u.{ s 9 R C.D C.K.K.Z.D M.K.K.K.K c.A.R 7 ( 7.0.4.5 _ 0.8.8.8.{ 2 a a a a a a a ( a a a ",
"} } O.} +.} +.} | } 0 &.4.8.4.=.a 4 9 [ 4._ 9 R Z.Z.S C.I.P.Z.L M.K.K.K.K c.K.K.W 9 ] +.a 4 q } 7.8.8.{ 5 a a a a a / a a a a a ",
"O.} +.} } O.} } | } 0 &.8.8.8.{ a O._ 9 5 7 R Z.K.A.D C.E.E.U.L F.K.K.K.K c.L.L.K.J 1 4 s } +.9 O.7.7.} 5 a a a a a a a a a / a ",
"} ( { +.O.O.$.O.| | 0 =.8.8.| q +.t.&./ # : Z.K.P.C.D Z.W.W.Y.L C.K.K.K.K c.L.K.K.R . a 8.y.0.( ( 7.7.7.a 9 a a a a / a a a a a ",
"0 p a { / / / / f s 1 ) _ _ s ) t.7./ 9 A S C.K.Z.Z.J U.W.T.W.P H.K.I.K.R x.K.K.K.R J H / +.d.0.a [ 7.7.a 9 a a 9 9 a / a a a a ",
"` &.) a ) + 3 3 4 4 5 4 5 O p 8.t._ a H j.J Z.Z.K.K.L U.T.T.E.E H.Y.Y.T.R c.P.T.P.R j.R 6 _ 0.u.] q } } 9 9 9 4 ( ( 9 9 9 a H a ",
"u.a.e.8.e.5 s s a a a a a 6 } d.&.a 4 j.C.D Z.K.U.U.J Y.E.T.W.P J.W.E.W.E F.T.W.T.R j.C., / +.} 8.6 5 a a p a +.u.0.6 6 p 6 q 0 ",
"a.u.y.a.=.6 s / a a a a 9 9 0.u.+.p A C.C.S K.T.U.T.L U.W.W.T.P J.W.W.W.E F.W.W.T.W j.K.R 9 %.;.a._ u t.u.u.t.u.u.t.p +.8.7.8.8.",
"u.i.i.i./ 9 a a a 9 a a 4 _ 7.[ } 7 h.K.C.D P.T.E.T.! Y.W.W.W.~ J.W.E.W.Q F.W.T.T.z.j.T.M.< _ y.u.O.1 } u.u.u.d.u.t.a O.4.8.4.8.",
"a.i.i.i.s 7 / a a 1 1 1 o o.} } ( Z C.P.H.G T.W.W.T.L U.E.E.W.L J.T.E.W.E F.W.T.T.l.c.T.K.G / t.;.%.q } d.u.u.u.a.t.p 4.8.4.8.4.",
"i.a.a.a.s 9 a a a a a 4 1 #.u.0.9 h.Y.Y.P.L T.W.W.Y.! U.T.T.W.T J.T.T.W.E F.R.T.W.z.v.T.P.j.7 $.*.+.q } a.u.u.u.a.0.s O.4.8.4.8.",
"i.a.y.a./ 9 / a a a a a 1 } 0.7.9 j.T.T.U.P Y.W.W.T.L U.T.T.T.T J.E.T.W.E F.T.T.W.z.v.W.T.C.> { ;.%.q } d.u.t.7.8.[ _ 4.8.4.8.4.",
"i.i.y.a.a 9 / a a / a a o 5 9 9 o m.W.T.U.! E.E.W.Y.C ! J.W.T.E J.W.T.E.Q C.W.E.W.z.B.W.T.S.* 1 6 5 o } d.d.u.7.( 5 ` 8.4.8.4.8.",
"i.a.&.} 6 a a a a a a a # [ [ _ 2 m.W.T.U.L Y.T.T.L $ >.[ m.z.C Q m.m.n.A E v.n.m.I Y m.m.W - / [ [ 6 } u.u.u.d.8.f ` 8.8.4.8.4.",
"a.u.[ s 5 a a a / a a a 1 } 7.7.9 c.T.T.U.P T.P.! % j :.:.>.N N V V V V V V V V V V m V V b # _ 9.e.q | d.y.s.y.d._ ` 8.9.9.9.9.",
"_ _ / O . a a a 9 2 4 1 # o.*.{ 4 z.T.W.U.! T.D.7 w z b >.>.:.z >.>.c v c V >.:.l M >.>.c x # a | i.s q _ _ _ _ _ 6 0 ) / / ( ) ",
"p p p a 5 1 6 # a ( ( a 1 #.p.{ 6 m.T.W.U.P U.T.D.= t :.k 7 4 o 4 7 - 4 # 2 7 4 2 1 3 > 4 2 + / =.y.) q / ) ( / / / ) / 0 p } } ",
"[ _ ` ` _ p # s } } O.} 4 #.p.{ 4 v.T.W.U.! R.W.T.v.- y ~ Z.Z.J B.P.P.P.J x.P.K.U.E j.U.P.V.> ( e.s.) ) +.| +.} O.O.O.O.) ) d.a.",
"_ _ [ _ [ a a } O.O.} } 5 #.u.{ 4 m.W.W.T.T Y.W.T.T.G m.Y.T.T.T J.W.W.W.W F.W.T.W.l.v.W.W.U.> } y.e.) / } | | +.| | | | f { u.u.",
"[ _ _ _ _ a a O.} O.} } 5 #.u.{ 4 m.W.T.J.P E.W.W.T.! U.W.T.U.T J.W.W.T.E F.W.Y.Y.l.v.W.W.U.> +.8.{ / ) +.| +.} | | } } q e.i.a.",
"_ _ _ [ _ a p O.} O.} { p 7.7.0.9 x.T.T.K.Y T.E.W.E.! U.W.T.T.T J.W.E.T.E F.W.T.E.l.c.W.Y.U., +.4.4.) ) +.} +.} | | | { p e.i.i.",
"_ _ _ _ _ a 9 } O.} O.} p } [ 7.9 m.W.T.U.Y T.E.T.T.P U.W.T.T.T J.W.E.W.E C.W.T.W.l.v.W.Y.U.> +.a.y.) ) | } +.| } | | } q e.i.i.",
"_ ] _ _ ` s # ) } +.| { q +.| | 0 m.W.W.P.Y R.W.R.R.Y L.E.E.I.T J.W.W.W.~ F.W.W.W.z.v.W.E.U.> +.a.a.) ( O.} O.} +.} } } q e.a.a.",
"_ _ _ _ ` q 0 q { | +.{ 4 ) _ f - m.W.E.Q 0 n.E.E.R.Y R.W.E.R.T J.W.W.W.Q F.W.W.W.l.v.W.W.U.> f } ` 9 ( O.O.} O.} +.O.a [ u.a.a.",
"[ _ ` _ _ q q ` ` +.| | + 0 q 0 O m.W.E O % + z.E.R.Y R.W.W.E.T J.W.W.W.E F.W.W.W.l.v.W.W.U.; 3 6 6 # s _ } } } +.} +.a O.a.y.a.",
"_ _ _ [ ` s s O.+.| | { q =.e.;.0 m.m.@ A U < @ B.E.Y R.W.E.E.T J.W.W.W.E F.W.W.W.l.v.W.W.U.> } 0.0./ 5 f +.+.O.} } _ 5 O.d.a.u.",
"( ( ( _ ) q q { [ { { ` q e.i.%.4 v.Q w U Y U % z.E.Y R.E.E.W.T J.Y.W.W.E F.W.W.W.l.v.W.W.U.> +.a.d.(   6 q 9 9 q q s s f / ( ( ",
"9 9 6 9 0 0 4 5 2 q q q 0 r.e.` 4 v.m.& 0 O g g v.E.I R.E.E.W.T J.Y.E.W.Q F.W.E.W.l.v.W.W.U.> / ;.a.( 1 9 q 9 1 s &.8.;.} { { { ",
";.;.;.;.;.;.e.) ` t.t.;.q r.r.) 5 x.W.b.0 @ q n.R.R.Y R.R.E.E.T J.W.W.W.E F.Y.Y.W.l.v.W.W.U., a { a.) 9 / / / 4 ) e.8.8.8.8.0.=.",
"8.;.8.;.;.e.;.) ` i.y.t.s ;.;.O.4 x.W.W.V.S V.E.E.R.Y J.R.W.W.T J.W.W.W.E F.W.Y.W.l.v.W.W.U.> a } d.) 6 a a a 2 ) 8.;.8.;.;.&.f ",
";.8.8.8.;.8.8.) ` i.i.e.q O.=.e.q x.W.W.R.T R.W.I.R.Y L.R.W.W.T J.W.W.W.E F.W.E.W.l.v.W.E.U.> ) 0.e.) 6 / a / 4 ) 8.8.4.8.8.` ) ",
"8.8.;.8.8.4.4./ O.i.i.e.q e.i.;.q x.W.W.R.I R.W.I.R.Y R.W.E.E.T J.W.W.W.E F.W.W.W.l.v.W.E.S., | 0.{ / 6 / a a 4 } 8.4.8.4.8.;.;.",
";.;.8.8.8.8.O.a i.i.i.e.s e.d.| 4 x.W.W.P.Y R.W.R.R.Y I.W.E.E.T J.W.E.E.W F.W.W.W.l.v.W.I.U.> &.y.+./ 7 a a q q ;.4.8.4.8.4.8.4.",
"8.8.8.;.4.8.} a t.i.i.e.q i.i.O.4 x.W.W.R.Y R.W.E.R.Y R.W.W.W.T J.W.E.E.E F.W.W.W.l.v.W.P.U.> O.p.y.( 4 a / q 9 4.8.4.8.4.8.4.8.",
"8.4.8.8.8.8.4.p i.i.i.e.q ;.;.=.4 c.E.E.R.Y R.R.W.R.Y R.W.W.E.T J.W.W.W.W F.W.W.W.z.v.W.W.U., } 0.w.( 6 / / q 9 4.4.8.4.8.4.8.4.",
"8.4.4.} a ( { 0 i.d.e.{ + 0 q q O c.E.E.R.I R.R.E.R.C ! S.W.W.T J.W.W.W.W F.W.W.W.l.B.W.W.R.; 5 6 9 1 9 / q q 6 8.8.8.4.8.8.8.8.",
"_ ) 1 6 _ ( 0 5 ) { 5 4 1 ) ` ) 2 c.R.R.I.I L.R.E.T & >.' m.x.A l.m.m.m.F E m.m.v.I T m.m.l.; p { { 6 1 6 6 5 1 _ _ _ _ _ _ _ _ ",
"5 5 1 ( O.} } } ) s q q 6 t.p.;.0 x.W.R.R.Y R.R.~ O j x >.V m m V V m m m m m m V m m m N b $ / e.d.( 6 s s s q $ q s 5 q ) ) ) ",
"s s 2 ( } +.} } $.+.+.} q t.u.} 4 x.W.W.R.Y R.H.0 e x g x ,.v v >.,.c v :.V >.:.x B >.>.:.x $ s 0.y.) ) ;.| } s ) +.+.s { 0.8.8.",
"( s 2 ( +.+.+.} } } } { q t.7.( 4 x.W.W.R.Y R.W.v.- t v j 0 4 + 4 4 4 2 # 4 5 2 4 3 3 4 2 2 O ( e.d.) ( +.} [ q } } | q { 8.;.8.",
"a / 1 ( +.} +.} +.} +.} q t.+./ 4 x.W.R.S.Y R.W.R.v.# 0 ! Z.Z.D M.Z.Z.Z.Y c.A.Z.S.Y k.S.Z.M.> | y.0.) ( } +.} } +.} +.s [ 4.8.;.",
"a s 4 ( } +.} +.} +.+._ 9 t.+./ 2 x.W.R.S.Y E.E.E.R.I l.I.W.E.T S.W.W.W.E F.W.W.W.h.v.W.E.R.8 | y.$./ ( +.+.} | } +.+.q { 8.8.8.",
"/ a 5 ) +.} +.} ..} [ 9 5 0.7./ 2 x.W.E.J.Y R.W.R.R.Y R.E.R.E.T J.W.R.W.Q F.W.W.W.l.v.W.E.R.> | d.a.) ) +.| +.} O.O.{ q ;.8.4.8.",
"/ a 2 ( +.O.} +.} +._ a 6 [ 7._ 3 x.W.W.R.Y R.W.R.R.I R.E.R.E.T J.E.R.W.E F.W.W.W.h.v.W.R.S.> | y.a.) ( +.} } +.| O.) s 8.;.8.4.",
"a a 2 ( } +.} } +...+.{ q 7.t.} 0 x.W.E.R.I R.W.R.R.Y L.W.E.E.T S.W.R.E.E F.R.W.W.l.v.W.R.R.> / e.a.) ( | } +.} | O.) s 4.8.4.8.",
"a a 2 ( +.} } +.} ..} { q 0.t.7.0 v.W.E.R.Y E.E.E.E.Y R.W.W.W.T J.W.W.W.W V.R.W.W.l.c.W.E.R., h 0.d.) ( +.| } +.| O.) s 8.4.8.4.",
"/ / 5 ) O.O.} ) a _ } } 5 _ [ _ 3 W S.H.V.U H.H.H.G.I B.H.S.H.I B.J.H.H.Y z.Z.H.J.T h.J.H.V.> q ` ` q ) +.+.O.+.| ;._ a 0.8.8.8.",
"- 5 X 6 p s q # 1   6 p u i b d i d ) h h u h g f h d b f f f d f h h g d h g h ) d d ) f f i i d i i q q s q q p p 6 1 / / h ( ",
"@ @ $ @ @ $ % & y w $ $ i 1.2.2.2.2.2.2.2.f.g.f.f.f.f.f.f.f.3.g.f.f.f.f.g.g.f.f.g.g.g.f.f.3.2.2.2.2.<.& $ @ % % % @ @ @ @ @ & i ",
"i u r y y y & u b d u y w y y u t 0 t 0 u V | ,.,.| | ,.,.| <.<.<.<.| ,.2.f.g.f.g.g.f.3.1.b u y i z u y y y y i z y y y 0 r 0 r ",
"u y y y 0 e y y y y w y y y y y u i e y 0 & y e e r 0 r y i i i y y y & u B 2.2.2.2.n i y y 0 i b u e y 0 r 0 j u y % y r r y y ",
"r y y y y y y y y y y u b u y y i u y y e y y y 0 e & 0 y i i i y y y r & 0 u r y y y & e y r r 0 r & 0 r e & 0 y y d b u 0 y y ",
"0 r 5 i i z b y y y y u u y y y y y & y y y y u b i r 0 y & y y y y r 0 0 0 z g i & y y u u r 0 r & r 0 y u u y y y y u i 0 y % ",
"e 0 r i k u y 5 y y y w y y y y y y y y y y y y y x 0 e y y y y & y e 0 e r 0 r 0 e u b b i 0 r 0 e 0 r y i b d w y r 0 r r 0 r "
};
