/* XPM */
static char *b84816e98f714c4e87c6d2f1cec514214Kbkdt0DiJS9d62B[] = {
/* columns rows colors chars-per-pixel */
"64 64 256 2 ",
"   c #040B0D",
".  c #05090A",
"X  c #050D12",
"o  c #090E13",
"O  c #0B0F18",
"+  c #051314",
"@  c #0A1215",
"#  c #0C151B",
"$  c #0C1A1D",
"%  c #05171A",
"&  c #11151D",
"*  c #11191E",
"=  c #0D1C23",
"-  c #0A1B23",
";  c #121C23",
":  c #131E2A",
">  c #1A1E25",
",  c #0B2324",
"<  c #0C252A",
"1  c #0C2B2D",
"2  c #052726",
"3  c #132226",
"4  c #14232B",
"5  c #19242C",
"6  c #132A2C",
"7  c #18272A",
"8  c #0C2C31",
"9  c #152532",
"0  c #1A2633",
"q  c #142B32",
"w  c #1B2B34",
"e  c #1C2D3A",
"r  c #172C38",
"t  c #0C3333",
"y  c #0B3836",
"u  c #133335",
"i  c #14333B",
"p  c #1C323D",
"a  c #17373A",
"s  c #0C322C",
"d  c #232D3A",
"f  c #39243A",
"g  c #22333D",
"h  c #29373C",
"j  c #37383E",
"k  c #282E2A",
"l  c #162025",
"z  c #561B38",
"x  c #6E082A",
"c  c #7A0126",
"v  c #77072B",
"b  c #6A1938",
"n  c #50273B",
"m  c #79243E",
"M  c #0F433D",
"N  c #4F4C3A",
"B  c #615C3B",
"V  c #6F6838",
"C  c #1D3443",
"Z  c #1C3B44",
"A  c #163A44",
"S  c #173041",
"D  c #262F41",
"F  c #233543",
"G  c #233945",
"H  c #2A3B46",
"J  c #233749",
"K  c #253B4B",
"L  c #2A3C4C",
"P  c #2B3547",
"I  c #343D42",
"U  c #353949",
"Y  c #243C51",
"T  c #2B3E53",
"R  c #363E55",
"E  c #332D41",
"W  c #532E42",
"Q  c #553543",
"!  c #4B3A47",
"~  c #712F47",
"^  c #1D434B",
"/  c #184546",
"(  c #185556",
")  c #13494A",
"_  c #23434C",
"`  c #2C414D",
"'  c #26484B",
"]  c #3A454B",
"[  c #2C4254",
"{  c #244C52",
"}  c #2A4A55",
"|  c #2D445B",
" . c #2E495D",
".. c #254556",
"X. c #324454",
"o. c #344B54",
"O. c #32465B",
"+. c #344A5C",
"@. c #3A4B5C",
"#. c #3D4553",
"$. c #2A545A",
"%. c #375258",
"&. c #334C63",
"*. c #3A4D63",
"=. c #354E69",
"-. c #394D6A",
";. c #2C5762",
":. c #36516B",
">. c #3A536B",
",. c #385567",
"<. c #3C5572",
"1. c #3E5A73",
"2. c #3F5779",
"3. c #2F4961",
"4. c #38656B",
"5. c #3B6673",
"6. c #326A6C",
"7. c #0C665B",
"8. c #444545",
"9. c #4B4B4C",
"0. c #44484A",
"q. c #585644",
"w. c #474B55",
"e. c #485559",
"r. c #5B5B5B",
"t. c #535455",
"y. c #554D4B",
"u. c #66595D",
"i. c #654A4F",
"p. c #706D54",
"a. c #465967",
"s. c #595E62",
"d. c #425B73",
"f. c #445D7C",
"g. c #425772",
"h. c #414F61",
"j. c #6C5661",
"k. c #4B6266",
"l. c #516265",
"z. c #5C6162",
"x. c #59666C",
"c. c #4A637B",
"v. c #486479",
"b. c #546677",
"n. c #48757B",
"m. c #5C7478",
"M. c #656565",
"N. c #6C6C6C",
"B. c #65676B",
"V. c #75756A",
"C. c #697477",
"Z. c #737374",
"A. c #7C7C7C",
"S. c #73787B",
"D. c #6D6E71",
"F. c #8E191C",
"G. c #84032B",
"H. c #8A0B35",
"J. c #9A0A36",
"K. c #960A35",
"L. c #921438",
"P. c #B63D3D",
"I. c #D30000",
"U. c #CF0300",
"Y. c #F50303",
"T. c #FB2323",
"R. c #CD2F1C",
"E. c #877A31",
"W. c #B2793F",
"Q. c #982C47",
"!. c #A3544A",
"~. c #ED4E4F",
"^. c #DD4E50",
"/. c #C85600",
"(. c #7E8479",
"). c #B19D12",
"_. c #BBA513",
"`. c #93872C",
"'. c #B29D2C",
"]. c #A69635",
"[. c #A6952A",
"{. c #B7A429",
"}. c #B1A438",
"|. c #CCB410",
" X c #C8B735",
".X c #D3A90F",
"XX c #DEC51E",
"oX c #968F4F",
"OX c #B2A84B",
"+X c #898B75",
"@X c #ABAB6F",
"#X c #A79A46",
"$X c #C4A951",
"%X c #465E80",
"&X c #4C6785",
"*X c #526C8B",
"=X c #536C84",
"-X c #4B7786",
";X c #56738C",
":X c #567394",
">X c #5B7593",
",X c #5C7996",
"<X c #597698",
"1X c #5E7B9A",
"2X c #567897",
"3X c #556F91",
"4X c #747E85",
"5X c #627C9B",
"6X c #627A96",
"7X c #6C7E87",
"8X c #5E7DA0",
"9X c #607EA0",
"0X c #827F80",
"qX c #57838B",
"wX c #588497",
"eX c #4C8690",
"rX c #6C8388",
"tX c #76898C",
"yX c #77888A",
"uX c #64829E",
"iX c #67889A",
"pX c #798A91",
"aX c #7D9397",
"sX c #6583A2",
"dX c #6A86A3",
"fX c #6C8CAB",
"gX c #668AA7",
"hX c #6D92B6",
"jX c #7696B7",
"kX c #708EAA",
"lX c #799BC1",
"zX c #7FA8C6",
"xX c #88898A",
"cX c #889598",
"vX c #949494",
"bX c #9B9A9A",
"nX c #8D918B",
"mX c #A39694",
"MX c #AAAC8C",
"NX c #8A9DA4",
"BX c #979FAA",
"VX c #97A9A9",
"CX c #93A8AF",
"ZX c #A2A2A2",
"AX c #ABABAC",
"SX c #A4A8AB",
"DX c #B6B6B6",
"FX c #B3AFA8",
"GX c #97A89F",
"HX c #CCC8AD",
"JX c #86A8CA",
"KX c #93B4D2",
"LX c #9DBFE2",
"PX c #A4C9EA",
"IX c #BFC1C4",
"UX c #CACBCB",
/* pixels */
"# $ ; ; 4 0 w 3 7 7 7 9 w w e e F e p F F L J [ ` } ,.>.d.c.c.-X>X6X>X;X>X>XsXjXJXPXPXJXlXlXhX8XhX8XhX8XwXgXjXkXrXkXm.aXiXn.6.( ",
"* ; > ; 4 7 w 6 7 0 5 d g d d e g e F G K P K [ _ ..+.-.g.f.c.-X;X;X>X;X>X6XfXjXJXPXPXJXlXlXhX8X8XhXgXhXiXgXiXiXqXqXrXrXaXn.(.;.",
"; ; 5 5 7 0 w a q 7 w p g e e e g p K Z K K J K ^ }  .,.:.f.d.c.=X;X>X6X>XuXfXjXKXPXLXJXlXhXhXhXgXhX8XhXkXiXwXiXqXqXqXqXiX-X6.( ",
"; ; 5 0 7 6 g h p 0 w p e e e e e p G Z ^ _ J G _ $.;.;.&.g.g.f.b.=X;X>X>X5XkXjXKXLXKXJXhXhXhXhXgXhXgX8XfXsXwXiXqXqXn.n.5.5.6.6.",
"; ; 5 w w 9 w w h p q w F e e F n n Z A ^ _ _ H { ;.5.;.3.-.g.g.f.b.*X3X>X5XfXjXKXKXJXlXjXjXjXkXgXgXgX8XgXgXgXgXqXn.6.(.(.n.6.$.",
"> : 5 e e e p w Z a w p F e e j ^.!.H ^ $.$.` F _ %.4. .&.-.g.<.d.f.=X*X>X5XfXjXJXJXJX0XhXhXkXkXgX8XgXgX8XgXkXdXqXeX5.4.6.7.;.( ",
"4 4 0 r e g F g p p p F G d r E ^.Q.H _ $.$._ Z ^ } $. .3.,.,.g.g.d.c.*X>X>XsXkXJXJXNXjX9X9X9X9XgX8XsXsX8XsXdXuX(.6.qXwXv.6.6.$.",
"w w w r 0 e g p Z a Z H K F h n ~.P.j p ^ / _ ` } $.$.;.;.1.>.g.g.g.f.=X3X>X5XfXNXJX9XkXjX9XkX5X8X8X8X8X9XsX9X9XeX6.wXiXiX,Xn.6.",
"e 7 9 d e e F e d d g ' C e F.Y.Y.T.^.y.[ _ } { $.{ $.} 3.&.*.-.>.<.&X3X3X3X6X5X9XNX9X9X9X9X9X5X6X6X5X5X5X1X8XwXeXgXwXeXeXeX5.^ ",
"4 9 0 0 0 F L F a q G Z a _ F.Y.Y.T.~.Q r e K _ ;.} $.{ [ R O.O.*.>.c.>X<X3X6X5XkX9X9X9X9X5X5X5X5X6X5X5X5X1XwXuX-XeX-X-X-X-Xn.;.",
"q 0 0 9 e K ` F a G p _ A Z F.U.Y.T.~.Q 0 D J ..{ ( ,.+.[ T R 3.*.-.f.;X8X3X6X9X5XkX9X5X6X5X5X5X5X<X>X5X5X5X5X5X2X3X2XgXwX5.6.-X",
"p e d e p F F p g C u p p 8 F.U.I.R.mX8.0 d F K 6.b.vX@.T T R @.SXZXxXxX0X>X6X5XkX9X5X5X9X9XNXkX5X5X6X6X6X6X>X6X8X2X2XgXgX2X-X-X",
"4 9 d 0 p C Z G P q S r I R F.I.U.P.vXI 4 q _ $.k.C.SXb.w.T Y *.IXDXbXvXcXcX5X5X5X5X5X6X1X9X9X5XuX6X6X>X<X6X>X6X<X8X8X8XsXfXfXgX",
"+ # - ; p ....K P r K S #.nXP.I.U.P.vX` 0 p { $.B.(.bXvX4XP Y h.AXAXvXvXSXUXBX>X6X5X6X>X5X9X5X6X6X,X>X>X3X<X>X<X8X<X8XfXsX2X,XgX",
"X o   # p { } ..C Y C C +.nXW./.U.P.vXnXS.G w.a.D.oXOX@XnX7Xh.*.AXZX0XbXAXAXNX6X6X>X>X>X6X<X>X>X:X;X>X;X:X:X<X:X<X<X<X1XuXwX;Xn.",
"o O O : r A ^ 3.( Z T Y a.vX}._.R.P.vXUXAXw s.D.V.].|.@XvXvXs.*.SXbXD.ZXAXvXvXvX6X>X3X>X<X3X3X3X;X>X>X,X:X<X:X:X<X<X6X6X1X2X-X1.",
"o   # d r F G e i } | b.S.vX}.|.|.$XbXUXZXe e.V.).).{.|. XbXx.@.AXbXZ.ZXZXZ.xXvXvX4X%X&X3X&X*X*X&X3X<X>X>X>X<X<X<X1X8X<X>X1X>Xc.",
"O o ; 0 : r q < p ^ ..x.A.bXoX[.XX$XbXDXZXI p.oX`.`.E.`.].OXq.w.AXbXZ.VXZXZ.xXZXbX5X%X%X%X&X&X&X*X*X3X3X>X5X<X<X:X<X8X8X<X,X:X2.",
"o @ ; 5 4 0 e e e Z / z.xXKXaXp.).'.vXDXbX0.E.[.q.8.0.] V |.E.t.AXbXC.VXZXZ.bXAXbX7X%X%X%X%X%Xf.=X3X6X>X>X>X:X2X<X<X<X<X:X:X3X&X",
"& & ; d : 3 3 7 6 a k V oX!.vXbXp.(.(.ZXbX8.q.q.0.V `.q.9.V N t.AXbXrX!.xXZXZXMX XoX=.<.2.2.2.%X%X=X6X;X:X:X3X:X<X<X<X<X:X:X:X;X",
"& @ 3 g 0 3 % # 1 4 > `.].N.nXGXN.B.V.ZXmXB B B B E.{.V B B V (.FXbXZ.V.A.ZXvX+X|.`.-.<.<.g.<.%Xf.%Xc.&X&X3X3X&X2X2X,X2X2X:X&X&X",
"@ + : h g 7 * 3 = $ > `.].V.V.C.M.B.Z.SXMX|._.'._.).{.'.}.).|.XXFXmXD.D.N.V.D.V.).`.1.2.<.1.<.<.f.f.f.&X%X&X3X2X:X,X;X3X:X;X*X*X",
"@ & : 0 9 7 = $ $ , 7 `.'.].}.].p.S.bXDXFXoXoX+X@XOX}.@X@X@X@X@XDXAXmX#X].oXoX#X).oX1.<.1.1.<.2.<.1.v.1.2.5.&X*X&X3X&X&X=X&X&X&X",
"@ # = q q 9 3 = $ , 7 V [.).|._.(.!.AXDXSXpXpXcXGX@X{.MXCXCXCXCXAXAXFX}.).[.[.].].p.:.v.&Xg.:.&.&.&.:.:.>.1.1.5.<.v.f.1.f.2.>.:.",
"@ 3 6 6 < 4 4 - 1 9 = 7 k N N q.k.z.t.yXpXtXtX+X{._._.XX XDXCXGXt.M.pXq.N N N q.k.g.3.&.-.&.-.T | &.&.=.=.=.=.>.=.:.,.>.>.>.=.&.",
"@ $ 7 q q 6 = - 2 < : ; 5 h n 0.l.t.] s.C.tXpXyXOX}._. X@XVXCXaXz.z.x.0.8.] I #.2.:.....T T 3.3.|  .+.=.,.,.&.=.*.=.=.=.=.>.-.=.",
"X @ 3 w w 4 - % % = : - < w j 9.z.t.N j t.tXtXpXCX@X_.@XCXCXaXrXpXx.j N 8.0.U T =.3.| T T T | T O.|  .=.,.,.:.:.&.=.=.=.=.=.-.-.",
"o + , 7 7 , % % % % - - k I 8.9.z.B.C.C.rXGXaXrXaX(.+XGXVXaXNXNXtXC.t.9.8.8.] ] | | Y | R T T T T T  .;.3.=.>.:.*.&.&.&.=.<.<.<.",
"o # $ 3 : - - - % % = < h 8.8.9.p.V.tXtXaXNXaXaXtXtXtXNXNXtXaXNXrXB.r.9.9.8.9.8.O.T T T T T T T T T | 3. .3.,.:.&.&.3.3.-.<.<.-.",
"o # : = = - - - , % = q h 8.] q.'.oXrXtXtXrXaXVXtXtXtXaXrX(.rXqXrXC.r.t.t.8.8.8.T Y T T R | T T O.T ..3.3.=.;.=.&.3.| &.-.<.<.-.",
"o # 3 4 = - : < , , - 7 h 8.Q m oX!.iXtXpXcXaXaXrXrXtXVXMX}.}.OX(.D.r.r.y.b n 0.T Y | R 3.3.T T |  .| 3.3.3.3.&.&.O. .&.-.-.=.=.",
"o @ $ = = - - 8 < , 2 < g ! L.Q.Z.4XyX(.tXVXaXrX(.qXtXDXHXXXXXXX+XD.r.t.i.v b 8.T Y 3.3.O.O.T T ..3. .| | T ..+.&.+.&.=.:.=.&.=.",
"@ + 3 ; # # , $ 1 2 1 q f L.~ u.z.Z.A.o.o.x.x.x.7XxXbXZXDXHXHXIX+XA.Z.z.i.c v x Y | &.&.&.T | O.| T | | | .... .&.*.&.>.1.d.>.-.",
"@ $ 6 , , % , , 1 6 , 1 f J.i.z.u.M.N.U H k.l.l.m.yXZXZXAXDXDXAXx.s.a.w.n H.c x R 3.=.=.=.&.| 3.| | 3.3.3.} +. .&.-.>.g.<.g.>.>.",
"+ , , , 4 = - 1 1 u < - f J.~ z.z.z.r.H H l.l.l.a.S.ZXbXbXbXNXxXK e r r f K.G.x R =.=.=.=.3.3.3.3.=.=.&.,.,.+.+.*.-.g.c.d.d.,.g.",
"+ , , , 4 2 1 t 1 q 4 ; E J.L.Q.u.t.H p p L o.e.s.j.Q.j.x.pX!.~ D C e r f J.H.x T =.3.=.=.3.| 3.=.-.-.3.&.,.&.| &.a.d.c.1.d.g.g.",
"+ + , , , < a i 1 t 6 < f K.J.J.u.w.p F F L o.%.a.~ J.Q 9.j.~ x D J S D n H.c x R 3.3.3.-.=.3.3.<.<.-.3.&.=.O.Y =.a.d.v.d.v.v.d.",
"@ $ , s < < a t u 6 6 < f J.J.K.u.w.C L X.l.l.l.%.Q J.H.v c c v D S J S f c c x T 3.&.=.-.-.-.=.=.:.>.=.&.&.3.Y +.*.,.1.1.=X=Xv.",
"$ , s 7 s 2 y y a 1 u < f J.b W u.w.G L ] l.l.l.k.~ J.K.G.c G.H.D D S S E f x H.U | 3.=.=.:.&.&.=.=.=.&.&.O.&.R [ &.,.1.1.=Xv.,.",
"+ s , s u 1 y y t t 1 1 E J.W K M.e.G K o.k.k.k.k.~ K.J.K.c K.H.E S J J Y J ~ L.U  .3.3.=.=.&.&.3.3.3.3.O.| O.*.K &.v.v.,.v.1.Y ",
"+ @ $ u / y 1 6 y s p r U J.n +.s.t.@.X.o.%.e.k.%.Q v K.K.c H.H.E Y Y T T T b K.P Y T O.&.| | *.d.b.g.d.>.>.d.d.J  .6X;X*.v.K K ",
"+ @ s 7.7.M 2 y M u 8 A U K.n } s.s.@.F C o.%.e.%.n c K.K.c G.H.P R O.&.O.&.~ L.R O.*.O.| T &.g.=Xd.-.b.c.c.b.c.,.+.*.g.K [ } %.",
"s $ s M ) ( ) M ) M A y R K.W { s.e.K C a %.%.%.%.n c K.K.c c x P @.O.T T T ~ K.#.@.@.T [ Y T T O.O.T *.b.b.a.c.=X,.F @.[ A Z _ ",
"+ + s u / ) ) M y i 8 ^ ' w. .$.s.e.p F p Z } %.%.n c c G.K.z j F X.X.J Y T b v R [ X.[ @.*.O.T *.>.*.*.h.g.@.d.k.,.C X.L a ^ { ",
"1 , s M M y y A t u u A  .) ;.$.z.%.G A p C L o.o.n v c G.J.n F F [ L J T K z v ! +.@.*.a.*.h.a.v.g.a.X.D *.h.O.o.[ F L L _ ' { ",
"s M y M y 8 8 2 t u 2 a A ) A / r.e.{ ' ^ i g h o.n c c G.J.W a G ` F K T T z x #.+.@.@.@.X.o.@.d.a.a.U 4 +.a.a.@.[ J G [ { a / ",
"% s y ; # - 8 i 1 1 1 1 a t y ^ z.l.( ;.{ _ ' ` ' n c c G.J.W o.Z Z C K R X.! W T R [ T +.[ X.[ 3.a.h.F : F o.+.@.L K A Z A i } ",
"% 2 t 8 8 1 2 6 s M a i q 8 t $.z.e.( ( ( %.%.%.H n v v v K.Q } Z Z C F L T R Y T [ [ K [ K T T T @.+.P 4 G ` _ F F Z Z } { S Z ",
"$ + 2 M y i p t q 1 s M t M w h z.e.6.) ' o.$.o.0.y.u.u.i.G.n o.6 w r G L D P J F F F G F L K R +.X.L 0 0 e J ` L L G p i Z Z } ",
"s + $ s a i i q 2 t 2 6 1 , g ] B.z.4.%.%.l.k.r.t.t.t.z.u.~ i.l.#.#.] w.e.s.@.L L L K ` T T T +.T P F d e : e [ O.F e i C ..A A ",
"M s s , 2 i u < - a 8 2 M u 0.N.A.A.A.A.(.A.A.A.t.9.t.r.N.A.A.A.(.A.A.A.4X!.e.F G L K ` L X.O.O.K e e e F d e w e 9 4 r A ^ ..A ",
"% 2 s 2 , 4 < 2 < q u t ' e.z.B.N.N.N.N.V.A.A.S.t.9.9.r.N.A.Z.N.N.N.D.(.yXiXZ.x.g p G C J U T P L G L d 0 : 0 e F e 0 6 r S ..A ",
"+ + 2 M s , 6 u y 1 < u h M.M.M.M.M.M.M.N.Z.A.A.t.9.9.r.M.A.N.M.B.B.M.V.Z.A.Z.Z.g u p q F F J F F C T X.U 0 : : 0 3 ; = - 9 C 8 ",
"* + . s s 2 u e / i 8 2 h M.M.M.M.M.M.M.M.M.Z.Z.t.y.9.y.r.A.V.M.M.M.M.N.M.N.N.r.h , 7 9 C 9 e F L C F F L H g w > * & ; : 9 r 9 ",
". $ $ $ s s M a 8 q i 2 a o.I ] ] ` H I I j I ] h h h h h 0.j h j j j j I U I j : # = 9 9 : 9 F C K [ K L G H g d > ; = - : < 9 ",
"  + + + * * q a y 8 q 0 = = q 1 e F 3 ; & O & ; 3 4 * $ # 3 3 * $ ; 4 # = > $ ; + 4 5 h 9 F F L Y [ O.T [ F g e D w d 0 d C : 9 ",
". . . @ . + * u i q 8 < = - ; ; - 4 0 3 & @ o # : 4 ; = # # $ * , 3 # + ; & & ; - - r H L F S ` O.&.@.L F e 0 0 e 9 5 w r S P J ",
". . .   + + + $ < < 9 8 < = = ; 9 % O 4 5 @   # @ # # # $ # # @ + 3 * # ; # # # O : e d g p e F @.[ K J L o.` L 0 ; : w g F F D ",
"+ . .   X     + % = 6 7 - # # = 4 @ X & > > # # = = # # # # & # X > # # # # # % O - d > 9 w e F K [ X.L F F L [ X.L 0 = : : 5 > ",
"X       @   . @ + $ 3 3 ; - - ; $ # @   # 5 5 = ; > 5 ; # # * > * 7 # @ O = - O X X O & : : 9 D J F F C F K J J P [ h 5 0 d > ; ",
"        .   @ $ $ $ # * ; ; ; = & & @ o o ; ; = # ; > : * * * * , 3 % + X ; ; O o o O ; : 4 4 w F g F C C F Y T ..L H L U d ; ; ",
"    .     o @ @ @ @ o @ O & = O & @ o   O & ; # # # & ; & & @ @ , q : : O ; ; O @ & & & > 0 > : L F e F L X.T K T L K G F d e 0 ",
". . . . .   o @ @ @     X o O O o @ o o O * & # * & # O @ o @ @ 3 k 7 5 ; > > ; @ @ O O ; ; = : F F K X.[ L X.o.P [ I d 0 0 9 ; ",
". . . . . . o $ @ $ O X . X @ & & o o o o O & & & & & * & @ @ @ + $ O O X : : O & O O O ; ; ; g @.X.F K L X.T T d 0 4 5 0 D D 0 "
};
