/* XPM */
static char *ebb8de9275cc4930a0782f257532111bQCksrcUYdnGxSUaw[] = {
/* columns rows colors chars-per-pixel */
"64 64 112 2 ",
"   c #0F0C16",
".  c #3F0C00",
"X  c #303506",
"o  c #450002",
"O  c #410E00",
"+  c #461102",
"@  c #4C1503",
"#  c #4F1805",
"$  c #501704",
"%  c #541A06",
"&  c #591C07",
"*  c #561B08",
"=  c #5B1E09",
"-  c #601F0A",
";  c #5E200B",
":  c #433616",
">  c #66230C",
",  c #67230D",
"<  c #64230E",
"1  c #65230E",
"2  c #64230D",
"3  c #62240E",
"4  c #63240E",
"5  c #63240F",
"6  c #65240D",
"7  c #66240D",
"8  c #66250D",
"9  c #65240E",
"0  c #65240F",
"q  c #67250E",
"w  c #66240F",
"e  c #67250F",
"r  c #63220C",
"t  c #68240E",
"y  c #68250E",
"u  c #69250F",
"i  c #6A250F",
"p  c #68260F",
"a  c #69260F",
"s  c #6A260F",
"d  c #6B260F",
"f  c #69260F",
"g  c #6A280F",
"h  c #672510",
"j  c #672510",
"k  c #692610",
"l  c #682710",
"z  c #692710",
"x  c #6A2610",
"c  c #6B2610",
"v  c #6A2710",
"b  c #6B2710",
"n  c #6A2711",
"m  c #6B2711",
"M  c #6C2610",
"N  c #6C2711",
"B  c #6D2711",
"V  c #6A2610",
"C  c #6B2811",
"Z  c #6D2810",
"A  c #6C2811",
"S  c #6D2811",
"D  c #6C2911",
"F  c #6D2911",
"G  c #6E2811",
"H  c #6E2911",
"J  c #6F2911",
"K  c #6D2912",
"L  c #6F2812",
"P  c #6E2912",
"I  c #6E2A12",
"U  c #6E2911",
"Y  c #702911",
"T  c #702A11",
"R  c #702912",
"E  c #702A12",
"W  c #712A12",
"Q  c #712A13",
"!  c #722B14",
"~  c #752C14",
"^  c #762D15",
"/  c #722B13",
"(  c #484E0E",
")  c #484E0E",
"_  c #56441D",
"`  c #594F3B",
"'  c #745138",
"]  c #40344F",
"[  c #40344F",
"{  c #685E47",
"}  c #72654D",
"|  c #72654D",
" . c #625177",
".. c #625177",
"X. c #8C3F13",
"o. c #8C3F13",
"O. c #C61015",
"+. c #9C6D4D",
"@. c #7B861E",
"#. c #7B861E",
"$. c #8E8300",
"%. c #A5B13F",
"&. c #A5B13F",
"*. c #D7C600",
"=. c #D7C600",
"-. c #B6825C",
";. c #A79673",
":. c #A79673",
">. c #C38F6C",
",. c #CBB78C",
"<. c #CBB78C",
"1. c #D4CE98",
/* pixels */
"= p ; = < T T r = &.>.-.#.#.#.#.&.&.&.% & ; r % % & r r r ; r 8 &.&.&.#.#.&.#.#.@.) X X X = = - = = = % = &.&.#.#.#.#.#.#.#.&.= ",
"8 C ; ; < T T 5 = @ &.>.-.#.#.#.#.#.#.&.&.&.r % % ; ; ; ; ; &.#.#.&.&.&.#.#.#.#.) @.) ) ) X X r % r = &.&.#.#.) ) ) ) ) ' #.5 * ",
"g p ; ; d T K < = @ #.>.-.-.-.-.#.#.#.#.#.#.&.&.% ; ; = &.&.#.#.#.#.&.#.#.&.#.#.@.@.@.) @.) ) X & - &.&.#.) ) ) ) ) ' ' ) - 5 @ ",
"T ; = r M M l ; = @ = #.>.-.-.-.+.+.+.+.) #.#.#.&.&.& &.) #.) ) #.#.#.#.#.#.#.#.) @.) @.) ) @.) ) = &.#.) ) ) ) ) ' ' ) & 5 - @ ",
"C ; ; 8 p y 5 = ; @ % #.>.>.-.-.-.+.+.+.+.) ) ) #.#.&.) #.) ) #.#.#.#.#.#.#.#.#.@.@.@.@.@.) ) ) ) X #.) ) ) ) ' ' ' ) d = r r % ",
"; ; ; p T p 8 = r # & $ #.>.>.-.-.-.-.+.-.+.+.) ) #.#.&.&.) #.#.#.&.&.#.#.#.#.#.@.@.) @.) @.) ) #.#.) ) ) ) ' ' ' ) K y = r ; % ",
"; ; ; y y K l ; r % & % @ #.>.>.-.-.+.-.+.-.+.+.+.) ) #.#.&.#.#.&.) ) #.&.#.#.#.: ) @.) @.) @.@.#.#.#.) ' ' ' ) ) $ l < & ; r * ",
"; * r r = l M = ; % % $ @ % #.>.-.-.-.' -.+.-.+.+.+.+.X #.#.#.#.) X X ) ) #.#.#.@.X ) ) X @.@.@.#.) ) ) ' ) ) T M * 8 8 % ; r ; ",
"; % y r * ; r ; & $ % $ $ % % #.>.>.' = ' -.+.-.+.+.+.+.: #.#.: X $.$.X X ) @.@.&.X @.X X @.@.@.) ) ) X X @ = M M * h l & < - ; ",
"# = y ; ; * ; ; & $ % # @ & & = #.#.- & ' -.-.-.+.+.+.+.+...: $.*.1.1.O.$.: ) &.) X @.@.X @.@.) $.X ) ) X + & L ! = M y & = = * ",
"# ; 8 = ; % * ; ; # $ # $ % % = > r & r , ' -.+.-.-.-.-.+.) ..: *.*.1.O.1.$.) ) X ) @.@.@.: X O.1.=.) ) X + % - ^ = K < = = = ; ",
"= ; 5 ; ; = # = & # @ @ $ & = % = > & r ' -.-.-.+.: : -.-.) ) ..) ) *.*.*.) ) X ) ) ) @.@.@.$.*.=.) [ ) ) + = M ! = h < = ; * ; ",
"= 8 = = r & $ & = $ @ @ $ % = = r r = > ) : : : X ) ) : -.) X ......: : : X ) ) ) ) ) ) @.@.&.) : [ ) ) ) @ & i T * l y - r = 5 ",
"r 8 = 5 ; r ; ; % % % $ $ & = = :.:.| | | | | | X ) ) ) ) #.#.: X ......X ) X X X ) ) ) @.@.@.&.X ) ) ) ) @ = - M & T l = 5 = 5 ",
"5 8 * = & r ; ; & % % @ $ % <.:.:.:.:.:.| | | | X ) ) ) #.#.#.#.@.: X X ) X ) ) ) X @.@.) @.@.@.&.) ) ) X + = j L * K K r 5 = ; ",
"5 ; * ; % ; ; ; & & @ @ $ <.:.:.:.:.| :.:.| | | X ) ) #.#.) X #.@.@.@.@.X ) @.@.@.@.@.@.@.: @.@.#.&.) X + + & - R * M l = 8 ; ; ",
"r < = = % = r ; & $ # # <.:.:.:.| | :.:.:.| | | | X #.#.) X ) &.@.) ) ) X ) @.@.@.@.@.@.@.@.: &.#.&.) X O + = = L & n l = 5 = j ",
"y < = r % = 8 = $ & $ <.<.:.| | | | | | :.:.| | | X #.#.X ) &.#.: X X ) ) ) : : @.@.@.@.@.@.&.) &.#.&.X O + - - L = M M - r = ; ",
"8 y = 5 & r 8 % & % & % <.<.| X X X X X | :.:.| | X #.#.X &.#.: o o.o.X X ) ) ) X X ) ) @.@.@.&.#.&.&.$ O @ - , L = j l = ; = 3 ",
"= 8 = 5 = < 8 = & % $ % & | : ) ) ) ) ) ) | :.:.| | ) #.#.#.: ) X : *.o.o.: X ) ) ) X X ) @.@.@.&.#.&.#.o + - - l * j j ; j = ; ",
"= g r ; r r r = & $ $ & & ) ) ) #.#.#.#.) :.| :.:.| | ) #.#.#.#.@.) : X *._ o X X X X ) X ) @.@.#.#.#.#.O + * - M = < K < 5 = = ",
"= g 8 r < = r = & $ % % & &.#.#.) #.) #.) | :.:.:.:.| | ) ) ) #.@.@.@.) ) X *.: *.o *.X ) X ) @.#.&.#.) + + * - ! - h T 5 - = 5 ",
"= , 8 r r ; r % * $ $ @ &.&.#.#.#.#.#.#.) | :.| :.:.:.| | ) ) ) @.@.@.@.@.) ) X ) X ) ) ) ) X ) #.#.) ) % + & = M = 8 K = r = ; ",
"* r 8 r ; r ; * % & % $ &.#.#.) #.) #.) ) | | :.:.:.:.:.| | | X X ) @.@.@.@.@.&.&.@.@.) ) ) ) X ) ) ) - & + $ - L = 5 C ; ; ; ; ",
"% ; , ; ; ; 5 5 = & % @ &.&.#.#.#.#.#.#.) | | | :.:.:.| :.| | | | X X ) @.@.@.) ) X ) ) X X % & X ) - 1 = @ % - L = j L = 5 = ; ",
"= ; 8 ; * ; = 5 r & $ % &.#.#.#.#.#.#.#.) | | | | :.:.:.| :.| | | ` ` X : ) @.) ) ) X X 5 * % = - $ = 1 - $ @ r L * h L * 8 ; ; ",
"= * 8 8 % * ; ; ; r % % &.&.#.#.#.#.#.#.) :.| :.| :.:.:.:.| :.) &.| X ` ` X X X X X j ! 5 * % = = & % - w $ @ = l = L L = 5 5 & ",
"= = 8 K * % * * = r % @ &.#.#.#.#.#.#.#.) | :.| :.:.<.:.:.:.` ) ) X @.X | ` ` ` ` ` j n = % % % = & $ % r * $ = l & l L 5 = = % ",
"; & ; p r * % = r ; = $ &.&.#.#.#.#.#.#.#.) | :.:.:.<.<.:.` #.) X @.@.@.X | | ` ` { j L = % % $ = = % @ = = @ = < % y C < r i % ",
"8 = * C y * * y p r % $ = &.&.#.#.#.#.) #.#.) :.:.<.:.<.` #.#.#.@.@.&.@.X :.| | { = ; ! r $ % & - % & $ = = + = h % h ! i = y = ",
"8 ; % 8 K = = K g y = $ % = #.&.#.#.) #.) #.#.` #.#.#.#.#.#.#.) @.&.@.@.X | :.{ { ) ; ! = # $ & = & = & $ = @ - 8 $ l ^ d - < < ",
"8 ; # 3 y l 5 l T y = # % ; &.#.&.#.#.) #.) #.#.#.#.#.#.#.#.#.#.) @.@.&.:.:.{ { ) #.) n ; $ $ & - & & & $ - $ = h $ 8 ~ y = r < ",
"3 ; % = < l i T p 8 ; $ $ & ` &.#.#.#.#.#.#.#.#.#.#.#.#.) #.#.#.@.) &.) :.| { @.#.) &.) = $ $ & ; % $ % $ - $ = r % h ! h % = 5 ",
"= ; = = l M y y ; r ; # # ` ` { #.) ) #.#.#.#.#.#.#.#.#.) ) #.#.@.@.) :._ X X @.#.#.) ) % & & & & & & % & = & & i & = ! j * = < ",
"= ; * = i y K 5 ; p ; ; $ ` ` ` ` | ) ) ) ) ) ) ) ) ) ) ) ) ) ) ) | :._ : X @.@.#.#.#.) ; % & ; ; # ; % % & % = y & & L y = ; l ",
"* 3 % % < i y < ; p 8 & ` ` ` ` | | | :.) ) ) ) ) ) | :.:.| :.| | | _ : | :.:.:.#.#.) r & @ # & ; ; ; & & % % = T = = ^ i = y < ",
"% ; ; # < d i 8 * r r % ` ` ` | :.| :.| :.| | | | : : _ | | | | | : : | :.:.,.:.:.) = = % $ % = ; ; ; ; $ & * = M = * ! y - = r ",
"% ; ; * r l g r ; 8 3 = ` ` | :.| :.| :.:.:.:.| | | : : _ _ _ _ : : ` :.,.| | | | | % % $ $ % & ; ; ; r & & $ = i 5 * M M 5 = r ",
"# ; 3 * = y g r r T 8 = # | | | :.| :.:.:.| | :.:.| | ` : : : : : ` :.,.| | | | | | @ @ + % & & ; ; ; r ; & $ * < j * l g r = ; ",
"* ; 3 * % y T r ; y 8 * % { | | | :.:.:.:.:.:.| { :.| ` ` ` ` ` ` ` :.| | | | { { { @ + @ % & = r r ; r ; $ & $ - < & K y = = ; ",
"; * 8 ; % 3 K 8 ; 8 r = $ * { | :.| :.:.:.:.:.:.<.:.:.` ` ` ` ` ` | | | | { ) ) ) X & % % $ * = , , & - * & % % < M * n l & & n ",
"r % 3 = * 8 y r ; 8 r ; % & { | | :.:.:.:.:.:.:.<.:.| { ` ` ` ` | | | { | ) ) ) ) @.X % % % % = 1 - - = = & % % < j * L j = * l ",
"r % 8 = % r y 8 = , 8 & & % # { | | :.:.:.:.:.:.| | | | { ` ` ` | | | { ) X ) ) ) ) @.@.% & & & - - & & = & % % - < * L M = * h ",
"8 % 8 ; * 5 M < = 8 r ; & % # $ | :.:.:.:.` ) ) #.) ` ` | ` ` ` ` | { | ) ) X ) @.) @.@.#.& & & - - & & * & % @ = j & ! M 5 % 8 ",
"y % 3 ; = ; y y ; r r ; ; % $ & { :.:.:.) ) ) #.#.) | ` ` | ` ` ` ` { X X ) ) ) ) ) ) @.@.@.& & i - % & = & $ $ = 5 ; ! l r % y ",
"y = 5 l = = y y r r ; ; $ % # | :.:.:.) ) ) #.#.#.) | | | ` | ` ` ` { & X X ) ) ) @.) ) @.&.& = = - % % & = # @ ; 5 = L y < & 8 ",
"y ; * 8 * ; g g 8 r ; & $ & | :.:.:.` X #.#.#.#.#.) ; | | | ` ` ` ` { % @ X X ) ) ) ) ) @.@.&.= & & & $ & = $ % < < ; ! y r & 5 ",
"y r % 5 = = T T g 8 ; ; @ # % | #.#.#.#.X #.#.#.#.) = * { | | ` ` ` { = @ 5 X X ) ) ) @.) ) @.% $ & & & - & $ % M - = ^ T r % 8 ",
"> r % 3 % r y K g y r = $ % = = #.#.#.#.#.#.#.#.#.) ; = { | | ` ` ` { & $ - = & X ) ) ) ) ) ) #.$ & $ & ; % # % 8 ; 8 ^ I = = g ",
"r - * y = r d y y K = r & % #.#.#.#.#.#.#.#.#.#.&.$ ; ; ; { | ` ` ` j = @ 8 - = & ) ) ) ) ) ) #.#.& % - ; # ..[ [ r p T g r = y ",
"r r = 3 = < l l y M r = % & #.#.#.X #.#.#.#.#.) & & = * ; = | ` ` { d & + - = & & - ) ) ) ) ) ) #.; % - ; ; ; ..[ [ p T 8 r * , ",
"r r ; 3 % < M K T K ; = % #.#.#.X #.#.#.#.#.) $ % $ ; ; ; { | ` ` { d % @ = = = - & & ) ) ) ) ) #.' % - ; ; ....[ [ [ g , r = p ",
"r r = r % r l M y 8 = = #.#.#.#.#.#.#.#.) % $ $ ; # ; ; ; { | | { = M = @ = - - - & & & ) ) ) ) ) ) ; ; ........] ] ] T , r & 8 ",
"r - ; ; % 3 T l = *     ] ) ) #.#.) #.) & & % % & # ; ; ; ; { | { - l = @ - = & r = & % % ) ) ) ) [ ........[ [ ] ] ] T r r = 8 ",
"> - = ; # 8 T < *   ] ] ] ] ) ) ) #.) % - & % % & # ; r r r ; { M - < % @ r & & > - - & $ & ) ) [ ..[ ....[ [ [ ] ]   T r = % y ",
"r - % * * 3 l 5   ] ] ] ] ..] ] ) ) r & - & & % @ % r ; ; r ; 8 j j - $ + r & & = - - - & =   [ [ ....[ [ [ [ [ ]   K d , ; = p ",
"r ; * * = < l 5   ] ] ] ....] ] [ & r & & & r $ @ % y < = = r M - j - + @ - % % & r r ; % &   [ [ [ [ [ [ [ [ [   = ! h y = = 8 ",
"y = = = = < l =   ] ] ......] ] & - r & ; & = % # & y = = = = K < j & O & - @ % & r > & & &   [ [ [ [ [ [ [   , 5 = ^ l < & % 5 ",
"y * ; ; = < 5 %   ] ] ] ......] & = r & & & & & # * y ; ; = * K 5 < $ @ - - # % & r r - % & &   [ [ [ [ [   $ , - = L h r % = 5 ",
"r @ ; = = < 8 =   ] ] ] ] ......[ ; = & & & & $ # % 5 = ; = * h - - @ % < = + * = = , r & & -   [ [ [ [   * % , = 5 L h - % r ; ",
"= # ; * = y y = ;   [ [ ] ........[ =   % = = * % % ; = * = ; h j & @ = < % @ % & - 5 - % & - -         = * * M = 5 T T r $ r = ",
"# + ; * = y 8 = ; #   [ ] ] ]         ..  ; = % % * ; ; = 3 j h l * $ - i % $ & = i = & % & = - = & - $ * # = B = = T K r & 5 8 ",
"# # ; * r T y ; ; @ @   ] ] ] ........[ [   * $ $ = 8 = = = = j < @ & y - % = = = M - = & & = - % & - & = $ = x = r l < r = r T ",
"+ * ; * r g 8 r ; @ @ *   ] ] ] [ [ [ [ [   ; * % ; 8 * = = = - - @ - - $ $ - & = - - - & $ 1 - = - - & = $ & L = = y r = = r < "
};
