/* XPM */
static char *_ddc2f52ce294ccd8ef93ffdd812a033tK2wSNtYidyIl0sD[] = {
/* columns rows colors chars-per-pixel */
"64 64 256 2 ",
"   c #383977",
".  c #523B72",
"X  c #6E3D74",
"o  c #394E71",
"O  c #037D67",
"+  c #1C6B78",
"@  c #336877",
"#  c #48447A",
"$  c #514F74",
"%  c #6A4978",
"&  c #75506E",
"*  c #6F6570",
"=  c #645560",
"-  c #8F7170",
";  c #7BDD3C",
":  c #73E33A",
">  c #33AE51",
",  c #068869",
"<  c #028B77",
"1  c #059A7A",
"2  c #13946B",
"3  c #2A8B78",
"4  c #05A67A",
"5  c #16A978",
"6  c #19B378",
"7  c #12AD69",
"8  c #35B975",
"9  c #29B471",
"0  c #14974E",
"q  c #4CB55A",
"w  c #6AB05B",
"e  c #52B76D",
"r  c #66B867",
"t  c #6BAB71",
"y  c #6C9971",
"u  c #37C75B",
"i  c #3AC66B",
"p  c #34D176",
"a  c #13C67C",
"s  c #49CA5A",
"d  c #5BCC5B",
"f  c #55CC59",
"g  c #4DD358",
"h  c #5BD354",
"j  c #55D35C",
"k  c #5BD35C",
"l  c #56D556",
"z  c #55D549",
"x  c #75DC46",
"c  c #62CE5A",
"v  c #63D35C",
"b  c #68D859",
"n  c #75DB58",
"m  c #6BD54E",
"M  c #77E245",
"N  c #79E458",
"B  c #66E040",
"V  c #47C965",
"C  c #5BCC64",
"Z  c #54C965",
"A  c #5AD363",
"S  c #57D467",
"D  c #4FD06F",
"F  c #65CA67",
"G  c #63D364",
"H  c #6DDB63",
"J  c #68D968",
"K  c #7CDC6B",
"L  c #76DC66",
"P  c #69D475",
"I  c #76D473",
"U  c #7CE26B",
"Y  c #77E467",
"T  c #7AE572",
"R  c #6EE56A",
"E  c #5BE354",
"W  c #85E43E",
"Q  c #83DC3B",
"!  c #8EAD71",
"~  c #8B8E73",
"^  c #85D85A",
"/  c #85E649",
"(  c #87E858",
")  c #94ED50",
"_  c #A8FB54",
"`  c #85DC6A",
"'  c #8CD974",
"]  c #84E46D",
"[  c #8AE56C",
"{  c #8AEA6D",
"}  c #85E767",
"|  c #85E471",
" . c #8BE572",
".. c #8CE972",
"X. c #86E678",
"o. c #95E678",
"O. c #94F070",
"+. c #A7F867",
"@. c #B8F876",
"#. c #ACF171",
"$. c #3B5787",
"%. c #33728A",
"&. c #187E80",
"*. c #4A4F85",
"=. c #466C93",
"-. c #AA7297",
";. c #049B88",
":. c #039C94",
">. c #17958D",
",. c #308D8B",
"<. c #02A483",
"1. c #01A38C",
"2. c #07A887",
"3. c #14A884",
"4. c #17B588",
"5. c #0FB193",
"6. c #2AB08B",
"7. c #2BB0AB",
"8. c #4B9193",
"9. c #50AC8D",
"0. c #73B892",
"q. c #5791A9",
"w. c #748CAF",
"e. c #6FABB1",
"r. c #4FAAAF",
"t. c #2CD191",
"y. c #32E78A",
"u. c #27D09E",
"i. c #4CD992",
"p. c #75C992",
"a. c #4EEC96",
"s. c #75EA94",
"d. c #78C9A9",
"f. c #79CBB4",
"g. c #7BD0BB",
"h. c #64E8A7",
"j. c #77A8C9",
"k. c #65ACCD",
"l. c #3DD1ED",
"z. c #53D1D6",
"x. c #77D3C8",
"c. c #72E6D0",
"v. c #56CDEC",
"b. c #49D5E9",
"n. c #58D5EC",
"m. c #48CBF8",
"M. c #58CCF6",
"N. c #4BD4F7",
"B. c #57D2F4",
"V. c #5BD3F4",
"C. c #55D3FA",
"Z. c #5BD3FC",
"A. c #5CDBFD",
"S. c #58DAF6",
"D. c #49CCE8",
"F. c #68D8EC",
"G. c #79D7ED",
"H. c #64CDF8",
"J. c #62D5F4",
"K. c #64DAF5",
"L. c #6BDBF5",
"P. c #63D4FC",
"I. c #6BD5FD",
"U. c #64DBFC",
"Y. c #6BDCFB",
"T. c #6BD5F4",
"R. c #73DBF5",
"E. c #74DDFC",
"W. c #7BDCFD",
"Q. c #78D7F7",
"!. c #6ECAE7",
"~. c #5CE4F8",
"^. c #6CE2FC",
"/. c #67E3F7",
"(. c #74E3FD",
"). c #7CE3FD",
"_. c #77E7F8",
"`. c #72E7F2",
"'. c #91918A",
"]. c #8C92B9",
"[. c #A498B6",
"{. c #93A9B8",
"}. c #A0A497",
"|. c #90D48E",
" X c #91E789",
".X c #ADF08A",
"XX c #8DD0B2",
"oX c #A8D5B3",
"OX c #8DF9AB",
"+X c #ADDC9F",
"@X c #CCDFA8",
"#X c #8C9BC5",
"$X c #939BC5",
"%X c #969DC9",
"&X c #999CC9",
"*X c #9A98C5",
"=X c #9A9DD7",
"-X c #8D97DA",
";X c #A59BC9",
":X c #8AA4C6",
">X c #94A1CB",
",X c #9BA2CB",
"<X c #9BA9CC",
"1X c #98A7D5",
"2X c #93B5CD",
"3X c #A6A5CC",
"4X c #A4B3C9",
"5X c #A5ABD2",
"6X c #A9B6D6",
"7X c #B5BADB",
"8X c #B4AED1",
"9X c #95B8E7",
"0X c #AEBBE3",
"qX c #E1BCC7",
"wX c #99C5D9",
"eX c #8BD6C6",
"rX c #B0C8D5",
"tX c #94E8CE",
"yX c #99C6E6",
"uX c #89D8EA",
"iX c #82DDFD",
"pX c #87DBF8",
"aX c #95D7EE",
"sX c #AED3EF",
"dX c #89E5EB",
"fX c #83E3FE",
"gX c #86E6FA",
"hX c #98E6FA",
"jX c #98F3FB",
"kX c #91EBF0",
"lX c #A6E8F9",
"zX c #B9E9F7",
"xX c #B8F5FB",
"cX c #AFEFEE",
"vX c #A2EED4",
"bX c #F8F9DC",
"nX c #EBF5D9",
"mX c #C9F6E9",
"MX c #D8F6EB",
"NX c #C7EBF9",
"BX c #C7F9F7",
"VX c #D9F7F7",
"CX c #D3E7EE",
"ZX c #E9E7EC",
"AX c #E9F9E9",
"SX c #FCF5EB",
"DX c #F4FBEB",
"FX c #FEFCEB",
"GX c #F9F7E6",
"HX c #E7E9F4",
"JX c #E7F8F7",
"KX c #FDFBF4",
"LX c #F8F8F6",
"PX c #FDECEE",
"IX c #DAD4DE",
"UX c #D0A0AC",
/* pixels */
"m.Z.M.v.N.A.z.aX^.D.v.V.m.A.b.M.n.S.C.Z.B.n.J.N.B.B.B.B.B.B.B.B.B.B.V.B.B.B.B.B.B.V.M.B.B.B.B.B.V.B.B.B.B.B.B.B.V.v.v.n.N.N.v.n.",
"H.J.M.I.D.B.NXJXJXaXpXv.n.H.Z.B.n.N.D.H.V.v.V.V.B.B.B.B.B.B.B.V.B.B.B.B.B.B.B.B.B.B.B.B.B.B.B.B.B.B.B.B.B.B.n.M.m.U.V.N.Z.T.B.C.",
"C.z.B.N.D.hXKXDXSXFXVXD.C.v.m.C.zXaXv.N.Z.M.N.B.B.B.B.B.B.B.B.B.B.B.B.B.B.V.B.B.B.B.B.B.B.B.B.B.B.B.B.B.B.B.B.B.v.C.C.b.v.M.C.uX",
"B.b.P.C.lXZXbXAXnXFXKXcXB.m.F.cXSXJXdXb.Z.P.B.b.B.B.B.B.B.B.B.B.B.B.B.B.B.B.B.B.B.B.B.B.B.B.B.B.B.B.B.B.B.B.B.B.T.m.N.A.v.E.NXbX",
"n.C.m.aXLXCXSXAXAXZXSXJXF.aXHXAXbXKXcXz.l.N.M.Z.B.B.B.B.B.B.B.B.B.B.V.B.B.n.M.B.B.V.B.B.B.B.B.B.V.B.B.V.B.B.B.V.n.v.B.C.M.cXLXAX",
"C.T.!.mXJXBXLXAXLXGXAXxXmXSXKXGXAXKXJXcXdXiXH.C.B.B.B.B.B.B.B.B.B.B.B.B.B.B.B.B.B.B.B.B.B.B.B.B.B.B.B.B.B.B.B.B.B.B.B.V.lXAXVXNX",
"M.zXVXAXJXJXGXKXSXJXxXmXFXKXMXGXAXAXLXKXLXzXG.b.B.B.B.V.B.B.B.B.B.B.B.B.B.B.B.B.B.B.B.B.B.B.B.B.B.B.B.B.B.B.B.B.m.N.H.aXGXGXMXGX",
"z.JXBXSXSXAXFXSXFXAXGXFXHXPXDXBXzX`.~.I.S.B.v.P.B.B.B.v.B.B.V.M.B.B.B.B.B.B.B.B.B.B.B.B.B.B.B.B.B.B.B.B.B.B.B.B.G.cXmXDXAXJXLXAX",
"zXVXVXDXGXbXGXLXSXDXGXbXDXDXAXmX_.V.v.n.V.M.M.Z.B.C.B.B.C.B.B.C.B.B.B.F.B.C.Z.z.H.V.b.b.D.M.v.Z.v.M.C.Z.Z.H.A.b.ZXbXbXJXJXFXbXVX",
"nXDXAXSXKXLXAXVXmXAXDXFXSXLXSXPXGXJXhXF.D.S.S.D.B.B.B.B.B.B.B.B.S.M.M.B.N.B.B.J.b.m.A.NXlXm.M.N.V.B.N.b.H.m.b.aXLXGXAXBXBXJXBXcX",
"nXKXDXMXJXPXDXBXBXxXVXJXJXDXSXDXAXcXgXV.N.C.n.F.B.B.C.V.B.B.B.B.v.J.B.m.N.S.V.C.n.`.NXSXVXzXvXZ.N.Z.N.b.J.S./.zXxXBXcXuX(.hXfXC.",
"VXBXmXAXLXSXFXAXBXgXgXjXcXBXNXjX(.J.M.A.P.B.n.S.V.V.V.V.V.V.V.V.M.V.S.C.I.K.B.m.lXHXGXnXJXSXFX/.v.n.F.V.v.N.A.L.^.L.v.N.C.K.K.N.",
"iX(.kXGXGXSXDXLXcXT.A.U.`.kX`.~.K.P.V.n.n.J.P.P.P.J.K.V.Z.K.S.J.T.S.N.F.I.B.v.uXAXGXSXAXDXJXJX`.A.H.T.J.P.P.K.b.V.V.n.S.V.F.F.F.",
"S.S.uXGXDXVXNXcX).F.J.T.S.I.I.P.n.T.K.K.T.L.L.I.K.K.L.U.T.K.L.K.U.A.K.F.K.S.kXJXbXDXJXDXFXHXVXCXR.hXpXn.I.I.F.K.L.L.L.K.U.T.T.B.",
"Y.~.kXFXVXjXgX).I.~.L.Q.~.I.Q.Y.Y.I.I.W.Y.U.S.~.L.T.L.U.I.U.L.L.K.T.Y.U.L.kXJXKXDXJXBXDXDXAXGXKXMXKXmX_.I.Y.A.H.T.K.U.A.Y.Y./.U.",
"L.P.lXmXjXY.E.K.Y.^.J.L.L.L.E.K.`.F.T.L./.L.R.I.Y.Y.L.L.L.L.L.Y.K.E.(.Z.pXHXFXnXDXBXxXVXCXVXAXBXMXAXVXzXR.F.dXlXE.L.Y.L.E.T.L.R.",
"R.S.L.(.^.K.K.L.F.L.Y.Y.G.Y./.R.K._.R.F.`.I.^.F.^.G.Q.A./.Q.H.E.^.K.T./.c.JXLXVXxXjXjXjXgXhXhX).).R.`.V.H.aXCXPXzXH.Q.U.K.T._.K.",
"L.E.`./.L.Q.E.^.I.R.`./.I.Y.^.I.H.E./.U.E.Y.F.R.L./.^.Q.I././.E.P.iXQ.gXI.fXjXdXgXG.L.^.R.G.L./.F.^.K.^.pXCXHXIXHXpXU.E.L.E.L.Y.",
"U.W.L.F.W.iXI.I.W.I.A./.W.Q.K.T.(.Q.L.~.!.G./.L./.Y.I.(.F./.L.Q.mXSXDXVXlXU.T.F.^.I.I./.E.K.~.^./.Y.~.F.sXHXHXHXHXlXB.E.L.E.U.I.",
"(.L.F.^.E.^.^.G.cXzXgX^.Y.W.(.`.E.^.U.W.gX(.Y.R.I.W.U.(.pXI.).MXbXGXFXmXBXzX).R.U.E.W.E.W.^.Y.pXY./.gXsXHXZXZXZXLXJXL.E.).L.).(.",
").Y.(.W.J.`.cXBXFXFXMXdX~.E.E.E.E.Y.W.(./.c.vX`.K.`.G.^.Q.(.hXMXBXxXjXdXAXLXNXkXG.`.`.Q.E.E.R.iXE.gXsXHXHXHXHXZXHXLXlX/.Q.T.W.L.",
"(.L.W.W.R.zXLXGXDXDXmXcXzXhX_.E.pX`.(.Y.c.a.OXXXr.h.tX^.(.).gX_.fX).`.aXJXLXJXBXlX_.`.W._.^.(.(.G.6XIXHXHXHXCXZXHXLXJXdXgX_.iX`.",
"_.E.E.E.lXJXKXLXGXVXxXJXLXzX_._.^.uXx.7.4.t.a.s.,.6 h.vXW.U.`.^./.(.(.lXlX_.hXhXhX_./.).E.^.E.G.#X#X[.IX6X7X3X6XsXIXCXaX(.).G.(.",
"pX(./.`.CXAXmXVXAXFXFXMXxXgXL.(.^.i..X|.2.y.h.a.0.;.a.OXdXE.gXfXpX(.fXL./.).E.E.E.W.).W.Q.(.pX=X;X$X1X9X*X*X&X*X$X,X8XsX).E.`.W.",
"_.).iXfXgX(.`.gXxXVXzXjXfX).W.hX7.5.a.s.r.3.u.a.s.d.5.a.tX_.gX).).fX).(.fXgX_.).fXfXiXgX_.).1X;X%X%X%X%X%X%X%X&X$X,X8X6XaX_._.fX",
"fXfXiX(.).iX(.fX)._.).R.)._.gX!.,.2.u.u.i.>.5.4.h.s.i.5.h.gXgX_.(.fX).(.).fX).fX(.).).(.Q.1X*X:X%X%X%X&X%X%X%X%X,X>X,X6XyXpX).).",
").gX)._.).fXiX(.iX(.).W.iXgXG.%.+ >.>.;.>.,.:.2.4.y.i.u.a.tX^.gXfX).fX).).W.iX)./.fX_.Q.5X*X#X>X%X%X%X%X%X%X%X%X%X#X$X,X0XyXgX(.",
"(.).).fXfXfXW.iX(.fX).).).Q.x.6.=.%.%.@ =.$.,.3.u.5.;.4.y.c.W.xXlXW.(.fX).(.hXlXlX`.pX1X*X$X=X$X%X%X%X%X%X%X%X%X%X$X&X<X5X6XyX_.",
")._.(.fXfX`.gXNXjX_.gX)._.z.>.5.@ $.$.o o %.,.:.>.+ %.,.:.5.`.AXJXhX(.iX).).lXVXNXyXj.&X%X%X*X$X%X&X%X%X%X%X%X%X>X&X3X6X6X8X6XwX",
"pX).).).(.fXNXLXHXgX).fXgXr.%.%.@ .   # *.o $ %.@ *.o . *.>.,.zXVXlXhXgXfXpXsXsX0X;X#X#X=X;X:X%X%X%X%X%X%X%X%X%X>X$X,X5X6X6X8X5X",
"(.gXgX(.).hXCXPXLXlX).(.Q.8.$.o o *.# . o $.. o . . $.*.o $ o =.yX6XyX).Q.9X5X1X].%X>X%X&X*X*X>X%X%X%X%X%X%X%X%X[.#X#X,X5X6X6X5X",
"_.).pXgXgX9X8X7XrX7XuX`.j.$.$.o # # $ $ *.  *.$ # $   o *.  # w.yXwXuXaX9XyX9X=X>X&X*X$X1X&X*X,X%X%X%X%X%X%X%X%X&X>X%X*X*X<X2X6X",
"pX).hXNXrX;X;X,X4X7XsX_.$.  # $ $ % % % X . # = $ & = X $ . * 1XyXwXwXyXyX9X=X[.%X%X%X%X&X&X&X&X%X$X$X%X,X*X%X&X%X$X%X#X%X$X#X3X",
"yXaXaXrX3X*X;X,X[.<X8XwXk.j.% & & % - * $ = % & & & X - X -.& 5X!.9X9XwXwX1X%X%X&X&X%X%X$X&X%X&X%X&X%X%X&X&X&X&X,X$X5X3X,X5X,X>X",
"0XyX6X,X*X;X3X;X;X4X7X7XsX!.$ @ * * -.qX* & * $ . % $ & = & & '.9X2XyXwX1X$X{.>X&X%X&X&X%X%X%X%X%X%X%X%X&X&X&X=X5X6X<X].<X6X4X5X",
"7X7X&X;X,X3X;X;X;X8X4XrX[.,.O O 5 7 9.t |.! ! '.y ! y ~ ! w y '.XX9X9X<X>X[.=X-X&X&X%X%X%X%X%X%X%X%X%X%X%X%X>X%X%X5X].w.<X6X6X6X",
"rX6X5X;X1X;X;X3X5X5X6XwXq.O 7 0 < 4.7 u I o... X_ +.@.#.+.( +.o.#.4X-X$X$X&X=X*X>X%X%X&X%X%X%X>X%X%X%X%X%X%X%X%X=X-X-.].$X5X6X5X",
"7X7X6X5X&X[.;X,X1X{.{.r.,.O 3 > 0 7 9 Z c s b n L R ' b b qX#._ .X+X{.,X>X-X$X;X%X>X%X%X&X&X%X%X%X%X%X%X%X%X%X$X*Xw.w.*X].5X5X6X",
"0XrXrX8X5X;X3Xw.e.8 > 0 0 2 , 7 2 7 0 0 y e q q f j n n w qX+XO..X@..X@..X{.:X].:X>X$X&X&X&X%X%X%X%X%X$X%X,X%X#X=.*Xw.=.].#X*X6X",
"7X6XrX7X7X3X;Xq.,., 2 4 ;.:.4 5.3.4.s.e D .X Xn I m K ) ^ ^ #.( _ _ _ @.@.@.XX2X>X>X$X&X*X$X%X%X&X%X%X&X%X>X%X#X*X=.$X#Xw.#X$X,X",
"<X6XsX0X7X6Xq.%., 4 :.;.8 4.1.8 V P N R C .. .) / ) ) Q / N { ( ` +.) } @.@..X|.q.:XeX{.#X=X=X[.%X<X=X>X:X2X2Xq.j.q.e.j.:Xj.=X#X",
"[.<X7X7X2Xe.3 < 4 :.4.5 z 6.> E e c l j G U } } ^ ) _ ) N h N } c N N n ] +.@..X0.q.q.q.e.{.#X>X%X].].:X{.q.q.8.q.q.8.%.q.XXeXXX",
"].3XrX:Xw.,.2 < 5.5.p 9 z 8 > c F s z s T  XH Y X.( ) / { P T n V S R A G J L #.@.|.e.e.{.tXtXoXoXoXXX{.e.q.r.8.0.e.0.XXoXoXoXtX",
"{.3X2Xq.%.&.< O 1 6 y.4.9 8 8 9.y q q Z oXPX|.J G n / / | P G z S A G b A D C O.@..X+XoX|.XXXXd.g.f.eXXXtXXXXXeXeXx.eXeXf.XXeXXX",
"q.8.,.3 ;.O O , O , 1 t.t.y.y.D t.i q u ~ qX+Xb G b N } { F G U } K K ` K I N _ +.+.+.@.+.o.o..X|.|.d.d.d.d.d.g.g.d.d.d.g.x.x.g.",
"2 O , , < < < , 1 ;.<.4.4.t.y.y.a.y.y.D ~ UX@Xg T b b n } | K T N U L ] T S J x ( N H ..O..X@.@.+.@.#.' p.f.f.f.p.p.p.0.XXd.f.d.",
"2 , 2 2 ;.1.:.:.1.1.<.;.4 <.4.4.a p p 9.-.-.qX+Xd d G G H J A d k j j g l Z P C k Z V l j K .X.X#.#.+.#.#.|.t |.p.d.d.e.d.d.p.p.",
"> > q P 9 4 1.2.1.;.2.4 2.1.;.5 e c x t '.t '.' F Z f Z Z A f l A A C S R ] { Y Y N b E d F T ( o. XX.' o. X.X|.|.|.}.oX|.p.0.d.",
"> q z u 5 2.6 8 i 8 Z e V u l | } { o. Xs.P f d f C C A m h b C j h b U X.X.| [ / W ; ; : b v j r F F F P ` ` O.( }.-.@X@X|.+X .",
"0 > 6.4.6 D L n v q r A J U [  . X X X XJ Z q F r r F ' o.[ ( ; b v G K [ [ [ [ ^ n / / M x m c b v F F J R L H I ~ -.qXnXO.O.#.",
"4.V ] o.o.{ R S r w q k L o.o.X. Xp.P C G J I J L ] ` ..K H x x M B m n { [ ..o.{ { { | ' K n M : x m z j Z V > q y }.qX@X|.I ' ",
"' } O...T N h j F c A H K ] T I k d P  Xo. .} Y ] { U L H L U Y / M x N Y L J R Y Y | ......} } ( ( } Y b v l l > > q y w t r P ",
"T Y | ] } ] G Z f j b ] } Y E h l g G  Xo.| H l K ' ] K ] | ` F F d h h f g g l C G n Y ] ..| | ^ ` } ..L c h J b : z s c n ; : ",
"C h z z A P G b D J [ [ Y v A j S S g g j S P P  X X X| ] ] ' F w r r r r r r r Z C d d b H N N ( ( } O.| G Z S B x : x x Q Q Q ",
"G j g V V g g A S T  .X.J d C A Z F J k k A I |.s.s.F F Y T { Y G A Z e Z Z Z e Z V j z h h h k H H Y | | Y n b S D G x W M x ; ",
"i V p 9 e k l V j k n ] Y S j h E b G J J A A J F c d d C G Y } X.| L b k C j z f l S S D S S A G J K ] { ....| ` R g h m z E x ",
"8 9 5.;.7 S v j g S D F L H h f S l h v v v j l S j g l b ` | X.|  .| K U J k S k k A A A d b | ] ] ] ] } { } } ..{ ] L k f Z S ",
"u 5 1.4 3.i s S m h j z f C I s.J S A A A A j j h k A k H ] ] U } [ ] } ] Y H J G A g g j j v T | ] ] ` ] ] ] ] } [ { [ U L J G ",
"2.;.1.<.1.1.;.3.e s l E m c J I G k j S S Z C v j j S V C G H n  ...'  . .` K K H J k j A G Y | } ] ] ] ] | | { ` [ [ [ { ..] Y ",
"5 4 2.1.1.:.4.7 4.4 6 i V V V i s j l h l j k h Z A g S j f A A | | } ] .. .] [ ] ` K K K U ] ..] ] ] ] ] ] ` U [ [ } [ [ { [ [ ",
"<.1.<.;.:.8 f v D 6 2.:.:.2.3.4 9 V P k c k S S k l k A A C k b A J H G J I T T [ | [ | | ..[ [ ] ` |  . .| | | ] ] ] ] ] [ ] ` ",
":.<.4 6 i s j D R S V 8 6 5 <.:.9 V S h f g i i s k b d Z S A l S j l f G G b N H Y H H Y H b b v b L K ] ] ] ] T | | | | ] ] [ ",
":.;.;.2.6 5 3.3.e i Z Z D 8 5 1.4 6 6 5 5 3.:.;.3.8 V l f i 8 3.i V s s i V V j g Z j j j f g l T L K | .. .| | ..| ] ] ] U | | ",
"4 1.1.<.1.:.1.4 1.<.<.<.2.2.1.1.:.;.;.1.;.;.<.<.1.2.6 9 4.<.<.<.;.<.<.<.1.1.2.6 s Z Z A S A S J G b H K ]  .] | ] } } | | ] ] ] "
};
