/* XPM */
static char *_3c7b8ad69e043068ba86961bce31883P8MDl0gOTRNvvL8f[] = {
/* columns rows colors chars-per-pixel */
"64 64 256 2 ",
"   c #000405",
".  c #010C05",
"X  c #01060A",
"o  c #020B0D",
"O  c #090C09",
"+  c #00130B",
"@  c #001607",
"#  c #030D12",
"$  c #090E13",
"%  c #010719",
"&  c #041313",
"*  c #0A1215",
"=  c #04161A",
"-  c #0C151B",
";  c #031B1B",
":  c #0C1A1D",
">  c #051915",
",  c #11151C",
"<  c #11191E",
"1  c #05231A",
"2  c #11201E",
"3  c #000428",
"4  c #0D1C23",
"5  c #081B25",
"6  c #121C24",
"7  c #121F29",
"8  c #161B23",
"9  c #000334",
"0  c #020B34",
"q  c #01093B",
"w  c #021637",
"e  c #042324",
"r  c #0C2324",
"t  c #0C242B",
"y  c #0C2B2C",
"u  c #062B27",
"i  c #132226",
"p  c #14232B",
"a  c #1A242C",
"s  c #132A2C",
"d  c #1A2B2C",
"f  c #172426",
"g  c #07342C",
"h  c #14312D",
"j  c #0D2D32",
"k  c #082833",
"l  c #152532",
"z  c #1A2632",
"x  c #142B32",
"c  c #1B2B34",
"v  c #1C2D3A",
"b  c #172A3A",
"n  c #0D3333",
"m  c #063A38",
"M  c #133335",
"N  c #1C3235",
"B  c #13343A",
"V  c #1C333C",
"C  c #163B3B",
"Z  c #212E39",
"A  c #23333D",
"S  c #273837",
"D  c #2D3536",
"F  c #09413A",
"G  c #17443E",
"H  c #2F413A",
"J  c #1A1943",
"K  c #1D1758",
"L  c #021144",
"P  c #221D54",
"I  c #1E3442",
"U  c #1C3B45",
"Y  c #153A43",
"T  c #133147",
"R  c #233544",
"E  c #243945",
"W  c #253B4A",
"Q  c #2A3D4C",
"!  c #283947",
"~  c #343D43",
"^  c #262656",
"/  c #273C53",
"(  c #2A2B51",
")  c #131464",
"_  c #1A2C6C",
"`  c #283579",
"'  c #2A316E",
"]  c #0A4644",
"[  c #174448",
"{  c #1A4759",
"}  c #125153",
"|  c #29444A",
" . c #364749",
".. c #2D4253",
"X. c #294757",
"o. c #344857",
"O. c #28565A",
"+. c #3C5555",
"@. c #3C5857",
"#. c #31524D",
"$. c #1B5364",
"%. c #344C64",
"&. c #364E6A",
"*. c #384F6A",
"=. c #3A526B",
"-. c #3B5668",
";. c #3C5574",
":. c #325171",
">. c #396469",
",. c #3A6672",
"<. c #356B6E",
"1. c #166558",
"2. c #434D4C",
"3. c #46534E",
"4. c #444D58",
"5. c #425354",
"6. c #495354",
"7. c #435857",
"8. c #43565A",
"9. c #435B5C",
"0. c #4B5C5D",
"q. c #4C5758",
"w. c #535C5D",
"e. c #50594D",
"r. c #45605E",
"t. c #455B61",
"y. c #4A5965",
"u. c #535D62",
"i. c #425B74",
"p. c #455D77",
"a. c #444B65",
"s. c #4C6364",
"d. c #4D6967",
"f. c #496668",
"g. c #526364",
"h. c #536B6C",
"j. c #58676A",
"k. c #4E726E",
"l. c #49667A",
"z. c #536C72",
"x. c #556877",
"c. c #4D7474",
"v. c #4A7975",
"b. c #4D767A",
"n. c #4B7A7A",
"m. c #447478",
"M. c #547574",
"N. c #547976",
"B. c #537B7A",
"V. c #5C7B7C",
"C. c #597579",
"Z. c #56726F",
"A. c #65696B",
"S. c #677778",
"D. c #747775",
"F. c #4E827B",
"G. c #55837C",
"H. c #6D807D",
"J. c #1A2A87",
"K. c #1C3586",
"L. c #172A99",
"P. c #153399",
"I. c #283888",
"U. c #333B89",
"Y. c #273795",
"T. c #333B96",
"R. c #272B8A",
"E. c #1A35AC",
"W. c #343AA7",
"Q. c #2A34AE",
"!. c #32468E",
"~. c #0C4EB6",
"^. c #3946A8",
"/. c #3845B8",
"(. c #2D4EB9",
"). c #0F65BB",
"_. c #1E4098",
"`. c #4E4C8D",
"'. c #4C6A84",
"]. c #516C88",
"[. c #4B7785",
"{. c #577987",
"}. c #5A7694",
"|. c #5B7A95",
" X c #597797",
".X c #627A98",
"XX c #707B88",
"oX c #4445B9",
"OX c #4651B1",
"+X c #5A6FAD",
"@X c #617FA1",
"#X c #373CCD",
"$X c #4935D4",
"%X c #1859C5",
"&X c #3A45C8",
"*X c #2658C7",
"=X c #3752C7",
"-X c #3846D5",
";X c #3757D8",
":X c #2A4FCF",
">X c #1771C6",
",X c #2A75D8",
"<X c #316BD3",
"1X c #3C54E1",
"2X c #3575E5",
"3X c #4648CA",
"4X c #4857CA",
"5X c #4649D7",
"6X c #4A53DB",
"7X c #524ED4",
"8X c #5070D5",
"9X c #4D54E9",
"0X c #497DE5",
"qX c #5475EF",
"wX c #6977FD",
"eX c #6B74FC",
"rX c #606EDA",
"tX c #598486",
"yX c #588496",
"uX c #508B91",
"iX c #648989",
"pX c #668799",
"aX c #728F90",
"sX c #6789A4",
"dX c #7594A8",
"fX c #7BB5B7",
"gX c #75ACAD",
"hX c #649AA0",
"jX c #1888CF",
"kX c #3785EA",
"lX c #3BACF5",
"zX c #4888EC",
"xX c #5588F8",
"cX c #5496FB",
"vX c #4B91F2",
"bX c #6A9BFF",
"nX c #7195FA",
"mX c #58A9FF",
"MX c #5AB2FF",
"NX c #4BB5FD",
"BX c #66AAFF",
"VX c #6FAFFF",
"CX c #7C9EC5",
"ZX c #74C0AE",
"AX c #83B9B9",
"SX c #8FB0B5",
"DX c #B0B8B8",
"FX c #899598",
"GX c #84B9C5",
"HX c #89ABC9",
"JX c #A1BEC4",
"KX c #80A1FF",
"LX c #94CACC",
"PX c #A5CCDF",
"IX c #FBFFFF",
"UX c #8FC8BF",
/* pixels */
"- : 8 6 p c c i c a a 4.o   X   > g.A ~ Q Q ! | #.X.-.-.p.l.].[.|.|..X}.]..XsXdXHXPXPXHXCXCXFX@ $ % % % @ ZXSXaXpXdXC.FXpXc.<.} ",
"< 6 7 6 7 d c d c p Z  .5.S.5.Z.g.3.H H S S H 2. .DX{.=.i.x.l.].{.{..X.X.X.XDXD S c I | S N e.aXdXdXFXFXF.#.FXaXtXtXpXiXdXk.n.O.",
", 8 a a p l N A c a ~   S  .S S 2 D D D S  .H N d g.aXD.H.A.DXIXFXj.A.D.D.A.u.4.j.f.-.>.O.O.@.>.i.a.a.a.UXF 2.pXyXtXyXtXhX[.f.O.",
"6 8 a z d c N A N c ..o f   = = 2  .g.q.3.7.r.7.e.d >   f   D DX- p R z $ J x.FXpXsXyX}.dXgX,.% w 0 3 % UXF 2.sXtXtXn.m.m.,.>.>.",
"6 6 a c c l c c E v  .  j.N & j.q.a O * >     > 1 r.D.r.S.D.7.X LXZXhXhXSXJX].9 w 0 q L L L K ^ _ X.J % gXg 3.sX{.B.n.m.n.m.<.O.",
"7 7 p v v v A V E B ~   D.| X A.u.2. .2.0.e.+.#.7.+ . 1 @ X   > hX} k k q q _ `.` _ _ I.) ) ' OX' ' P 7 gXg 3.pXtX[.m.f.>.-.O.} ",
"a p c b v A R A A V E + g.i ; 7.6.A.j.3.0.S.H.M.r.r.+.N X  .+.& ZX$.5 w _ ` ` K.J.Y.^.^./.W.R.) ` _ ( I LXF 3.pXuXm.tXyXm.>.<.O.",
"c c c c c v A V E C | o S.f f g.w.6.6.g.S.S.S.S.7.7.r.d.+ 9.7.. AX} w / !.T.Y.T.T.(.(./././././._ !.p.J PXF 3.pXuX<.yXpXsXyXv.>.",
"v l z c v V R v Z N E   S.d = g.q.q.w.u.Z.S.H.C.@.r.@.@.+ @.+.X AX{ w :.U.Y.Q.7XoXrX5XQ.5X6X&X3XR.U.*.^ LXF o.sXyXyXyXuX[.uX,.U ",
"p l z z c R Q R V c |   S.d = g.0.w.q.8.g.Z.Z.d.r.r.@.@.. @.+.o dX{ L I.T.3XoX7XQ.eXwX6X3X5X5X$XJ.` ' J LXm 6.pX[.yX[.[.[.yX[.O.",
"l c c z v W / R U E E   S.d = g.t.0.9.7.0.h.d.f.r.r.@.@.o @.@.& gX$.L K.Y.W.3X$X6X6X4X5X$X$X$X5XY.` K 9 fXm 4.sX}.]. XsXyX<.,.[.",
"V v Z v v R R R V I M   S.d = d.0.9.q.s.d.M.M.k.k.k.9.+.o +.+.& ZX$.k K.Y.#X3X9X6X3X&XQ.$X9X9X#X/.U.K 9 CXm 6..X X X@XsXsX X[.[.",
"p z z v I I U U ! x R   S.d * g.7.r.s.k.C.N.N.N.k.d.r.@.X @.8.# SXX.9 U.oX7X9XeX-X&X<XbXqX;X:X1XOXT.K 9 fX] *..X X@X@X@XsXsXsXsX",
"$ - 4 7 V | ..| ! v W   S.d = d.@.9.f.N.S.C.M.M.v.k.>.@.o +.5.# SX/ 9 U.3X7X9XwX-X<X2XcXcX2X<X:X=XT.) 9 fXY 4. X@X X@XsXsX X XsX",
"$ $ X 5 V X.X.X.I W /   S.d > g.r.>.f.C.G.M.k.N.B.k.r.r.# 8.@.o SX{ q !.W.5X5X1XE.BXbX_.~.bXbX:X/.T.) q GXY 4. X X X X@XsXyX X'.",
"$ * $ 6 V Y [ O.{ / /   S.d = d.9.9.f.N.N.v.B.G.B.M.f.r.# 8.+.o SX{ L _.W.9X5X-X:XxX0X*X*X*X<XbX=XT.K 9 HXm 4. X}.@X.X X X|.'.,.",
"$ $ - Z b ! R v Y X.X.X S.i r j.7.d.M.M.v.v.B.n.b.M.x.t.# @.+.# fX{ q !.^.7X3X6XxXvX<X(.*X(.>XMX;XW.^ % fXY 4. X X X@X X X.X}.p.",
"$ $ 6 c 7 b b t I | { * aX: r 7.9.d.M.M.v.n.n.v.C.V.z.8.X +.+.o GX$.q U.W.3X3X;XbX,X~.(.zXOXjXVX;X^.J X AXm a. X X X@X@X X X}.p.",
"$ $ 8 z 7 c V c v U [ # A.2 d u.0.h.M.v.v.n.n.n.{.V.x.t.X +.+.o GX/ 9 U.^.oX/.;XVX,X~.zXnX<X>XMX;XW.J X fX] a. X X X@X X X X].'.",
", , 8 c 4 p f a l V p f A.N = d.9.h.M.v.v.n.n.{.B.{.h.8.X +.+.+ fXT 9 U.`.7X;X;XcX,X2XBXPXjXjXMX;XW.J o LX] y. X X X X X]. X]. X",
", - i A c 7 = : y f 8 D :  .s.X 7.d.M.M.v.F.tX[.C.{.h.7.X @.@.+ fX} q `.+XrXqXxX%X%XzXmXMX).jXMX:XW.J + LX] y.]. X X X X X X'.'.",
"* * 6 A A d 6 8 4 4 a i * 7. .o +.r.M.N.F.tXtXF.M.{.f.a.o @.@.> ZX} 0 OX+XzXqXVX%X2XzX,XNXjXjXMX;XW.P * LX] a. X|. X}.]. X].].].",
", - r c l s 4 6 < r s 4   7.q.& 7.s.N.G.F.tXn.n.c.C.z.t.o +.@.@ fX] 3 `.OXOX0XBX,XcXvX).lXjXjXmX;X/.( & AXm a.].'.].'.'.'.'.'.'.",
"$ - 6 x l l i 4 4 r s s * 5.7.X 7.d.V.{.F.n.n.b.{.C.z.t.o +.#.@ ZX] % ' !.^.<XmX).vXvX).NXjXjXMX;X/.( & gXm 4.l.;.l.`.i.p.p.:.:.",
"* i d y t p p r y x 5 p # 5.8.X 7.d.N.N.v.m.n.[.c.iXC.o.& #.#.1 ZX} w P `._.,XmX>XvXcX%XlX>XjXmX;XW.J o fXY a.=.=.=.=.=.=.=.&.%.",
"$ : s c x f r 5 5 l 7 4 + 5.8.X 7.d.N.N.v.v.n.n.{.M.f.j.| N C @.1 v.XX9 ) _.vXmX%XcXvX).NXjXjXMX;XW.J o fXm 8.&.&.&.-.&.&.=.&.&.",
"# - i c c i 4 r = 4 7 5 & +.7.X 7.h.N.N.b.v.n.b.{.f.h.x.s.; h G.@ F.dX3 _ _.zXmX).vXkX).NXjX>XmX;XW.J + fXF 4.=.%.%.-.&.&.*.:.&.",
"$ * : s d 6 ; ; = 5 7 4 & 5.q.X 7.d.N.N.v.v.n.b.M.z.x.+.d.+ h G.1 F.iX3 U.K.8XbX%XkXkXvXMXjX,XMX;XQ.J & fXY %.=.%.&.%.%.&.:.;.;.",
"$ - 4 p 4 4 ; : = = r p # 5.9.X 7.g.N.B.v.v.[.n.c.C.C...h.= h k.@ tXpX9 ` Y.qXVX%X~.,XBXzX<XkXmX;XW.J & AXY %.=.%.%.%.%.&.;.*.;.",
"$ - 6 r 4 4 5 5 r : r s + 5.9.X 7.d.M.B.v.v.n.b.B.l.x.+.V.; d G.. G.pX3 U.T.8XbX,X~.,XVX*X*XkXkX;XQ.J o fXm +.&.%.%.X.%.*.;.*.*.",
"$ - 4 6 4 5 7 t r r e c # 5.8.X 7.d.C.B.v.m.n.n.{.z.z.t.h.; h G.@ G.[.q U.OX/.;XmXkX2XbX=XzXvX,X;XW.J o AXY o.%.%.X.o.%.*.*.:.&.",
"* * : i 4 5 w l y r 5 x & +.8.X 7.d.C.B.v.v.n.v.z.C.C.t.8.; M k.. iXtX9 K ^.OX*XcXkX%X<X(.nXzX%X;XW.J # AXm 4.%.%.%.%.*.*.*.%.%.",
"* * s 4 - : i 4 n r y N 6 +.| & @.t.k.B.v.m.v.v.c.C.x.@.t.; y B.. iXhX3 _ !.4X8XVX0X%X%X%XxXvX<XOXT.J 3 fXg  .X.*.*.*.i.=.i.&.*.",
"* = i 2 4 ; 4 r y y t s # #.f.X t.y.h.k.v.F.F.tXc.M.M.t.s.5 x N.@ G.tX3 _ !.OX4XbX<X:X:X<X0XzXP.!.:.^ w LXm 5.X.%.=.=.p.i.i.*.*.",
"> r t r p r r y y M r 5 $  .>.X t.t.s.v.tXiXiXiXM.M.z.8.>.; h N.@ G.tX3 ` U./.=XwXqX;X%XbX0X=X8XR.U.U.( LXF 5.o.o.i.i.p.=.i.=.i.",
"& 2 r r s e y n y M y r a o.| 5 8.8.s.F.aXhXhXiXC.x.z.t.s.e M N.@ F.{.0 :.I.^.4X;XwXqX1XnXqX*XnXK.U.p.' PXF 2.X.*.y.i.p.i.i.i.i.",
"+ > 2 u t r C B s n s t X t.@.# 8.u.f.c.tXaXiXG.C.z.h.t.s.5 y V.. F.iXw ` J.W.3X#X1XwXnX1X=X6X4XR.!.` ( LXC 5./ %.i.l.l.i.l.l.i.",
"; 2 r i t r C M M x h y X 6.f.X a.s.s.f.k.B.G.B.N.z.f.8.d.e j G.. {.pXw ` ` W.3X-X-X1XwX:X-X;X/.R.' ^ q GXm 6./ o.&.-.;.;.x.'.l.",
"2 u h h g e C m C y M t j.+.| x A 5.s.s.f.c.B.z.C.j.y.8.s.; u G.. tXpX3 ' R.W.3X1X9X-X#X1X5X#X7XK.` K 3 fXm 3.o...%.-.i.-.].l.-.",
"> h 1 u M g B m n n x y -.@.; iXo A t.h.k.M.k.h.Z.g.0.8.d.> u N.+ G..X3 K ` W.3X$X-X9X-X1X#X9X#XY.I.P 3 fXm 2.o...%.l.l.-.l.;./ ",
"+ , - B [ m k x m g V b X.@.e S.# ~ u.s.f.M.M.C.j.w.g.0.t.e n F.@ G.|.3 ' ' W.3X3XeXeX9X#X5X5X$XJ.` P 0 fXg 3.i.E X..X{.%.i.Q W ",
"> * j 1.1.] u m G M n Y { +.r {.# S 0.9.@.9.7.r.o.2.q.8.r.; g iX@ tXaXw ' R.R.Q.3X7X9X#X#X5X#XQ.Y.I.^ 0 GXm 2.p.-.%.-.p./ ..| -.",
"s ; g ] 1.} ] F [ G Y Y O.7.e C.X D g.0.r.9.0.g.j.A.g.q.h.1 1 G.@ F.{.% ^ ` R.L.3X=X-X#X5X5X#XL.R.` K 0 AXF 6.x.{.a.R o...Y [ | ",
"& & t B Y [ [ ] m C n [ { +.e V.X ~ u.g.g.r.q.g.6.6. .2.Z.r u G.@ iXiX3 ' ` T.J.Q.&X3X;X&X#XQ.L.J._ K 0 fXm 3.i.f.%.I o.Q I [ | ",
"s u g F F m B C n M B Y O.5.e S.o D q.q.7.7.3.5.w.u.w.w.r.1 1 F.@ F.tX% ' ' ` J.L.^.=X=X&XE.E.Y.Y.` ^ q fXm 2.o.o...R ..| | | } ",
"h m m [ C k j e n N u V U @.e {.X D w.w.w.g.w.g.2.q.A.u.7.1 F F.@ G.tX% T _ I.Q.P.P.L.P.P.P.L.R.K.` P 9 fXm 3.t.+...E E ..X.B [ ",
"1 g g 6 - e n V y g j y E 8.5 V.X ~ j.w.7.3.6.j.D.w.w.2.d . . > @ G.G.# w 9 L _ :.:.!.;.!.8X8XzX!.` J 3 AXG w.%.o.Q | B [ Y B X.",
"> u n n x x e x n C C M B 5.5 S.% 2.z.7.V d d S S O 2 d #.#.r.#.@ G.UXX.X...o./ X.%.*./ %.%.!.CX+X!.P 3 LX[ g.W ! ! W U X.X.B W ",
", > u m B n U n x y n G F 2.X u.% w { X.T m | #.u h G u | #.#.@.h.i.l.o.Q R R W W R R ! / X.*.:.,.X.% % LXC  ./ Q ! E V B U U X.",
"u + r s C C B c u B e s s A.X X t * % k f.{.k.#.f.v.G.H  .i s p V I 7 I Q Q o.Q Q Q W Q / o./ 0 5 = 5 | DXV |  .o.! b V I X.Y Y ",
"G g N 1 e B M t e Y s u C  .a D.A.D.D.e.H : * : : : 2 D c v z l N ! R R ! ! W R ! W Q ..Q o./ PXLXDXSXFXFX| ~ v I l l B U / { T ",
"1 1 n e 5 p y e 7 x M n C V v , O .   b p 7 a a s s i i Z R Z z d A ! ! R R R R B I R I ! Q / I l j 5 ; A l z Z R c c l j B X.[ ",
"- & e M C r M M m y e B d M -.[ 7 b E t p p d l i 6 r 7 7 l z c 4 4 7 l R ! R R N c V b R R Q R I I / o.Q Z 7 7 a a 8 4 4 7 I j ",
": * + r n u M v U Y j t y y Y u k k V t c s 7 4 4 p 6 7 4 7 p d 6 4 5 4 Z Z c p c r s l v l I R / I I ! Q ! R c 6 < < 8 7 l v l ",
"+ - - : h M C v M M B u B V t v b y t r c 8 4 8 p a 7 p p p < = 6 6 8 4 7 a 7 p : 4 4 c z l l R I / ..Q Q Q ! Z Z a 8 4 5 7 t l ",
"o > > & = 4 x ] B k j c 7 r b k v R p 6 - $ 4 6 s p 4 4 - p 8 6 4 6 8 4 4 a 6 4 * f a A z R R Q / ..o./ Q ! R Z R v Z Z I R 7 7 ",
"$ o o # o # 6 N M M j t 7 5 7 6 5 p z a - - * - 6 7 7 6 - - : < 4 i - * 6 6 , 4 3 4 c ! | R I / o.%.o./ ! Z c c z z c c b v ( ! ",
"O X X O + & = : t t x x r 4 4 6 z = * a a $ # * - 4 - - : 4 - * * 8 6 - 6 - - 4 - 7 A A R A v R %.o./ W Q ....Q Z 7 8 z R R R A ",
"# X X $ * # o # = 5 d p 4 4 4 6 7 * # , a 8 - - 4 - : - * 4 , : * 8 , - , - * = * 6 z 7 a c v R Q Q ..Q R R / ..Q ~ Z 4 8 7 a 6 ",
"# o O $ $ o & * > : 6 i 6 - 4 4 , - - # , a a 6 8 p 6 8 - - < 8 4 f - * * 4 5 - $ % - - 7 7 l I ! ! R R R ! R ! Q Q R a Z Z 7 8 ",
"o o $ $ O o $ - , , , , 4 6 4 4 , , * # $ 4 8 4 - 8 a a < , < 8 r f - & % 6 , - $ $ - 4 8 7 7 v I I I I R R / / / Q ! ! ~ Z 8 6 ",
"$ o X O O $ $ * : - $ $ $ , , , - $ $ $ $ , 4 - - - - , , , * * r N r 8 $ 8 8 , $ , 8 , a z 7 7 ! R I R Q o./ W / / ! ! R v z z ",
"O O X O O $ * $ > O o o # $ $ - $ - $ O $ 8 8 - 8 , - * , $ $ $ r N a a , a 8 8 $ $ , $ 8 8 6 6 R ! ! Q Q Q / o.Q Q ~ R 7 z z 7 ",
"X O X O X . $ - : : $ $ X $ $ 4 $ , $ $ $ , - , * , , < , * O , & , & - $ 7 7 % 8 $ $ , 8 8 7 R o.Q ! Q Q o.o.Q Z Z 7 7 z R R Z "
};
