/* XPM */
static char *ed753c202c444f84eaffc02762870446KCnFCAJnkZfYnBES[] = {
/* columns rows colors chars-per-pixel */
"64 64 115 2 ",
"   c #000001",
".  c #080607",
"X  c #0C0A07",
"o  c #070708",
"O  c #090708",
"+  c #0B090A",
"@  c #130A06",
"#  c #1C0C06",
"$  c #130D0E",
"%  c #171007",
"&  c #1B1209",
"*  c #161111",
"=  c #191110",
"-  c #210D06",
";  c #2B0E05",
":  c #231409",
">  c #2B140D",
",  c #261809",
"<  c #2C1C0A",
"1  c #351206",
"2  c #3B1306",
"3  c #33160B",
"4  c #3B1609",
"5  c #331F0B",
"6  c #3D1A0A",
"7  c #221615",
"8  c #251817",
"9  c #271918",
"0  c #2C1C1B",
"q  c #341B14",
"w  c #321E1D",
"e  c #3D250C",
"r  c #35201F",
"t  c #2F2222",
"y  c #342322",
"u  c #3B2321",
"i  c #3E2927",
"p  c #3F2B2A",
"a  c #451404",
"s  c #4D1604",
"d  c #4E1806",
"f  c #411708",
"g  c #42190A",
"h  c #4F1A08",
"j  c #501705",
"k  c #541A06",
"l  c #591C07",
"z  c #551B09",
"x  c #5B1E09",
"c  c #601F09",
"v  c #40270D",
"b  c #44290D",
"n  c #4D2F0F",
"m  c #5E210B",
"M  c #5F280A",
"N  c #53310E",
"B  c #5A350F",
"V  c #5A3611",
"C  c #63220C",
"Z  c #69260F",
"A  c #66280C",
"S  c #6A2E0E",
"D  c #6B330F",
"F  c #62390F",
"G  c #642510",
"H  c #6A2610",
"J  c #6D2911",
"K  c #722B13",
"L  c #673D13",
"P  c #6B311D",
"I  c #723412",
"U  c #71351F",
"Y  c #422724",
"T  c #452927",
"R  c #492A27",
"E  c #432C2A",
"W  c #4D2E2B",
"Q  c #5D2B20",
"!  c #502F2C",
"~  c #45302E",
"^  c #4F302D",
"/  c #56322E",
"(  c #473130",
")  c #4C3433",
"_  c #543633",
"`  c #5B3532",
"'  c #5C3936",
"]  c #5C3C3A",
"[  c #60332B",
"{  c #603734",
"}  c #613935",
"|  c #653D3A",
" . c #734313",
".. c #7B4414",
"X. c #7F4913",
"o. c #5E403E",
"O. c #67403C",
"+. c #69413E",
"@. c #764231",
"#. c #6C4441",
"$. c #714B47",
"%. c #744E4B",
"&. c #824C16",
"*. c #884F15",
"=. c #8C5117",
"-. c #965617",
";. c #9A5917",
":. c #A05B17",
">. c #A35D18",
",. c #AB6117",
"<. c #AB6118",
"1. c #B46619",
"2. c #BA6919",
"3. c #9A6C5B",
"4. c #C6AEA7",
/* pixels */
"x H m x c J K Z x j x k j j k x C C k z x 3 o o + + + + + o o > k s l s s l x x Z c c c l l x Z l c c k x k x K c x J J x x C x ",
"A H x m Z J J c l s x k s k l c Z C k Q [ / 0 $ W W W W W 7 0 r @ - l s z x C Z c c Z x l x c c z c l k x j l K C x J H C x c h ",
"S Z m C Z J J G x s x l j x c l C # @ R +.+.u $ { ' } $.| 8 u ` W Y @ @ k x C C x c Z C l l c c l x l k c j x J c x J C x c c h ",
"K m x C J J J x c s k j j l s # - Y ) t _ #.u $ | $.} %.| 8 u } T 8 Y T # # x c k x c c l l l c x x l k x s c Z C x K C z C C h ",
"Z x x A J A C x m s k j s a #   ( ' | R y t * + 9 r 9 y 0 + = 8 0 E } #.r X - a z l x x l x z m c x z k x s C Z C z J H x c G k ",
"x C m Z J J H x C d z s 2 > w w p ' } Y $                 o     $ u } +.w w i q a z c C k m x D I I D D S s x K C j H J x c c k ",
"x x C Z H J H x C k l a > E | } 9 u u $                           + u u 8 / #.E 3 d x x 1 D P ..=.-.-.=...M x K G h H C x x C x ",
"m z C C l G H x m k s : 9 ' #.W T +                                 o   W W ` / 0 > d f & &.=.X.<.2.2.>.&...A K J z H C k c C x ",
"x z H C z m C m x a > E Y 0 r .                                           o u = i ~ & < X.-.1.=.>.2.2.>.&.=.=.&.K x G H z c c m ",
"d z H c m x x m k @ ~ ] / w                                                   o o e *.*.X.2.2.=.<.2.2.>.=.2.1.&...x J C z c x x ",
"j x A x x z z z # R 9 + + O                                                     b =.1.<.X.2.2.=.>.2.2.>.=.2.1.=.&.x J C x x x m ",
"x C G x C x h k @ W } } u                                                     o n -.2.<.&.2.2.=.<.2.2.>.=.2.1.&.&.z H H x x x m ",
"x Z x x C x k h @ W #.| u                                                       n ;.2.<.&.2.2.=.<.2.2.>.=.2.1.&.X.x H G c C x G ",
"C Z x x x C x z @ $ T | u                                                       n ;.2.<.&.2.2.=.>.2.2.>.=.2.1.=.&.z J H c c l G ",
"C A x x x m m z @ 0 0 8 =                                                       n -.2.<.&.2.2.=.<.2.2.>.=.2.1.&.X.z J J c G x m ",
"C C z m z m m k @ W W u 8                                                       n ;.2.<.X.2.2.=.<.2.2.>.=.2.1.&.&.z H J x G x C ",
"G C z x z x C z @ W | } u                                                       n ;.2.<.X.2.2.=.<.2.2.>.=.2.1.&.&.z H H m C m C ",
"Z G x C z x A z @ 0 E p 8                                                       n ;.2.1.&.2.2.=.>.2.2.>.=.2.1.=.&.m H J m c x m ",
"Z G l C x x Z d @ $ * $ + o                                                     e &.2.<.@.2.2.=.<.2.2.>.=.2.1.&...x G H C m m m ",
"l Z x C l Z G d @ ] #.} u                                                     o o e ;.1.&.2.2.=.<.2.2.>.=.2.1.&.&.z G H x C m m ",
"x H C m Z x Z d @ W #.#.u                                                       o o & ;.X.2.2.=.>.2.2.>.-.2.1.*.&.x G J C C C x ",
"x H Z C Z x C h @ W } } u                                                         o . < &.2.2.=.1.2.2.>.=.2.1.*...c G K C c x C ",
"x A A C C x C h @ W 8 o o                                                     o   n 2.,.X.2.2.=.>.2.2.>.=.2.1.*.&.x G J x C x x ",
"k C Z m C C x h @ + p _ 0                                                       e =.2.,.&.2.2.=.>.2.2.>.=.2.1.*.&.x G H x G x m ",
"k C H x C x C x + Y ` #.E                                                       n -.2.<.&.2.2.=.>.2.2.>.=.2.1.&.X.x C J x C x C ",
"l x H x z C m z $ W } | p                                                       n -.2.1.&.2.2.=.>.2.2.>.=.2.1.*.&.z H J x C C m ",
"l l A G k z m z @ 7 8 W u                                                       n -.2.<...2.2.=.1.2.2.>.=.2.1.&.X.z J P x C m x ",
"x k Z J z h z h @ 7 0 y 8                                                       n -.2.1.&.2.2.=.>.2.2.>.=.2.1.&.X.x J J C m m j ",
"C k m H m k z h @ W +.R =                                                       n -.2.<.*.2.2.=.<.2.2.>.=.2.1.*.&.k H J C C G x ",
"Z x x H H z z m $ W } } u                                                       n -.2.1.&.2.2.=.>.2.2.>.=.2.1.*.&.j H K G c G x ",
"A x z G J x x C # u W ` u                                                       n -.2.1.&.2.2.=.1.2.2.>.=.2.1.*...k H K H c c G ",
"H x k m H H C C @ + + r y                                                     o n -.2.>.&.2.2.=.>.2.2.>.=.1.1.*.&.j G K H c c G ",
"A x z x G H G G @ T ` 9 +                                                       n -.2.<.X.2.2.=.<.2.2.>.=.2.1.*.X.n Z K Z z x C ",
"x C x x G H H m @ W } _ 0                                                       n -.2.1.X.2.2.=.<.2.X.7 e 2.1.*.X.l m K C z z Z ",
"x m k l Z H H m @ ! } } u                                                       n -.2.<.X.2.2.=.<.2.<.V o e 1.*.&.x z K Z l m H ",
"z C z k G A G m @ 7 9 9 =                                                       n -.2.1.X.2.2.=.<.2.2. .% X.1.*.X.x x K Z x Z Z ",
"k m z k C Z Z m @ 0 u u 8                                                       n ;.2.<.X.2.2.=.>.2.=.< < 2.1.X.&.x z K G c x Z ",
"h C C z C H J x @ W } } u                                                       W -.2.1.X.2.2.=.<.=.F e e X.1.*.&.c z J H c l C ",
"d C m z x G J x @ _ | { u                                                       n -.2.<.&.2.2.=.<.n n >. .< 1.*.&.G k H J C x m ",
"k m C z k H J m @ ] ' W 0                                                     o n -.2.1.X.2.2.=.<.V N X.N e 1.*.&.G z J Z x x m ",
"x x H x k C J x @ ( y $ +                                                       e *.2.<.&.2.2.=.<.2...: e 2.1.&...J z H H x x G ",
"C k A x z A H z X o u } u                                                       o n 2.<.X.2.2.=.>.2.2.>.=.2.1.*.&.G x J G x k H ",
"C k C x z m H C @ W } } u o                                                     o   : :.X.2.2.=.<.2.2.>.=.2.1.=.&.G z J J c k H ",
"C l A x z G G m @ W } #.(                                                     o   o o < X.2.2.=.<.2.2.>.=.2.1.&...H l J J x l G ",
"Z z M m x m Z m @ $ $ _ (                                                       o e -.-.X.2.2.=.<.2.2.>.=.2.1.&.&.G x K H c k Z ",
"Z x m H x x A G @ u W 0 $                                                       e &.2.1.X.2.2.=.>.2.2.>.=.2.1.*.&.G x K G Z k Z ",
"Z x z H z x H G # W ' W 8                                                       n -.2.<.X.2.2.=.<.2.2.>.=.2.1.*.X.C x K H Z k C ",
"Z C z C x x H G $ W | O.u                                                       n -.2.,.X.2.2.=.<.2.2.>.=.1.1.*.&.m x K J c z A ",
"Z C k C z m J G @ 0 T E 7           o   o   o       o         o o               n -.2.1.&.2.2.=.>.2.2.>.=.2.1.&.&.C m P K c x J ",
"c c k H m m Z M @ 7 9 9 =           = 8 8 8 9 9 t t t t 9 $ o + 8 9 9 t 9 o   o n -.2.<.X.2.2.=.<.2.2.>.=.2.1.&.X.C J J J c z G ",
"C C x C z G G m @ W { } y o o o o X / } } | } O.$.$.$.%.+.r $ 0 W ! } %.} $ $ + n -.2.<.X.2.2.=.<.2.2.>.=.2.1.*.X.m J J H c z Z ",
"C C m C z G H G = Y / } u + $ + = R W W ^ _ O.o.] / ' $.%.+.} Y * = _ o.} $ ^ 9 n -.2.1.&.2.2.=.>.2.2.>.=.2.1.&.X.z J J H c l H ",
"Z m x C k C H G @ o u } u 9 } } ` +   o o o   o o o / } $.%.+.} } ! o   ' $ o.t n -.2.1.X.2.2.=.<.2.2.>.=.2.1.*...k H J Z c x H ",
"Z x m m s A J m @ ] y + o 8 | $.} $.| } ` } } } } / $ + + + + + + + = ^ o   T 7 n -.2.<.X.2.2.=.<.2.2.>.=.2.1.*.&.z J J c c k Z ",
"Z x x m k G K C @ W ' / r 8 } | } } ' $.O.+.#.} } ' / ` / ` / ` _ _ R $ o o + o n -.2.<.X.2.2.=.>.2.2.>.=.2.2.*.&.z J J C c l H ",
"c c k z z C H z @ ] | } u O $ $ $ $ $ * * * * $ $ $ $ $ $ $ $ $ $ $ $ o o o o o n &.-.1.X.2.2.=.<.2.2.>.=.2.1.*.&.z J H H c l G ",
"C m h l m C Z m @ $ = $ + o   o   o   o   o o     o o     o   o       o o   o o X & e =.X.2.2.=.>.2.2.>.=.2.1.*.X.x K H H c x G ",
"Z l m m l C H l 4 4 4 1 1 1 1 1 1 2 4 1 1 1 1 1 ; 1 6 4 3 1 3 g 6 6 1 ; ; 4 ; ; 1 2 4 e X.;.2.=.<.2.2.>.=.2.1.&.X.x K H G l z C ",
"Z k m m m C C k m x l j j k k k l c x l m k l k d l H c x x x J C C j s c c s k x C m 3 b n -.&.<.2.2.>.=.2.1.*.&.x J G C k l C ",
"C s m m z C C x m z x k k l x k l C x l l l l d d k H x x x z H C c s k c l s z l x C l : O b n -.2.2.>.=.2.1.*.X.G J G c k C m ",
"z s m k x Z Z m m k s s x j l j l C x l l x l k k j C x z m C H G x s x G k s k l c c C k # # # L &.-.-.=.2.1.&.&.C K J Z k c x ",
"d s m z m Z C x m j a s k k k j l C x l l c x k z z C x x C m G H k j c Z k k z x U @.x k k x c ; X 5 L ..<.<.*.X.x J J c z C G ",
"s k m z C J Z x m j s j l l x l x C x k k z x k k x G l x x x C c j l Z c k x l x 3.4.l l k x Z k l f @ , L L L L m H G c x Z J ",
"a z m z C J C C m s j k j l l c x Z x l j x x k j z Z x x x x C c s c c j j c l x J P c c k c c x c x j g X @ + + x H C c z C G "
};
