/* XPM */
static char *_1073865290819_5d61d475f0072__1_1677250290[] = {
/* columns rows colors chars-per-pixel */
"64 64 251 2 ",
"   c #000001",
".  c #0A0807",
"X  c #0B090A",
"o  c #100D07",
"O  c #130E0E",
"+  c #0F1812",
"@  c #161111",
"#  c #191110",
"$  c #27190A",
"%  c #311F0B",
"&  c #221615",
"*  c #251817",
"=  c #271918",
"-  c #2C1C1B",
";  c #311E1D",
":  c #0A261C",
">  c #132C16",
",  c #3D250C",
"<  c #35201F",
"1  c #313418",
"2  c #15282B",
"3  c #172E35",
"4  c #2B2325",
"5  c #3B2321",
"6  c #392726",
"7  c #2B3033",
"8  c #283437",
"9  c #43290D",
"0  c #4D2F0F",
"q  c #58340F",
"w  c #61390F",
"e  c #673D13",
"r  c #442826",
"t  c #432D2A",
"y  c #4D2E2B",
"u  c #4D302D",
"i  c #56322E",
"p  c #4B3432",
"a  c #5B3532",
"s  c #593A37",
"d  c #603734",
"f  c #613935",
"g  c #653D3A",
"h  c #2C5228",
"j  c #347939",
"k  c #674A19",
"l  c #7B4713",
"z  c #5E403E",
"x  c #67403C",
"c  c #69413E",
"v  c #7C5B31",
"b  c #7A6138",
"n  c #194450",
"m  c #2F4E53",
"M  c #3A7F41",
"N  c #21645E",
"B  c #057A68",
"V  c #007D70",
"C  c #2D7278",
"Z  c #585453",
"A  c #6C4441",
"S  c #734C49",
"D  c #61575C",
"F  c #686765",
"G  c #824C16",
"H  c #884F15",
"J  c #8C5117",
"K  c #965617",
"L  c #9A5917",
"P  c #A05B17",
"I  c #A35D18",
"U  c #AB6117",
"Y  c #AB6118",
"T  c #B46619",
"R  c #BA6919",
"E  c #3A823D",
"W  c #40863E",
"Q  c #66DB3C",
"!  c #13954F",
"~  c #07995C",
"^  c #388443",
"/  c #17A458",
"(  c #24A549",
")  c #23AB5A",
"_  c #32B451",
"`  c #0B9369",
"'  c #179A68",
"]  c #058776",
"[  c #03997A",
"{  c #149D78",
"}  c #27976C",
"|  c #17A566",
" . c #0AA676",
".. c #17A578",
"X. c #2BAE70",
"o. c #2ABA77",
"O. c #4B8B47",
"+. c #559350",
"@. c #52B854",
"#. c #69B558",
"$. c #689B69",
"%. c #4FBC6A",
"&. c #7AB969",
"*. c #3CC85A",
"=. c #3AC472",
"-. c #4DCD56",
";. c #55C95C",
":. c #56D659",
">. c #6BCF50",
",. c #67D65A",
"<. c #75D953",
"1. c #72E84C",
"2. c #46C669",
"3. c #55CB65",
"4. c #4AD466",
"5. c #56D667",
"6. c #44CA77",
"7. c #57CB72",
"8. c #47D373",
"9. c #5BD574",
"0. c #68D868",
"q. c #75DC68",
"w. c #66D876",
"e. c #72D370",
"r. c #59E17F",
"t. c #7AE56D",
"y. c #7AE576",
"u. c #70E874",
"i. c #84D970",
"p. c #84E46B",
"a. c #84E96A",
"s. c #87E86A",
"d. c #82E572",
"f. c #86E779",
"g. c #91E47C",
"h. c #607C94",
"j. c #0F9084",
"k. c #0C9C82",
"l. c #308C92",
"z. c #06A687",
"x. c #15A788",
"c. c #06A991",
"v. c #28B88B",
"b. c #3CAABC",
"n. c #538C93",
"m. c #6C9392",
"M. c #6EB88E",
"N. c #5195A5",
"B. c #758BAB",
"V. c #55B7B7",
"C. c #6FAFB2",
"Z. c #38CB8D",
"A. c #47D78B",
"S. c #4DD78B",
"D. c #6BDC81",
"F. c #77C399",
"G. c #5AE99A",
"H. c #7CED86",
"J. c #7AC8A8",
"K. c #7FCEB0",
"L. c #4EADD1",
"P. c #4FB6D3",
"I. c #6EB6CB",
"U. c #65BDDA",
"Y. c #3DCAEA",
"T. c #52C2DC",
"R. c #6CCDD5",
"E. c #74C5D9",
"W. c #58C8E8",
"Q. c #58D4E7",
"!. c #5BD1ED",
"~. c #49CAF3",
"^. c #57CAF6",
"/. c #5DCFF3",
"(. c #5BCEFA",
"). c #4CD7F7",
"_. c #55D2F5",
"`. c #5BD1F4",
"'. c #55D2FB",
"]. c #5AD2FA",
"[. c #59DBFA",
"{. c #65CCE9",
"}. c #75C9E6",
"|. c #68D7EC",
" X c #75DBEA",
".X c #65CAF7",
"XX c #70CBF3",
"oX c #66D9F6",
"OX c #6BDCFD",
"+X c #76D9F9",
"@X c #6EE8EE",
"#X c #69E4FD",
"$X c #74E3FD",
"%X c #79E7FB",
"&X c #96BA9A",
"*X c #8C8DB4",
"=X c #8A96BC",
"-X c #9697BC",
";X c #94A9BB",
":X c #93D591",
">X c #85EC84",
",X c #84CFB7",
"<X c #B3E4A3",
"1X c #B1EAB3",
"2X c #899DC6",
"3X c #979AC4",
"4X c #A39CCA",
"5X c #98A5CA",
"6X c #8BB5C9",
"7X c #9BAAD2",
"8X c #99B5D7",
"9X c #A8A6C9",
"0X c #B0ADCF",
"qX c #A5A9D5",
"wX c #A8B5D8",
"eX c #B7B7D6",
"rX c #91BFE0",
"tX c #A8B9E5",
"yX c #B6BBE4",
"uX c #C3BEDC",
"iX c #8CCFCF",
"pX c #B5CCD9",
"aX c #A7D9D5",
"sX c #A7E3DC",
"dX c #92CAEA",
"fX c #87D8EA",
"gX c #97D6EA",
"hX c #85DAF9",
"jX c #96D9FA",
"kX c #A7C9E9",
"lX c #AFD3ED",
"zX c #85E6FB",
"xX c #93E9F2",
"cX c #A5E8FA",
"vX c #B7EBF4",
"bX c #B0F1F1",
"nX c #B7FDFC",
"mX c #D1DBD1",
"MX c #CEEDCF",
"NX c #D9E1DF",
"BX c #CEEAEE",
"VX c #C8F3FB",
"CX c #CCFFFF",
"ZX c #D8FCFA",
"AX c #DCFFFF",
"SX c #E9F9E7",
"DX c #F5F9E8",
"FX c #EDEEF0",
"GX c #E7F9FA",
"HX c #E4FEFE",
"JX c #F7FAFA",
/* pixels */
"W.OX(.W..X+XI.gXR.V.Q.#XY.oX^..X{.|.W.T.U.C X   X X X X . . . m P.T.{..XXX.X.X(._.`.!.!.!.!.).)._.(..X!.Q.Q.Q.!.oXW.^.].'._._.Q.",
"!.`.(.OXW.U.nXZXCXsXzXP.(.^.(..XW.}.{.h.D z ; O u u u u y & - 7 3 m /..X.X.X(.(.`.`.!./.!._._.)._.].`.!.!.!.Q.!.~.#X'.~.[.oXQ.!.",
"_.Y.'.^.T.cXGXGXZXJXZXI.|.W.W.Q.gXm 3 p c A 5 O d d d S g * 5 s t 6 3 3 '.'.(.(.].`./.!.!.`.`.'.'.'._.`.(.^.'.'.).).).~.W.T.R.fX",
"Q.Q.#X{.jXCXGXFXFXJXHXvXiXR.V.m m t p ; p A 5 O f S d S g * 5 f t * t t n n L.(.^././.!.`.^./.(.'.).'.(.(.(.'.'.[.Y.).#XW.fXnXVX",
"Q.|.P.fXAXVXJXJXJXNXGXHX6XC.Z   p a g y 5 4 @ X - ; - 4 - O # = ; r g A 6 X n b._._._._.'.]..X]._.).W..X(.(.'.'.~.~._.W.I.bXHXBX",
"R.R.E.cXHXGXFXDXDXFXSXFX;XZ < - t a f 6 O                       O 5 d c - - t m L._.).).).[..XB.$.m.m.m.m.(.'.'.'.oX{.E.bXAXSXNX",
"E.cXZXZXFXJXFXDXDXDXMX&XF r x a = 5 5 O                           X 6 5 = i A t m b.).T.l.N.m.b J L K J b C.^.`.W.E.6XaXAXGXSXSX",
"6XZXVXGXGXFXDXDXDXDXMXZ = z c u r .                                   . y y d i - N b.l.# H J G I R R I l b C.C.fXlXCXHXGXSXDXSX",
"BXHXSXJXSXDXSXSXSXmXZ t r - < .                                             6 # 6 t # % G K T J I R R I G J J G &XZXAXHXZXZXBXGX",
"FXGXFXSXSXSXSXSXpX1 t s a <                                                 .   X 9 H H l R R J Y R R I J R T G G CXCXvXVXZXZXbX",
"GXGXSXNXSXSXZXaXm y % X X .                                                   . 9 J T U G R R J Y R R I J R T G G nXcXfXfXcXjXE.",
"VXVXSXSXDXSXHXpX7 i f f 5                                                       0 K R Y G R R J I R R I J R T H l  X|.R.}.{.XXXX",
"@XxXsXZXSXJXHXBX8 y c x 5                                                       0 K R Y G R R J Y R R I J R T H l Q.Q.|.oX{..XOX",
"Q.R.iXZXSXGXVXkX3 O t g 5                                                       0 L R Y G R R J Y R R I J R T H G #X|.oX#X[.`.].",
"$X|.gXZXCXvXcXE.3 ; - * #                                                       0 K R T l R R J I R R I J R T H G |.|.}.@X#X#X[.",
"OX|.xXnXxXfXfXU.3 y y 5 *                                                       0 K R Y G R R J Y R R I J R T H l  X X@XoX!.oX#X",
" X|. X%XzX XXXU.3 u g g 5                                                     . y K R T G R R J Y R R I J R T G G E.@X|.@XoX$X[.",
"|.%X$XoX{.oXhX}.3 ; t r *                                                       0 K R Y l R R J Y R R I J R T J l gX X@XoX#XOX#X",
"+X+XOX`.#X%XXXU.3 @ O O X                                                       , H R Y G R R J I R R I J R T G G bXE. X@X[.OXoX",
"+XOXOX$X@X XfXE.8 s c g 6                                                         , P Y G R R J Y R R I J R T G G HXiX X%XoXzX+X",
"$XoX$X@XR.R.bXsX8 i A g 6                                                       .   & L G R R J Y R R I J R T H l JXlX}.@XQ.%X+X",
"$X#X$X@XR.bXHXMX7 u g g 5                                                         . . $ l R R J I R R I J R T H l GXHXgXzX%X+X%X",
"$X$X@X XxXCXHXmX7 i =                                                             0 R Y G R R J Y R R I J R T H G uXBXkXfX%X}.$X",
"+XzX|.@XnXnXBXBX8 @ 6 s <                                                       , J R Y G R R J Y R R I J R T H l eXqXvXjX X%X%X",
"jXjX+XhXzXzXgX6X8 6 a A t                                                       0 K R Y G R R J Y R R I J R T G G 8XtXtXjXjXzX$X",
"jXjXhX%X%X+XhXdX3 y f g t                                                       0 K R Y G R R J Y R R I J R T J G 5X7X8XtXjXhX$X",
"hXzXzXOX$XzX+XE.3 * = y 5                                                       0 L R Y G R R J Y R R I J R T G G 2X2X7XtXkXhXzX",
"+X%X%X$X$X%XhXdX3 # - 5 *                                                       0 L R Y G R R J Y R R I J R R G l 2X7XqXtXrXdXxX",
"@X@X@X%XzXfXdXgX8 u c t #                                                       0 L R T G R R J Y T R I J R T G l 7XqXwXqX7XrXdX",
"@X#X@X XxXcXVXBX8 u d d 5                                                       0 K R Y G R R J Y T R I J R T G l 3X3XqXtXwX8X6X",
"@X%XzXfXgXcXVXlX8 5 y a 5                                                       0 K R Y G R R J Y R R I J R T J G 3X-X4X0XwXwX8X",
"%X%XzXcXlX8XqXwX7 X X < <                                                       0 L R Y G R R J I R R I J R T G l 5X3X-X;X;XwX0X",
"xXgXjXVXuX4X4X*X3 r i - X                                                       0 K R Y l R R J I R R I H R T H G -X3X*X3X5XB.7X",
"fXgXkXyX4X4X0X*X4 y f i -                                                       0 K R T G R R J I R G $ , R T H G *XqXqX3XwX5X5X",
"rXkX8X7X-X4X0X*X2 y f f 5                                                       0 K R T v R R J U R I w . 9 T G G yXqX4XqXtX7XwX",
"kXtX4X4X4X4X9X*X4 & = * #                                                       0 K R Y G R R J I R R e o G T H G qX*Xh.qXeXwXkX",
"kXyX4XqX0X4X4X*X3 ; < 6 *                                                       0 K R Y G R R J T R H % $ R T H e 3Xh.*X3XqXyXqX",
"yXeXyX4X4X-X4X*X4 y d f 6                                                       0 K R T l R R J I J w 9 , G T G G 2X2XB.=X3X7XqX",
"eXeXuX0X9X-X5Xm.2 i g d 5                                                       0 K R Y G R R J U 0 0 P w $ T H G h.B.h.B.2X3XyX",
"mX0XeXuXeX;X5Xh.: z s y ;                                                       0 K R T G R R J I e q G w 9 T H J h.6X6XB.=X;X2X",
"9X9XpX0XwXpXn.C + 7 6 O X X                                                     , J R Y G R R J Y R l # , R T J G B.6X8X;XB.;X;X",
";X-XwXkXiXC.C B : . 5 d 6                                                         0 R Y G R R J Y R R I J R T G e N.C C n.,XpX,X",
"-X5XkXI.N.l.] V : y d g 5 .                                                   .   . $ L l R R J Y R R I J R T G J I.C.aXaXsX,XaX",
";X6X6XN.j.j.j.V : u d c t                                                       .   . % G R R J Y R R I J R T J G iXiX,XC.,X,XaX",
"M.n.l.l.j.V ] V : X O p p                                                         , K J G R R J Y R R I J R T G k J.K.J.,X,XiXJ.",
"} N B B ] ] k.B : 5 y - X                                                       , G R T G R R J Y R R I J R T J l J.J.M.,X:XJ.K.",
"B ! } } ` j.x.] : t f y *                                                       0 L R Y l R R J Y R R I J R T G G J.J.M.F.J.K.J.",
") ( X.G.X.} { ` : y c g 6                                                       0 K R Y G R R J Y R R I J R T J l &.F.1XF.M.F.F.",
"( _ 8.=.) } X.X.> < r r *                         X                             0 K R T G R R J Y T R I J R T G l :X$.1XMX:X<Xi.",
"_ @.2.( ( 8.w.%.> * = = @           & * = = * = 4 4 4 4 - O   + - * - 4 * X     0 L R I G R R J Y T R I J R T H l $.+.<XMX<X<X<X",
"_ -.u.H.>X>Xy.@.> y d d 5   .   . O i f f f g c S A S S c < O - y u g S f @ O X 0 L R T G R R J Y R R I J R T G l $.&XMX1X&.#.i.",
"u.u.H.y.u.0.;.@.> r a d 5 X @ @ # r y y y s z z s i d S S c d r @ & u z f O u - 0 K R I G R R J Y R R I J R T H G +.O.+.#.#.<.i.",
"t.u.y.y.H.H.e.@.>   5 d 5 * s d i X     .   .   . X a d S S c d d y   . s O z 4 0 K R I G R R J Y T R I J R T H l i.&.#.&.s.p.Q ",
",.;.;.3.D.S.7.%.> s 6 X X * g S f S g g s f s f f i O X X X . . X X # y . . r & 0 L R T G R R H Y R R I J R T G l i.p.>.p.Q Q 1.",
"9.9.9.5.%.3.@.;.> y a a < = d g f g f A c A A s f d a i i a i a i i t O .   X X 0 L R T G R R J Y R R I J R T H H >.>.p.s.Q Q 1.",
"=.8.%.( @.9.5.@.> s g d 5 . O O O O O # @ @ @ O O O O O O O O O O @ X . . .     0 H L I G R R H Y T R I J R T G l p.>.Q Q Q Q Q ",
"o.o.=./ ) S.8.@.> @ + O X X   .     .     .   . .         .             .       X $ , G G R R H I R R I J R T G H p.d.q.>.;.>.>.",
"v. .~ ~ / =.=.9.^ ^ E ^ j M ^ ^ ^ E ^ ^ ^ ^ j ^ M M ^ O.O.O.+.O.O.+.O.O.O.O.W ^ E j j , G L R H I R R I J R T H G p.f.f.y.q.0.:.",
" . . .z. ...~ | 6.*.5.5.5.;.9.D.9.5.3.5.5.3.;.3.3.3.3.;.3.5.0.u.p.s.s.a.f.t.t.t.q.0.@.h 9 0 K H I R R I J R T H G i.p.f.g.>Xd.y.",
"c. .c.[ [ x.| X.X.( _ *.2.2.6.6.3.4.4.4.5.4.3.5.5.;.:.5.0.;.:.,.d.f.p.y.f.f.q.t.y.d.p.#.h . 9 0 I R R I J R T H G p.p.q.d.f.f.f.",
"c.z.[ ~  .o.Z.A.6.) / | / ' ..X._ -.4.4.-.4.5.-.5.5.:.:.:.:.:.u.0.w.0.w.y.y.y.>X>X>Xi.y.s.h h h k H L L L R R H l a.a.s.p.s.i.p.",
"c.c.c.v.Z.A.A.A.G.A.Z.Z.x...k.` X.8.r.8.=.8.8.*.*.4.r.*.*.4.4.4.2.8.7.7.7.9.w.D.w.>X>Xe.q.,.:.,.h > 1 e e I I H G a.a.a.s.p.p.p.",
"k.[ [ z...{ | ..o.Z.Z.Z.Z.Z.x.x.{ ..v.X.| | | ~ | o.A.A.A.Z.=./ =.A.=.=.%.%.%.7.3.:X1X:.:.:.:.:.u.t.+.> 1 w e k e a.s.p.p.i.i.g.",
" .z.{ x.x.k...' | | | ` z. .[ k.k.j.[ k.x.x.k..... . .=...` ~ | ~ / | | / ! ( ) 2.3.9.:.:.:.:.,.,.>.>.q.@.o o . X a.s.p.d.g.i.g."
};
