/* XPM */
static char *_f14aafcd1944daa85366aded953a174dPyel99OkSwqOTO1[] = {
/* columns rows colors chars-per-pixel */
"64 64 250 2 ",
"   c #030201",
".  c #030708",
"X  c #130000",
"o  c #1C0100",
"O  c #180B02",
"+  c #040A14",
"@  c #011314",
"#  c #03191A",
"$  c #0C190E",
"%  c #260301",
"&  c #261705",
"*  c #261819",
"=  c #381510",
"-  c #03271A",
";  c #332918",
":  c #031B22",
">  c #0A1123",
",  c #2B1C26",
"<  c #062727",
"1  c #05352C",
"2  c #032635",
"3  c #003537",
"4  c #183A39",
"5  c #1A2D2B",
"6  c #293B39",
"7  c #353837",
"8  c #312D2B",
"9  c #410E00",
"0  c #4D1504",
"q  c #4F1805",
"w  c #461303",
"e  c #511705",
"r  c #541A06",
"t  c #591C07",
"y  c #561B08",
"u  c #5B1E09",
"i  c #521919",
"p  c #601F0A",
"a  c #5E200B",
"s  c #5A2414",
"d  c #493116",
"f  c #63220D",
"g  c #69260F",
"h  c #68240B",
"j  c #652611",
"k  c #6A2710",
"l  c #642915",
"z  c #6D2912",
"x  c #662D1A",
"c  c #722B13",
"v  c #702F18",
"b  c #67331B",
"n  c #763518",
"m  c #531E22",
"M  c #453727",
"N  c #563724",
"B  c #4D3433",
"V  c #6C3523",
"C  c #6C3927",
"Z  c #733C2A",
"A  c #70322F",
"S  c #1B4938",
"D  c #3A423C",
"F  c #2E4937",
"G  c #51443A",
"H  c #6A4537",
"J  c #784736",
"K  c #724731",
"L  c #704415",
"P  c #033A44",
"I  c #163244",
"U  c #353D48",
"Y  c #483E49",
"T  c #094648",
"R  c #035657",
"E  c #185859",
"W  c #19474B",
"Q  c #264649",
"!  c #364749",
"~  c #295656",
"^  c #395551",
"/  c #2C4F52",
"(  c #2B685A",
")  c #0C5B66",
"_  c #2F5A66",
"`  c #08747B",
"'  c #17797B",
"]  c #0E6D70",
"[  c #276769",
"{  c #366866",
"}  c #277879",
"|  c #397777",
" . c #336D6F",
".. c #007059",
"X. c #454746",
"o. c #575854",
"O. c #4F5050",
"+. c #734E45",
"@. c #6E564F",
"#. c #4E6A5B",
"$. c #4C5E66",
"%. c #4C6466",
"&. c #56666A",
"*. c #48736B",
"=. c #587678",
"-. c #4E6E73",
";. c #686967",
":. c #686C75",
">. c #787676",
",. c #6D716D",
"<. c #7C7059",
"1. c #8E371F",
"2. c #884F3A",
"3. c #9A5229",
"4. c #855849",
"5. c #9D5F4A",
"6. c #896355",
"7. c #956D57",
"8. c #AA7157",
"9. c #837667",
"0. c #91756F",
"q. c #AC776B",
"w. c #A15D52",
"e. c #C37453",
"r. c #C97A6B",
"t. c #22847B",
"y. c #4D8879",
"u. c #7A8679",
"i. c #6A8674",
"p. c #8A847A",
"a. c #978371",
"s. c #AD8D75",
"d. c #A7A07C",
"f. c #C98F77",
"g. c #D5A97C",
"h. c #167B87",
"j. c #2F7C8A",
"k. c #567D86",
"l. c #6D7C85",
"z. c #917D86",
"x. c #058989",
"c. c #17888B",
"v. c #119096",
"b. c #288785",
"n. c #2D8C92",
"m. c #309AA5",
"M. c #37A6A6",
"N. c #38AAB4",
"B. c #2EB5B1",
"V. c #1EAEA4",
"C. c #569488",
"Z. c #4F8D8D",
"A. c #679996",
"S. c #718D8C",
"D. c #4EA698",
"F. c #69A49C",
"G. c #7CA499",
"H. c #569DA4",
"J. c #479EAF",
"K. c #6697A6",
"L. c #678DA2",
"P. c #58A9A5",
"I. c #47A9B4",
"U. c #58ACB8",
"Y. c #49B6BA",
"T. c #58B7B8",
"R. c #48ADAC",
"E. c #68B6B8",
"W. c #72B1AD",
"Q. c #33C5BC",
"!. c #4FC0B4",
"~. c #2BBBC8",
"^. c #59B6C3",
"/. c #6BB8C2",
"(. c #36C6C9",
"). c #2DC5CD",
"_. c #1DC6D4",
"`. c #47C5C9",
"'. c #52C9D2",
"]. c #69C6D5",
"[. c #72CFD6",
"{. c #7BDAE4",
"}. c #6AD1E1",
"|. c #978786",
" X c #8C908F",
".X c #A68E83",
"XX c #B79B85",
"oX c #AD968A",
"OX c #8DA399",
"+X c #B1A896",
"@X c #8F9AA8",
"#X c #87A9A7",
"$X c #9BABAC",
"%X c #8BB4B3",
"&X c #AFAEAF",
"*X c #DB9C85",
"=X c #CA9184",
"-X c #CFAB92",
";X c #EBB492",
":X c #CDB2AC",
">X c #E9B7A7",
",X c #E69B90",
"<X c #B3C5B4",
"1X c #9BDBBF",
"2X c #D1CBB9",
"3X c #FAD8B7",
"4X c #EFCCB1",
"5X c #FFE6BB",
"6X c #FFC49D",
"7X c #9ABAC5",
"8X c #B1BBC8",
"9X c #89CACA",
"0X c #9AD5D7",
"qX c #92CCD1",
"wX c #B4CDD2",
"eX c #9AE1D7",
"rX c #89DBEB",
"tX c #AED7E3",
"yX c #88E4E8",
"uX c #97E5F7",
"iX c #98FAFE",
"pX c #8EECF7",
"aX c #A4FDFF",
"sX c #ABFEFE",
"dX c #B4FEFF",
"fX c #BAFFFF",
"gX c #B5F5F9",
"hX c #B1E9F0",
"jX c #BCEFD5",
"kX c #CED0D1",
"lX c #EAD4C5",
"zX c #FBDAC7",
"xX c #ECDCD9",
"cX c #D4EBD2",
"vX c #FDE6C7",
"bX c #FBEBD7",
"nX c #FBF5D6",
"mX c #EBEED6",
"MX c #EADAE2",
"NX c #C4FEFF",
"BX c #C5F5F8",
"VX c #D7FEFE",
"CX c #D1E7ED",
"ZX c #EAE9E7",
"AX c #F7E9E9",
"SX c #FAF6E9",
"DX c #E8FBFD",
"FX c #FBF8F9",
"GX c #E9F2F1",
"HX c #C3D8E7",
/* pixels */
"u j a u f c c f u 0 t r r r t a f h a q a a h o.Y C p j a f f j t y u q q u y j f h f p u p u f u p f y p r r c p u c k u p f u ",
"h z a a f z z f u 0 a r 0 r t a h f a r a a f >.  ;.J p f f j f ;.+.y q y u p j f p f p t p p p u p u e u e u c f u k k p u f y ",
"z g a a j c z h u 0 u r r u p t h g a r a a f ;.@ :.S.A a a k f * X.C y u u f f p p g p t p p f u a u r u e u z p y c f u p f 0 ",
"z a u f z z z a a 0 r r r u t t f f a a r a l &.! DX5 @X@.f f f 8 + $.Z t u g J +.p p p t u t f u u u u u 0 p k f u c f t p s 0 ",
"g f a f g h f y a 0 r e 0 r t u a j h a r j s.%.~ BXVXQ + -.f f : L.[ W C a f O.7 i p p u u y p u a y u y 0 p z p r z g u j p r ",
"a a a g z z f u f 0 t e 0 r u f j g g a y s ^ < Z.VXNXH.0XW.@ # # } E.[ 2 4.4.:.U 0.p p u p u u u f y r u 0 u c j e k z u p p r ",
"a a a g g z j a f r t e e t u u j g l a a l I / %XNXdXE.[.W.E.[ R ] N.I.j._ / $.-.l.p p u u u u u u y e p e u c k e k f t p f u ",
"a r f f a h z a a r r e 0 t t u f j &X XK Z U _ 0XdXfXU.E.yXyXaX}.h.] m.^.] P Z.-.@ A p y t u u u u e y p 0 p c k r j j y u f a ",
"u t j f y a a a a 0 r r r t r t f x >.+ &X.X! W 0XdXsX/.rXaXT.uXfX/.n.h.(.(.x.V.Z.E $Xf p t p u p y e t p w p k k u k k r p f u ",
"q y k a a y a a r r r r 0 r u u a j |.. 8 kXQ _ qXdXdXU.{.fXdX/.uXNXpX'.B.V.V.t.R.k.> $XkXkXq.s p t e p p 0 r z c u k j r p u u ",
"q a h a a r t a t r 0 0 q y r u j j  X8 GX# @ ) {.iXaX'.yXdXNXgX^.hXdXpXQ.(.x.] j._ + . + X 8 a y r p z p 9 r p c u k f u u u u ",
"u f f a f u q t t r 0 0 r t u t u a z.X.DXtXP.j.c.'.'.N.Y.rXdXfX/.rXdXpXB.v.x.}.uXtXwXGXU X.J u p e p k p w p z c u k k p p t s ",
"u h a u f u r t r r 0 e r y u u f f ,.$ HXBXsXI.c.v.x.~.Y.}.NXdXuX}.iXpXN.) ^.sXBXDXDXS.:.&Xy a u y g g p w t p c y k j p p u j ",
"a h u a a f t a r r r 0 q y a u f f +.%.*.hXNXaX].h.c.v.n.U.yXfXsX^.}.iXI.].aXfXsX7XA.. $X0.y u u y f p r 0 p p z y c k u f t f ",
"f j y a t f f f t r r 0 e r u u u r l 0.. BXNXgXuX^.}.n.] m.U.sXiX`.}.pXN.uXrXsX{.' < 1 k.MXa u y p j u e w u k z r z k f f u a ",
"f a y a r u a u t t 0 0 r t u p a r a V . S.hXNXdXsXaXfXJ.h.[.aX'.M.B.Y.I.} ] ) ] ` !.E.P =.+Xu u u p y w w t p z y k k f j a a ",
"h j y a r u f a t r e 0 t u u t t t a C wX4 [ H.rXsXfX].J.I.M.b.yXsX{.n.j.uXhXE.b.] U.U.E.[ O.u y u f r 9 0 p t k e k k p f p s ",
"j f u f r u h a e r e r r u t r O.D D / ~ # T ` m./.j.rXuX].v.b.eXNXdX/.[ fXNXgX9X} R 2 P # @ J y p f e 9 w p p c p k k p p p p ",
"f k u f u f f y e t t r t t t e <.+ # I R R x.x.` N.I.gXNX^.] yXfXgXdX/.Z.0XBXVXgXW.+ k.k.-.>.>.u u p e 9 0 p f k t k k p p p i ",
"u g u f y h g y t t e r u p t e A :.$.K.[.^._.V.h.h.NXuXsXU.j.NXNXBX7X#X7X#X#XwXDXHXI 7XGXkX.X8 s u p e 9 w p p k t f k p p p f ",
"a g f a f a f u t e e t t p t r t 4.@X2 H.J.~.).N.' iX[.H.b.b.hXfX%XG.&XGXSXD >.GXHX8X+  XA a s f y p e 9 w y p k u f z j f p u ",
"a z f f h a f y t e r r r p t t t A :X@X> j.] V.} T NXF.#XA.~  .fXW.$XSX2XlXnXo.&.DXCX> z.C y u p y f r 0 w y p c p f c p f u j ",
"u f h f f a f t y e e e r p r r p x kXFX8X< R R / >.F 2X2Xu.o.G.t.9XGXlXzXzX2X@.. %.DX#  Xx r u p y k u e w t u k u j z u a u a ",
"t f g a f a a y r y r e r p t r p f OX$.k._ P.3 * -XK 2.s.a.9.cX1XD.+X2X5XvX6.;.@Xl.%.+ p.b r u u u k p e 0 e p c u j z a f u a ",
"r a f a a a f a u t r q t t y t t e z., ! &.S.- m ,X>X0 3.r.s.SXGXOXO.d.5XnX$ p.+X0.Y X 9.V r t u t p g y 0 e p c u j c u p u f ",
"a a f a y a a j f u q r t u u r t t u a u 8 < . i =Xw.w.8.,X*XbXFX&X<.9.5X4XG p.4.s z B <.l t u p y u g p e e p k y k k u j p u ",
"t t g g q y a a f a r r u t t t u y u a a a J ;.X X X H f.*Xf.=XlXxXbXbXvX-X$ p.2.u h n f u r u u y r f g e 0 u k u k c p f j y ",
"a a h g a q r r u f r 0 t t r t u y a a a f K kXHXGXAXM x f.*Xg.zXzXlXbXlX; d.:Xv a f z a r t y p u e y p y e p k t k k f u u r ",
"a r a g a r r a f u t r u u t t u u p p u l 6.#X-.&.,.  Z r.8.6XzXSXbX+Xo.  kX:XK a h z s y y r u u r e p u 0 u j r k k j p h u ",
"f a a g g r r h g f r q u u t r u u u p J p.u.#.3 - / X.q.=Xa.g.s.s.<.D 6 U =. X&XC f c p e y u p y u e r u w u j r k c k u k u ",
"j a q g z a a z z h t r r u f u t u u 2.XX;   y.W.t.F.<X:X-Xf.4.8.=   O.W.Z.:   X.:Xa c u r e t p t u r e u 0 p j e k c z p f f ",
"g a q f g j a z c g t q r f f u u f x +Xo zX:X+XW.y.t.C.8XAX3X5Xg.5.+XkX[ P. .S.>.* l k u y e u p u u u e p 0 p j e h c k u u j ",
"f a y a f z h z g f a r r t a t t h 0.&Xo zX;X-XcX1XP.b.R G.mX4X3Xg.8.s.<Xy.y.#X:.* j s u r y t u y r r e p r t h r j c k r u f ",
"u a u u j z j z a f a q q 0 r u p z @X@.:X8.s.;XnXjXT.~.m.T.%X<X4X5X*Xg.mX( y.eX&.O j u t r u u u u y y t u t t k t u c f r u k ",
"u a r u h k z a a g a t r r r a t c .X= >Xr.;X6X+XA.Y.(.v.Q.D.W.wX2X:X+X<X| P.Z.=.z.l a u y t u a a a y r t r u k t u c p u s k ",
"y f y r j f z f a g f a r r r t e A z.% q.4XvXd.M $ M.).V.x.B.N.M./.#X#XD.| E.T 4 ZXL a t e y t f y a y r r r u z u u c k p g p ",
"q a a q f g g h a f f q q r r a t Z 0.w -X3XnX@.. < ) M.~.N.c.^.Q.Q.B.M...R./.E F cXb a r q r u a a f a t r r u c u y c k p p f ",
"r f a y f j z f a a f a q r 0 t t +X.Xi 5X-X& a.FXwX> H.].m.h.h.Q.Q.V...b.W.< ;.i.F b a q r y u a a a f a t r u k f e z k p u f ",
"q a a y t h g f f z g y q r q r r :.@.2X3XM p.ZXFXkX8XU 2 | K.L.A.eX0XqX8XY s w.L & a.0 0 r y a f f a f a r r t j p y k z p u f ",
"t a a a t g c f a g f a 0 a r t a 8 Z -X-X  &XAXMXZXFX8X2 Q VXtXwXjXtX8X8X% 2.3.1.L <.+.q q r a f f a f t r t 0 p j y z k u u a ",
"a a g a q f g h a h a a r r r r b B p r.8.X 2XZXMXZXAXGX*. .tX9X0XeX9XOXz.O.A 1.3.1.  2Xs q a a k p t p u r r r j k y k k y u k ",
"a q a a a f g f a h f a r r r r 0.A 1.e.f.% +XSXZXMXFX. E P.] ` M.R.K.S.7XMXA p e.1.d  XoXi r a k g p u p t r r p g u c j u e k ",
"f r f a y f g h a h f a a r 0 r * V 8.r.f.o +XSXAXAXVX1 t.v.` (.~.`.b._ @XVXB +.*X*Xd.& 0.s t u p p p t t r r r p f y k k p r k ",
"f u f a t a z f a f f a a r q a ; 8.3X;X6X6XN +XFXCXS y.!.Q.)._._.(.j._ 7XHXO.> s 8.s.& .Xl u u p f u u r u r 0 p k u k k p t j ",
"g t a a a a g h a f a a a q q a & d.3X3X3X6XXX<.,.%.. E R.`.(.~._.'.b./ %XCX&X, O @.XXO a.x u y h p r t u u e 0 u f u c k p y j ",
"g a f j y a g j f f a a a a q q & s.nX4X4Xd.XX7 . . ~ E } v.v.'.~.m.| _ #XHX8XU , s.-XX a.l t p p p t r t u e 0 a j u c k f y h ",
"g a a g r a g z f f a a q q q q G p.+XXXlX4X*     - A.F.[ R ] n.J.R : ! 8XCX&XX.i .Xa.M |.j t p u p u r t u e e j p u c k f t f ",
"f a r f y a z z g h a a q q a r a G X X.AXzXO.  $ ( y.Z.D.Z.b.P P :   G CXHXwXo.* X X .X6.p r r e r r u p t e t z p f c z a y k ",
"h f r f t a g z z g a a 0 t u a u u V 9.$ X 2Xo.$ C.y.C.D.*.T T Q @ + ! CX1X%X%X! < kXz.x t r u y t r t p r e r k p f c c u u k ",
"f a r g a a g g g g a a u r u a u t g J a.$X,.6 Q C.C.D.[ { C.=.5 + + 7 =.i.G.F.~ I VX6.u r t t y u r p p t r r k p k c k p t k ",
"f f a f t f g j g z a a t t u t t f f f 7.FXS . { C.Z.D.y. .{ ^ > . - S S y.y.G.*.<  X7.u r u p p r r p p u r t z p k k f f t k ",
"f f a j t h z g z z a a r r u r t a a f K $X{ 3 E Z.|  . .( < F . , 5 1 S *.y.( -.! + +.r y p p p p t p u u r r z r k c k p t k ",
"f f t f r f z z z f u t r r t u t p f f C @ |  .T P P 2 < @ 5 7.8 # ^ S - S S S ^ :.# V r p u p z p u u r u r u k e j z h p u k ",
"f u a a q f c j a r t u r 0 r r t p a a x . { | 3 P P Q *.^ 5 C v D 5 #.S - $ i.&.$ f t r u u p p p r p t u e u k y z c p p t j ",
"h u t a r g z j r y u u u r f r r f a t x > F { k.-.-.k.=.# $ j z 2.;.F #.y.i.6 Y V p u t u u p p y y h t u 0 p k r z z f f t k ",
"f f r u r f z a y a f u r t u r u a f u b O F i.S.G.S./ @ G L l f b  X$ u.i.D ;.+.f p p r u u u p r u p u p r p k y z k h u u j ",
"f a q a y f z a a f h a r t t y p u f t l O @.p.;.o.O.F ! +.f x f l >.O @.@.X |.l j f u t u u r u t u u t t e p f u c k k p u j ",
"g y a a a f z a a a a t r t t a u p f u x o H 4.; . ; f f u u z f z .X= +.0.% 0.a f k u y u p r t t y u t t e g f u c k p t y f ",
"h r a a u f a r a t t r q t r u u p u j 7.% 2.q.G ; z a f u y c j f a.:XX @.% .XC f g p r u u t u t u u e e e k p u c j f e u f ",
"f 0 a a y f f u a r a r t t y t u p u +X; K =Xb N L g u a u u k f f x :XX m * X 9.x g p t u p u p t p p y t r k p p c j p r f a ",
"y q a r t g h a a r 0 0 a q t q p p C &XX N H % d r a a y a j k j u r &XX o X X * S.Z f y u p p u t p u u r y k u f c z f e f u ",
"q q s y a h h a a r w 0 t r r r u p :X;.o o X H J a j a u j a j z r r s.O B O.;.,.7 u.p r y u f u t p t u e y z u a z z f t f j ",
"0 r u y f z g a a 0 0 r u u u u u j z.o B B    Xs t j a u a u j f e t J 8 u p f j V , u u r p f y u p y u e t k u j k f f u f c ",
"w y a y f c f a a 0 0 r q u u a f k z.B FXFX7 S.s a f a u a u p f 0 f h r e p t u k p p p t p f p p p u u e t z u t k f u u f f "
};
