/* XPM */
static char *cf5e5e5ae86a402f9c502971b707890aMGdZijhKnXCoenxY[] = {
/* columns rows colors chars-per-pixel */
"64 64 248 2 ",
"   c #030201",
".  c #030708",
"X  c #130000",
"o  c #1C0100",
"O  c #180B02",
"+  c #040A14",
"@  c #011314",
"#  c #03191A",
"$  c #0C190E",
"%  c #260301",
"&  c #261705",
"*  c #261819",
"=  c #381510",
"-  c #03271A",
";  c #332818",
":  c #031B22",
">  c #0A1123",
",  c #2B1C26",
"<  c #062727",
"1  c #05352C",
"2  c #032635",
"3  c #003537",
"4  c #183A39",
"5  c #1A2D2B",
"6  c #293B39",
"7  c #353837",
"8  c #312D2B",
"9  c #410E00",
"0  c #4D1504",
"q  c #491504",
"w  c #511705",
"e  c #541A06",
"r  c #591C07",
"t  c #561B08",
"y  c #5B1E09",
"u  c #521919",
"i  c #601F0A",
"p  c #5E200B",
"a  c #5C2514",
"s  c #493116",
"d  c #63220C",
"f  c #69260F",
"g  c #68240B",
"h  c #652511",
"j  c #6A2710",
"k  c #652915",
"l  c #6D2912",
"z  c #632C1A",
"x  c #6C2E19",
"c  c #722B13",
"v  c #67321B",
"b  c #7D3810",
"n  c #531E22",
"m  c #453727",
"M  c #50342D",
"N  c #6D3523",
"B  c #693826",
"V  c #733C2A",
"C  c #70322F",
"Z  c #1B4938",
"A  c #3A423C",
"S  c #2E4937",
"D  c #51443A",
"F  c #6B4537",
"G  c #754535",
"H  c #714733",
"J  c #704415",
"K  c #033A44",
"L  c #163244",
"P  c #353D48",
"I  c #483E49",
"U  c #094648",
"Y  c #035657",
"T  c #185859",
"R  c #19474B",
"E  c #264649",
"W  c #364748",
"Q  c #295656",
"!  c #395551",
"~  c #2C4F52",
"^  c #2B685A",
"/  c #0C5B66",
"(  c #2F5A66",
")  c #08747B",
"_  c #17797B",
"`  c #0E6D70",
"'  c #276769",
"]  c #366866",
"[  c #277879",
"{  c #397777",
"}  c #336D6F",
"|  c #007059",
" . c #454746",
".. c #575854",
"X. c #4F5050",
"o. c #744E45",
"O. c #785547",
"+. c #695653",
"@. c #4E6A5B",
"#. c #7D6D58",
"$. c #4C5E66",
"%. c #4C6466",
"&. c #56666A",
"*. c #48736B",
"=. c #587678",
"-. c #4E6E73",
";. c #696967",
":. c #797467",
">. c #686C75",
",. c #787676",
"<. c #6B716F",
"1. c #8E371F",
"2. c #8A503C",
"3. c #9A5229",
"4. c #845848",
"5. c #9D5F4A",
"6. c #906856",
"7. c #AA7157",
"8. c #837666",
"9. c #92756E",
"0. c #AE7669",
"q. c #A15D52",
"w. c #C37453",
"e. c #C97A6B",
"r. c #22847B",
"t. c #4D8879",
"y. c #7A8679",
"u. c #6A8674",
"i. c #8A847A",
"p. c #968372",
"a. c #A48478",
"s. c #B19072",
"d. c #A7A07C",
"f. c #C98F77",
"g. c #D5A97C",
"h. c #167B87",
"j. c #2F7C8A",
"k. c #567D86",
"l. c #6D7C85",
"z. c #917D86",
"x. c #058989",
"c. c #17888B",
"v. c #119096",
"b. c #288785",
"n. c #2D8C92",
"m. c #309AA5",
"M. c #37A6A6",
"N. c #38AAB4",
"B. c #2EB5B1",
"V. c #1EAEA4",
"C. c #569488",
"Z. c #4F8D8D",
"A. c #679996",
"S. c #718D8C",
"D. c #4EA698",
"F. c #69A49C",
"G. c #7CA499",
"H. c #569DA4",
"J. c #479EAF",
"K. c #6697A6",
"L. c #678DA2",
"P. c #58A9A5",
"I. c #47A9B4",
"U. c #58ACB8",
"Y. c #49B6BA",
"T. c #58B7B8",
"R. c #48ADAC",
"E. c #68B6B8",
"W. c #72B1AD",
"Q. c #33C5BC",
"!. c #4FC0B4",
"~. c #2BBBC8",
"^. c #59B6C3",
"/. c #6BB8C2",
"(. c #36C6C9",
"). c #2DC5CD",
"_. c #1DC6D4",
"`. c #47C5C9",
"'. c #52C9D2",
"]. c #69C6D5",
"[. c #72CFD6",
"{. c #7BDAE4",
"}. c #6AD1E1",
"|. c #978786",
" X c #8C908F",
".X c #A78E83",
"XX c #B89C85",
"oX c #AC958A",
"OX c #8DA399",
"+X c #B2A897",
"@X c #8F9AA8",
"#X c #87A9A7",
"$X c #90B2B1",
"%X c #AEAEAF",
"&X c #DB9C85",
"*X c #CA9184",
"=X c #CFAB92",
"-X c #EBB492",
";X c #CEB2AD",
":X c #E9B7A7",
">X c #E69B90",
",X c #B3C5B4",
"<X c #9BDBBF",
"1X c #D1CBB9",
"2X c #FAD8B7",
"3X c #EFCCB1",
"4X c #FFE6BB",
"5X c #FFC49D",
"6X c #9ABAC5",
"7X c #B1BBC8",
"8X c #89CACA",
"9X c #9AD5D7",
"0X c #92CCD1",
"qX c #B3CDD2",
"wX c #9AE1D7",
"eX c #89DBEB",
"rX c #AED7E3",
"tX c #88E4E8",
"yX c #97E5F7",
"uX c #98FAFE",
"iX c #8EECF7",
"pX c #A4FDFF",
"aX c #ABFEFE",
"sX c #B4FEFF",
"dX c #BAFFFF",
"fX c #B5F5F9",
"gX c #B1E9F0",
"hX c #BCEFD5",
"jX c #CED0D1",
"kX c #EAD4C5",
"lX c #FBDAC7",
"zX c #ECDCD9",
"xX c #D4ECD2",
"cX c #FDE6C7",
"vX c #FBEBD7",
"bX c #F4F2D6",
"nX c #EBDBE2",
"mX c #C4FEFF",
"MX c #C5F5F8",
"NX c #D7FEFE",
"BX c #D1E7ED",
"VX c #E9EAE7",
"CX c #F6E8E9",
"ZX c #FBF7E8",
"AX c #E8FBFD",
"SX c #FBF8F8",
"DX c #E9F2F1",
"FX c #C3D8E7",
/* pixels */
"y h p p d c c d y 0 r e w w r p d d p e t p d r e p p p d d d d y e y q e y B I +.z i i t y y d i i i t i w y c i y c j y y d t ",
"g l p p d l l d p 0 p r 0 r r p g g t r p p d t r p d a p d 4.;.w y y 0 t G ;.  8.h h i t i i d t i y t y w y c h y j j i i i u ",
"l f y p f c l d r 0 p e w y d r g h p y p p d p e p p p y V I * e e y y C S.l.+ ;.i d d y i i d t i t t i 0 y l i t c i y i i e ",
"l p y d l l f p p 0 e w w y r r d g p t r p p H H d p p F $.+ 5 y y t o.@X5 AXP &.k d d y r t d y i y t y 0 i j i y c h y i i w ",
"f d p d l g d y p 0 e w 0 e r p d d j p t i i P X.l y V ~ ( L.# e y &.. R NXMXQ %..Xt y y y t i i i t y t q i l h t j j y d d t ",
"p p p f l f d p d 0 r w 0 r r p d j g p t i 9.P >.4.o.: ' U.[ # : @ W.rXH.mXNXZ.< ! h y t i y y y i t e y w y l d w j j y i d e ",
"p p p f f l f p d e y w 0 r r d f g d i i i k.$.-.~ ' j.Y.N.` Y ' E.E.[.E.sXmX$XE E k p i k y p y y t w y w y c h w j g y y i t ",
"p e d d p h f p p e e w 0 y r r d d d d h C > k.k.K ) ^.m.` h.{.uXtXtX^.T.sXsX9XQ E V C  X%Xi y i y w t i w i c j t j d e p d p ",
"p r d d r p d p p 0 e w w w r p h j d i x %XR Z.M.x.`.(.v.j.].fXtXE.aXtX^.sXdX9XR ( z.%X. ,.a y i y 0 r r 0 i j j t h f e i i y ",
"0 r f d p r p p r w e w w p r r k 0.jXjX@X> k.H.r.V.V.B.^.yXMXyXE.sXdX{.U.fXsX0X( P qX8 .  Xi y i t w i r 0 e c c y j h y i y y ",
"w p h p p e e p p w w 0 w e r p d , . + + + ~ j.| x.(.~.iXaXyX/.fXmXsXtX'.pXuXeX/ @ + AX8 |.p r t r i l i q e i c y l h y y y y ",
"p p d p p r w p r 0 0 0 e e p e r 2.X.I DXFXrXyX}.x.v.B.iXsXeX/.dXaXeXI.Y.'.'.c.j.F.rXAXW  Xp r y w i l i 9 i c c y j j y y y p ",
"p d p p d r w e r e 0 0 w t p p d h +X>.S.AXNXmXaX^./ N.iXuX{.iXsXmX[.^.~.c.v.x.Y.fXfXFX. <.r p y t h j i q e i c t h g d d y d ",
"p g p p p d p p r e w w e t p y i i 9.$X+ A.0XsXsXpX].Y.uX}.`.pXsXtX^.v.v.x.h.'.uXmXgX*.%.O.e r y t h i e 0 r i j y l j y d y h ",
"d h r p r d p d e r w 0 w e y y y d BXS.1 < _ {.pXyXiXJ.uX'.!.pXsXU.m.` n.}.^.yXfXmXBX+ 9.a e p t i h r w q y h j t l l d d t p ",
"d p t t e p p p r e 0 q e y r y r +X&.U E.T.) ` / ' ` I.^.B.M.'.pX[.[ J.dXpXsXsXmXgXS.. B p p e y y i r 9 q y i l y j j d h p p ",
"d g t p e p p p e e w 0 r r y r y ! ] E.U.T.` r.E.gXyXb.n.{.aXtXb.M.I.I.[.fXpXeXH.' 4 qXN y r r t y d w 9 0 r y j t j j i d i i ",
"f d y d r t g p e e w e y r r e V @ > K 3 / r.8XfXNXdX' /.sXmXwXc.c.].yXeXj.].m.) U @ Q W P A X.r i d w 9 9 i i j i j j i i y a ",
"g h p d y p g t e e r e r r r e ,.,.=.k.} + W.MXNXgX9XC./.fXgXmXtX_ ^.MXfXJ.I.) x.x./ Y K # + ;.y p d w 9 0 i d j y h j i i i i ",
"p g p p y g g t r r w e r i r t 8 .XjXDX6XL FXAXFXOX#X0X#X0XMXmXdXn.^.fXyXMXh.) V.).^.[.K.$.,.C y y p w 9 0 i i j y d j i d y a ",
"p l d p d p d y r w w r y i y w t a C  X+ 6XFXDX<.m DXDX%XOX$XfXgXb.j.H.[.uX_ B.~.).M.L.L @X4.i y t i e 9 9 t i l y j l d d i p ",
"p l d d h p d t r w e e r i e e y d V z.> BXDX>.+.vXzX1XZX$XW.aX} Q A.#XF.dXZ _ V.` j.> @X;Xi y i t i e q q y i l i d l i d p p ",
"r d g d d p d y r w w 0 r y r e y i B  X@ AX$.+ X.1XcX4XkXDX8Xt.G...y.1XjX8 ,.! Y Y 2 6XAXjXa y i t j y w q w y l y h l y i y p ",
"r d f p p p p r e e e w r y r e i i B 9.@ $.l.@X#.#.bX4X=X$XF.8XxX8.p.s.O.C =X, 3 K.( k.%.OXp y y y j d t q w i l t h c y i y a ",
"e p h p p p p d p r e w e y r r r e x 8.. P 9.XX X& bX4Xd.D G.AXbXs.s.3.w :X>Xn - S.&.I 5 i.e y i e i f t 0 t i c y d c y i i i ",
"r p d p t p p d d r e w r y y e e e h #.M p x O.i.m 2X2Xp.:.,XSXvXg.>Xw.q.7.*Xu . - 7 c d y r y i e i h d 0 0 i l y j l t h i p ",
"r r g h t t p p p d w e r r r r t t y i p r p V i.& =XbXvXvXnXkX*Xf.>X0.F X X X ;.4.f b h y e y i w e i f 0 0 y j y j l i i d t ",
"p p d l t e e t p p e 0 y r e r y t p i p p d k %X|.m kXvXkXlX3Xg.&Xe.C ; SXCXFXjXH p l d t e t i y w t d t w i j t l l i p i t ",
"p e p h p w e p d p p w p p r r y y i i y i d N =XjX  ..%XvXbX4X3X7.e.C X >.-.*.#X4.v c p t e e y i e w i t 0 y h e j j h d d t ",
"g p p j d p e f f d e w p e r r y y i f i y B %X X=.P 6 7 8.s.s.&X0.*X0.X.W < 3 @.S.i.4.p w t y i t t w t y q y h w h c j y j i ",
"g p e h l p p l l g p w e d p r y i y d d y ;X .. < Z.W. .  & 5.4.f.=X1X$XF.r.F.=.  ; oXG w w y i r y t e y 0 i j w j c j i d d ",
"f p e p f f p f l f r 0 e p d r y d i d d h * ,.S.} P.^ jXXX7.g.4X2XbX,Xu.r.D.W.+X;XlXo +Xa w y i y y y w y w i d w j c j y d d ",
"d p e p g f f l f d p w w p e p y d y y d h , ;.$Xt.t.qXs.5.g.2X2XxXG.T h.P.<XxX=X-XlXX %X6.y y y e e t e i w r f e d c j y y d ",
"p p y p h l f f p d p 0 w w e p r p p r p k * ;.wXt.^ bX&Xg.lX3X,X$XY.V.N.R.hXbX-Xs.7.=X;.@Xi i y y t t r y e y i r i c d t y h ",
"p p t t g l l d p f p p e w w p y r d y r k ,.>.Z.D.*.,X+X;X,XhXW.D.Q.V.(.!.C.=X3X-Xf.:X= z.c i p y y e e r e y j y y l j y p j ",
"t p e e h g h d p j p p w p 0 p e r y y y N bX4 K E.r.F.OX#X/.D.!.V.x.V.(.M.$ S *XlX3X0.% z.N i d y p y r e e y c y y c d y h d ",
"e p p e d f g g p p d e 0 w p p r i r i r h xX! R E.T.| M.V.Q.Q.~.h.~.~.N./ 2   O.cX4X=Xu 8.B y p p d p e e e y l y t c j i i i ",
"w p p p p h c d p p d p w 0 0 e r y r d r v S y.=.< W.b.| V.Q.Q.h.h.m./.H.+ jXSXi.& =X4Xs .X+Xy p p p d y r e r j h e j j i y d ",
"0 p p e p d l d d l d p 0 p w e r e r r p a.& l q.n  .6X8X9X9XA.L.L.j.2 P 7XjXSXVXi.s 2X:X+.<.a d d p d p r e e d d t j j d y d ",
"e p p p p g l d p g p p w p e w r e d y 4.#.J 1.q.1.o %XjXrXgXqXFXBXP 2 7XSXCXnXZX,X  =X=XD , i d g p d y e e e d d y j j y y p ",
"p p g p e p j d p d d p e r w p y r p z 1XX 1.3.1.1.+. X@X6XwXwX6XrXj.] DXVXnXnXDX,Xo 7.e.r n x j i r i r r r w d j t l j t t j ",
"p 0 p p p d j d p f d p r w w r r r y oXOXs 1.w.i n jX7XL.H.T.m.h.` P.Q . SXnXCXZX+X% f.w.1.C 9.f h i y i r w e d j t l h y t j ",
"d r p p p p f g y g d y r p 0 p y r h i.O s.g.g.C P BXW.( j.~._.).) v.r.1 AXSXCXZX+Xo w.f.w.v & i f y r y r e e i d t j j i e j ",
"h r h p w d j h p d d p p w 0 w y y x .X& XX5.t , $.BX6XQ j.'._._.).Q.!.t.4 BXSXoXD 5X5X-X2Xp.; d i y y e r e 0 p j t c j i e j ",
"d p d p p p g d p d d p y e e t i y N 9.O +XO.& , 6XFX$XQ j.'.~.~.(.`.R.T . @.<.8.XX:X4X2X2Xd.& f i t y y r 0 0 y h y c j d e j ",
"g p p h p p f g d d p p e e e e d i x a.X =Xa.= P 7XBX@X( j.m.~.(.v.c.r.T Q .   7 +XXX2X3XvXd.$ y i r e y y 0 w y h y c j i e h ",
"g p p d e p f l d p p y e r e e r y x i.8 a..Xu  .%XBX%X .- Y J.m.` Y ` P.A.- .   & 3X2XXX+Xa.D y y y w y y w w d h p c j d y i ",
"g p e p p p l l l g d y q e e r y y g 6.a.  X * ..qXFXDXA   - 2 Z j.Z.C.C.t.^ $   X.zXCXD   D e w r e y i y w r j i i c l i t j ",
"g d e h p p g l l f d r w e p d y y g z a.qX< W #X$X,XBXW + + P U U { F.C.C.C.. X.jX  $ 8.v r y e r e y i e w e f i i c c i y j ",
"d d e h e p f f f f d p r e r p y r g k 4.NXR Q G.A.C.=.6 + + 5 =.C.' ' Z.C.C.~ S <.+Xi.V e e y r y r r i r e e l i j l j i y j ",
"d d p d p d f h f l p p r r r y y i p d 6. X2 *.G.t.t.Z Z 5 . # ! ] ] t.D.C.H.' . 6 AX9.y t y i i r e i i r e e l i j l d i y d ",
"d d p d r d l l l l p p w r r e r p p d o.+ W -.*.C.] Z 1 5 , . S - Q { [ { k.T 1 ] %XV e t y d i i r i y y r e l r j j f d y j ",
"d d r d w d f l h h p r w e r y y i y d N + <.! Z Z Z - S ! $ 7 6.5 $ - 2 K K U } *.# B y y y i j i y y y y e y j e j l f i r f ",
"g p p p e g c h p e e r e w r r r i d d i h # &.t.$ - Z @.Z S x V 6 Q *.R K 3 3 { ] . z e y y y i i e i e y w y h t j c d i y f ",
"d p e p e h c h r r p p e r p w e d p t i y z  .6 u.t.@.S @.4.g f $ - =.S.-.-.=.] E > k e y y r i w e i y y 0 i j e l l d p e j ",
"d d w p e p f d p p p p e r y r y i d y y y p o...D u.u.$ i.v g p H D . ~ S.G.S.u.S O x r y y y i y y h y y e i f y j j f p y g ",
"p p w w p d f p p p g p w e r r r d d r p r d a |.X +.+.O 8.h j h f H ! S X.@.;.i.+.O h r p y y i e y y r r e i d y c j f y y d ",
"f p p p p h f p t p p p e p r p r p d r p r p d 9.% 9.o., .Xp l h f y 9 y ;   ; 4.B o k r y p e t r r y e r w l d y c j d y t d ",
"g r p p e d p e p r r w 0 r r r r d p r r r r v .X% +.o ;Xa.t c h d w q p h ; B 0.4.& 6.a y y e y r r i r e w i i y l h d e y d ",
"d 0 p p p g d p p r p w r r y e p p p p r p k ,.X * n o ;XN y j p d 0 p d p B s z f.H ; +Xt p y i r i i r w e h y h l j i e d p ",
"p q p t p g h p p w w w p w p 0 r d p r y N S.* X X o X +Xh h j h p 0 p d w 0 m % o.M o %XC i i i e i i y e e j y d c c d w d y ",
"0 q p p p g h p p 0 q 0 p 0 e e p d p e p y.7 <.;.D M O |.p d j f r 0 d h p p G M X o o +.;Xy d y e i r y 0 y l y y l j d r d h ",
"0 q p e d l j p p w 0 w e y p y p d p e t , z p y y x 7 F p p h d w p g d w p k oX. M I O |.i d r r i t y w y j y h j d d y d c ",
"= p p e d j g p p 0 0 r 0 y y p p p p p e p p r w d f r p p p p d 0 p d w w p k l.7 SXSXM z.d i y i h r y w y j y y j d y y d d "
};
