/* XPM */
static char *e6c014d253c0441ad818deffdf9ddb8aLa8MiSS1eUkkwoZJ[] = {
/* columns rows colors chars-per-pixel */
"64 64 256 2 ",
"   c #04030B",
".  c #0E060F",
"X  c #282830",
"o  c #0E1127",
"O  c #272F52",
"+  c #4E3D65",
"@  c #0D5558",
"#  c #0A6558",
"$  c #354A73",
"%  c #0E716C",
"&  c #317175",
"*  c #0F5A70",
"=  c #4D4E75",
"-  c #486D77",
";  c #655B69",
":  c #867973",
">  c #18A557",
",  c #2CAA52",
"<  c #0B9670",
"1  c #328F71",
"2  c #02A57A",
"3  c #12AA71",
"4  c #30AF6F",
"5  c #0E8C45",
"6  c #4E8977",
"7  c #50B575",
"8  c #6BB871",
"9  c #62A861",
"0  c #34C86A",
"q  c #59D554",
"w  c #57CB51",
"e  c #6CD558",
"r  c #5AC968",
"t  c #50CD74",
"y  c #7CD877",
"u  c #6CCE6C",
"i  c #79E577",
"p  c #7AE467",
"a  c #45E47D",
"s  c #72D23B",
"d  c #86E657",
"f  c #86D872",
"g  c #87E668",
"h  c #87E776",
"j  c #92E972",
"k  c #82DF54",
"l  c #325591",
"z  c #1D6A90",
"x  c #2A6997",
"c  c #366598",
"v  c #32728E",
"b  c #2A59A9",
"n  c #3757A8",
"m  c #2B59B9",
"M  c #3757B8",
"N  c #344CB1",
"B  c #3667A9",
"V  c #3675A8",
"C  c #2864B7",
"Z  c #306FB2",
"A  c #1865A6",
"S  c #4A4F95",
"D  c #6F5191",
"F  c #477798",
"G  c #496F90",
"H  c #474AA8",
"J  c #4856A7",
"K  c #4356BB",
"L  c #5651AA",
"P  c #6852A5",
"I  c #4666A9",
"U  c #4669B9",
"Y  c #516FB1",
"T  c #6975B3",
"R  c #6A738B",
"E  c #2A5AC9",
"W  c #3758C5",
"Q  c #3659D6",
"!  c #3056D3",
"~  c #3467C5",
"^  c #3776C6",
"/  c #2B69D7",
"(  c #3768D9",
")  c #2C75D8",
"_  c #3475D9",
"`  c #2C6FC7",
"'  c #1C79F9",
"]  c #1C75EB",
"[  c #2A6CE8",
"{  c #366CE6",
"}  c #2C74EC",
"|  c #2877E8",
" . c #3373EC",
".. c #3676E6",
"X. c #2A6DF9",
"o. c #356CF8",
"O. c #2B73F4",
"+. c #247AF4",
"@. c #2B7AF5",
"#. c #2474FC",
"$. c #2C74FD",
"%. c #247BFE",
"&. c #2B7BFD",
"*. c #2474F4",
"=. c #3474F4",
"-. c #3374FD",
";. c #337BFD",
":. c #3877F7",
">. c #2164D1",
",. c #4253C8",
"<. c #4677D8",
"1. c #5376D9",
"2. c #4B6DCC",
"3. c #6B73CF",
"4. c #4676E7",
"5. c #5478E5",
"6. c #4470F1",
"7. c #6F77E2",
"8. c #BC78BA",
"9. c #9B6FB6",
"0. c #C876B7",
"q. c #FA7EBC",
"w. c #A079CC",
"e. c #FD7EC1",
"r. c #14938F",
"t. c #2C8F8D",
"y. c #04A588",
"u. c #12AB88",
"i. c #32AB8E",
"p. c #348DB6",
"a. c #32ACA6",
"s. c #1A88A3",
"d. c #4E9193",
"f. c #63948D",
"g. c #52B390",
"h. c #67B295",
"j. c #4F8EA7",
"k. c #7989B5",
"l. c #728DB1",
"z. c #4BAFAD",
"x. c #6EADB1",
"c. c #37CD8B",
"v. c #3DD6A1",
"b. c #4EC98A",
"n. c #6FCD8D",
"m. c #63D7A0",
"M. c #3889CF",
"N. c #1C81F4",
"B. c #2782FB",
"V. c #3685EF",
"C. c #4D89D3",
"Z. c #6F8DCF",
"A. c #6EB2CB",
"S. c #4A87E6",
"D. c #5189EA",
"F. c #6791EA",
"G. c #69BAF8",
"H. c #6FB5F2",
"J. c #55B2E1",
"K. c #6FC9D5",
"L. c #6FF6D5",
"P. c #59CBE9",
"I. c #58D4EB",
"U. c #5BCDF4",
"Y. c #5BCDFC",
"T. c #56C9F3",
"R. c #4CD6F4",
"E. c #53D4F3",
"W. c #54D2FB",
"Q. c #5AD3F8",
"!. c #4BCFEB",
"~. c #66C9EB",
"^. c #67D6EA",
"/. c #75D9E8",
"(. c #65C9F8",
"). c #77C6FD",
"_. c #6CDAF5",
"`. c #63D4FD",
"'. c #68D8F8",
"]. c #73DCFC",
"[. c #77D9F9",
"{. c #73CAE8",
"}. c #59E2F9",
"|. c #76E4ED",
" X c #6CE3FA",
".X c #78E4FA",
"XX c #6AE7EC",
"oX c #5AD1D2",
"OX c #3FC7ED",
"+X c #8B92B9",
"@X c #8EB0B7",
"#X c #93A499",
"$X c #D887BA",
"%X c #F484B5",
"&X c #8BD591",
"*X c #8BE684",
"=X c #90EB98",
"-X c #8ECAB5",
";X c #AAD1B1",
":X c #A4E8A3",
">X c #C1CDBC",
",X c #989AC6",
"<X c #8C92D0",
"1X c #AF90CF",
"2X c #98A5C8",
"3X c #9AA4D5",
"4X c #98B7D8",
"5X c #8CB4C8",
"6X c #A6AAD8",
"7X c #A8B7D8",
"8X c #B5B9D8",
"9X c #ABABCE",
"0X c #8EAEEF",
"qX c #ADB2E6",
"wX c #9B94EA",
"eX c #CE8DCC",
"rX c #E88AC9",
"tX c #CDA0E1",
"yX c #90CCD1",
"uX c #AAC9D5",
"iX c #87F0D5",
"pX c #84D9E6",
"aX c #86DBF9",
"sX c #98D9F9",
"dX c #92CDF0",
"fX c #B4DAFD",
"gX c #AACEF0",
"hX c #87E5FB",
"jX c #94E5F8",
"kX c #90EDEF",
"lX c #A7EAFA",
"zX c #B7EAFA",
"xX c #B8F9FD",
"cX c #AEF2F1",
"vX c #BFE3D7",
"bX c #DCEBD8",
"nX c #EAF5DB",
"mX c #CDD6F5",
"MX c #C9E7FF",
"NX c #D6E9FC",
"BX c #C8FAFD",
"VX c #D4FEFE",
"CX c #DCFDFE",
"ZX c #D9F6FC",
"AX c #D3EFE9",
"SX c #E7F8E9",
"DX c #F4F9EB",
"FX c #E5EAFA",
"GX c #E4FEFE",
"HX c #EBFFFE",
"JX c #E8F9F7",
"KX c #F4FEFE",
"LX c #FCFDFD",
"PX c #F7F9F6",
"IX c #EDEBF1",
"UX c #E3DADD",
/* pixels */
"T.`.E.!.^./.x.kXpXA.P.'.T.(.T.U.T.W.W.Q.^.P.I.I.W.Y.E.!.T.`.Y.Y.W.W.W.U.U.^.E.P.I.~.(.(.(.Y.W.W.W.W.T.Y.I.I.P.I.I.!.!.R.I.P.~.{.",
"Q.Q.E.Q.J.K.xXVXBXpXhXP.(.T.Q.~.~.^.Q.U.^.P.I.E.(.Y.`.E.U.`.Y.T.W.W.W.U.U.I.E.I.I.E.`.(.(.Q.W.R.R.W.Q.U.I.P.^.I.oX}.R.!.E.`.~.{.",
"W.OXW.T.J.lXCXSXSXGXBXA.~.~.U.~.cXsX~.!.E.E.I.C.^ ^ J.I.E.P.I.'.W.U.U.E.E.R.R.E.E.E.E.E.E.E.I.E.W.W.Q.!.W.T.`.T.E.W.R.R.!.!.~.aX",
"R.R.`.{.lXBXGXDXnXDXCXcX{.~.{.lXCXVXpXI.Y.`.U.p.b M J.].U.I.I.I.U.~.E.E.R.R.R.R.R.R.R.R.R.I.I.I.E.!.E.Q.Y.Y.(.(.`.T.W.}.I._.xXxX",
"!.I.J.sXVXAXPXPXPXbXZXVXyXyXVXCXSXAXcX{.~.(.(.M.m m C Z M.G.`.P.~.I.I.E.R.R.E.Q.Y.W.W.R.E.I.I.I.I.~.^.(.M.M.M.J.G.T.~.~.K.lXCXZX",
"oX/.yXzXGXJXPXDXPXPXSXAXvXCXPXSXSXSXBXlXsXaX).C.M M S S I F.G.(.~.^.I.E.I.R.W.Q.Y.Q.W.Q.E.E.U.U.[.'.~.H.Z C A G.(.].~.{.cXAXHXAX",
"K.cXVXCXAXDXDXDXPXPXAXIXHXDXnXnXAXVXCXVXBXlX[.V K L 9.eX1XT Y p.~.U.~.Q.Q.Q.Q.Y.Y.Y.Y.W.W.Q.W.U.P.p.p.<.n n x H.G.{.{.uXCXSXnXIX",
"5XGXAXJXDXDXDXDXPXDXDXPXnXDXnXbXAXyXyXdX{.~.P.C.n P 0.$XeXD H B H.~.(.(.T.Y.Y.Q.U.U.E.Y.Q.Y.Y.(.(.M.A n H L I A.dXsXxXVXDXDXSXSX",
"AXSXAXHXSXDXSXHXIXPXSXDXDXDXSXbXuXyXK.{.I.P.P.M.N L 8.eX8.3.2.` ^ Z M.(.Y.Y.Y.!.I.P.P.P.E.I.(.(.~.C.N ,.w.w.1XT T l.ZXHXFXJXJXAX",
"IXDXSXSXDXKXDXSXAXJXSXJXDXHXJXZXCXxXjX^.!.R.`.M.n L 8.rXeX9.3.<.~ m _ G.Y.T.`.^.oXoXXXkXjX~.H.~.H.<.W L eXrXeXD S Y MXBXMXVXxXcX",
"CXGXSXAXDXJXJXAXBXcXBXVXCXHXGXVXxXlX.XQ.!.R.Q.p.H D 0.q.rX0.8.w.2.) ( ( ^ C.(.oXoXpXzXBXZXfXA.V <.^ Q ,.w.rXeXD S Y gXpXaXhXkXoX",
"BXBXAXSXDXDXKXCXxXkXkXcXzXBXxXzXhX^.U.Q.}.R.U.C.H D 0.q.e.e.rX1X<.@.[ E E C.G.G.jXzXZXZXFXNX0Xc b ~ 6.5.8.$XeXD P n H.^.`.Q.^.I.",
".XhXgXGXDXDXSXGXcX/.{././.sXaX/.^.^.'.Q.Q.`.'.2.N P 0.q.q.q.q.eX5.] +.| } _ <.2.1.l.T T 3.T J N W Q 6.1.eXrXeXD H M G.`.`.Y.`._.",
"`.~.yXCXCXSXAXcXjX{.^.'._.[._._.P.~._.^.U.'.[.C.N L 8.q.q.q.q.eX1.*.&.&.+./ E m M n b n b m W ,.! { 6.2.8.$XeXD S 2.(.`.`.`.'.^.",
"|./.kXCXBXcXjXaX[.[.'.[.'.'.'.'.].].].|.XX_.[.C.N P 8.q.%X%X%XeX7.o.@.*.' ;.O. .{ { ) _ } =.o.o.X.O.X.4.w.rXeXD H U G.).'./.|.^.",
"/./.jXxXlXpX[.(.].].'.'. X^. X'.'.[.[._.^._.).C.N S 0.0.%X$XrX1X5.X.X.&.#.&.#.&.*.@.@.@.@.&.&.$.&.%.+.{ wXeX1XD H 2.G.]..X^.XX^.",
"|.^.[.aXaX].[._. X^. X_._._.'._.[.[.].[.'.(.).C.N L 8.eXeX9.3.5.=.#.%.#.#.&.&.$.#.;.@.$.@.%.+.*.%.%.+.| 6.5.1.K H U ).[.^.^..X_.",
"^.|..X`.`.'.'..X^.XX X_.'..X.X_.^..X].'.aXdX(.C.b K w.tXw.7.4.[ &.&.%.+.#.#.$.X.-.$.X.#.&.&.@.*.%.%.+.| $.-.{ M K U ).[./. X].'.",
"^. X XQ. X].^./.XX/.^._.].].`.'.XXR. XaXF.M ^ ^ ) ) 1.3.5.4.=.O.[ | +.%.B.&.-.-.-.-.%.%.%.#.-.$.' &.;.:.@.} _ ~ N ,.(.]._.[._.^.",
" X'. X X.X.XpXpXlXcXjXpX].].].'.}.XX X[.F.M m ) M.N.| ..o.-.$.*.B.;.+.' %.%.X.$.X.#.B.%.' #.o.-.$.*.*.@.} ../ m N 1.).[..X_..X X",
" X^.]..X{.pXzXAXCXGXBXsX/.hX.X.XXX|.^.sXC.N E / | +.@.;.&.B.' ' X.$.' ' B.' %.*.;.] N.N.' B.-.X.X.#.@.=. ..._ ~ b U aX{..X^. X].",
".X X.X.X/.zXGXJXPXPXAXzXxXjX[.|.XX|./.pXA.b m / ;.;.O.$.#.' N.%.$.;.%.%.%.@.S.S.C._ M.N.] B.-.-.$.$.B._ 5.5.C.b M U xXhXhX.X]..X",
".X.X[.pXlXVXHXSXPXIXNXZXVXlXpX|.|.kXoXt.j.b N { o.-.o.-.X.#.#.$.$.;.X.X.:.F.zXNXNXMXBXdX_ @.#.#.$.O.{ 2.gXMXfX1.n J fXsX.X.X_.[.",
"[.hX[.aXxXBXBXZXAXKXHXZXxXjX|..X|.z.iXL.v l M Q o.-.=.;.$.$.O.:.4.D.6.5.1.Z.NXFXIXFXFX0XC.4.-.;.O.V.S.C.fXFXmXY n I 3XfXaX[.hX/.",
"hXaXaXhXhXhXpXkXxXxXcXlXaXaX/.kXa.a.m.L.d.l m ( -.$.*.@.&.$.O.D.zXMXZXMXZX9XX X X X X : FXmXG... .dXzXNX= O O S H L 3XdXdXsXhXpX",
"hXaXaX[.hX.X|.|.|.kXaXaXhXhXhXoXr.t.i.z.j.b m { -.#.@.%.%.%. .S.NXKXKXKXPX;X      . . : KXGX0X^ ) sXHXFXO     $ L J <X4XdXsXpXpX",
"].hX.X.X.X.X|.XX|..XhX.XhXhXK.r.& t.t.t.F B m / -.%.%.%.' %.| S.ZXKXKXPXLX;X    .     : KXHXH.) M.gXKXPX+     l J L <X6XdXdXsXjX",
".XhX.X.X.X.XhXpX/.|. X.X.XhXoXd.& v v v B N M Q @.#.%.%.%.' +.S.MXKXLXLXLX;XX o X . . : KXGX0X..2.sXPXDX; o O $ n U <X3X2X4XdXgX",
"hX.X.X.XhXpXsXxXlXjXhX.X|.oXt.j.v $ l l H H ,.4.-.%.B.%.' %.&.D.ZXPXLXLXLXIXUXmXmXNXbXnXPXCX0X4.<.fXLXPXUXmXgXC.( ,.3.P T 4X4XuX",
".X.X.X.XpXlXMXGXZXdXjX.XhXz.& & & $ $ l H H ,.Q $.%.%.' +.&.;.6.mXFXFXLXLXDXKXGXGXNXNXZXCXZXH.4.<.gXPXIXPXHXZXF.:.[ W N Y 4X4X4X",
"[.hX.X.XaXlXmXFXKXfXsX[.[.p.G = = $ $ $ S L H Q #.%.+.| | +.#.:.S.D.A.FXKXDXDXKXMXF.5.D.S.S.....<.wXtXtXgXgXsXM.| @.Q H T 6X6XqX",
"sXaX.XjXsX5X9XmX8XuXdXjXA.* = $ = = = + S H N Q -.#.+.| V.V.@.V.V.<.F.MXZXCXAXVX0X4.-.-.| | _ 1.3.6XeXeXqX0XdXV.%.*.! N L 3X3XqX",
"aXsXsXMXgX@X+X@X2X7XuXlX& @ = = + ; + D L H W ( o.X.N.N...G.).).0X).G.D.C.C.D.S.V.&.$.$.+._ Z.tXeXeXtXtX3.1.S.+.N.| M H P <X+X2X",
"dXsXgXgX,X,X9X,X,X9X4XdXA.l.= = D ; 9.; = S J M 6. .V.] V.H.).).aX).G.V.+.@.:.=.N.' %.&.+.<.1XtXeXeXtXwX7.<.6.[ ) ) K H 3.3X@X9X",
"4XgX4X3X+X1X6X3X1X8XqX7XfXyX$ G R - #X;X; - R v N >.] N.=.V.V.V.V.V.B.N.' X.-.X.' ' %.$.| <.w.tXeX<X7.5...{ { ~ C Y <XZ.qXqX9X9X",
"uX7X2X,X2X6X1X3X1X8X8X4Xx.t.& % 6 1 9 9 ;X8 #Xf.G U ) )  .-.#.%.] ] B.B.%.$.-.-.%.B.%.&.@.6.7.wX0X7.,.o.} } ( 2.n Y Z.+XwX6X9X9X",
"8X8X2X2X6X2X,X2X9X6X7XuXd.% 4 1 5 4 , 7 &X:X&X>XNXmXZ.b N o.-.$.+.N.N.N.%.X.X.o.@.*.*.#.*.} 6.5.1.4.=.:./ >.~ F.<X3.k.l.<XqXuX7X",
"8X8X8X9X2X,X3X3X,X+Xl.h.< % < 3 < 3 > r r 7 f ;XnXFX+XI 2.2.{ X.@.| | ) }  .6.6. ... .} @. .{ 4.2.6.Q 6.~ U U Z.wX+Xk.k.k.4X2X2X",
"8X8XuX7X9X+X2X,Xl.G v z r.r.< u.3 4 5 , w 9 9 &XUXLXNXFXmX3.M E ! ,.E m m m E m m m C m W E m m W N W U qXmXqX2Xk.T k.k.+X,X2X8X",
"uX8XuXuX8X2X<XT I x A V s.s.s.t.t.4 m.0 u :X*X&XbXIXFXmXmXY m E Q ,.M B V V Z Z B V V B b b b x b b M n qXmXgX,X+X+X@X+Xl.+X+X@X",
"8XqX8X8XtXqXY b C .._ _ ) M.Z x v d.m.n.e h h :XAXJX+XP 2.2...[ o. ._ [.|.|.XX XXX^.XXa.* * * * z A { _ 2.U Y k.+Xl.A.5Xx.@X@Xx.",
"+X1XuX9X6XZ.B m >.O.@.:._ ^ B F v 6 u r e j j :XAXmX3.M E / @.&.X.#.M.jXkXiXL.L.L.oXL.a.# # & & z Z V.X.Q E m Y Y F d.t.d.5XuX@X",
",X9XgXY I n ) | %.$.=. .C z F h.g.r u 9 f :X&Xf.B 2.( {  .@.+.' ' +.J.xXBXxXiXL.v.% % % # # h.BXlXH.{ X.-.:.( Z I F x.-XiX;XyX;X",
"+X2X2Xl l C @.*.$.X.[ _ Z z t.g.4 , w u ;XAX5Xj.b E | B.%.%.*.#.%.| F.ZXJXAXiXL.z.< 5 # # # @XGXGX0X4.[ O.;.{ / W U Z.yX-X-XyX;X",
"z.d.t.c C E } =.{ ! E Z a.v.c.c.a 0 , 4 - G B 2.5. .;.+.] +.$.;.@.) C.GXHXBXL.L.L.oXL.a.% # @XHXFXk.M Q / | | *.[ ..Z c F 5XyXK.",
"1 % & x b E  .:.6.! N x a.v.v.v.a a t n.F l b ^ o.X.@.+.+.%.$.-.@._ Z.CXHXBXL.L.L.L.iXa.# @ @XKXKX<XH W ( | | @.-.o.m n F yXK.-X",
"# 5 1 c b E o.{ ( W n x u.y.2 0 0 t b.g.F H W / -.-.%.' B.' -.-.@...F.ZXHXBXL.L.iXBXVX@X@ @ @XKXFX+XH N E m E [ O.=.W n G x.h.n.",
", 7 d.v n E =.=.4.M b z u.< > 3 7 7 h.z.2.M ! [ $.&.&.] @.| o.X.+.) Z.BXHXCXkXiXAXCXJX;X& - ;XMXNXZ.,.,.Q E E ( { <.M J G @Xn.n.",
", 4 g.& b E X.-.{ m l d.g.7 t y &Xh.x Z ( 6. .=.@.#.&.@.[ >.E E ] ` C.CXKXHXGXCXHXLXLXPXSXJX2XJ I 2.{ X.O. .( ~ m M K H G -X*Xh ",
", 7 g.& l E o.$...E J G n.i i *X=Xh.l m Q o.-.;.*.@.O. .{ / ! / ] V.F.zXMXNXKXKXPXLXLXLXDXLX3XN W ( o.-.O.[ ^ B F I J G l.;X:Xj ",
", g.h.6 I W =.@.{ m n G n.h h *X*Xf.& n ( :.;.] ;.[ Q ! Q ( [ *.B.B.o.6.5.0XZXHXHXLXLXLXPXKX0Xb m ( =.-./ m I j.f.f.#X;X:X#Xf f ",
"&X=X&X6 S M  .} _ m n G *Xi i u u 9 & I ^ (  . . .( ! W W ( -.&.%.X.X.X.{ F.lXMXfXMXNXFXNXNXF.m ! (  .{ / m I j.f.6 9 9 9 9 u u ",
"n.*Xn.- l n ..} _ m n Y -Xn.p q q w b.m.x.x b m M W K N W Q -.$.-.o.6.Q W W S.V.S.C.5.5.5.5.:.| [ / E E [ _ ^ V l d.8 9 k k k s ",
"w u n.- c B ..} ../ W 2.x.t w q q q u h.d.& v B N K ,.N W ( =.$.$.X.o.Q W ! } ) ` ) { o.{ [ ) _ [ / E !  .=._ >.m I h.8 k e s k ",
"r t h.v l M { #.#.X.6.,.Z v , r r u n.b.b.n.A.l.n M ,.,.! ( o.@.+.' X.[ 6.{ M M W W M W W M m M ,.2.{ [  .@.$.$. .( B & 6 y j k ",
"0 t z.t.G B _ @.*.;.6.{ E b t.x.h.h.h.h.h.h.z.j.M W Q Q Q ( _ [ ] B.' +.;.{ M K M M b B V F F c F Z <.{ { =.-.:.D.1.M n & 8 8 k ",
"4 4 u.u.i.z.` A >._ ....=...C B c c c G l l x ^ =.X.6.o.o.E b A | @.@.@.@.} ..( 2.M b p.h.r r &Xm.j.b W <.( 2.0X6X6XL n & g.q e ",
"i.3 y.2 3 u.r.s.Z Z ` _ :.:.{ / E E ,.,.K B C ) *.#.X.o.( j.V p.^ ) } :.} ..5.F.,.n c d.8 w e y *X7 F U U I Y <X1X+XR ; f.n.e w ",
"3 2 2 2 2 3 r.p.p.Z A / { o.o.} =. .=.6.6.{ ..| ;.=./ b v h.x.x.B b `  .6.7.6X6Xw.H l d.u e p j =Xn.&X-XF S G S S - &X&Xh j d p ",
"3 2 2 2 < < 1 i.i.z A M.( <.o.[ } [ O.o.{ _ _ / / ` V d.& g.u u d.F Z ` ( 3.+X1X+XR G g.n.p f h f p *X*Xf.- G G G 6 &Xj g d d d ",
"y.y.r.2 3 7 7 u t 4 r.z x C E m A b m m M n M C B v d.n.t r e u n.n.z.c M M G - 6 &X&X&Xh j h *Xi y i h f &X&X&X&Xy h k g g h h ",
"y.y.y.u.c.a b.n.n.b.b.i.v z Z A V V V V V V V V v v h.g.t r t a t u g.1 v V v & 9 y f u p e u y e e e p i h f y p g g p g g y *X",
"y.y.y.u.3 3 3 3 c.0 c.b.g.i.a.r.r.i.i.t.r.r.r.s.r.a.b.b.7 t 0 3 4 b.i.g.g.b.g.b.b.t r w q q q q p k i i i *X*X*Xh h g g f j h i ",
"y.y.y.2 3 2 y.y.2 3 > > 4 < y.y.r.2 < 2 2 u.y.y.y.< 4 7 , 3 < 2 < 3 3 3 > > > > t 7 r e q q q q e e q i i i *Xy p p j f j g h p "
};
