/* XPM */
static char *e0b155705d164d8ee4943e2313c9265c6LweqzjJHRDQyCCj[] = {
/* columns rows colors chars-per-pixel */
"64 64 243 2 ",
"   c #04070A",
".  c #050B0D",
"X  c #0B0B0E",
"o  c #080707",
"O  c #100E0E",
"+  c #050E12",
"@  c #0C0E13",
"#  c #0D0D1A",
"$  c #110E13",
"%  c #100D1C",
"&  c #041314",
"*  c #0C1215",
"=  c #05151B",
"-  c #0D141B",
";  c #0C1A1C",
":  c #051A18",
">  c #121215",
",  c #12151B",
"<  c #18151A",
"1  c #141A1D",
"2  c #1A1A1C",
"3  c #121A17",
"4  c #201F1E",
"5  c #18221F",
"6  c #07211D",
"7  c #20201F",
"8  c #0E1620",
"9  c #0D1C23",
"0  c #0B1C26",
"q  c #131423",
"w  c #141B23",
"e  c #1A1C24",
"r  c #14142A",
"t  c #141D2A",
"y  c #1B1E29",
"u  c #18142D",
"i  c #1B1B34",
"p  c #1C1A37",
"a  c #130F26",
"s  c #211F20",
"d  c #231A3F",
"f  c #032324",
"g  c #0C2324",
"h  c #0C242A",
"j  c #052C2C",
"k  c #0C2C2D",
"l  c #082926",
"z  c #142225",
"x  c #1A2225",
"c  c #14232B",
"v  c #1C232C",
"b  c #132B2C",
"n  c #1C292C",
"m  c #192A27",
"M  c #0A332C",
"N  c #19322C",
"B  c #0D2D32",
"V  c #0B2733",
"C  c #152532",
"Z  c #1C2632",
"A  c #142B33",
"S  c #1B2B34",
"D  c #162D39",
"F  c #1C2D3B",
"G  c #1C213F",
"H  c #0C3333",
"J  c #0B3837",
"K  c #133335",
"L  c #1C3234",
"P  c #14333B",
"I  c #1C323D",
"U  c #143A3C",
"Y  c #193A3C",
"T  c #143834",
"R  c #232323",
"E  c #21262D",
"W  c #212C2C",
"Q  c #272B29",
"!  c #22332C",
"~  c #222C34",
"^  c #212E3B",
"/  c #212732",
"(  c #243335",
")  c #23323D",
"_  c #2B3A3C",
"`  c #283739",
"'  c #30332F",
"]  c #0F433D",
"[  c #30403F",
"{  c #1B1A42",
"}  c #241E46",
"|  c #1D2D41",
" . c #1E3342",
".. c #133A41",
"X. c #1C3A44",
"o. c #1C3C4A",
"O. c #163546",
"+. c #0D3942",
"@. c #29224D",
"#. c #232B45",
"$. c #223443",
"%. c #293444",
"&. c #243945",
"*. c #2A3A45",
"=. c #243B4B",
"-. c #2A3B4B",
";. c #26374A",
":. c #303D4B",
">. c #2B2552",
",. c #2C2A58",
"<. c #312D5D",
"1. c #233E51",
"2. c #2C3D52",
"3. c #293458",
"4. c #323A56",
"5. c #312E62",
"6. c #333465",
"7. c #35346C",
"8. c #35396D",
"9. c #38356F",
"0. c #353B73",
"q. c #363E7A",
"w. c #373873",
"e. c #2D2E62",
"r. c #094542",
"t. c #1D434B",
"y. c #164546",
"u. c #1B4B52",
"i. c #184957",
"p. c #195656",
"a. c #18534D",
"s. c #23434C",
"d. c #2B414E",
"f. c #2A4546",
"g. c #314344",
"h. c #364A4B",
"j. c #394C4D",
"k. c #244253",
"l. c #2C4353",
"z. c #244C53",
"x. c #2A4A55",
"c. c #264A5B",
"v. c #2A4C5C",
"b. c #2A4559",
"n. c #334454",
"m. c #334856",
"M. c #344B5B",
"N. c #394B5C",
"B. c #35465A",
"V. c #2B535B",
"C. c #26565A",
"Z. c #3D5353",
"A. c #36555B",
"S. c #0C665B",
"D. c #1D556B",
"F. c #294E63",
"G. c #344C63",
"H. c #384E68",
"J. c #2D5263",
"K. c #2F5A6D",
"L. c #2A5966",
"P. c #345363",
"I. c #3A5563",
"U. c #3B536B",
"Y. c #325C6E",
"T. c #375A67",
"R. c #37417D",
"E. c #3B5571",
"W. c #38656B",
"Q. c #336275",
"!. c #386776",
"~. c #3A7176",
"^. c #296363",
"/. c #455C5B",
"(. c #415757",
"). c #42596D",
"_. c #405571",
"`. c #445B75",
"'. c #455D7A",
"]. c #4B6565",
"[. c #4D6A69",
"{. c #526B6B",
"}. c #4A627C",
"|. c #45697A",
" X c #45727D",
".X c #4A767A",
"XX c #557372",
"oX c #5C7B7B",
"OX c #587576",
"+X c #51687B",
"@X c #607E7E",
"#X c #5F807E",
"$X c #60817F",
"%X c #384585",
"&X c #2F7084",
"*X c #1E638B",
"=X c #4C6B83",
"-X c #4D6784",
";X c #536D8B",
":X c #536A85",
">X c #4B7685",
",X c #54728D",
"<X c #5A738E",
"1X c #537D88",
"2X c #567393",
"3X c #5B7493",
"4X c #5C7A95",
"5X c #5D7B9B",
"6X c #597798",
"7X c #617C9B",
"8X c #607B96",
"9X c #5E7DA0",
"0X c #607EA0",
"qX c #318B9B",
"wX c #3BA8BA",
"eX c #3095B3",
"rX c #56828B",
"tX c #568596",
"yX c #4E808B",
"uX c #648483",
"iX c #668887",
"pX c #678A88",
"aX c #6B8D8C",
"sX c #64868C",
"dX c #6D908F",
"fX c #65899A",
"gX c #6E9291",
"hX c #749999",
"jX c #78A19E",
"kX c #6788A5",
"lX c #7492AC",
"zX c #7CA6A4",
"xX c #3DBBDA",
"cX c #34A6CC",
"vX c #2D98CC",
"bX c #63AFC3",
"nX c #4AD0E5",
"mX c #4ED5E8",
"MX c #81ADAA",
"NX c #84B2AE",
"BX c #86B5B1",
"VX c #89ACCD",
"CX c #A3C9EB",
/* pixels */
"- ; w 9 z Z S z Z b c S S F S ^ ) D $.&.$.;.;.l.s.x.U.I.'.}.+X>X3X8X8X<X3X6XkXlXVXCXCXVXlX2X'.l.$.t 2.|.|.kXlXfXaXlXOXhXgX.X[.a.",
"1 w t t t Z S b n c n ^ ^ F ^ F ) D $.&.;.*.-.2.s.b.G.H._.'.|.>X<X<X<X3X3X4XlXlXVXVXlX+X2.O.o.1.1.k.&.S c *.n.+X1XrXsXuXlX+X.XC.",
", w y v t A L Y C C S ) ) F F F ) ) &.=.=.=.=.=.t.z.v.P.U.`.`.=X:X<X<X3X6X7X0X-XN.-.o.k.1.b.K.K.!.!.K.F.k. .J.x.rXrXsXrXgX.X~.C.",
"w t c Z n b ) ) L S S D F F F ^ F F s.X.t.s.=.$.s.V.P.P.G._._.}.}.:X<X3X<X).=.Z 1.L.Q.!.k.o.1.1.J.!.&X&XK.=.c.M.1XrX.X.X~.|.W.W.",
"w w n S C C S S &.L S D I F F  .F F  ...u.z.s.&.z.T.W.P.G.H._._.'.-X:X(.^ $.b. .1.Q.&XQ.=.1.1.L.Q.v.K.&XK.1.o.`.rX.X.X.X.X.XW.C.",
"t c n F F F L L X.I S I ) I F F $.F =.=.V.z.d.&.s.V.W.c.G.H._.U.`.'.-XG.%.-.b.b.| k.J.k. .o.;.c.Q.L.1.K.Y.1.=.m.oX.X X[.W.^.^.a.",
"c c Z D F ) $.) Y F L X.&.F F |  .F *.s.A.z.s.&.t.z.V.C.J.U.U.`._.`.}.;X<XN.=. .1 3 x D F.b. .=.=.1.=.k.K.1.1.J.V.>XtXsX|.W.^.^.",
"S A S S S F ) F ) Y &.-.=.I I $.&.C ^ K t.y.s.d.x.x.V.P.P.U.U.E._._.'.:X3X,XG.n 3 3 z m ;.K.v. .=.k.1.k.k.=.K.P.~.~.tXfXfX4X XW.",
"L c Z S F I #.F ( L X.s.X.F F ~ ^ $.=.X.k.s.v.s.V.z.V.x.v.G.G.H.H._.-X;X;X;X).%.< W m 5 m F k.c.b.1. .=.=.J.M.,XtXtXtXyXtXyXW.t.",
"h C Z Z Z $.-.$.) A &.&.I s.I I C $.X.L D F s.s.T.z.V.l.b.B.4.G.H.U.'.8X<X:.W _ ( m ! 5 3 1 c.Q.Q.K.1.^ K.J.).0X>XtX1X&X>XyX.XL.",
"A S Z Z D -.-.&.O.&.Y &.Y X.s.X.D &.D $.Z #.;.s.a.u.P.M.l.2.B.B.B.H.'.<X<Xe ` h.[ ! 3 3 5 1 c.K.K.F.-.Y.L.l.3X7X2X;X4XkX6X!.Q..X",
") F F F I $. . .I  .A Y ) A s.t.D I C ^ C ^ &.=.W.z.k.=.2.2.n.2.G.B._.}.n.* m _ ` E v x 1 I k.k.1.o.Q.Q.-.-X3X7X6X3X5XkXkXtX1X>X",
"c C Z ^ I X.X.&.%.V O.D ` / D s.D D c t 0 A t.z.W.z.s.;.2.2.;.| #.#.3.,.C # + 1 5 e N.M.* &.J.b.1.Y.Y.H.;X3X6X3X9X9X0X9XkXkXkXkX",
"+ 8 8 9 I d.l.s.%.F &. .#.t 0 Y F S c c S ` z.C.t.o.k.=.2.#.| e.0.%X%X%Xq.e.,.{ q / :X<XN.n.b.P.Q.K.M.,X2X2X3X6X9X6X0XkXkX2XtXkX",
"+ @ + = I x.x.k. .1.;.O.O.B h 9 C C c c L Y d.u.-.=.$.P  .| e.0.q.%X%XR.q.9.q.R.7.<.3.2.;.2.^ v.v.m.-X3X2X2X2X2X2X2X6X7XkXfX4X X",
"* * - r A O.t.F.p.=.3.o.i.~.K q A I L c 0 n $.I F =.=.D r a + r @.w.q.R.w.7.q.q.9.8.8.<.d n w S w N.;X;X;X;X;X;X2X9X7X6X3X4X=XE.",
"@ . - F F $.&.D ..b.1.F.D.D.t.t o.s.A 9 - Z A t w *.&.C , z L m - { 7.q.9.7.R.R.8.9.6.,./ ^ ^ d.&./ %.&.~ Z Z Z %.'.5X5X3X7X3X'.",
"@ @ w S t D C h  .o.c.D.1.V b S =.&.b ; - w - _ @Xh.Z z z ( ( g.{.` { 0.8.8.R.8.7.8.<.y ^ / d.M.*.m.;.^ u u r r q r U.5X6X6X,X'.",
"@ * w Z t S L F F X.y.P G q t c b c 9 * 3 X x g.oXdXj.x {.[.A.Z.*.n 8 7.9.w.0.6.6.6.@.t Z ^ ;.%.M.;.y q ( _ ( Q q % q B.,X2X2X-X",
", - 0 S 0 z c v A L h 9 9 n v w 9 1 @ 1 < (.(.uX[.{.pXg.].{.oXOXA._ w 6.6.0.0.6.6.<.i u ^ -.*.-.*.r Z.pXjXMXgX@XXX( q # G.2X2X,X",
"- * c ` F c = ; h c e x g N z x w * 3 OX].OXiX/.rX{.(.Z.m [ XX{./.V.N 6.6.w.w.6.6.^ e i ^ ^ %.%.t /.MXBXNXNXhXuXaXhXj.# 2.,X;X-X",
"- * 9 ) ( c w 1 9 ; z z b g : g , @ 1 oXhX/.@XoXh.{.` [ 3 W [ Z.j.A.L <.6.8.8.6.6.p s *.p s ^ u ( hXNXNXNXNXMXdXpXNXhX*.`.2X;X-X",
"- - 9 S A c 9 9 ; 9 h 0 z z ; ; 1 * * W [.].g.].` h.x 3 o X > W Z._ - 3.e.8.6.<.,.r y i E ^ S # /.MXNXNXNXMXhXaXpXNXzXj.-X;X-X-X",
"@ ; z C A C w 9 g g c c t v t e t ; w w x g.m f.n x > X o O 3 1 3 @ @ ,.,.<.,.>.} ^ / / ) ) r . ).hXMXNXNXMXhXiXpXNXhXn.H.E.E.H.",
"* z b b h c c 9 h C 0 t w t 9 w w x w > * x x v n e , @ o @ w w @ w i 5.>.>.@.,.p #.=.^ t @ . o /.aXhXMXMXhXhXuXuXdXhXXXx.U.H.G.",
"+ ; b S b c g 0 f h 0 0 9 w w e e 3 * @ @ , e , * > x w @ % * z 1 $.d <.@.@.@.,.u , q @ * m 5 5 (.$X<XaXaXaXaXaXgXpXhXzX[.m.H.G.",
"@ = z S S c ; ; = 9 r = , t x < * - t t 1 1 1 1 < , 1 , r q c w S ;.p >.} >.@.>.u O $ < m ! N N R (.XX@X@X@XuXgXNXjXaXzXdX;.E.H.",
"@ & 9 b n g : : & : ; w y w > = c C S D c , w w 1 , w q u - Z . C Z } @.} >.@.>.u $ < $ x N L ( O O 2 ].hXuXaXdXjXjXpXhX<X;.E.E.",
"@ * 9 z w 9 ; ! 3 N m e 3 * w D F F F F F w , 1 < 1 , r u @ w @ # y @.@.} } } } a $ < < > < x m 5 3 O x $XgXaXdXaXdXhXaXOX;.E.E.",
"+ - 9 9 - 9 ; w 5 _ m X 1 C F F F F F D F D - < 1 1 , a r @ 9 0 @ , d p % , % # X $ $ < > < < < 5 5 2 3 ( pXaXgXpXXXiXhXuXj.H.H.",
"@ - ; w k.J.F. .z 1 5 & S F C | F F | #.| | A q , 1 e , @ o O.D.c c t S E v W W 1 - * 3 O > $ O $ $ 3 * * [ ].h._ ~ :.j.].].*.H.",
"& = ; q o.K.Q.K.&.1 ` 5 C D S ^ F | | $.#.F | F t ; - , < 9 D.&XO.S d.) *.^ v v v _ / z x 1 3 * 3 3 * > * w 2 E ) :.4.%.Z ` j.;.",
"- * ; S L.K.v.J.k.w ! ! 8 =.=.;.$. .F | ) I | | | D F F D P qXxX*XS ) ~ / %.~ e e / ~ e v v v x e e t x , @ e n ~ &.%.%.%.E v S ",
"* = 9 k.F.1.| c.=.w 5 m = ;.;.-.$. . .F F #.I F  .| F F L.wXxXxXcX*XC y y ~ x e y ^ / y W W W x x x x w w 1 v d.d.|.W.*.^ / v y ",
"& g g S | c 9 D C g - 1 w -.$.-.=.$. .F | $.$.F | D F L wXmXnXxXcXvXi.C y y ^ ^ / x e y e x x e e 1 1 3 z 1 n ` x.T.|.|.&.v v $ ",
"& 6 g : 9 9 g g 9 K g & F -.$.;.-.$.| F F  .I #.| F F L z.xXmXxXcXD.t t y y ~ v e z e q 1 w w , * * X . F l.^ n ` M.P.M.l.v y 1 ",
"& : 6 m h g I P B A b h D $.;.$.;.$.F  .$.$.| $. . .F  .D o.qXeXi.q q r q e e w 2 $ , $ $ $ , < 2 2 $ w d.|.|.T.*.~ *.n.( y e ) ",
"3 : g l l l Y H T k M h C  .;.;.=.$.$.;.-.$.$.$. .F I  . .S t c # , < , , , > > X O < e e e e e 2 y * x &.P. X>X.Xm.v ~ x y %.).",
": l l N N f J J U k A k D | &.&.-.&.&.-.:.-.&.$.$.| D O.F t v E , @ % > q y e e % $ e e e y y ' Z.h.v v ~ l.|.=X>X!.A.v Z I.}.T.",
": m l M T j J J H B b k  . .$.*.;.;.&.=.;.;.$.$. .I D  .x q e y , q e y y / s e $ $ < e y y h.dX].e W ^ S ) T.I.M.m.T.&.B.}.).1.",
"O 3 - P y.J V A J k I P t.t.O.m.N.n.N.m.n.-.m.n.k.X.L h 1 y s / < 2 y e s u e e % @ $ e q (.dX{.x 1 e x v n ~ / Z n ^ -.M.`.=.=.",
"& & A S.S.r.j J ] H H P y.i...k.(.n.M.;.D &.I d.X.&.=.q y v y E , q s y y y s e y l.^ < 2 _ /.x /.h.e W w 2 z v v t t N.2.b.d.I.",
"b 6 M r.p.p.] ] y.] U P i.u.u.y.2.l.&. .D  .X.X.I F w y E y y s > e i s / E y e x N.N.S > , w ].dX/.[./.g.XXW x 1 w Z N.l.Y t.s.",
"& & l P ..y.r.r.J U H t.i.C.C.L.=.s.P  .O. .X.K F F w v y y e E < e i / i s e e ^ n.n.2.e x XXgXj.(.uX[ uXXX_ OXx ~  .n.-.I y.z.",
"b l j r.] J P ..H K K O.z.u.L.i.s.O.X.O.I  .O.&.*.t , y e e y v x , e e e e e ^ B.m.N.G.%.x aX]._ uXh.Z.@XW /.oX~ &.;.-.d.s.z.z.",
"M ] J ] J j B f K T l P Y t.r.+.t.y.z.k.s.D =.n.~ S ~ w 2 v / E s q , , # y ;.l.N.M.N.N.%.> R W uX{.[ uX(.( pX(.~ -.&.X.l.d.U y.",
": M H z = 0 H L k k h k Y P +.y.i.C.p.L.z.+.&.) c ) S ^ Z e w , < > w x y v n.N.2.2.n.2.` > $ , h._ j.oXx Z.$XW , F &.Y y.X.P z.",
"6 l H M A B f A M ] U K A k J u.i.a.p.p.i.t. .Z , C < 1 t y q < e r @ e v e v ;.2.l.b.-.^ w e w t x n ( c x x w 1 1  .X.x.k.P =.",
"3 & l J J P I K B l M ] J y.b L p.a.^.y.t.k.I A 9 - % , < q < , < e $ w < # - $.*.&.$.$.Z , w t 1 e e S S t e , w , C  .P o.X.x.",
"l & 6 M P U P A j K 0 b g l B K J ..p.U B I F C L c @ < , , , , , 2 w @ @ # X ^ ;.-.;.d.-.v 3 < 1 1 1 2 C e q , w - c F X.k.o.+.",
"] M N f l K K h 0 Y k l U A h A P X.O.D h 0 i 9 b c * < e e q , , * < # X X , ) &.-.=.d.2.F - , , - 3 , w , e v x 1 - D o.1.t.+.",
"6 f H f g c h f g A K H U P B A D F L D c t c n w - , e v e e < , . $ $ $ # F $.S X.&.I $.-.^ , t x y y v v S / v x , g D D v.o.",
"* : f T T l A P K j f L N K T.y.h V =.h c c b z , y s / ^ E y e , X $ @   w $. .L S L D &.$.;.y , v / / S ~ Z / / Z e * 8 h &.V ",
"3 * . l T f H S ....B j h j P j h h I h Z c 9 9 , v ~ ( ( / E i e < > , @ v Z c A g c C | C F C , x Z / Z ~ Z ~ ~ / S 1 = C F c ",
". : 3 ; M H Y P B P P f P Y h F F h h g S w ; w w , , 2 s ^ / s y y , > , v t t 9 - 9 Z C h C F - y / Z ~ ^ ^ ) ) ) ) Z w 8 c C ",
". & : & ; 9 A ..U h C C 0 0 A V D $.h 9 - @ , 3 3 2 4 < $ e E / v e .   = x 1 9 & c n ) Z ) &.-.w x ~ ^ v e > > $ > , , < - 0 t ",
"    . & . + 9 L K A B h 0 9 9 w 9 c c w * * 5 R Q R R s < X $ y E $ @ $ @ , , 8 = 8 D *.d.$.| =.e E y 2 O O o O $ X X o > O Z ;.",
".     . & & & : h h A C h 9 9 w c @ > 2 R Q Q R R s 2 2 < $ O @ @ $ $ @ @ 9 - 8 = t ^ ) ) I F $.F w > $ O O > < < > > X w y ^ ) ",
"&     + & . . . = 9 b c 0 9 = - @ < 2 R R 7 7 2 2 2 , > > $ @ $ $ > @ @ - - = = # 0 v C Z F F &.) > X o $ $ > 2 2 7 R > @ t v t ",
"+ .   * X . & * : ; z g 9 8 8 w * @ @ @ > * > > $ $ $ * @ @ - , - w * * = w 8 = + + = 8 9 t t $.%.F , O > < > 3 < 7 R 4 > > t w ",
"  . . . . . * - ; ; ; ; w q w 9 , - @ + + , q = - - y x w - 1 w g b = & + q , = + + # 8 t c c S F $.c @ > 2 > 2 2 R R ' Q < > e ",
"+ . . X o & & * - * @ * - - q = - = @ + * - w # - , - q , - * * g n z g # w r , * - w , y Z t t -.$.F v , , < 4 R R ' ' Q s - Z ",
"& o . . . X * @ * & . . @ + * = @ * @ + * w e = w , = * - @ + @ z N v v - v v q @ * , # , w 9 t $.&.-.l.^ , @ , , 2 q 2 < , t w ",
"o   o o     + - : 3 * +   + * , = + @ @ @ > , - * - 1 w , * @ - & 1 & - + c w & w * @ - q w t ( N.l.*.;.:.;.Z w , @ # @ - ~ ) S "
};
