/* XPM */
static char *fe250f4d5dd5479fcd223301d1014df2vegnMxpgUF6dcXRl[] = {
/* columns rows colors chars-per-pixel */
"64 64 247 2 ",
"   c #04070A",
".  c #050B0D",
"X  c #0B0B0E",
"o  c #080707",
"O  c #100E0E",
"+  c #050C12",
"@  c #0C0D12",
"#  c #0D0D1A",
"$  c #110E13",
"%  c #100D1C",
"&  c #041314",
"*  c #0C1215",
"=  c #0C141B",
"-  c #0E191C",
";  c #051719",
":  c #121215",
">  c #13151B",
",  c #18151A",
"<  c #131A1D",
"1  c #1A1B1C",
"2  c #121A17",
"3  c #18221F",
"4  c #07211D",
"5  c #20201F",
"6  c #0D1B23",
"7  c #0E1823",
"8  c #131523",
"9  c #141C23",
"0  c #1A1C24",
"q  c #141D2A",
"w  c #1B1E2A",
"e  c #15142B",
"r  c #1B1A35",
"t  c #130F26",
"y  c #211D2A",
"u  c #0C2225",
"i  c #0C242B",
"p  c #062825",
"a  c #142225",
"s  c #1A2225",
"d  c #14232B",
"f  c #1B232C",
"g  c #142A2D",
"h  c #1C292C",
"j  c #1C2A27",
"k  c #1C332C",
"l  c #0B2C31",
"z  c #152531",
"x  c #1C2632",
"c  c #142B33",
"v  c #1C2A34",
"b  c #1C2C3A",
"n  c #19283A",
"m  c #0C3432",
"M  c #0C3A38",
"N  c #1D3234",
"B  c #13333C",
"V  c #1C323D",
"C  c #143535",
"Z  c #09332C",
"A  c #232323",
"S  c #21262D",
"D  c #212C2C",
"F  c #272B29",
"G  c #212B34",
"H  c #212D3B",
"J  c #202631",
"K  c #253434",
"L  c #23323D",
"P  c #2B3B3C",
"I  c #283839",
"U  c #26332D",
"Y  c #201F1E",
"T  c #0D443E",
"R  c #30403F",
"E  c #1B1A42",
"W  c #241E46",
"Q  c #1E2E41",
"!  c #1E3443",
"~  c #1C3A45",
"^  c #193747",
"/  c #0D3441",
"(  c #29224D",
")  c #222945",
"_  c #233443",
"`  c #293444",
"'  c #243945",
"]  c #2A3B46",
"[  c #233649",
"{  c #243B4B",
"}  c #2A3C4C",
"|  c #29374D",
" . c #313E4B",
".. c #2C2855",
"X. c #312D5D",
"o. c #243E51",
"O. c #2B3E53",
"+. c #29325D",
"@. c #333759",
"#. c #312E62",
"$. c #333465",
"%. c #35346C",
"&. c #35396D",
"*. c #38356F",
"=. c #353B73",
"-. c #373B76",
";. c #2D2E62",
":. c #1A4449",
">. c #1A4756",
",. c #0E4F4A",
"<. c #23424C",
"1. c #2D414E",
"2. c #294647",
"3. c #324444",
"4. c #36494A",
"5. c #384B4D",
"6. c #244253",
"7. c #2C4253",
"8. c #2A4A56",
"9. c #2D445B",
"0. c #2C4B5D",
"q. c #264A57",
"w. c #324454",
"e. c #334956",
"r. c #32455B",
"t. c #344A5B",
"y. c #394B5D",
"u. c #28565B",
"i. c #3D5353",
"p. c #3A555A",
"a. c #1D556B",
"s. c #2A4E61",
"d. c #2E4660",
"f. c #334C64",
"g. c #3A4E63",
"h. c #364E69",
"j. c #3A4F6B",
"k. c #364662",
"l. c #2F5A6D",
"z. c #2C5565",
"x. c #345364",
"c. c #3A5364",
"v. c #36516A",
"b. c #3A536C",
"n. c #325C6E",
"m. c #3D5A6E",
"M. c #355C66",
"N. c #37417D",
"B. c #3C5472",
"V. c #3E5B75",
"C. c #37666B",
"Z. c #336275",
"A. c #386777",
"S. c #356B6E",
"D. c #0E6157",
"F. c #455C5B",
"G. c #415757",
"H. c #45586A",
"J. c #405571",
"K. c #435B73",
"L. c #445D7C",
"P. c #485A70",
"I. c #4B6565",
"U. c #4D6A69",
"Y. c #526B6B",
"T. c #446275",
"R. c #4A637B",
"E. c #47697B",
"W. c #50647B",
"Q. c #48747B",
"!. c #557272",
"~. c #5C7B7B",
"^. c #587576",
"/. c #607E7E",
"(. c #5F807E",
"). c #60817F",
"_. c #384585",
"`. c #2F7084",
"'. c #1E638B",
"]. c #465E81",
"[. c #4B6482",
"{. c #4C6B84",
"}. c #4E6A8B",
"|. c #4A6585",
" X c #536C8B",
".X c #526B84",
"XX c #4B7686",
"oX c #55718E",
"OX c #5A728D",
"+X c #547A87",
"@X c #556F91",
"#X c #567393",
"$X c #5B7593",
"%X c #5C7996",
"&X c #597698",
"*X c #5E7B9A",
"=X c #567897",
"-X c #617A96",
";X c #627C9B",
":X c #687F9E",
">X c #5E7DA0",
",X c #607EA0",
"<X c #3BA8BA",
"1X c #318FA3",
"2X c #57838B",
"3X c #588497",
"4X c #4C8690",
"5X c #648483",
"6X c #668887",
"7X c #6B8D8C",
"8X c #668989",
"9X c #6D908F",
"0X c #64829E",
"qX c #668999",
"wX c #6E9291",
"eX c #749999",
"rX c #78A19E",
"tX c #6583A2",
"yX c #6A86A3",
"uX c #648AA4",
"iX c #6B8AA4",
"pX c #658AAB",
"aX c #6C8CAB",
"sX c #6585AA",
"dX c #718AA7",
"fX c #668EB2",
"gX c #6D92B6",
"hX c #7696B7",
"jX c #7694A9",
"kX c #7CA6A4",
"lX c #3DBBDA",
"zX c #34A6CC",
"xX c #2D98CC",
"cX c #799BC1",
"vX c #63AFC3",
"bX c #4AD0E5",
"nX c #4ED5E8",
"mX c #81ADAA",
"MX c #84B2AE",
"NX c #86AEB5",
"BX c #869FBD",
"VX c #86A8CA",
"CX c #93B6D4",
"ZX c #92B0CD",
"AX c #9DBFE2",
"SX c #A3C8E9",
"DX c #A8CFF0",
/* pixels */
"= - 9 7 a v v a z d d d q 9 q q a d z _ ` | | 1.<.8.b.h.P.R.{.XXOX-XOXOX$X%XtXhXVXDXSXcXcXcXfXfXsXsXfXsX3XiXjXdX8XjX^.jX9XQ.Q.,.",
"< 9 9 q q h v g q a 7 < d ! 6.<.o.! V z z b _ O.<.8.f.c.J.L.E.XXOXOX$X$X$X;XiXhXVXDXSXVXcXcXfXfXfXsXpXuXuXqXiXiX+X2X8X5XeXE.Q.u.",
"< 9 f f d v N N b s.~ 6.s.Z.Z.A.l.l.q.o.<.^ n z c <.0.x.v.L.K..X.XOX$X$X$X0XaXhXCXSXAXVXcXgXgXfXpXfXpXuXaXuX3XqX2X2X8X2X9XQ.T.u.",
"8 9 d v z c N L g q.o.l.`.`.Z.z.o.o.{ o.A.A.l.~ c N <.0.g.J.J.L.R..XOXOX$X;XgXhXZXSXCXhXgXgXgXfXpXpXuXuXdX0X3XuX2X2XQ.Q.C.Q.C.C.",
"q q f v v c c b v o.o.l.A.l.s.l.z.o.6.{ Z.`.Z.{ _ q.V c ` v.b.J.W.W. XOX$X-XaXhXZXCXZXhXhXhXgXsXpXaXsXtXiXiXuXuX2XQ.Q.Q.+XQ.S.u.",
"u q z v v b N v V ~ o.l.n.6.z.A.9.{ ~ ^ 6.z.6.V q.7.' N _ g.J.J.K.L.[. X$X-XaXhXVXZXBXhXgXgXdXsXuXtXsXtX*XyXaXqX2XQ.Q.U.C.M.u.,.",
"d d v b b _ L g 0.6.o.l.q.o.:.{ [ ~ 6.s.n g 2 1 _ { V 0.z.b.b.V.J.K.R. X$X&XtXjXBXBXhXgXdXaXsXtXtX0XtX0XtXtXtX0X(.A.2X3XQ.C.S.u.",
"v v v c v b L v <.l.o.6.o.o.6.~ ^ s.l._ j 3 2 2 9 ! u.z.x.m.c.B.B.K.L..X@X$X*XaXBXhXjXaXsX:XsX:X;XtX;X0XtXtX0X0X4XS.3XqXqX2XQ.S.",
"N z f H b b _ b v ' z.[ { ! o.q.q.6.Q s s j k 2 a V 8.8.t.f.g.j.j.J.W.OX X@X-X:XdXdXaXyXtX:X:X;X;X-X;X;X;X*X*XuX4XuX3X4X2X+XC.:.",
"i z x x c _ } _ L u u.n.b o.l.Z.Z.q.7 2 3 k j K I h N 1.7.9.r.r.h.b.[.$X-X@X$X:XyXyXtX;X-X-X;X;X;X-X-X;X;X%X3XtXXX4X+X`.XX4XXXz.",
"c v x z b { 1._ B V N l.n.o.s.l.l.q.< 1 : 2 U R 4.I 9 7.7.O.@.d.k.g.K.OX-X@X$X:XqXtX;X&X-X:XyX:X;X-X-X;X;X;X-X;X%X X%XuX3XA.Z.Q.",
"b b H b V _ ! V V ~ z c Z.Z.^ o.6.q.V < : : h I P j * d | O.O.o.d.g.J.[.$X$X$X:XyXtX0X%X;XyXdXyX:X-X-X-X-X%X&X-X*X&X*XpXuX3X+XXX",
"d z J b V ! ~ ' | z ^ z L n.n.o.q.z.[ * = 9 9 0 3 * = q Q ( Q Q ` k.b.L. X$X&X;X:X:X*X*X*XyXyX:X0X;X-X$X&X$X$X-X&X>X,X>XtXpXaXqX",
"& 7 7 8 V 7.7.<.` b ^ Q H z n.Z.x.o.a = z c 9 7 n ( ;.-._._._.N.+.) @.B.[.OX$X$X%X-X%X&X*X;X;X-X%X&X%XOX$X&X$X&X>X&X,XsXtX=X*XiX",
"+ + + = V 8.8.q.! { ! ^ ^ l b 0.q.a 7 8 w Q X.*.N.-.*.N._._._.N.-.;.E O.J.[. X X$X$X$X&X&X&X&X$XOXOX$X$X#X#X#X&X&X&X&X;XqX0X+X{.",
"* # = 6 C B :.0.>.^ [ ^ >.S.u * v 9 v r X.&.=.=.-.-.*.-.N.-.-.W e # t e @.B.].[. X$X@X#X#X#X@XOXoX#X$X$X#X#X#X&X#X*X;X&X%X*X{.n.",
"* . = b b _ b = 8 9 q z b N x ` 1.H H x ..%.&.*.=.N.&.*.-.*.E = a k a 8 | k.h.G b B.].}.@X|.}. X}.#X$X$X$X$X$X&X&X&X>X&X&X-X$XR.",
"@ @ 7 v z q # 7 e e e q H } e.} t.7.x H r X.&.%.&.-.=.*.-.E I Y.3.K K a q ` y./.I < ` B.].[.}.}.}. X XoX&X-X-X&X&X&X>X&X&X&X@XV.",
"* * 9 f = # % 8 J K P K 8 q | t.` ] H b 0 ( $.$.$.=.=.*.%.= g 2.i.p.U.U.0 5.wX~.3.s @ 9 @.|.].L..XOX-X$X$X-X#X=X&X&X>X>X#X#X#X{.",
"> = 7 9 # 8 L !./.wXmXkX8Xi.q ` ] ` } J f w X.$.$.=.=.%.$.q I p.~.~.U.I.3.7XY.I.5XG.i.2 9 | B.].[. X$X$X#X@X#X#X#X&X#X&X=X#X#X X",
"= # 9 9 # 5.eX9X6XeXMXMXMXmXF.e ] ` H J x 8 ) $.$.&.=.$.$.k u.F.Y.!.R j i.i.Y.).H.).^.I.!.1 9.L.L.].[.|.}. X#X}.#X%X#X%X#XoX}.{.",
"* ; a v K eXMX8X9XkXMXMXMXMXeXI q ) y w ` w r $.$.=.&.$.$.N i.5.i.R h 2 2.P !.4././.F.eX~.9 7.B.].V.L.R.[.|.}.=X=X%X#X#X#X#X X X",
": = 6 h 3.kXmX8X7XeXMXMXMXMXkXF.# b H S J e 8 X.X.$.&.#.+.* P i.D O O o 2 a 4.I I.R I.I.S > w.V.B.V.L.L.V.V.|.}.{.oX{.[.}.}.[.[.",
"@ - u g 3.eXmX9X5XeXmXMXMXmXrXF.  8 ) ` J J H r ....X.....# X = 9 2 O o @ : a h 3.j 4.s 9 s z { s.f.x.v.b.m.Z.T.B.T.L.B.K.K.v.b.",
"& a g g !.eX7X6X5XeXeXkXkXeX7XG.X X @ q H } ) r ..( ..( #.r 8 @ a < @ o @ < 0 f f f s * : < f 9 x 7.g.g.v.g.f.b.v.v.v.j.v.b.j.f.",
"@ 6 a I.kXeX6XwX7X7X7X7X7X6X5XG.> 3 3 = $ 8 = r ..( ..( #.H ` 8 a * # @ 9 0 : * < 0 > @ * > 2 0 d 9 ! f.v.v.x.x.g.h.v.h.j.v.h.h.",
"+ = a 9XmX9XrXmXwX5X/.5X).!.i.j k k k j $ $ $ e ..( ( W ( r | x 9 d 8 e < < > < < < < q _ ` f = > s 9 z 7.x.v.x.h.g.v.h.h.j.j.j.",
"@ & < /.eX6XkXeX7X7X6XwXI.1 X 2 N K k a , , $ e ..( ( W ( W x z . v : r % 1 < < < 9 8 | 7.O.O.) 9 : < w q v t.8.{ 9.f.f.h.j.B.B.",
"@ = < !.9XeXwX7X9X7XwX5X0 O 2 3 j a : , , : $ t W W W W ( ( q = @ 9 # r e < < < < : b O.O.O.O.O.| x = > 9 s U 3 U f 9.d.j.B.B.B.",
"+ = K 5XeX7X!.8X9X7X7XU 2 1 3 3 2 2 , , , : @ X $ > 8 % r r 8 + 7 9 @ t t : 8 > < q O.O.@.9.O.O.7.7.{ z * j P 3 2 7 z n O.B.B.h.",
"& a I.I.4. .G I 5.I.P * = : : O : : : : O * : 9 J G w h G q f a a.B o @ > 9 < : 8 Q 9.r.t.d.O.O.r.9.9.9.9 3 9 d ~ s.z.o.z O.h.h.",
"* 3.P S `  . .` S > + @ * : * : : : 2 a s G P f w f G ] ` } v ^ `.a.= = < 8 9 x o.O.0.k.r.d.o.7.9.0.0.7.h K < ^ n.Z.l.{ x d.f.f.",
"@ h f L ` ] _ K h 9 . < s 9 0 s s j f f 0 G G 0 0 G _ x G _ b '.lX1XC d c b _ [ o.d.s.s.k.9.O.d.9.O.d.z k U a 6.z.s.n.z.b } h.j.",
"* f J H } C.T.1.] f * * 9 s a d S S S S w J G w 0 f G f w c '.zXlXlX<Xu.v b _ { 9.s.h.h.j.s.d.k.9.9.0.q j 3 9 [ q.! o.s.6.f f.v.",
": f f ' T.E.M.e.' f < X > 1 1 9 0 0 a f 0 0 s G H G w w f >.xXzXlXbXnX<Xb Q Q | d.f.h.h.h.f.d.d.s.g.f.z 1 v _ b n v b ! N _ g.J.",
"@ w f 1.x.p.t._ h L 8.v . X O , = 1 1 < 9 s w e f G w w q e a.zXlXnXlX2.b b ! ! d.h.s.h.f.d.d.d.v.v.v.9.L 8.f._ b t.J.t.e.J.J.K.",
". 0 s L 7.] G ] c.E.E.1.9 X , 8 > : : : $ : : > < 0 0 8 e 8 8 >.1X1X^ Q b Q Q [ O.f.f.s.h.h.f.d.b.B.v.s.f.g.t.o.v.b.P.T.V.R.R.K.",
"* - 0 s G v e.Q.XXQ.x.{ a : s , 0 0 0 8 0 , $ X : : > < > > : : z i n Q Q Q Q { O.0.f.h.h.j.h.h.v.B.b.f.f.g.r.O.y.c.b.m.V.W..XT.",
"4 u 4 2 f p.E.Q.XXT.1.b f S 4.i.K w y 0 0 0 $ $ 0 w 0 < : : % : f x 9 Q [ ! { 6.o.9.s.h.h.v.h.f.f.j.h.g.f.k.d.r.7.f.m.K.V.{.W.b.",
"; g p p L M.8.e.x.C.L h H h s U.wX4.w w 0 , $ $ y w J w w 0 8 : 0 w q q | | O.0.o.r.f.s.f.h.f.k.0.d.f.9.9.9.r.k.{ f.K.T.m.R.K.:.",
"X 2 = B g C x x v G f f a 9 1 s Y.wXi., 0 $ : : 0 0 0 y 0 y 8 > S w y 9 ` o.<.~ { { 7.0.f.9.9.f.P.W.b.P.m.b.K.J.[ 8.-XOXf.K.<.{ ",
"& & l D.,.u 0 f f s 0 1 D 1 4.G.A F.3.> $ f b q 1 y w 0 0 w 0 > S S f w f w.t.8.7.t.g.9.9.O.f.P..XP.b.W.R.W.W.K.b.t.c.K.} 7.8.c.",
"j 4 Z ,.D.M < < s D Y.3.I.U.F.wXI.0 > : q ~ ~ 6 0 y S S y y 0 : 0 y w S f v 7.O.e.t.t.7.O.| } O.f.e.O.g.W.W.P.W.+Xc._ y.7.~ ~ <.",
"; & p B ! ,.u f !.P !.6XP 5XG.5.wX!.0 : V V ~ i 8 0 w f r S > < A 0 0 f f q } w.w.w.w.w.g.y.r.O.g.b.y.y.H.H.y.P.P.p.) w.{ ~ :.2.",
"g p p ,.M m c v ~.F.D 5Xi.4.5XP I.9Xs u B ! ! { v 1 0 0 0 0 > f J w 0 0 0 > f 7.t.e.y.y.H.c.H.H.R.H.H.w.) H.H.r.e.w.' 1.1.<.<.:.",
"Z M M T M l l ; G.7XK i.6X3.Y.5Xj S : N { B { 1.1.` 9 = > > 1 y f J f , 0 G v H y.e.y.y.y.w.e.y.K.J.H.} q e.H.p.y.7.~ ' 1.8.M :.",
"4 Z Z q = p p : S ).i.j ~.4.P 4.> $ = :.q.B { L b L q w w 8 : : > 8 0 v G b L G O.O.w.O.e.7.O.w.r.P.H.H a { e.t.e.} ' B ~ :.B u.",
"; p m m g i = < 9 s s d v h f 1 9 0 - :.>.:.V v i * 9 f 0 $ 8 0 , 9 f 9 8 > f f O.w.9.| O.} O.7.O.y.5.` i ' 1.{ ] _ ' ~ 8.6.B { ",
"2 & p Z M i 2 < < 9 f z G 1 9 9 9 0 1 m :.6.V l d @ # 8 8 : 0 > , 8 0 > > % < v { ' _ ` | } O.O.r.w.} b z n { 1.} { _ V B ~ ~ q.",
"Z & u Z C l < 9 < 8 9 z 0 < < < < : c M l V N z d X # @ : 9 < < > : : : : : _ } } { ' 1.] 1.@.r.O.` _ H b d H 7.e.` b B ~ 6.~ / ",
"T Z k u u 6 > s w 0 8 9 > : : < > * d B q q q q d * X X $ : # < 8 > 8 0 8 > H _ ' { { 1.1.w.w.e.{ b H b L b b b n c i c ~ o.>./ ",
"; p Z p ; > f x x J f f w w f 9 = a B c d q d z d 9 @ $ : $ X : > 0 w S 0 < < v C L ' ! _ O.O.{ } } ] b x q v b ` b b g c B q.<.",
"* ; p Z 2 a f J J J H v v J f > ; l [ i d d d z i q & X X $ @ : 0 w S G S f w 8 d v N c _ _ { [ _ ! 1.e. .z q q h f a - 6 i ^ c ",
"2 & + ; < x G G b x G x J x s > 6 i V i v d u u 6 6 = X : > : 0 w S G G G G A < d u z z b z n ` { ! ! `  .` H b 9 - - 9 q z b z ",
"+ * & < x L L L H H L G J J f = z i i u v 9 - u g d q = > > f w S J G A 1 , : 7 - 7 6 h z z c _ ! [ 7.{ } } ] N b w q - 7 q i z ",
"+ & O 2 , , O * : : 0 f H v s * b _ i 7 = @ 8 9 a d 6 = o X 9 f J J 0 $ Y 1 1 2 * 9 d L z H _ } O.7.9.7.O._ L b ) b v H b ! q q ",
".   O $ o X X $ O o X O 1 s f > 7 d z a < @ + = 6 a q * X $ : f 0 $ X : A A A F A 3 1 h L L b 7.r.t.t.O.| N v v v z h c n Q [ [ ",
".   o o X : , , , : O X O , < = d ; = d w ; + = = = = + $ $ $ @ @ $ : , , Y Y A A F F j 1 9 9 _ t.7.{ { } 1.1.} v q q v L ` _ L ",
"+ . o   : Y Y 1 , , : O   X X = d = + < 0 9 - = 7 7 = = @ @ @ $ $ # $ : : , , 1 Y Y A A A 1 : > ` 7.w.} _ ! { w.w.] v 7 9 f f q ",
"+ . X , Y A Y , , : , : $ X = 9 = = ; + = f f 7 q a a 9 = = = < * < @ X X # $ $ $ @ $ @ : * : z ` | _ ! _ [ [ | | 1.I f z x f 9 ",
". . , F F F A Y , , 1 $ X = 8 7 = = * . @ 9 9 7 = 9 f s 9 = < 9 u a ; & + < # @ + + + = 8 d d v V V _ ! ! ! { O.9.} ' 3. .H 9 8 ",
". . Y F U F A A 3 < , @ @ = 7 = = # @ + * - 8 # = = = - < = * @ u v a a ; 8 8 7 * = < 8 w f d 6 } _ b _ O.w.O.{ O.} { _ ` b x b ",
"X . @ > 1 0 1 < : : X . @ + * = + = @ + * 9 9 = 8 = = = * @ * @ u k f f = f f 8 * @ : # < q 7 q _ ' } 7.1.} w.t.| } } L z x z q ",
". o o o X @ @ + X O * . . . = = = & @ @ @ * = > = = < < = * * = & - & = + d 9 & 9 * @ = 9 8 a L t.7.` } } w.7.} H v f d x H ` x "
};
