/* XPM */
static char *afd6583221a34882997804f91fb0068dEbVGrhjY57yNzMHl[] = {
/* columns rows colors chars-per-pixel */
"64 64 256 2 ",
"   c #010101",
".  c #03040C",
"X  c #181818",
"o  c #2A292B",
"O  c #1B1C24",
"+  c #006759",
"@  c #147059",
"#  c #0C7169",
"$  c #297A74",
"%  c #474747",
"&  c #6A6B6C",
"*  c #66DB3C",
"=  c #119757",
"-  c #17A55A",
";  c #2BAF50",
":  c #049A7A",
">  c #119C6D",
",  c #17A667",
"<  c #17A578",
"1  c #09A678",
"2  c #2AB476",
"3  c #338871",
"4  c #57BD6C",
"5  c #4EB670",
"6  c #6EB669",
"7  c #57A371",
"8  c #3BC575",
"9  c #3FC856",
"0  c #57CC58",
"q  c #56D55A",
"w  c #53C952",
"e  c #67CB56",
"r  c #69D553",
"t  c #70EA4C",
"y  c #47C769",
"u  c #56C966",
"i  c #4AD267",
"p  c #56D466",
"a  c #51CF75",
"s  c #79DB77",
"d  c #6FD46E",
"f  c #7AE669",
"g  c #76E779",
"h  c #85D974",
"j  c #83E36C",
"k  c #84E86A",
"l  c #86E677",
"z  c #97EE78",
"x  c #A1F07B",
"c  c #364598",
"v  c #346B96",
"b  c #3D4FB3",
"n  c #3E50B4",
"m  c #3C53BB",
"M  c #3C5BB8",
"N  c #3757A7",
"B  c #3B63A4",
"V  c #3D65B7",
"C  c #1A7D91",
"Z  c #49749A",
"A  c #435BAD",
"S  c #485FAF",
"D  c #4452B4",
"F  c #475BB7",
"G  c #5858B2",
"H  c #6159B2",
"J  c #486BA5",
"K  c #4B74A7",
"L  c #4766B8",
"P  c #5364BB",
"I  c #5A68B9",
"U  c #5375B0",
"Y  c #6C77B9",
"T  c #687C9F",
"R  c #3A57C1",
"E  c #3959C4",
"W  c #375DCC",
"Q  c #356AD9",
"!  c #2F75D5",
"~  c #2F6AE4",
"^  c #2C6EEC",
"/  c #336CE3",
"(  c #2C70EE",
")  c #3471E6",
"_  c #2A72F3",
"`  c #2577FD",
"'  c #2876F9",
"]  c #2778FD",
"[  c #2B7AFC",
"{  c #2770F2",
"}  c #357BF7",
"|  c #276EF0",
" . c #1D6EC2",
".. c #466BC3",
"X. c #4676C5",
"o. c #5672CA",
"O. c #6877C4",
"+. c #7178C1",
"@. c #4A7AEC",
"#. c #417AF3",
"$. c #5478E9",
"%. c #5F73D8",
"&. c #AF72AE",
"*. c #CB73AD",
"=. c #D37BB6",
"-. c #FE7FA9",
";. c #F27DAC",
":. c #E87EB2",
">. c #BB7DC3",
",. c #C67DC0",
"<. c #0C9C82",
"1. c #159A82",
"2. c #2F8891",
"3. c #14A687",
"4. c #05A78C",
"5. c #2AB68E",
"6. c #38AEA2",
"7. c #518C91",
"8. c #6E9190",
"9. c #70AF8C",
"0. c #728CAE",
"q. c #72AEB3",
"w. c #53AE9B",
"e. c #38CB8D",
"r. c #47D289",
"t. c #77CC8B",
"y. c #79EB86",
"u. c #7AC7AB",
"i. c #4CD7A9",
"p. c #3483FD",
"a. c #3A83FC",
"s. c #3B8AFC",
"d. c #3186F8",
"f. c #518ACE",
"g. c #728ECB",
"h. c #70B4CD",
"j. c #448AFB",
"k. c #5292F9",
"l. c #508AF1",
"z. c #4FBBE7",
"x. c #6EAFF9",
"c. c #5EA5E0",
"v. c #57C3DB",
"b. c #41C3DD",
"n. c #69C6D9",
"m. c #76C7D8",
"M. c #6AD1D6",
"N. c #5CEED2",
"B. c #66FEDA",
"V. c #70F8DC",
"C. c #4BC9EC",
"Z. c #58C9EA",
"A. c #54D4ED",
"S. c #5BD1ED",
"D. c #5AD3E4",
"F. c #4BCAF4",
"G. c #5BCEF3",
"H. c #58CDF7",
"J. c #4CD6F6",
"K. c #56D2F5",
"L. c #5AD1F3",
"P. c #55D2FB",
"I. c #5AD2FB",
"U. c #5ADBFC",
"Y. c #4CD9ED",
"T. c #66CCEA",
"R. c #75CDE5",
"E. c #68D6EB",
"W. c #75D9EA",
"Q. c #64CBF7",
"!. c #74CCF9",
"~. c #6CDCFD",
"^. c #67D8F6",
"/. c #76DAF9",
"(. c #69E3FD",
"). c #77E6FC",
"_. c #70ECEC",
"`. c #3BC8F5",
"'. c #8898BA",
"]. c #9698BC",
"[. c #8B8CB0",
"{. c #89A5BB",
"}. c #95A3BD",
"|. c #8DB9B5",
" X c #A59FA2",
".X c #D48DB2",
"XX c #FF80AA",
"oX c #F68EAE",
"OX c #EE91B4",
"+X c #DE95A4",
"@X c #90D093",
"#X c #A8F391",
"$X c #94CEB2",
"%X c #AEF0A9",
"&X c #A2E08F",
"*X c #899BC7",
"=X c #949DC5",
"-X c #9A9CC5",
";X c #949DCB",
":X c #9A9CCA",
">X c #9595C3",
",X c #979DD2",
"<X c #888DD0",
"1X c #A596CD",
"2X c #8BA4C8",
"3X c #93A2CC",
"4X c #98A4C7",
"5X c #93B1D0",
"6X c #A6A9D5",
"7X c #A8B5D8",
"8X c #B6B9D8",
"9X c #ABAFC9",
"0X c #8DB7F3",
"qX c #B1BAE4",
"wX c #C3BFDA",
"eX c #84CAD8",
"rX c #92CFCE",
"tX c #ACCFD5",
"yX c #88D7E9",
"uX c #86D9F8",
"iX c #95D9FC",
"pX c #94CEE8",
"aX c #A7C9E9",
"sX c #AFD3F4",
"dX c #86E6FA",
"fX c #97E8F9",
"gX c #9BF7FC",
"hX c #8FECE8",
"jX c #A6EAF8",
"kX c #B6E9F6",
"lX c #A7FAFD",
"zX c #BAFCFE",
"xX c #AEECED",
"cX c #B7E0DA",
"vX c #D2D6D8",
"bX c #D3DAED",
"nX c #CAE7FC",
"mX c #DCE9FD",
"MX c #D7E6FA",
"NX c #CCFEFE",
"BX c #C7FAFC",
"VX c #D4FEFF",
"CX c #DDFEFE",
"ZX c #D7F9F8",
"AX c #D3F0EA",
"SX c #E6E9E9",
"DX c #E8F8E9",
"FX c #F6F8E9",
"GX c #E5EBF9",
"HX c #EBF3FD",
"JX c #E3FDFE",
"KX c #E7F7F9",
"LX c #FEFFFE",
"PX c #F4F8F9",
"IX c #F2EDEF",
"UX c #DCECDD",
/* pixels */
"Z.~.H.z.Q./.h.hXeXi.D.(.`.^.H.x.T.Q.Z.G.H.P.U.F.K.K.L.S.S.L.K.S.A.S.T.Q.!.x.I.I.K.K.S.S.S.A.Y.J.P.I.Q.S.S.D.D.S.^.K.H.I.P.F.A.A.",
"Z.^.I.~.Z.h.zXNXNXpX).z.G.H.I.L.T.E.T.^.I.F.P.F.K.K.L.L.L.L.H.L.A.S.G.Q.Q.Q.H.G.H.K.S.G.L.S.K.J.P.H.H.S.Z.T.S.S.C.(.I.F.I.^.D.E.",
"K.b.U.H.z.jXCXGXKXHXCXq.E.E.D.D.gXfXm.v.T.G.K.H.L.K.L.L.H.K.K.K.A.A.A.K.P.z.X...c.Z.S.L.G.L.L.K.P.P.K.L.I.H.P.P.J.J.J.J.Z.v.n.yX",
"A.Y.(.T.fXNXJXIXIXIXJXkXeXv.M.gXBXBXyXm.R.^.Z.K.K.K.L.K.K.K.K.J.A.Y.Y.J.F.z.b D X.Q.L.K.L.G.Q.I.J.P.P.I.H.H.P.P.U.`.J.U.T.W.zXBX",
"D.E.v.yXVXnXIXLXGX+.O.2X|.rXBXNXNXVXxXm.n.T.Z.Q.L.K.P.K.K.K.K.K.K.Y.C.! X.W D n X.L.K.K.P.I.Q.Q.P.K.K.H.I.I.P.P.F.F.H.v.h.jXJXAX",
"M.R.m.jXJXmXIXFXvXF m Y cXCXKXJXCXCXNXjXdXdXT.G.K.K.K.K.K.I.H.H.A.A.v.F D D n n f.A.Y.J.J.P.Q.Q.K.K.K.K.H.I.P.I.P.^.T.m.xXVXDXUX",
"h.jXVXCXmXPXFXFXvXP D S O.Y 4XPXDXZXNXBXzXlX~.C.K.I.K.K.K.K.K.Z.X...O.*.*.&.D n ! Y.Y.J.J.J.Q.Q.Q.T.S.S.G.K.Z.S.v.m.eXtXJXKXUXFX",
"$XVXnXJXPXFXIXFXvXI D D n b <XSXAXrXpXeXR.T.G.U.P.P.K.K.L.G.Z.Z.L m H ;.XX*.D n f.Y.Y.Y.Y.K.G.Q.G.S.S.A.A.S.T.M.yXjXBXJXJXDXDXFX",
"bXJXAXPXUXSXg.O.Y =.=.&.b b <XbXtXeXh.n.T.G.H.I.P.P.K.K.Z.f.....^ ^ $.;.-.*.D n f.D.v.D.Z.T.T.G.G.I.U.K.C.D.W.n.zXVXCXJXCXAXAXKX",
"GXPXIXFXFXUXP b H ;.XX*.D m g.AXBXBXgXR.Z.^.I.`.P.P.L.K.z...m m ( [ $.;.-.*.D n X.n.R.lXfXT.v.S.P.P.C.F.S.v.v.dXzXBXBXnXBXVXVXxX",
"JXJXDXUXFXUXP b H ;.-.*.) ^ @.O.I h.dXQ.G.I.U.U.P.K.f.L ../ | @.>.=.=.-.-.*.D n o.pXnXJXVXjXdXE.J.U.P.F.(.^./.gXlXlXlXyXyXjXiXm.",
"BXVXAXDXDXUXP b H ;.-.=.[ ` ~ b b f.Z.^.H.F.F.^.K.K.X.m m _ ` #.:.-.-.-.-.*.D n g.ZXPXGXKXCXBX_.K.F.I.H.C.Q./.T.W.W.T.M.T.R.T.!.",
"_.hXrXJXDXSXP b H ;.-.,.[ [ ~ b n F L ....X.........) ( _ ' [ #.:.XX-.-.XX*.D n g.JXPXPXLXCXNXrXE.T.^.~.!.^.~.^.E.D.D.E.^.G.Q.~.",
"E.M.rXJXZXAXP b H ;.-.,.[ [ ~ m m m M m m n M M n m ( ] ] ] ` #.:.-.-.-.XX*.D n g.KXFXPXPXDXKXxXeXfXuXn.E.^.Q.^.(.^.E.^.~.^.I.I.",
"(.W.hXNXNXsXF b H ;.-.,.[ ` ' ^ _ ( ( ( ( ( ( ( ( ( ' ] ] ] ` #.:.-.-.-.XX*.D n *XFXDXDXAXDXKXJXAXCXBXyXW.).^.^.E.E.E.E.E.(.(.U.",
"~.W.dXzXjXeXL b G :.;.,.[ ` ` [ ] ] ] ` ` ` ] ] ] ] ] ] ] ] ` #.,.XX:.XX-.*.D n g.ZXcXZXAXAXZXAXNXBXzXlXyXW.uXdX/.W.W.)._.S.^.(.",
"W.E.W.).dXR.F b F $.$.#.[ ` ] ] ] ] ] [ ` ] ] ] ` ` ] ] ] ] ] [ @.$.%.;.-.*.D n g.xXxXlXhXhXfXhXdXE.E.M.yXaXnXVXjXm.W.E.(.(.(.(.",
"W.).(.^.E.T.F b R ' ` ` ` ` ] ` ] ] ] ] ` ] ] ] [ ] ] ] [ ] ] ] ] ] @.:.;.,.D m f.eXR.W.W.W.W.^.D.).E.dXeXmXMXbXCXyXW._.E.(.(.~.",
"!./.~.^.~.^.L b R ' ] ] ` ] ] ` [ ` ` ] ] ] ] [ ` ] ` ` ` ` ` ] ] ] [ @.@.@._ ( Q ....c./.~.~.).).W.W.yXkXnXHXGXmXkXn._.E.(.~.Q.",
"/.~.~.(.).R.L D R ' ] ] ] ] ] [ ` [ ] ] ] ] ` ` ` ` [ [ [ ` ] ] ] ] ` ` ` ` ] ] ~ D D f.(.(.~./.W.R.yXxXNXnXMXSXCXJXeXyX_.U.dX~.",
").^.)._.M.m.P N R _ [ ] ] ` ] ] ] ] ` ` ` ` ` ` [ ` [ ` ] ] ` [ ] ] ] ] ] ] [ ] ~ b b f.(.(.~./.uXsXkXnXCXCXmXMXGXPXxXeX_.E.)./.",
"(.(.(._.M.hXP D R } a.} ] ` [ ` ] ] ] [ } a.a.a.} } [ ` ] ` ` ` ] ] ] ] ] ] ` ` ~ D n c.).~./.iXpXpXsXmXMXnXAXMXHXHXJXyXdX)./.).",
"/.)._.W.gXkXI b I MXGXsX[ ` [ ` [ ` ] [ 0XmXmXmXmXMXk.` [ ` ` ` ] ] ] ] ] ] ` ` ~ n n f.uXuXiXpX'.'.'.GX4XtX}.9XwXvXnXaXyX).E.).",
"uXdXW.W.lXjXP b I bXIXsXj.a.} [ ] [ a.a.0XIXSXSXSXSXx.p.a.a.p.} [ ] ] ] ] ] ` ` ~ M m g.eXiXaX{.4X].4X9X[.}.9X X].6X7XsXiXyX).).",
"iXuXuX/.dXyXF n c o o & bXGX0X[ ` x.mXGX8.o o o o o 9XHXmXmXmXnXj.` ] ] ] ] ] ] ~ n n f.fXpX2X2X-X-X=X}.}.}.].].].4X7XaXiXiXuX).",
"iXiXuXdXdX!...b c . . o PXLXsX} ` 0XLXLX&           9XLXLXLXLXGXj.` ] ] ] ] ] ] ~ n n g.rX5X'.-X1X-X=X=X=X-X4X-X4X3X,X5XaXiXuX).",
"uXfX).~.(.W.L n c .   % IXLXsX' ` 0XLXLX&           9XFXLXLXLXHXa.` ` ] ] ] ] ] ~ n D f.h.h.'.=X-X-X=X3X-X-X-X=X3X*X*X6X0XaXuXdX",
"~.).)./.!.!...m c O X % PXLXsX' ` 0XLXLX&.X X X X X wXLXLXLXLXGXj.` ] ] ] ] ] ] ~ n m O.h.h.5X*X:X:X;X;X;X:X;X;X*X*X3X7XqX5XyXfX",
"_._.E.f.P ..( _ l.vXvXSXLXLXsX' ` x.LXLXSXvXvXvXUXvXIXLXLXLXLXGXj.` ] ] ] ] ] ] ~ b n O.,X*X3X*X;X;X;X;X:X:X;X;X3X3X6XqX6X6X5XyX",
"_.(._...D m ' ` j.GXPXLXPXPXsX[ ` 0XHXGXHXHXHXLXLXLXLXLXLXHXGXnXs.` ] ] ] ] ] ] ~ n n +.,X,X;X2X2X;X;X:X:X:X;X;X3X*X:X6XqX7X5X5X",
"(.).dX..b m _ ` s.uXiXaXOXOX6X' ` } j.j.j.j.j.sXLXLXLXLXPXx.a.j.] [ ` ` ] ] ] ] ~ n b +.,X,X3X2X2X2X:X1X1X:X;X2X;X>X].-X9X7X7X7X",
").).yXU b m _ ` s.!.!.0XoXoX1X$.} _ [ ` [ [ [ aXHXHXGXHXmXk.[ p.p.p.p.[ ] ] ] ] ~ b n Y 1X1X>X3X2X*X:X1X:X:X;X2X3X-X-X].}.4X7X7X",
"hXyXpXo.D R _ ` ] p.#.l.OXOXOX.XOX<X[ ] ] ] ] a.j.j.j.j.j.Q.!.!.!.!.x.p.` ` ` ] ~ D n Y :X1X-X3X3X3X,X,X6X:X:X:X:X>X>X[.4X4X0.9X",
"eXpXaXO.F F ( ' ' [ [ $.,..XOXoXoX<X` ] ] ] ] ` ` ` ` ` p.x.!.!.!.!.Q.] ` ` ' [ / F F +.:X-X-X=X3X,X*X,X:X,X:X:X:X].9X6X-X6X5X2X",
"pXaX7X;X>X<XF D W ' ' } #.#.<XoXoX>.` ] [ ` ] ] ] ` ] ] ] d.a.p.p.p.p.` ` ^ m m I >X>X=X-X-X-X-X;X;X;X:X1X4X:X:X6XqX6X].6X7X6X7X",
"aXqX3X3X1X>XI G F ^ _ ' [ [ $..XOX%.` ] ] ] ` ` ] ] ` ` ` ` ` ` ` ` ` _ ' ) P P Y -X=X:X:X;X-X-X-X-X=X;X4X:X-X:X>X6X[.Y 6X8X7XaX",
"sXqX:X1X9X1X].].*XF m W ` ` [ #.} } ` [ ` ` ` ` ] ] ] ] ` ` ] ] ] ] | R m O.bXbX8X4X:X:X;X,X,X,X:X-X-X=X=X:X4X;X>X'.Y [.>X6XqX6X",
"qXqX8X6X1X].1X}.2XP P ..{ _ _ _ [ ' ' { ' _ ' _ ' _ ' _ _ _ _ _ _ _ / P P g.IXSX8X=X:X:X;X,X,X,X:X-X-X=X>X*X*X*X;X'.[.0.'.3X6X6X",
"9XwXwX8X9X].9X'.q.5XvXqXF R m m m m m R m m m m m m m m m R m m m m O.bXSXSXPXSXtX=X=X4X=X;X,X,X=X:X:X3XI F P g.0.T 0.T 0.3X=XqX",
"wX9X8XwX8X}.|.7.2.|.cXqXR m b b N b N N V L V L V L L L L M m m m R o.bXbXGXIXSX9X}.{.'.4X*X*X*X*X*X*X<XP M M 0.0.0.5X{.0.'.{.}.",
"9X9X8X8X9XaX7.2.C J F ..' '  .+ + + + + 6.N.N.N.N.N.N.N.N.a.' ' _ _ ^ P F <XIXSX|.}.8X{.'.5XY F F ) } } [ _ _ M M M 2X5Xq.0.|.{.",
"].].aX8XrXq.$ $ 2.M m W ] ] ! $ $ # + + 6.N.N.N.B.B.V.V.V.s.` ` ] ] _ E R O.bXbXtX7 8.8.{.'.T F S Q ' ^ ' ] ' W m M Z $ 7.5XtX$X",
"].5XtXh.6.2.N N M _ { ' ] ] x.SXGX|.+ + # # # i.B.B.BXKXKXj.' ` ] ] ] _ _ / P P *X@X7 8.|.cXtXtXtXI m R ( ] ` ' ' ( L F f.rXrXtX",
"}.2X5X6.C C M E W ' [ ] | | x.PXLX|.+ + # # # i.B.B.ZXLXPXk.' ` ] ] ] ] ` ^ R R 0.$X%X%X@X@X@X@X$X0.J P ) _ _ ' ` _ m b J $XrX$X",
"q.2.7.A F m ^ ' _ ] [ ^ R b <XLXLX|.+ + 5.B.N.N.B.B.ZXLXHXk.` ` ] ] ] ] ] ] _ _ ~ A L 9.&Xl #X#X&X@X9.9.U m m _ ` _ R n I $XrXu.",
"3 @ @ B D R { [ ] _ { ~ b b g.LXLX|.+ + 6.V.V.B.B.B.AXLXHXk.` ` ] ] ] ] ] ] ] ] ~ n n 8.x x x z #X%X%Xh K n m ( ` _ m b U u.u.u.",
"= = > A n m _ ` _ R m b b b <XLXLX|.+ + |.PXLXhXB.B.ZXLXHXk.` ` ] ' [ ] ] ] ] ] ~ b b 7.e d #X%Xz x #X#XT n m ( ] ' M n V u.u.u.",
"- ; 2 L D m ^ _ ~ E R R R R g.bXGX|.3 $ $XLXLXlXV.hXZXLXHXk.` [ | _ _ ] ] ] ] ] ^ R R 7.w 6 y.d z z k f K n m _ ` _ m n K 9.9.t.",
"; ; u J b b m m E { ' ' _ ' Q P F ,XDXKXPXLXLXPXHXPXLXLXHXk.` _ E m E ' ] ] ] ] ] ' ' Q A A 7 e e e e e Z n m ( [ _ m n U @X%X@X",
"; ; y v B J J J L ^ _ ' ] ` ~ n b ,XLXLXLXLXLXLXLXLXGXmXMXj.` ' E m W ( _ _ ] ` ] ` ` Q b b 7 e e e r e Z b m ( ` _ m n Y &X%X&X",
"; w g y.y.y.s u 5 F m W ' ` ~ n n ,XLXLXLXLXLXLXLXLXx.} a.] ] ] ' ' ^ m m W [ ` ] ] ` Q b b 7 k j r * w Z b m ( ] _ M n H 6 6 h ",
"y.g l g g d u u 7 E m W _ _ ~ R E g.mXmXMXMXmXmXMXMXk.{ | [ ] ] ` ` _ n D E ^ _ ^ ^ _ ..J J 9.f k k k t Z n m _ ] ' m n J 6 e h ",
"f g g y.y.t.J n L _ ' ^ m n Q _ ' [ a.p.p.a.a.p.} p.W D R | ` ` ] ] _ m b n m m m m m 7.l h f j f r f f 7.m m ( ` _ b D Z h k * ",
"q w u 4 9.w.V m W ' ` ( R R W ^ { | ( ( ^ _ | | _ ^ W R E _ [ ` ] ] _ n n n n n D J Z 7.e f g j @Xh t.t.K R E _ ` { m b H * * t ",
"p a a K B M _ { ' ` ` ' ' ' ~ m M b m n m m m m m m ~ ` ' [ ` ` ] ` ( m D n m A Z u 0 u 0 0 0 e d 7.D D ( ' ' ` ] ' D b T * * t ",
"y a 5 B n m $.l.#.' ` ' _ ( Q J J J J J S b b m E E ^ [ [ ` ` [ _ | ) E E E M E v 5 4 u 4 5 4 u 6 7.E W ( ` ` _ ( ) B Z T * * * ",
"2 2 2 N c G .X+X.X[ ` ( m n Z u q p u e 7.m b Q ' _ ' ] ] ` ` _ R m E _ ' ' ' ' Q A A A A n A A A Q ' ' ` ` ' R n L d d 0 w r r ",
"e.1 < v N J  X+X X) _ Q J J 7.y.p p p p 7.D D X.l.@.[ ] [ _ ^ ) K K U ) ^ _ ` ` ~ E E E M E E R E ^ ] ] _ ^ ^ J J 7.@Xl j s r e ",
"1 > 1 3.3.< J D D b n B u u a g g i i i 7.F n &.+X+Xl.' ' E m L s h d D M W ` ` ] ' ' ' ' ' ' ' [ ] ` [ W m F @Xh h l l g &Xg s ",
"4.1 4.<.: 1.v B B B B 7.y 8 y 8 i i p p 7.v J [.+X+X%.( ^ V J 7.h l t.K K L ^ _ ( ( ( ^ _ ( ( ( ( ( ( ) L J Z d l l f f l l l l ",
"4.4.<.: 1 2 e.r.r., = , = , < , ; w i i i i y 7.c A m m V 5 q q p d d d s 9.F m D m n m n m m m n n n M 9.l l l k k k k k k k j ",
"4.4.4.5.e.e.r.r.i.r.e.e.5.: 1.> 2 a a a i i 8 7.B B J J Z i i i a a a y a 5 K J J J K J J Z J J J J J K t.j j j j k k k k k j j ",
"<.: : 1 3.> < , 8 8 e.e.e.e.3.3.> 3.5.< , , > = , 2 r.r.e.e.8 - 8 8 a 8 5 5 5 a u u u q p 0 w q s g s l l l j j k k k k j h h z ",
"1 3.3.: 1.< < , , , > = 3.3.: <.<.1.: <.1.3.1.< < > < 5.< > = 1 = , - - - - - ; y y y q q q q t q r r f j j j k k k k l l l h h "
};
