/* XPM */
static char *wall1678133717[] = {
/* columns rows colors chars-per-pixel */
"64 64 177 2 ",
"   c #170E2D",
".  c #180F2D",
"X  c #17142F",
"o  c #19112E",
"O  c #16192F",
"+  c #171730",
"@  c #1B1333",
"#  c #151B32",
"$  c #1B1935",
"%  c #1D163A",
"&  c #161E3C",
"*  c #1D1A3B",
"=  c #201734",
"-  c #231A35",
";  c #281E37",
":  c #211A3D",
">  c #281E38",
",  c #142335",
"<  c #122836",
"1  c #15243B",
"2  c #132A3C",
"3  c #262036",
"4  c #2B2037",
"5  c #23213D",
"6  c #2B223A",
"7  c #30273C",
"8  c #372D3F",
"9  c #1B1641",
"0  c #171E45",
"q  c #1C1A43",
"w  c #1C1C4B",
"e  c #1E1E53",
"r  c #221E43",
"t  c #201C4B",
"y  c #201F54",
"u  c #162542",
"i  c #1C2145",
"p  c #152B44",
"a  c #1B234C",
"s  c #17294A",
"d  c #18284B",
"f  c #1C2353",
"g  c #192850",
"h  c #1E235B",
"j  c #232146",
"k  c #2C2B47",
"l  c #24244B",
"z  c #2A2449",
"x  c #24294B",
"c  c #2B2B4A",
"v  c #352D43",
"b  c #392E40",
"n  c #363046",
"m  c #3D3344",
"M  c #3A354A",
"N  c #242750",
"B  c #252A54",
"V  c #2A2C51",
"C  c #252E5A",
"Z  c #273255",
"A  c #293457",
"S  c #25315E",
"D  c #2A355C",
"F  c #2C395E",
"G  c #343652",
"H  c #383B54",
"J  c #353A5C",
"K  c #263461",
"L  c #283762",
"P  c #273865",
"I  c #2A3A65",
"U  c #2B3D69",
"Y  c #323C62",
"T  c #403644",
"R  c #423846",
"E  c #463D4B",
"W  c #443C50",
"Q  c #2E4167",
"!  c #2D426D",
"~  c #354163",
"^  c #3B4363",
"/  c #3E4966",
"(  c #32446C",
")  c #3A476A",
"_  c #36496F",
"`  c #3B4A6D",
"'  c #2F4671",
"]  c #2F4874",
"[  c #304772",
"{  c #324A75",
"}  c #3C4F73",
"|  c #334E79",
" . c #3B5175",
".. c #35537D",
"X. c #3A557C",
"o. c #3D587E",
"O. c #4A414E",
"+. c #51464F",
"@. c #53484F",
"#. c #4D4551",
"$. c #514750",
"%. c #544951",
"&. c #594F55",
"*. c #554E5A",
"=. c #5C5357",
"-. c #50505F",
";. c #5C555D",
":. c #5E585E",
">. c #62575A",
",. c #64595B",
"<. c #695E5F",
"1. c #434A64",
"2. c #494D64",
"3. c #424D6B",
"4. c #4D5167",
"5. c #47526D",
"6. c #4B526B",
"7. c #525367",
"8. c #5A5560",
"9. c #5C5A64",
"0. c #525569",
"q. c #565A6C",
"w. c #5C5C6B",
"e. c #445574",
"r. c #4C5771",
"t. c #475976",
"y. c #4D5C75",
"u. c #435779",
"i. c #425B7D",
"p. c #4B5E7A",
"a. c #545D72",
"s. c #635D63",
"d. c #685F60",
"f. c #5E606E",
"g. c #47607F",
"h. c #4E627C",
"j. c #5D6372",
"k. c #53647C",
"l. c #59677B",
"z. c #57687E",
"x. c #5C6B7E",
"c. c #656267",
"v. c #6E6463",
"b. c #63626D",
"n. c #6A676D",
"m. c #6D696C",
"M. c #716764",
"N. c #726966",
"B. c #746D6B",
"V. c #75706F",
"C. c #626672",
"Z. c #646974",
"A. c #6B6B72",
"S. c #626D7B",
"D. c #686E78",
"F. c #726F71",
"G. c #6E7176",
"H. c #65717F",
"J. c #6A737E",
"K. c #757273",
"L. c #73767A",
"P. c #75787B",
"I. c #797A7B",
"U. c #847B73",
"Y. c #817F7B",
"T. c #375780",
"R. c #385781",
"E. c #375A84",
"W. c #3A5C85",
"Q. c #425E82",
"!. c #446184",
"~. c #4C6583",
"^. c #516781",
"/. c #546982",
"(. c #5B6D81",
"). c #677380",
"_. c #697480",
/* pixels */
"% % @ + u s & . @ @ % : % % : @ % % : : @ : % % @ o & % . o o @ : : % @ % % : : r @ @ % % . % % % % : % % - % % - % % : @ @ + u ",
". . o & f e r .   .     .   . .     . . # + o @ @ 6 @.O.c % @ @   % # & * o . @ @ o . 9 %       . . . .     .     . . . . . u f ",
"%.R . % w % @ @ E %.%.%.%.%.%.%.%.H j @ u 1 o @ k 9.J.J.j.;.=.A % q s d q .   8 %.%.%.%.$.%.%.%.%.M x D Z D D D C c +.%.b   % w ",
"J.4.A j + & @ E Z.C.D._.H._.J.J.J.t.S % q @ @ c b./.W...k.J.H. .Z % w 9 7 %.%.b._.J.J._.J._.D._.J.r.U [ ] ' ' ] { f.J.D.2.A 5 X ",
"......x & w E C.} { W.W.E.W.W.E.E.! l @ @ @ c f.z.W.W.' r.J.g.I D @ @ 4 9.H.J.~.W.W.E.W.E.W.E.E.E...I S 2.s.w.s.b.(.W.T...| j 1 ",
"W.W.( % % @ <.y.] W.W.W.E.W.W.W.W.! l @ . % ^ I.W.W.W.p.Z.H. .S r o ; 8.z.W.W.W.W.W.(.J.J.J.J._./.E.y.b.S.).)._.(.W.W.W.W.I @ % ",
"W.T.I j @ o <.1.U E.W.W.W.W.W.W.W.Q l @ o V w./.W.W.^.J.!.E.U C j o 8 P.W.W.W.W.W.(.J.H.).(.).).p.| /.).!.W.E.E.W.W.W.W...K r @ ",
"W.X.! B % o <.y.{ E.W.W.W.W.W.W.| K l @ @ J I.!.W.^.J.~.W.W.U S r . 8 P.W.W.W.W.(.S.Q.W.W.W.W.W.{ [ E.E.W.W.W.(.} W.W.W...U l % ",
"W...U N = o d./.E.{ R.W.W.W.W.| [ S : @ - w./.W.W.(.J.W.W.E.U C j @ 8 L.W.W.W.(.).!.W.W.W.W.W.W.R.[ | W.W.W.(.l.I [ E.W...P N = ",
"W.| S B % o <./.E.| E.W.W.W.| r.5.B @ @ > B.!.W.W.x.J.W.W.W.U C r @ r *.(.W.W.L./.E.W.W.W.W.W.W.E.[ I ..W.).S.Q.[ L { W.{ C N % ",
"{ | C l % o ,.r.R.W.W.E.W.W.{ s.0.l % 9 > F.Q.[ E.S.J.E.W.W.U S j @ % b P.W.W.L.(.W.W.W.W.W.W.W.W.R.{ [ X.I.~.E...K K { { B r % ",
"K U B r - o 1.( U T.[ [ W.| 5.S.` l @ w r r.U U W.!.t.| W.W.P N r @ # m _.W.{ A.(.W.W.W.W.W.W.W.W.W.| K U L.~.E.U K C P P N r % ",
"S S B r @ o Q U L ..| ..W.{ q.).' l @ % - { K U W.W.] I | [ C Y j @ 0 m J.W.[ Y ) U T.W.W.W.W.W.W.W.[ S S ^ ( U S S S S S N r : ",
"C l l : @ o C K S U R.W.T.3.Z.e.C : @ @ % K S K [ W.T.U I K ( A % @ % c t.Q P C C K P ! R.E.W.W.| U P S S C C S S S S C l r : @ ",
"j : @ $ < + @ l C S I U I Y Y P l @ q 1 w * l S L U U L C B K j + < , @ i * r l C S S C U I U U P C C S S S S C S S C l - @ + < ",
"@ @ o # p e % @ r l l z t l t l * @ 9 a q @ @ t l j l j l j j % 1 d % % q @ @ @ q l l l l l l r l l l l j l l l l l q @ @ . , s ",
"o @ @ = $ : = o @ @ @ @ @ @ @ @ @ @ @ - : = @ = = $ @ @ @ @ @ @ w 9 = $ - - @ o @ $ @ @ @ @ = = - - = - = % $ @ @ @ @ o = = $ - ",
"b M.N.B.N.N.N.n @ @ 0 2 1 q @ % = - =.B.N.M.N.N.w.A @ # i e - = - v v.B.N.N.E o q 1 1 $ @ 7 M.M.N.N.M.M.5.! 5 o 1 0 o m N.N.N.N.",
"A.p.e.~.e.e.h.X.( * % a * $ = = #.B.x.~.h.3.3.p.) ! V q q : ;.B.N.m.^.~.~.^.i.P q w & @ 6 c.p.e.^.e.^ 3.X.[ ~ % 2 w m Z.t.t.^.5.",
"!.R.X.W.' P U ..! U % % @ m B.q.i.~.Q.E.E.......P E.F . @ &.4.g.~.~.W.W.W.W.W.' * @ @ 4 c.p.( R.E.[ U T...U B @ @ n Z.!.E.E.E.! ",
"W.W.W.W.E.....E.P N @   b s.e.!.W.W.W.W.W.W.W...L ' S . %.7.{ E.W.W.W.W.W.W.W.! l @ @ c.^.W.k.C.U P { E.E.U r @ 4 m.~.W.R.W.W.R.",
"W.W.W.W.W.o.W.E.I r @ o m n.[ W.W.W.W.W.W.W.W.W.{ C r . >.0.P T.W.W.W.W.R.E.W.! l @ - B.!.~._.!.T.[ S | R.I r @ 7 L.W.W.W.W.W.W.",
"R.R.R.W.| I ..R.P j + # m L.W.W.W.W.W.W.W.W.W.W.| B : . >./.T.T.E.W.W...I ! [ S j @ - B./.L.~.W.E.| S L | U r . 7 K.W.E.o.W.W.] ",
"U P ! W.E.! | R.P r % w m G.E.W.W.W.W.W.W.W.W.W.| B = . >.(.E.[ R.W...[ | K K B = o = B.(.I.W.W.W.R.U L | U t @ 7 G...I K { W.W.",
"| P ( W.T.T.! | I r @ % m n.] W.W.W.W.W.W.W.W.W...B % o >./.E.R.W...3.D.W.[ S l @ X = B./.I.W.W.W.W.' ] R.U r @ 5 g.E.] P { R.o.",
"..R.R.| K [ ! | I r @ @ m n.' E.W.W.W.W.W.W.W.W...B % o >.6.| W...I 2.J.W.| K N @ & 1 m.k.I.Q.W.W.W.' { R.I t   7 G.o.o.E.W.' K ",
"! ..o.! S K K { P r . + m n.[ W.W.W.W.W.W.W.W.R.| C : . >.2.K ] I 1.D.!.W.W.[ l % q * } ) D.Q.R.T.T.' { Q S r @ 6 n.P ! E...! S ",
"S S P K S S S S S r + & M s.( E.W.W.W.W.W.W.W...Q U %   *.3.S K Y K.!.E.W.E.( l @ + @ ! K Y R.| I K ! ! S C r @ 5  .S S K K S S ",
"P S S S S S S S C r @ w x { ! E.W.W.W.W.W.W.R.| S C % o j S C S Y n.o...X.] B % @ , & N C S K U ' C K K S j @ . * Q K L S S S S ",
"! S C C C S S S j @ @ @ x { ! ( ] W.W.W.W.W.| D S l % o + - B B C D S C C C l @ 1 a : @ r B C C C C C B C r @ @ @ @ B Q C C C C ",
"j r : * r N C C q @ O + j Q S S S K [ ....| K S C - @ 1 & @ % r r : q : : r %   q 9 @ .   q : r : r r r q @ @ a 2 @ @ r * r * r ",
"o @ @ @ . @ r : @ + 2 1 o @ l l B C C C S S C C l : # g y % @ @ % @ % @   ; b b b b b 8 8 v x * .   + + + @ @ 2 f * @ @ @ @ o o ",
"% 9 @ . @ % @ @ @ u f t % @ @ : : * r * r : : r %   % e 9 @ @ @ 0 s w @ - &.P.L.I.P.P.B.F.D.| I @ @ 1 p p a % 1 w % @ @ 9 @ . % ",
"b b T T l w * @ @ q % @ @ @ o @ @ @ X O + % . = b m b m m m k j % q % > *.x.W.W.W.Q.W.( ( ..U L j # s h y % . @ @ = m m n m b l ",
"P.P.P.P.8.c j x j x c m T v j j * @ < p p w = O.n.F.I.K.B.n.p.{ x @ @ O.Z.W.W.W.W.W.W.E.W.W...B % & d y 9 @ b T m #.L.I.P.P.P.*.",
"Q.W.W.W.x.p.| | ] |  .A.P.(.~./.^ $ # f e : E C.I | W.[ P ! ..U I @ 8 m.( W.W.W.W.W.W.E.W.W...B % % r : @ b A.P.P.J.W.W.W.W.W.S.",
"W.W.W.W.W.( S U ! ! ! ' E.!.).I.h.D $ q : E D.R.{ W.W.| ..E.E.I r o b m.| W.W.W.W...k.Q.W.W...C : . @ @ b b.!.W.W.W.W.W.W.W.W.Q.",
"W.W.W.W.E.| ! ..W.W.W.E.Q.)./.W.Q U j % > K.!.E.W.W.W.E.W.E.W.P r o 8 L.W.W.W.W.W.( F.~.W.W.| B : @ % @ d./.W.W.W.W.W.W.W.W.W.E.",
"W.W.W.W.E.E.h.o.E.W.W.W./.L.W...D l % @ ; B.!.W.W.E.~.x.~.E.W.I j + 8 K.X.W.W.W.W.U w.(.W.W.| C % 9 t @ d.^.W.W.W.W.W.W.W.W.W.W.",
"W.W.W.W.E./.J.e.' | E.W./.P.W.{ l r @ @ > F.!.W.W.E.).Y.y.R.R.P r   8 m.! W.W.W.W.U K P.~.W...B : % 9 b b.~.W.W.W.W.W.W.W.W.W.W.",
"W.W.W.W.^._.~.W.{ I R.W./.P.R.U l r @ @ > V.!.W.W.W.H.C.P | E.I t   8 n.! W.W.W...P L K.~.W...B - o @ >.(.W.W.W.W.!.W.W.W.W.W.^.",
"W.W.W.W._.(.W.W.R.U T.E.~.k.U S N r @ o 3 V.Q...W.W.^.5.P R.E.I r @ 8 m.( W.W.W.! S 4.D.Q.R.{ P * o o >.(.W.W.W.E.| | W.W.W.Q._.",
"W.W.W.W._.(.W.W.E.U R.E.T.] P K N r : u 6 V._ U E.W.E.| R.W.| K r   8 m.( E.W.W.U D K.~.W...P U : .   2.~.W.W.{ ' S U W.W.W.W._.",
"W.W.W.W._.(.W.W.{ P R.E.! I { P l r @ 9 : q.K I W.W.W.....| K C j o 8 m.' ....W.U S 0.x.R.' L B * % % S ] E.R.P S S U W.W.W.!._.",
"[ | W.E./.t.[ ..P K ' ! S S I L l r @ @ $ U S P ' | W...[ P S N * . b m.I U I ' { P J F.} C C l @ % % % l L ( K K C P ] ..W.W./.",
"C L [ [ [ P S U K K C S S S C l r - @ # @ q B x B I ' ' I S S l @ + ; H B B C C U P K 0.w.K B : . + #   @ : l N B K C C I [ [ [ ",
"N N N N N N N S K C S S S C l : % @ # u % @ @ @ : l N l l N l * , s 9 @ r l l N N N N N W V r @ + u 0 . . : r r r N N N l l l N ",
"% % = @ % = : r N l N N l l $ @ @ + s w % @ = @ @ : @ : @ % @ @ # q %   . % = % : @ = % : % % . & w r @ . @ : @ % % = @ : : @ : ",
"  . . . + , + @ % @ @ @ % @   @ @ @ * @ @ @ @ @ . . O , 0 % @ = &.>.>.,.>.R   @ o   9 & , @ . . @ % @ . . o o . . . @ . . . . + ",
">.,.-.x * f w % + o ; =.,.,.,.>.>.>.G D ~ ;.,.>.,.E o u a - +.,.S.).(.(.(.C.>.,./ N 0 a a : 6 >.>.,.,.,.G L ;.,.,.,.>.,.>.2.j u ",
"b.Y.p.V @ t t % @ &.M.U.0.a.(.(.(.(.) U Z.q.x.l.4.5.x % % #.x.(.W.Q.l.U U e.(.(. .V % e q 6 :.0.a.(.(.(.` j.w.0.S./.0.n.I.u.l @ ",
"A.~.{ N @   = %.3.k.l.1.I ..E.E.E.{ L F K.o.E...S S j o O.j.!.W._.L.k.| ' P | W.U j % % > s.p.P R.E.E.E...5.w.} E.| Y A.~.' j @ ",
"~.W.{ B :   $.U.~.W.E.....W.W.W.{ P w.A./.Q.E...K B = . >./.W.J.(./.E.W.E.( P | ! x : - >./.R.X.W.W.W.W.W...e.W.W.Q.A.~.W.' N @ ",
"W.W.| N : . d.).W.W.W.W.W.W.W.| K 0.S./.Q.W.W...K B : . ^ !.!.I.~.E.W.W.E.E.U P ' K r > K.!.W.W.W.W.W.W.W.W.P T.W.!.~.W.W.{ l % ",
"W.W.| B @ . d./.W.W.W.W.W.W.W.' 0.S.!.W.W.W.W...S B % o I [ Z.x.Q.W.W.W.W.W.T.U P L l > K.Q.W.W.W.W.W.W.W.W...( E.E.W.W.E.[ l % ",
"W.W.| B = . d./.W.W.W.W.W.W.W.' C.(.E.W.W.W.W...K B % o Q ( V.~.W.W.W.W.W.W.W.[ C C l 6 K.Q.W.W.W.W.W.W.W.W.R.U E.W.W.W.W.[ N @ ",
"W.W.| N @   / !.W.W.E.W.W.W.W.{ b.x.E.W.W.W.W...S B % o I ( m.~.W.W.W.W.W.W.W.R.U S r > K.!.E.W.W.W.W.W.W.W.R.U R.W.W.W.W.[ l % ",
"W.E.{ N % @ Q W.R.! ! E.W.W.E.{ b.(.E.W.W.W.E.| K B %   I ! ~ X.W.W.W.W.W.W.W.{ P S r 6 F.i.[ E.W.W.W.W.R.[ R.| ( W.W.W.W.[ N @ ",
"W...I B % o Q ' I S L R.W.W.E.R.Q.Q.R.R.W...U I S B - @ Q Q S U E.W.W.W.W.W.W.R.| I r > B.Y U R.W.W.E.W.[ L ..R.U E.W.W.{ P l % ",
"| I S B @ o Q U S S P T.W.W.W.W.W.{ U ..! I S C S B % o F Q S K T.E.W.W.W.W.E.E.[ L t : } K L ' R.E.R.[ K S ....U | { { K S l @ ",
"P K B r @ o x S C L S P ! R.R.E.R.X...U K S S C l r . o $ Q U S U X.W.R.W.{ I L C l r = C A S K I I I S S S I | P ..{ P L N : . ",
"C C N % o @ + q r B S C S K K I K P K S C C S B r - # 2 + % Q K C K K L L S V t t r : @ = t S C B r l r l V S L S L L C C N @ @ ",
"r j * @ # 2 $ . @ r r r r r j r r r r j r t j : @ + p 0 @ o % r r r r r r r r r r % @ @ @ @ r r r r r r r r r r r l r r r * @ , ",
"@ o @ + p h q @ . @ @ @ = o @ @ @ o @ @ o @ @ @ @ o @ @ o . o @ @ @ @ . @ @ @ = r @ . w = @ @ . @ . @ @ o @ @ @ . @ @ @ @ o # s "
};
