/* XPM */
static char *_3d52282e10947f4b18e2ece59c6021dx6hsVYuQGWjfsfph_6[] = {
/* columns rows colors chars-per-pixel */
"64 64 32 1 ",
"  c #7B861E",
". c #484E0E",
"X c #72654D",
"o c #303506",
"O c #A79673",
"+ c #40344F",
"@ c #A5B13F",
"# c #594F3B",
"$ c #625177",
"% c #B6825C",
"& c #9C6D4D",
"* c #0F0C16",
"= c #CBB78C",
"- c #685E47",
"; c #433616",
": c #745138",
"> c #C38F6C",
", c #56441D",
"< c #D7C600",
"1 c #450002",
"2 c #8E8300",
"3 c #D4CE98",
"4 c #8C3F13",
"5 c #C61015",
"6 c None",
"7 c black",
"8 c black",
"9 c black",
"0 c black",
"q c black",
"w c black",
"e c black",
/* pixels */
"666666666@>%    @@@6666666666666@@@  @   .ooo66666666@@       @6",
"6666666666@>%      @@@66666666@  @@@    . ...oo6666@@  .....: 66",
"6666666666 >%%%%      @@6666@@    @  @     . ..o66@@ .....::.666",
"66666666666 >%%%&&&&.   @@6@. ..        . . .. ..6@ .....::.6666",
"66666666666 >>%%%&&&&...  @. ..              ....o ....:::.66666",
"666666666666 >>%%%%&%&&..  @@.   @@       . . ..  ....:::.666666",
"6666666666666 >>%%&%&%&&&..  @  @.. @   ;. . .     .:::..6666666",
"66666666666666 >%%%:%&%&&&&o    .oo..    o..o    ...:..666666666",
"666666666666666 >>:6:%&%&&&&;  ;o&&oo.  @o oo   ...oo66666666666",
"6666666666666666  66:%%%&&&&&$;&&;;&&;.@.o  o  .:o..o66666666666",
"666666666666666666666:%&%%%%&.$;&&&;&&..o.   ;o:o:o.o66666666666",
"66666666666666666666:%%%&;;%%..$;;&&&;.o...   :;:;+..66666666666",
"66666666666666666666.;;;o..;%.o$$$;ooo......  @;o+...66666666666",
"666666666666666666666666o....  ;o$$$o.ooo...   @o....66666666666",
"66666666666666666===XXX#o...     ;oo.o...o  .   @...o66666666666",
"666666666666666======XX#o..  .o     o.       ;   @.o666666666666",
"6666666666666=O==OO===XX#o  .o.@ ...o.        ;@ @.o666666666666",
"666666666666=O=OOO=O=O=XXo  o.@ ;oo...;;      @.@ @o666666666666",
"66666666666=O=OXXOO=O=OXXo  o@ ;144oo...oo..   @ @@6666666666666",
"666666666666OOOO-XOOOO=OXX.   ;.o;<44;o...oo.   @ @ 666666666666",
"66666666666@@..OO-XOOOOOXXX.     .;o<,1oooo.o.      666666666666",
"6666666666@@....OO-XXOOOOXXX...    ..o<;<1<o.o.  @ .666666666666",
"66666666@@   @. #OXXXXOOOOXXX...     ..o.o....o.  ..666666666666",
"6666666@@ @   ....X#X--OOOOXXXXoo.     @@  ....o...6666666666666",
"666666@@ @   . . .X##XXXOOOOXXXXXoo.   ..o..oo66o.66666666666666",
"66666@@ @   .   ..##X#XXOOOXOXXXX#-o;. ...oo66666666666666666666",
"66666@     .  ..66##XXXXXOOOXOXXXX#X#ooooo#666666666666666666666",
"6666@ @      ..66##XXOXOXOOOOXOXXXX#X#####6666666666666666666666",
"6666@ . . ...666##XXXXOXOO=OOOXOXXXXXX#X#X6666666666666666666666",
"6666   . ...666###XXOXXOOO==OOOOOXXXXXX#X-6666666666666666666666",
"6666  . . .6666##XXXXOXOO=O==OOOOOXOXOXX-o6666666666666666666666",
"6666     . 666,,,XXOXXOOOO=O==OOOOOXOXO--o6666666666666666666666",
"6666       666,;;,,XOXXOO=O=O=O=OOOOOOX-ooo666666666666666666666",
"6666      .66####;;;#XOOXO=O=OOOOOOOOX-;ooo666666666666666666666",
"6666.     .66###XXX;;;,XOOOOOOOOOOXO,6oooo.o66666666666666666666",
"66666     .66##X#X#XX;;;#OOXOOOOXXO,;6ooo.o.66666666666666666666",
"66666.     .6###X#XX#XX;;,XOOXOXXX;;XO6..o...6666666666666666666",
"666666.    .6##XOXOXXXXXX;;,XXXXX;;XOO6.o.....666666666666666666",
"6666666.    .##OXOXOOX####;;,,,,;;#O=X66....o..66666666666666666",
"6666666.     .X#OXOOOXXOOX##;;;;;#O=XX66...o o@66666666666666666",
"66666666.     .###OOXXOOOOO#######OXX.666.o   .66666666666666666",
"666666666. .   .XXOXOOOXOOOO#####XXX  666.    666666666666666666",
"666666666..  ;.@.XXOOXOOOO#.####X#X-  @66    6666666666666666666",
"666666666.    o..XOOOOOO....-####XX  @@666  66666666666666666666",
"666666666   @  oX#OXOO=#... X####X-..666666666666666666666666666",
"666666666 @  @  .XOOO=....  .X####.66666666666666666666666666666",
"666666666  @   .6XXXO#... .  #X###666666666666666666666666666666",
"6666666666   ..666XX;o.. . . @####666666666666666666666666666666",
"66666666666..6666*++$o  . .   @###666666666666666666666666666666",
"66666666666666666*++++.       @###666666666666666666666666666666",
"66666666666666666*+$+$$.       ##6666666666666666666666666666666",
"66666666666666666*+++$+$..     .#6666666666666666666666666666666",
"666666666666666666*+++$$6.      66666666666666666666666666666666",
"6666666666666666666*+++$66      .6666666666666666666666666666666",
"6666666666666666666*+++$$66    ..666666$666666666666666666666666",
"6666666666666666666*+$+++6*6.....666666$*66666666666666666666666",
"6666666666666666666*++$$++$*++++$666666$+*6666666666666666666666",
"6666666666666666666*+++$$++*++++$$$666$+++*666666666666666666666",
"66666666666666666666*++++++*+$+++$$$$$++++*666666666666666666666",
"666666666666666666666**+++**$+++++++++++++*666666666666666666666",
"66666666666666666666666***6*+++++++++++++*6666666666666666666666",
"6666666666666666666666666666*+++++++++++*66666666666666666666666",
"66666666666666666666666666666***********666666666666666666666666",
"6666666666666666666666666666666666666666666666666666666666666666"
};
