/* XPM */
static char *_3d52282e10947f4b18e2ece59c6021dx6hsVYuQGWjfsfph_5[] = {
/* columns rows colors chars-per-pixel */
"64 64 32 1 ",
"  c #7B861E",
". c #484E0E",
"X c #72654D",
"o c #303506",
"O c #A79673",
"+ c #40344F",
"@ c #A5B13F",
"# c #594F3B",
"$ c #625177",
"% c #B6825C",
"& c #9C6D4D",
"* c #0F0C16",
"= c #CBB78C",
"- c #685E47",
"; c #433616",
": c #745138",
"> c #C38F6C",
", c #56441D",
"< c #D7C600",
"1 c #450002",
"2 c #8E8300",
"3 c #D4CE98",
"4 c #8C3F13",
"5 c #C61015",
"6 c None",
"7 c black",
"8 c black",
"9 c black",
"0 c black",
"q c black",
"w c black",
"e c black",
/* pixels */
"6666666666@@    6666666666666666666@   .oo6666666666666@@@@@@@66",
"666666666@>%    @@@6666666666666@@@  @   .ooo66666666@@       @6",
"6666666666@>%      @@@66666666@  @@@    . ...oo6666@@  .....: 66",
"6666666666 >%%%%      @@6666@@    @  @     . ..o66@@ .....::.666",
"66666666666 >%%%&&&&.   @@6@. ..        . . .. ..6@ .....::.6666",
"66666666666 >>%%%&&&&...  @. ..              ....o ....:::.66666",
"666666666666 >>%%%%&%&&..  @@.   @@       . . ..  ....:::.666666",
"6666666666666 >>%%&%&%&&&..  @  @.. @   o. . ;     .:::..6666666",
"66666666666666 >%%%:%&%&&&&o    .oo..    o..o    ...:..666666666",
"666666666666666 >>:6:%&%&&&&;  .o&&oo.  @o oo   ...oo66666666666",
"6666666666666666  66:%%%&&&&&$o&<33&&;.@.o  o  ;&o..o66666666666",
"666666666666666666666:%&%%%%&.$;&&353&..o.   .o53&;.o66666666666",
"66666666666666666666:>%%&;;%%..$oo&&&;.o...   &&&;+..66666666666",
"66666666666666666666.;;;;..;%.o$$$;;;o......  @.;+...66666666666",
"66666666666666666===XXX#o...,  ;o$$$o.ooo...   @o....66666666666",
"666666666666666======XX#o...     ooo.o...o  .   @...o66666666666",
"6666666666666=O==OO===XXo..  .o     o.       ;   @.o666666666666",
"66666666666@@@##OO=O=O=XXo  .o.@ ...o.        ;@ @.o666666666666",
"6666666666@@  @..OO=O=OXXo  o.@ ooo...oo      @.@ @o666666666666",
"66666666@   @  . #OOOO=OXo  o@ ;144oo...oo..   @ @@6666666666666",
"6666666@  @   @ ...OOOOOXX.   o.oo<44oo...oo.   @ @ 666666666666",
"66666@@ @@ .  .. ..XXOOOOXX.     ..o<,1oooo.o.      666666666666",
"6666@@  @ .    ...XXXXOOOOXX...    ..o<;<1<o.o.  @ .666666666666",
"6666@. .      ..6#X#X--OOOOXX...     .;o;o;...o.  ..666666666666",
"666@  . .   ..666#X##XXXOOOOXXXoo.     @@  ....o...6666666666666",
"666@ . . ...66666###X#XXOOOXOXXXXo;.   ..;..oo66o.66666666666666",
"666@    .666666666##XXXXXOOOXOXXXX#oo. ...oo66666666666666666666",
"666@   .666666666##XXOXOXOOOOXOXXXX#Xooooo6666666666666666666666",
"666    .66666666##XXXXOXOO=OOOXOXXXXXX#X#X6666666666666666666666",
"666    .6666666###XXOXXOOO==OOOOOXXXXXX#X-o666666666666666666666",
"666    .6666666##XXXXOXOO=O==OOOOOXOXOXX-oo666666666666666666666",
"666    .666666,,,XXOXXOOOO=O==OOOOOXOXO--oo.o.666...666666666666",
"666    .666666,;;,,XOXXOO=O=O=O=OOOOOOX-oooo.....  @.66666666666",
"666    .66666####;;;#XOOXO=O=OOOOOOOOX-;ooo.o...o... .6666666666",
"666     .6666###XX#;;;,XOOOOOOOOOOXO,oo6oooo.ooo     .6666666666",
"666.     .666##X#XXXX;;;#OOXOOOOXXO,;666oo.o...o     .6666666666",
"66.      .666###X#XXXXX;;,XOOXOXXX;;XO666oo....o     .6666666666",
"66.    ; .666##XOXOXXXX##;;,XXXXX;;XOO6666666666o   .66666666666",
"66.@ @ o@.666##OXOXOOOXXX#;;,,,,;;#O=X66666666666...666666666666",
"66.@ @ o.6666##XOXOOOXXXOX##;;;;;#O=XX66666666666666666666666666",
"66o.  .o666666##XOOOXXOOXOOOO#####OXX666666666666666666666666666",
"666o.;o66666666XXXOXOOOOOOOOOO###XXX6666666666666666666666666666",
"6666666666666666XXXOOOOOO;;;;..#X#X-6666666666666666666666666666",
"6666666666666666*XXXOOO.;.....  #XX66666666666666666666666666666",
"666666666666666*+++XXO;.. . . .  X-66666666666666666666666666666",
"66666666666666*+++++X;.. . .      666666666666666666666666666666",
"66666666666666*++++$$+6.. .       @66666666666666666666666666666",
"66666666666666*+++$$$+6...  .      @6666666666666666666666666666",
"66666666666666*+++$$$+666...        6666666666666666666666666666",
"666666666666666*++$$$+66666... .    6666666666666666666666666666",
"666666666666666*++$$+66666666.       666666666666666666666666666",
"666666666666666*++$$+666666666.  ;   666666666666666666666666666",
"666666666666666*+++++6*666666#X   o  666666666666666666666666666",
"666666666666666*++$$++$*66666##      666666666666666666666666666",
"666666666666666*+++$$++*6666###6.     666666$6666666666666666666",
"6666666666666666*++++++*666###666.....666666$*666666666666666666",
"66666666666666666**+++*6666666666++++$666666$+*66666666666666666",
"6666666666666666666***6666666666*++++$$$666$+++*6666666666666666",
"66666666666666666666666666666666*+$+++$$$$$++++*6666666666666666",
"66666666666666666666666666666666*$+++++++++++++*6666666666666666",
"66666666666666666666666666666666*+++++++++++++*66666666666666666",
"666666666666666666666666666666666*+++++++++++*666666666666666666",
"6666666666666666666666666666666666***********6666666666666666666",
"6666666666666666666666666666666666666666666666666666666666666666"
};
