/* XPM */
static char *_3d52282e10947f4b18e2ece59c6021dx6hsVYuQGWjfsfph_1[] = {
/* columns rows colors chars-per-pixel */
"64 64 32 1 ",
"  c #7B861E",
". c #484E0E",
"X c #72654D",
"o c #303506",
"O c #A79673",
"+ c #40344F",
"@ c #A5B13F",
"# c #594F3B",
"$ c #625177",
"% c #B6825C",
"& c #9C6D4D",
"* c #0F0C16",
"= c #CBB78C",
"- c #685E47",
"; c #433616",
": c #745138",
"> c #C38F6C",
", c #56441D",
"< c #D7C600",
"1 c #450002",
"2 c #8E8300",
"3 c #D4CE98",
"4 c #8C3F13",
"5 c #C61015",
"6 c None",
"7 c black",
"8 c black",
"9 c black",
"0 c black",
"q c black",
"w c black",
"e c black",
/* pixels */
"6666666666@@    6666666666666666666@   .oo6666666666666@@@@@@@66",
"666666666@>%    @@@6666666666666@@@  @   .ooo66666666@@       @6",
"6666666666@>%      @@@66666666@  @@@    . ...oo6666@@  .....: 66",
"6666666666 >%%%%      @@6666@@    @  @     . ..o66@@ .....::.666",
"66666666666 >%%%&&&&.   @@6@. ..        . . .. ..6@ .....::.6666",
"66666666666 >>%%%&&&&...  @. ..              ....o ....:::.66666",
"666666666666 >>%%%%&%&&..  @@.   @@       . . ..  ....:::.666666",
"6666666666666 >>%%&%&%&&&..  @  @.. @   o. . ;     .:::..6666666",
"66666666666666 >%%%:%&%&&&&o    .oo..    o..o    ...:..666666666",
"666666666666666 >>:6:%&%&&&&;  .o22oo.  @o oo   ...oo66666666666",
"6666666666666666  66:%%%&&&&&$o2<3352;.@.o  o  ;2o..o66666666666",
"666666666666666666666:%&%%%%&.$;<<3532..o.   .o53<..o66666666666",
"66666666666666666666:>%%&;;%%..$;;<<<..o...   2<<.+..66666666666",
"66666666666666666666.;;;;..;%.o$$$...o......  @..+...66666666666",
"6666666666666666OOXXXXXXo...,  ;o$$$o.ooo...   @o....66666666666",
"66666666666666=OOOOOXXXXo...     ooo.o...o  .   @...o66666666666",
"6666666666666=OOOOXOOXXXo..  .o     o.       ;   @.o666666666666",
"666666666666=OOOXXOOOXXXXo  .o.@ ...o.        ;@ @.o666666666666",
"66666666666==OXXXXXXOOXXXo  o.@ ooo...oo      @.@ @o666666666666",
"666666666666==;oooooXOOXXo  o@ ;144oo...oo..   @ @@6666666666666",
"6666666666666;....oooXOOXX.   o.oo<44oo...oo.   @ @ 666666666666",
"6666666666666.      oOXOOXX.     ..o<,1oooo.o.      666666666666",
"666666666666@@  . . .XOOOOXX...    ..o<;<1<o.o.  @ .666666666666",
"666666666666@  .    .XOXOOOXX...     .;o;o;...o.  ..666666666666",
"666666666666@@   . ..XXOOOOOXXXoo.     @@  ....o...6666666666666",
"666666666666@       .XXXOOOXOXXXXo;.   ..;..oo66o.66666666666666",
"666666666666@@      .XXXXOOOXOXXX##oo. ...oo66666666666666666666",
"666666666666@       .OXOXOOOOXOXXX###ooooo6666666666666666666666",
"666666666666@@     .XXOXOO=OOOXOXXXXX#####6666666666666666666666",
"6666666666666@      .XXOOO==OOOO.@XXXXX##-6666666666666666666666",
"6666666666666 @   .  .XOO=O==OO#..;OXOXX-66666666666666666666666",
"6666666666666@ @ . .  .OOO=O==. .o ;OXO--66666666666666666666666",
"66666666666666@   . .    =O=O-  o   .OX-666666666666666666666666",
"66666666666666-                   @ oX-6666666666666666666666666",
"6666666666666###..             . @  o666666666666666666666666666",
"6666666666666####......     .   .  @;666666666666666666666666666",
"666666666666####XXX......  ..    .@;XOOO666666666666666666666666",
"666666666666###XOXOXOXXX...........XOO=OO66666666666666666666666",
"666666666666##XOXOXOOOOXXX;;,,,,;;#O=XXXXX6666666666666666666666",
"6666666666666XXXOXOOOX-OOXX#;;;;;#O=XXXXXX6666666666666666666666",
"6666666666666-XXXOOOOOOXXOX#######OXXXX---6666666666666666666666",
"66666666666666-XOXOOOOOO=OO######XXXX-...o6666666666666666666666",
"66666666666666-XXOOOOOOO=OX-####XXX-X.... o666666666666666666666",
"666666666666666-XXOOOO#.XXXX-###XXX-.o....  66666666666666666666",
"6666666666666666XOO...   .##X####X-X..o. .   6666666666666666666",
"6666666666666666         .X##X####-6.......   666666666666666666",
"666666666666666          .XXX#X###-6o.... ..  666666666666666666",
"66666666666666           .6XXX####-66o......  @66666666666666666",
"66666666666666  o       o666-XX###-666oo.....@@66666666666666666",
"666666666666   .       .6666-XX###-66666...... 66666666666666666",
"66666666666*.        ;o666666-X###6666666o ... 66666666666666666",
"6666666666*+..     ;o666666666X##-6666666o ... 66666666666666666",
"666666666*+++..  oo6666666666-X##-6666666o ... 66666666666666666",
"66666666*+++++..o666666666666-XX-666666666o .. 66666666666666666",
"66666666*++++$$+66666666666666-X-6666666666... 66666666666666666",
"66666666*+++$$$+666666666666666-66666666666..  6666666*666666666",
"66666666*+++$$$+666666666666666666666666666*+++$666666$*66666666",
"666666666*++$$$+66666666666666666666666666*++++$$$666$++*6666666",
"666666666*++$$+666666666666666666666666666*+$+++$$$$$+++*6666666",
"666666666*++$$+666666666666666666666666666*$++++++++++++*6666666",
"666666666*+++++6*6666666666666666666666666*++++++++++++*66666666",
"666666666*++$$++$*6666666666666666666666666*++++++++++*666666666",
"666666666*+++$$++*66666666666666666666666666**********6666666666",
"6666666666*++++++*6666666666666666666666666666666666666666666666"
};
