/* XPM */
static char *_3d52282e10947f4b18e2ece59c6021dx6hsVYuQGWjfsfph_7[] = {
/* columns rows colors chars-per-pixel */
"64 64 32 1 ",
"  c #7B861E",
". c #484E0E",
"X c #72654D",
"o c #303506",
"O c #A79673",
"+ c #40344F",
"@ c #A5B13F",
"# c #594F3B",
"$ c #625177",
"% c #B6825C",
"& c #9C6D4D",
"* c #0F0C16",
"= c #CBB78C",
"- c #685E47",
"; c #433616",
": c #745138",
"> c #C38F6C",
", c #56441D",
"< c #D7C600",
"1 c #450002",
"2 c #8E8300",
"3 c #D4CE98",
"4 c #8C3F13",
"5 c #C61015",
"6 c None",
"7 c black",
"8 c black",
"9 c black",
"0 c black",
"q c black",
"w c black",
"e c black",
/* pixels */
"6666666666@>%      @@@66666666@  @@@    . ...oo6666@@  .....: 66",
"6666666666 >%%%%      @@6666@@    @  @     . ..o66@@ .....::.666",
"66666666666 >%%%&&&&.   @@6@. ..        . . .. ..6@ .....::.6666",
"66666666666 >>%%%&&&&...  @. ..              ....o ....:::.66666",
"666666666666 >>%%%%&%&&..  @@.   @@       . . ..  ....:::.666666",
"6666666666666 >>%%&%&%&&&..  @  @.. @   o. . ;     .:::..6666666",
"66666666666666 >%%%:%&%&&&&;    .oo..    o..;    ...:..666666666",
"666666666666666 >>:6:%&%&&&&;  ;o&&oo.  @o oo   ...oo66666666666",
"6666666666666666  66:%%%&&&&&$o&<33&&;.@.o  o  ;&o..o66666666666",
"666666666666666666666:%&%%%%&#$;&&353&..o.   .;53&;.o66666666666",
"66666666666666666666:>%%&;;%%..$;;&&&;.o...   &&&;+..66666666666",
"66666666666666666666.;;;;..;%.o$$$;;;o......  @.;+...66666666666",
"666666666666666666666666o....  oo$$$o.ooo...   @o....66666666666",
"66666666666666666===XXX#o...     ooo.o...o  .   @...o66666666666",
"666666666666666======XX#o..  .;     o.       .   @.o666666666666",
"6666666666666=O==OO===XX#o  .o.@ ...o.        o@ @.o666666666666",
"666666666666=O=OOO=O=O=XXo  o.@ ooo...oo      @.@ @o666666666666",
"66666666666=O=OXXOO=O=OXXo  o@ .144oo...;;..   @ @@6666666666666",
"666666666666OOOO-XOOOO=OXX.   o.oo<44;o...oo.   @ @ 666666666666",
"66666666666@#.XOO-XOOOOOXXX.     ..;<,1oooo.o.      666666666666",
"6666666666@....-OO-XXOOOOXXX...    .;o<;<1<o.o.  @ .666666666666",
"666666666@@ @...#OXXXXOOOOXXX...     ..o.o....o.  ..666666666666",
"66666666@@    ...-X#X-XOOOOXXXXo;.     @@  ....o...6666666666666",
"6666666@@ @  . ..#X##XX-OOOOXXXXXoo.   .;o..oo66o.66666666666666",
"666666@@ @  .  ..###X#XXOOOXOXXXX#Xoo. ...oo66666666666666666666",
"666666@ @  .  ..66##XXXXXOOOXOXXXX#X#o;ooo#666666666666666666666",
"66666@       ..66##XXOXOXOOOOXOXXXX#X#####6666666666666666666666",
"66666      ...66##XXXXOXOO=OOOXOXXXXXX#X#X6666666666666666666666",
"66666  . . ..66###XXOXXOOO==OOOOOXXXXXX#X-6666666666666666666666",
"6666@   . ..666##XXXXOXOO=O==OOOOOXOXOXX-66666666666666666666666",
"6666   . . .66,,,XXOXXOOOO=O==OOOOOXOXO--66666666666666666666666",
"6666      . 66,;;,,XOX-OO=O=O=O=OOOOOO--666666666666666666666666",
"66666       .6###;;;#XOOXO=O=OOOOOOOOX-oo66666666666666666666666",
"66666       .###XXX;;;#XOOOOOOOOOOXO,oooo66666666666666666666666",
"66666.      .##X#X#XX;;;,OOXOOOOXXO,;ooo.o6666666666666666666666",
"666666.      .##X#XX#XX;;#XOOXOXXX,;XOo.o.6666666666666666666666",
"6666666.     .#XOXOXX#XXX;;,XXXXX;;XOO.o...666666666666666666666",
"66666666.     .OXOXOX#####;;,,,,;;#O=Xo.....66666666666666666666",
"666666666.       #=OOXXX####;;;;;#O=XX....o..6666666666666666666",
"6666666666.       .OOOOOX#########OXX;o..o  @6666666666666666666",
"66666666666.    o. .OOOOO#####XXXo;ooooo.    6666666666666666666",
"666666666666     o.....OO####X#X-oo.oo. o   66666666666666666666",
"666666666666   @  oo.ooXX-####XXoo.      o 666666666666666666666",
"666666666666 @  @  ... X#X#####-o.       .;666666666666666666666",
"666666666666  @   .. ..X##X####o.        oo666666666666666666666",
"6666666666666.  ...    #XX#X###..     ...66666666666666666666666",
"66666666666666..oo     6#XX####.    ...6666666666666666666666666",
"6666666666666666       @6##X###   ;oo666666666666666666666666666",
"6666666666666666.      @6#X####;oo666666666666666666666666666666",
"6666666666666666.     @666#X##++$6666666666666666666666666666666",
"6666666666666666.     6666####++$$666666666666666666666666666666",
"6666666666666666      6666#X#+$+++6*6666666666666666666666666666",
"666666666666666  $$$$ 6666##*++$$++$*666666666666666666666666666",
"666666666666666 $++++$6666#6*+++$$++*666666666666666666666666666",
"666666666666666++++++++66#666*++++++*666666666666666666666666666",
"666666666666666*++++++$6666666**+++*6666666666666666666666666666",
"666666666666666*+++++$$$6666$666***66666666666666666666666666666",
"6666666666666666*++++$$$$66$++6666666666666666666666666666666666",
"666666666666666666++++$$$$$+$+*666666666666666666666666666666666",
"6666666666666666666+++++$$$+++*666666666666666666666666666666666",
"66666666666666666666++++++++++*666666666666666666666666666666666",
"666666666666666666666*+++++++*6666666666666666666666666666666666",
"6666666666666666666666*******66666666666666666666666666666666666",
"6666666666666666666666666666666666666666666666666666666666666666"
};
