/* XPM */
static char *_3d52282e10947f4b18e2ece59c6021dx6hsVYuQGWjfsfph_3[] = {
/* columns rows colors chars-per-pixel */
"64 64 32 1 ",
"  c #7B861E",
". c #484E0E",
"X c #72654D",
"o c #303506",
"O c #A79673",
"+ c #40344F",
"@ c #A5B13F",
"# c #594F3B",
"$ c #625177",
"% c #B6825C",
"& c #9C6D4D",
"* c #0F0C16",
"= c #CBB78C",
"- c #685E47",
"; c #433616",
": c #745138",
"> c #C38F6C",
", c #56441D",
"< c #D7C600",
"1 c #450002",
"2 c #8E8300",
"3 c #D4CE98",
"4 c #8C3F13",
"5 c #C61015",
"6 c None",
"7 c black",
"8 c black",
"9 c black",
"0 c black",
"q c black",
"w c black",
"e c black",
/* pixels */
"6666666666@>%      @@@66666666@  @@@    . ...oo6666@@  .....: 66",
"6666666666 >%%%%      @@6666@@    @  @     . ..o66@@ .....::.666",
"66666666666 >%%%&&&&.   @@6@. ..        . . .. ..6@ .....::.6666",
"66666666666 >>%%%&&&&...  @. ..              ....o ....:::.66666",
"666666666666 >>%%%%&%&&..  @@.   @@       . . ..  ....:::.666666",
"6666666666666 >>%%&%&%&&&..  @  @.. @   o. . ;     .:::..6666666",
"66666666666666 >%%%:%&%&&&&;    .oo..    o..;    ...:..666666666",
"666666666666666 >>:6:%&%&&&&;  ;o22oo.  @o oo   ...oo66666666666",
"6666666666666666  66:%%%&&&&&$o2<3352;.@.o  o  ;2o..o66666666666",
"666666666666666666666:%&%%%%&#$;<<3532..o.   .;53<..o66666666666",
"66666666666666666666:>%%&;;%%..$..<<<..o...   2<<.+..66666666666",
"66666666666666666666.;;;;..;%.o$$$...o......  @..+...66666666666",
"666666666666666666666666o....  oo$$$o.ooo...   @o....66666666666",
"666666666666666666666666o...     ooo.o...o  .   @...o66666666666",
"66666666666666666===XXX#o..  .;     o.       .   @.o666666666666",
"666666666666666======XX##o  .o.@ ...o.        o@ @.o666666666666",
"6666666666666=O==OO===XX#o  o.@ ooo...oo      @.@ @o666666666666",
"666666666666=O=OOO=O=O=XXo  o@ .144oo...;;..   @ @@6666666666666",
"66666666666=O=OXXOO=O=OXXX.   o.oo<44;o...oo.   @ @ 666666666666",
"66666666666@@-OO-XOOOO=OXXX.     ..;<,1oooo.o.      666666666666",
"666666666@@....OO-XOOOOOXXXX...    .;o<;<1<o.o.  @ .666666666666",
"6666666@@   @...OO-XXOOOOXXXX...     ..o.o....o.  ..666666666666",
"666666@  @   . .#OXXXXOOOOXXXXXo;.     @@  ....o...6666666666666",
"66666@ @@   .....#X#X--OOOOXXXXX#oo.   .;o..oo66o.66666666666666",
"6666@  @   .  ...#X##XXXOOOOXXXXXX#oo. ...oo66666666666666666666",
"6666@     . .6666###X#XXOOOXOXXXX#X##o;oooo666666666666666666666",
"666@. .    .666666##XXXXXOOOXOXXXX#X#######666666666666666666666",
"66@@ .  ...666666##XXOXOXOOOOXOXXXX#X#####o666666666666666666666",
"66  . ....666666##XXXXOXOO=OOOXOXXXXXX#X#Xooo6666666666666666666",
"66 @ .  .666666###XXOXXOOO==OOOOOXXXXXX#X-oo.o 66666666666666666",
"66     .6666666##XXXXOXOO=O==OOOOOXOXOXX-oooo.. 6666666666666666",
"66      666666,,,XXOXXOOOO=O==OOOOOXOXO--o.o.... 666666666666666",
"66     .666666,;;,,XOXXOO=O=O=O=OOOOOOX-ooo..o......666666666666",
"66     .66666####;;;#XOOXO=O=OOOOOOOOX-66ooo..o...  .66666666666",
"66     .66666###XXX;;;,XOOOOOOOOOOXO,666666o......o .66666666666",
"66     .66666##X#XXXX;;;#OOXOOOOXXO,;6666666o....o ;@66666666666",
"666    .66666X##XXXOXXX;;,XOOXOXXX;;XO66666666..o  ..66666666666",
"666     .6666-#XOXOXOXXXX;;,XXXXX;;XOO66666666.o    .66666666666",
"6666    .6666XXOXOXOOOXXXX;;,,,,;;#O=Xo66666666.   .666666666666",
"6666    ..666XXXOXOOOX-OOXXoo;;;;#O=XXo666666666...6666666666666",
"6666. .   .66-XXXOOOXXOXXo.  @####OXX;o6666666666666666666666666",
"6666..  ; @.66-XOXOXOOOOo      ##XXX;oo6666666666666666666666666",
"6666.    o..66-XXOXOOOO.        X#X-ooo6666666666666666666666666",
"6666   @  o6666-XXOOOO.  .      @XXooo66666666666666666666666666",
"6666 @  @  .6666XXXOO.. o.      @X-oo666666666666666666666666666",
"6666  @   .6666X-XXO.o..o      ..# 66666666666666666666666666666",
"66666   ..666XXXXOO.o..o     ...##666666666666666666666666666666",
"666666..666666XXOo**ooo     ...###666666666666666666666666666666",
"666666666666666Xo+++*o    ..##X###666666666666666666666666666666",
"666666666666666*++$++*   ;oo#X####666666666666666666666666666666",
"66666666666666*+++++$$  +6oo6#X###666666666666666666666666666666",
"66666666666666*++$+$$$ ++66666###6666666666666666666666666666666",
"66666666666666*+++$$$$++$$66666##6666666666666666666666666666666",
"66666666666666*++$+$$+++$$$66$6X-6666666666666666666666666666666",
"666666666666666*++$$$+++$$$$$$+6-6666666666666666666666666666666",
"6666666666666666*++$$*+++$$$$$+666666666666666666666666666666666",
"6666666666666666*+$$$$*++++++++666666666666666666666666666666666",
"6666666666666666*++$$$6$++++++6666666666666666666666666666666666",
"6666666666666666*++$+$$$*****66666666666666666666666666666666666",
"6666666666666666*+++$$++*666666666666666666666666666666666666666",
"66666666666666666*++++++*666666666666666666666666666666666666666",
"666666666666666666**+++*6666666666666666666666666666666666666666",
"66666666666666666666***66666666666666666666666666666666666666666",
"6666666666666666666666666666666666666666666666666666666666666666"
};
