/* XPM */
static char *_3d52282e10947f4b18e2ece59c6021dx6hsVYuQGWjfsfph_4[] = {
/* columns rows colors chars-per-pixel */
"64 64 32 1 ",
"  c #7B861E",
". c #484E0E",
"X c #72654D",
"o c #303506",
"O c #A79673",
"+ c #40344F",
"@ c #A5B13F",
"# c #594F3B",
"$ c #625177",
"% c #B6825C",
"& c #9C6D4D",
"* c #0F0C16",
"= c #CBB78C",
"- c #685E47",
"; c #433616",
": c #745138",
"> c #C38F6C",
", c #56441D",
"< c #D7C600",
"1 c #450002",
"2 c #8E8300",
"3 c #D4CE98",
"4 c #8C3F13",
"5 c #C61015",
"6 c None",
"7 c black",
"8 c black",
"9 c black",
"0 c black",
"q c black",
"w c black",
"e c black",
/* pixels */
"666666666@>%    @@@6666666666666@@@  @   .ooo66666666@@       @6",
"6666666666@>%      @@@66666666@  @@@    . ...oo6666@@  .....: 66",
"6666666666 >%%%%      @@6666@@    @  @     . ..o66@@ .....::.666",
"66666666666 >%%%&&&&.   @@6@. ..        . . .. ..6@ .....::.6666",
"66666666666 >>%%%&&&&...  @. ..              ....o ....:::.66666",
"666666666666 >>%%%%&%&&..  @@.   @@       . . ..  ....:::.666666",
"6666666666666 >>%%&%&%&&&..  @  @.. @   ;. . .     .:::..6666666",
"66666666666666 >%%%:%&%&&&&o    .oo..    o..o    ...:..666666666",
"666666666666666 >>:6:%&%&&&&;  ;o22oo.  @o oo   ...oo66666666666",
"6666666666666666  66:%%%&&&&&$;2<3352;.@.o  o  .2o..o66666666666",
"666666666666666666666:%&%%%%&.$;<<3532..o.   ;o53<..o66666666666",
"66666666666666666666:%%%&;;%%..$..<<<..o...   2<<.+..66666666666",
"66666666666666666666.;;;o..;%.o$$$;;;o......  @.;+...66666666666",
"66666666666666666===XXX#o....  ;o$$$o.ooo...   @o....66666666666",
"666666666666666======XX#o...     ;oo.o...o  .   @...o66666666666",
"6666666666666=O==OO===XXo..  .o     o.       ;   @.o666666666666",
"666666666666=O=OOO=O=O=XXo  .o.@ ...o.        ;@ @.o666666666666",
"66666666666@@#OXXOO=O=OXXo  o.@ ;oo...;;      @.@ @o666666666666",
"666666666@@....O-XOOOO=OXo  o@ ;144oo...oo..   @ @@6666666666666",
"6666666@@   @...O-XOOOOOXX.   ;.o;<44;o...oo.   @ @ 666666666666",
"666666@  @   . ..O-XXOOOOXX.     .;o<,1oooo.o.      666666666666",
"66666@ @@   .....OXXXXOOOOXX...    ..o<;<1<o.o.  @ .666666666666",
"6666@  @   .  ...-X#X-XOOOOXX...     ..o.o....o.  ..666666666666",
"6666@     . .6666#X##XX-OOOOXXXoo.     @@  ....o...6666666666666",
"666@. .    .66666###X#XXOOOXOXXXXoo.   ..o..oo66o.66666666666666",
"66@@ .  ...6666666##XXXXXOOOXOXXXX#o;. ...oo66666666666666666666",
"66  . ....6666666##XXOXOXOOOOXOXXXX#Xooooo6666666666666666666666",
"66 @ .  .6666666##XXXXOXOO=OOOXOXXXXXX#X#X6666666666666666666666",
"66     .6666666###XXOXXOOO==OOOOOXXXXXX#X-o666666666666666666666",
"66      6666666##XXXXOXOO=O==OOOOOXOXOXX-ooo66666666666666666666",
"66     .666666,,,XXOXXOOOO=O==OOOOOXOXO--ooo.o.666...66666666666",
"66     .666666,;;,,XOX-OO=O=O=O=OOOOOO--oo.oo.....  @.6666666666",
"66     .66666####;;;#XOOXO=O=OOOOOOOOX-ooooo.o...o... .666666666",
"66     .66666###XXX;;;#XOOOOOOOOOOXO,oooo.ooo.ooo     .666666666",
"666    .66666##X#XXXX;;;,OOXOOOOXXO,;6666oo.o...o     .666666666",
"666     .6666X##XXXOXXX;;#XOOXOXXX,;XO6666oo....o     .666666666",
"6666    .6666-#XOXOXOXXXX;;,XXXXX;;XOO66666666666o   .6666666666",
"6666    ..666XXOXOXOOOXXXX;;,,,,;;#O=X666666666666...66666666666",
"6666. .   .66XXXOXOOOX-OOXX#;;;;;#O=XX66666666666666666666666666",
"6666..  o @.6-XXXOOOXXOX-OX#######OXX666666666666666666666666666",
"6666.    ;..66-XOXOXOOOO=OO######XXX6666666666666666666666666666",
"6666   @  o666-XXOXOOOOO=OX-####X#X-6666666666666666666666666666",
"6666 @  @  .666-XXOOOOO.;;o..####XX66666666666666666666666666666",
"6666  @   .66666XXXOO.;.....  ###X-66666666666666666666666666666",
"66666   ..666666XOXO;.. . . .  ###666666666666666666666666666666",
"666666..66666666XXX;.. . .      ##666666666666666666666666666666",
"66666666666666666XX6o.. .       ##666666666666666666666666666666",
"6666666666666666666oo...  .    @@#666666666666666666666666666666",
"6666666666666666666oooo...      @#666666666666666666666666666666",
"6666666666666666666o...oo... .    666666666666666666666666666666",
"666666666666666666...  .o66.      6666666$**66666666666666666666",
"66666666666666666*+.... 6666.  ;   666666$++*6666666666666666666",
"6666666666666666++++.  666666   o   666666$++*666666666666666666",
"666666666666666*++++++6666666       66666$$+++*66666666666666666",
"666666666666666*+++$$666666666      .66$$$$+++*66666666666666666",
"666666666666666*+++$$6666666666    .+$$$$$$+++*66666666666666666",
"666666666666666*++++$$6666666666  .+$+$$+++++*666666666666666666",
"666666666666666*+++$+$$6666666666.++$$++$+++*6666666666666666666",
"666666666666666*++++$$$$6$6666666*+++++++++*66666666666666666666",
"6666666666666666*+++$$+$$$+666666*++$+$++*6666666666666666666666",
"66666666666666666*+++$$$$++6666666*+++++*66666666666666666666666",
"666666666666666666*++++++++6666666*++++*666666666666666666666666",
"66666666666666666666++++++666666666****6666666666666666666666666",
"6666666666666666666666666666666666666666666666666666666666666666"
};
