/* XPM */
static char *_3d52282e10947f4b18e2ece59c6021dx6hsVYuQGWjfsfph_0[] = {
/* columns rows colors chars-per-pixel */
"64 64 32 1 ",
"  c #7B861E",
". c #484E0E",
"X c #72654D",
"o c #303506",
"O c #A79673",
"+ c #40344F",
"@ c #A5B13F",
"# c #594F3B",
"$ c #625177",
"% c #B6825C",
"& c #9C6D4D",
"* c #0F0C16",
"= c #CBB78C",
"- c #685E47",
"; c #433616",
": c #745138",
"> c #C38F6C",
", c #56441D",
"< c #D7C600",
"1 c #450002",
"2 c #8E8300",
"3 c #D4CE98",
"4 c #8C3F13",
"5 c #C61015",
"6 c None",
"7 c black",
"8 c black",
"9 c black",
"0 c black",
"q c black",
"w c black",
"e c black",
/* pixels */
"666666666@>%    @@@6666666666666@@@  @   .ooo66666666@@       @6",
"6666666666@>%      @@@66666666@  @@@    . ...oo6666@@  .....: 66",
"6666666666 >%%%%      @@6666@@    @  @     . ..o66@@ .....::.666",
"66666666666 >%%%&&&&.   @@6@. ..        . . .. ..6@ .....::.6666",
"66666666666 >>%%%&&&&...  @. ..              ....o ....:::.66666",
"666666666666 >>%%%%&%&&..  @@.   @@       . . ..  ....:::.666666",
"6666666666666 >>%%&%&%&&&..  @  @.. @   ;. . .     .:::..6666666",
"66666666666666 >%%%:%&%&&&&o    .oo..    o..o    ...:..666666666",
"666666666666666 >>:6:%&%&&&&;  ;o22oo.  @o oo   ...oo66666666666",
"6666666666666666  66:%%%&&&&&$;2<3352;.@.o  o  .2o..o66666666666",
"666666666666666666666:%&%%%%&.$;<<3532..o.   ;o53<..o66666666666",
"66666666666666666666:%%%&;;%%..$..<<<..o...   2<<.+..66666666666",
"66666666666666666666.;;;o..;%.o$$$;;;o......  @.;+...66666666666",
"6666666666666666OOXXXXXXo....  ;o$$$o.ooo...   @o....66666666666",
"66666666666666=OOOOOXXXXo...     ;oo.o...o  .   @...o66666666666",
"6666666666666=OOOOXOOXXXo..  .o     o.       ;   @.o666666666666",
"666666666666=OOOXXOOOXXXXo  .o.@ ...o.        ;@ @.o666666666666",
"66666666666==OXXXXXXOOXXXo  o.@ ;oo...;;      @.@ @o666666666666",
"666666666666==XoooooXOOXXo  o@ ;144oo...oo..   @ @@6666666666666",
"6666666666666X;......XOOXX.   ;.o;<44;o...oo.   @ @ 666666666666",
"6666666666666...    .OXOOXX.     .;o<,1oooo.o.      666666666666",
"6666666666666@  . . .XOOOOXX...    ..o<;<1<o.o.  @ .666666666666",
"666666666666@@      .XOXOOOXX...     ..o.o....o.  ..666666666666",
"666666666666@  . . ..XXOOOOOXXXoo.     @@  ....o...6666666666666",
"666666666666@@      .XXXOOOXOXXXXoo.   ..o..oo66o.66666666666666",
"666666666666@       .XXXXOOOXOXXX##o;. ...oo66666666666666666666",
"666666666666@@      .OXOXOOOOXO.@Xo##ooooo6666666666666666666666",
"666666666666@       .XOXOO=OOO#..o oX#####6666666666666666666666",
"666666666666@@       .XOOO==O# .o   oXX##-6666666666666666666666",
"6666666666666@@    .  .OO=O=#     @ oOXX-66666666666666666666666",
"66666666666666 @  . .  #       . @  oXO--.6666666666666666666666",
"66666666666666@ @  . .          .  @OO--. .666666666666666666666",
"66666666666666#@            .    .@.OX-  .@.66666666666666666666",
"6666666666666##- ..         ..    .O,oo   ..66666666666666666666",
"6666666666666####X...............XO,;o     .66666666666666666666",
"666666666666####XXXO......XOOXOXXX,;XOOO  .666666666666666666666",
"666666666666###XOXOXOXXXX;;,XXXXX;;XOO=OO.6666666666666666666666",
"666666666666##XOXOXOOOOXXX;;,,,,;;#O=XXXXX6666666666666666666666",
"6666666666666XXXOXOOOXXOOXX#;;;;;#O=XXXXXX6666666666666666666666",
"6666666666666-XXXOOOOOOX-OX#######OXXXX---6666666666666666666666",
"66666666666666-XOXOOOOOO=OO######XXXX-...o6666666666666666666666",
"66666666666666-XXOOOOOOO=OX-####XXX-X.... o666666666666666666666",
"666666666666666-XXOOOOOOXXXX-###XXX-.o....  66666666666666666666",
"6666666666666666XOOOO#.. .##X####X-X..o. .   6666666666666666666",
"6666666666666666-OOO...  .X##X####-oo......   666666666666666666",
"666666666666666XOOO...   .XXX#X###-6oo... .. @666666666666666666",
"66666666666666XOOO#o     .6XXX####-66oo.....  @66666666666666666",
"666666666666666X    o    .66-XX###-666oo... .. 66666666666666666",
"6666666666666666         .66-XX###-66666o...... 6666666666666666",
"66666666666666          @6666-X###6666666......  66666$++6666666",
"66666666666666   o     .666666X##-66666666...... 666666$++666666",
"6666666666666   o     .666666-X##-666666666.....  6666$$+++66666",
"666666666666        .66666666-XX-66666666666......66$$$$+++66666",
"6666666666**+..  . .6666666666-X-666666666666....+$$$$+++++66666",
"666666666*++++... .666666666666-66666666666666..+$+$$+++++*66666",
"66666666*++++$++..6666666666666666666666666666*++$$++++++*666666",
"66666666*+++$$+++66666666666666666666666666666*+++++++++*6666666",
"66666666*++$$$++666666666666666666666666666666*+++++++*666666666",
"66666666*+++$$$+6666666666666666666666666666666*+++++*6666666666",
"66666666*++++$$$+666666666666666666666666666666*++++*66666666666",
"666666666*+++$$$$+6*6666666666666666666666666666****666666666666",
"6666666666*++++****$*6666666666666666666666666666666666666666666",
"66666666666*+++$$$$++*666666666666666666666666666666666666666666",
"666666666666*++++++++*666666666666666666666666666666666666666666"
};
